<svg width="154" height="168" viewBox="0 0 154 168" fill="none" xmlns="http://www.w3.org/2000/svg">
<g opacity="0.7">
<path d="M97.1518 65.1352C97.2498 66.0012 97.9357 66.7914 98.3053 67.6217C98.6527 68.4029 99.4945 68.8627 100.051 69.5948C100.572 70.2778 100.176 71.8804 100.848 72.5009C101.481 73.0856 102.559 73.2954 103.307 73.8133C104.055 74.3311 104.982 74.474 105.783 74.898C106.585 75.3221 107.556 75.1793 108.393 75.5096C109.23 75.8399 109.56 77.6791 110.42 77.9202C111.279 78.1612 112.384 77.5452 113.266 77.6925C114.147 77.8398 115.011 78.6434 115.898 78.6925C116.784 78.7416 117.742 78.0541 118.623 77.9961C119.505 77.938 120.427 77.8532 121.3 77.6791C122.227 77.4961 123.3 77.5988 124.191 77.2908C125.081 76.9827 126.088 76.6837 126.93 76.2596C127.771 75.8355 128.769 75.4426 129.553 74.9114C130.337 74.3802 130.323 72.7642 131.032 72.1348C131.74 71.5054 132.417 70.9027 133.036 70.1885C133.655 69.4742 134.644 69.0412 135.165 68.2511C135.686 67.461 135.183 66.1307 135.601 65.2781C136.02 64.4254 138.126 64.2603 138.429 63.3585C138.692 62.5684 137.209 61.2604 137.387 60.4123C137.565 59.5641 139.48 59.015 139.574 58.1624C139.667 57.3098 138.345 56.3455 138.349 55.4974C138.354 54.6492 137.507 53.8993 137.427 53.0556C137.347 52.2119 137.824 51.3592 137.65 50.5378C137.476 49.7165 137.009 49.029 136.728 48.2433C136.447 47.4577 136.292 46.6809 135.886 45.9533C135.481 45.2257 136.198 43.5829 135.646 42.9579C135.093 42.333 133.397 42.8865 132.693 42.4044C131.931 41.8866 131.758 40.1054 130.911 39.8286C130.065 39.5519 128.912 39.9983 127.999 39.9358C127.086 39.8733 126.226 40.3242 125.309 40.4402C124.44 40.5474 123.754 41.3732 122.863 41.6187C121.973 41.8642 120.552 40.3509 119.697 40.6857C118.842 41.0205 118.45 42.3955 117.635 42.8017C116.82 43.2079 116.374 44.1945 115.59 44.6498C114.807 45.1051 114.049 45.5114 113.301 46.0113C112.553 46.5113 111.31 46.3015 110.593 46.8372C109.876 47.3729 108.914 47.6719 108.233 48.2344C107.551 48.7969 107.596 50.2879 106.946 50.8816C106.26 51.5065 105.694 52.1851 105.084 52.8011C104.416 53.4752 103.231 53.5868 102.674 54.2251C102.131 54.8456 101.721 55.5911 101.205 56.2161C100.688 56.8411 99.8641 57.3053 99.4054 57.9705C98.9467 58.6356 99.49 59.9168 99.1382 60.6355C98.7863 61.3542 97.7798 61.8229 97.615 62.622C97.4502 63.421 97.0493 64.2826 97.1429 65.1307L97.1518 65.1352Z" fill="white"/>
<path d="M115.987 82.0449C115.898 82.0449 115.809 82.0449 115.72 82.036C114.526 81.9691 113.578 81.478 112.95 81.1521C112.896 81.1253 112.834 81.0941 112.776 81.0629C112.718 81.0762 112.665 81.0852 112.611 81.0986C111.876 81.2548 110.767 81.4914 109.534 81.1477C107.895 80.6923 107.048 79.3844 106.572 78.5451C105.93 78.4559 105.098 78.3175 104.234 77.8621C104.096 77.7907 103.833 77.6925 103.574 77.6032C102.955 77.38 102.185 77.1033 101.419 76.572C101.343 76.5229 101.067 76.4069 100.884 76.331C100.247 76.0587 99.3701 75.6837 98.5951 74.9695C97.308 73.782 97.1432 72.1928 97.0675 71.3C97.0541 71.2866 97.0408 71.2777 97.0274 71.2643C96.5197 70.7956 95.7492 70.0858 95.2637 68.9921C95.2103 68.8761 95.09 68.6662 94.9698 68.4654C94.5556 67.7601 93.9855 66.7914 93.8385 65.5191C93.696 64.2647 93.9988 63.2157 94.2215 62.4479C94.275 62.2604 94.3329 62.0729 94.3551 61.9613C94.6135 60.689 95.3572 59.8364 95.8872 59.3141C95.8383 58.4883 95.8605 57.2383 96.6755 56.0643C97.1788 55.3367 97.7846 54.8322 98.2255 54.4573C98.3769 54.3323 98.5818 54.1582 98.6441 54.0867C98.7867 53.9126 98.9559 53.6627 99.1385 53.4037C99.428 52.9841 99.7531 52.5065 100.176 52.0244C100.956 51.1271 101.918 50.7164 102.55 50.4486C102.648 50.4084 102.773 50.3548 102.857 50.3146C103.018 50.1495 103.169 49.9843 103.329 49.8147C103.628 49.4888 103.962 49.1361 104.332 48.7701C104.345 48.7299 104.354 48.6942 104.363 48.6585C104.59 47.8907 104.968 46.6095 106.122 45.6587C106.768 45.1274 107.431 44.7882 107.966 44.5159C108.215 44.3909 108.496 44.2436 108.612 44.1587C109.645 43.3909 110.745 43.2168 111.471 43.1052C111.547 43.0918 111.64 43.0785 111.716 43.0651C112.255 42.7169 112.771 42.4222 113.275 42.1365C113.453 42.0339 113.636 41.9312 113.814 41.8285C113.88 41.7616 113.992 41.6366 114.072 41.5428C114.446 41.1143 114.989 40.4982 115.782 40.0206C115.831 39.9581 115.885 39.8822 115.929 39.8197C116.384 39.1814 117.141 38.1145 118.481 37.5832C120.125 36.9315 121.612 37.5341 122.556 38.0118C123.127 37.6636 123.901 37.2574 124.899 37.1324C125.033 37.1145 125.296 37.0431 125.532 36.9761C126.204 36.7886 127.13 36.5387 128.199 36.6056C128.302 36.6056 128.56 36.5654 128.729 36.5387C129.567 36.4181 130.711 36.2485 131.958 36.6592C133.504 37.1681 134.27 38.3868 134.711 39.293C135.713 39.3287 137.094 39.5519 138.154 40.7527C139.418 42.1901 139.231 43.9355 139.129 44.873C139.129 44.8998 139.124 44.9266 139.12 44.9578C139.374 45.5247 139.539 46.0515 139.677 46.4979C139.739 46.6988 139.801 46.9086 139.877 47.1184C139.931 47.2657 140.029 47.4755 140.135 47.6943C140.389 48.2255 140.732 48.9486 140.924 49.8548C141.164 50.9887 140.959 51.944 140.83 52.5734C140.83 52.5868 140.826 52.5958 140.821 52.6091C141.093 53.0957 141.498 53.8368 141.641 54.7921C141.663 54.8233 141.681 54.8546 141.703 54.8813C142.22 55.6179 143.084 56.8544 142.897 58.5418C142.759 59.8141 142.077 60.698 141.391 61.314C141.752 62.1532 141.997 63.2291 141.596 64.4299C141.057 66.0459 139.726 66.8226 138.759 67.2601C138.741 68.0591 138.612 69.1127 137.949 70.1126C137.339 71.0322 136.568 71.617 136.002 72.041C135.838 72.166 135.615 72.3357 135.544 72.4071C134.902 73.1526 134.23 73.7686 133.58 74.3534C133.557 74.4248 133.531 74.4963 133.513 74.5543C133.237 75.3846 132.773 76.7729 131.437 77.688C130.671 78.2103 129.865 78.5853 129.157 78.9157C128.912 79.0317 128.671 79.1433 128.444 79.2549C127.562 79.7013 126.645 80.0093 125.839 80.2772C125.652 80.3397 125.469 80.4022 125.291 80.4647C124.342 80.795 123.443 80.853 122.717 80.9021C122.423 80.92 122.12 80.9423 121.946 80.978C121.082 81.1477 120.129 81.2637 118.953 81.3396C118.855 81.3709 118.686 81.4334 118.552 81.4825C117.947 81.7101 117.052 82.0494 115.992 82.0494L115.987 82.0449ZM112.967 74.3222C113.235 74.3222 113.52 74.34 113.814 74.3891C114.736 74.5409 115.475 74.9248 116.014 75.2061C116.041 75.2194 116.067 75.2328 116.094 75.2462C116.13 75.2328 116.161 75.2194 116.192 75.2105C116.744 75.0007 117.506 74.715 118.41 74.657C119.345 74.5989 120.058 74.5141 120.659 74.3981C121.243 74.282 121.786 74.2463 122.262 74.215C122.543 74.1972 122.971 74.1659 123.109 74.1258C123.3 74.0588 123.505 73.9918 123.714 73.9204C124.333 73.7106 124.979 73.4963 125.425 73.2731C125.714 73.1258 126.021 72.983 126.333 72.8357C126.618 72.7017 126.912 72.5678 127.171 72.4339C127.171 72.4294 127.171 72.425 127.175 72.4205C127.424 71.6661 127.807 70.5277 128.805 69.6349L128.85 69.5948C129.491 69.0234 130.043 68.5323 130.511 67.9922C131.014 67.4119 131.553 67.0056 131.985 66.6798C132.016 66.6574 132.043 66.6351 132.079 66.6128C132.07 65.8896 132.088 64.8629 132.6 63.8094C133.018 62.9523 133.637 62.3898 134.27 61.9925C134.052 61.3363 133.936 60.5685 134.118 59.7159C134.332 58.7025 134.884 57.9749 135.459 57.4392C135.259 57.0107 135.094 56.5107 135.036 55.9527C135.014 55.917 134.996 55.8813 134.974 55.8411C134.671 55.2965 134.208 54.4706 134.105 53.368C134.02 52.4663 134.181 51.6985 134.292 51.1851C134.301 51.1405 134.31 51.0914 134.323 51.0423C134.265 50.9039 134.185 50.7298 134.109 50.5736C133.954 50.2477 133.762 49.8415 133.593 49.3772C133.482 49.0647 133.388 48.7612 133.294 48.4665C133.183 48.1005 133.085 47.7791 132.983 47.6005C132.649 47.0023 132.497 46.4041 132.439 45.8506C131.914 45.7435 131.357 45.5426 130.818 45.1765C130.003 44.6185 129.513 43.8775 129.179 43.2302C128.783 43.2793 128.337 43.315 127.861 43.2883C127.741 43.3106 127.487 43.3775 127.295 43.4311C126.939 43.5293 126.511 43.6454 126.026 43.7257C125.959 43.7659 125.874 43.8195 125.808 43.8641C125.322 44.1766 124.654 44.6052 123.754 44.8507C122.574 45.1765 121.523 44.8998 120.704 44.556C120.347 44.9623 119.898 45.3774 119.314 45.7033C119.247 45.7747 119.154 45.8819 119.082 45.9622C118.677 46.422 118.125 47.0514 117.288 47.5425C117.047 47.6809 116.811 47.8192 116.575 47.9532C116.072 48.2389 115.595 48.5112 115.163 48.8013C114.183 49.4531 113.168 49.6138 112.491 49.7165C112.424 49.7254 112.344 49.7388 112.273 49.7522C111.809 50.0602 111.36 50.2879 110.986 50.4798C110.91 50.5155 110.83 50.5602 110.745 50.6003C110.522 51.3548 110.179 52.4663 109.191 53.3636C108.866 53.6582 108.545 54.0064 108.206 54.3724C107.957 54.6403 107.708 54.9081 107.454 55.1626C106.665 55.9616 105.761 56.3455 105.16 56.6045C105.111 56.6268 105.053 56.6491 104.995 56.6759C104.879 56.8321 104.755 57.0107 104.63 57.1982C104.389 57.5508 104.113 57.9526 103.779 58.3588C103.374 58.8543 102.942 59.2248 102.586 59.5239C102.621 60.2025 102.604 61.1488 102.145 62.1041C101.731 62.9657 101.143 63.5326 100.742 63.9165C100.702 64.0594 100.662 64.1933 100.626 64.3228C100.59 64.4388 100.546 64.5951 100.515 64.7201C100.577 64.8272 100.653 64.9566 100.715 65.0638C100.884 65.3495 101.085 65.6932 101.272 66.0816C101.343 66.153 101.454 66.2557 101.544 66.336C101.864 66.6307 102.301 67.0369 102.706 67.5681C103.401 68.4832 103.588 69.4787 103.668 70.2465C104.122 70.4429 104.661 70.6885 105.2 71.0634C105.28 71.1081 105.592 71.2197 105.819 71.3045C106.216 71.4473 106.701 71.6214 107.204 71.8759C107.302 71.8937 107.476 71.9161 107.605 71.9339C108.126 72.0053 108.843 72.0991 109.605 72.3982C110.741 72.849 111.431 73.6972 111.89 74.4159C112.215 74.3623 112.571 74.3222 112.959 74.3222H112.967Z" fill="#E1E1E1"/>
</g>
<path d="M54.5829 167.259C54.1064 167.259 53.6165 167.156 53.1578 166.937C51.5366 166.169 50.8151 164.259 51.5054 162.616L51.5366 162.513C51.7904 161.714 52.4585 159.612 54.6943 158.295C54.6854 157.808 54.7433 157.366 54.7967 157.005C54.3914 156.545 53.8748 155.933 53.4962 155.081C53.4472 155.001 53.3136 154.817 53.2157 154.684C52.8504 154.184 52.3472 153.501 52.0176 152.585C51.982 152.492 51.8394 152.237 51.7325 152.05C51.4252 151.505 51.0422 150.831 50.8017 149.97C50.726 149.711 50.6325 149.443 50.5389 149.17C50.3385 148.595 50.1158 147.943 49.96 147.206C49.8976 146.916 49.8263 146.626 49.7506 146.331C49.5992 145.733 49.4299 145.055 49.332 144.345C49.1093 142.738 49.8441 141.51 50.3519 140.733C50.3519 140.716 50.343 140.702 50.3385 140.689C50.196 140.104 50.0178 139.376 50.0178 138.51C50.0134 138.43 49.9555 138.162 49.9109 137.966C49.7818 137.372 49.6036 136.564 49.6704 135.631C49.6883 135.39 49.6794 135.078 49.6704 134.747C49.6571 134.153 49.6437 133.479 49.7462 132.743C49.7595 132.636 49.7417 132.305 49.7283 132.091C49.6927 131.466 49.6482 130.685 49.8219 129.823C50.1381 128.283 51.207 127.399 52.1289 126.85C52.031 126.234 52.0042 125.498 52.2447 124.708C52.2447 124.605 52.2403 124.435 52.2358 124.306C52.2091 123.645 52.1735 122.65 52.5966 121.619C53.1756 120.208 54.2311 119.413 54.8635 118.94C54.8992 118.913 54.9304 118.891 54.966 118.864C55.9057 117.605 57.6382 117.15 59.1035 117.864C60.7603 118.677 61.4507 120.681 60.6401 122.342C60.1724 123.297 59.4331 123.877 58.9209 124.261C58.9388 124.748 58.9387 125.373 58.7962 126.056C58.7962 126.069 58.8051 126.087 58.8096 126.1C58.9967 126.801 59.3129 127.975 58.9566 129.301C58.5334 130.855 57.3487 131.654 56.4268 132.145C56.4446 132.591 56.4446 133.1 56.3689 133.654C56.3422 133.863 56.3467 134.238 56.3556 134.6C56.3645 135.028 56.3734 135.506 56.3422 136.028C56.3556 136.136 56.4046 136.354 56.4402 136.519C56.5515 137.028 56.7029 137.725 56.7029 138.515C56.7119 138.591 56.7787 138.876 56.8321 139.082C56.9524 139.568 57.0993 140.171 57.1483 140.876C57.2463 142.332 56.5649 143.448 56.1017 144.157C56.1418 144.327 56.1863 144.501 56.2308 144.68C56.3288 145.059 56.4224 145.443 56.5025 145.818C56.5693 146.135 56.7074 146.541 56.8544 146.965C56.9835 147.336 57.1127 147.72 57.2329 148.13C57.2686 148.233 57.4378 148.532 57.5492 148.729C57.7852 149.144 58.0747 149.657 58.2974 150.264C58.3508 150.358 58.4978 150.554 58.6047 150.706C58.9076 151.117 59.2817 151.63 59.5801 152.286C59.638 152.367 59.7805 152.527 59.8874 152.643C60.2259 153.027 60.6935 153.554 61.0587 154.259C61.6377 155.375 61.611 156.491 61.5086 157.317C61.8782 157.607 62.3147 158 62.6977 158.549C63.4771 159.665 63.5039 161.139 62.7734 162.281C62.0386 163.424 60.6891 164.009 59.3529 163.763C59.1837 163.732 58.7784 163.656 58.0836 164.054C58.0346 164.116 57.9545 164.379 57.901 164.536C57.8253 164.768 57.7407 165.036 57.6026 165.33C57.0325 166.54 55.8345 167.25 54.5785 167.25L54.5829 167.259ZM51.5633 162.478C51.5633 162.478 51.541 162.522 51.5321 162.549C51.541 162.527 51.5544 162.5 51.5633 162.478Z" fill="#3D3D3D"/>
<path d="M7.99241 136.711C6.18418 136.711 4.69662 135.252 4.65208 133.435C4.62982 132.502 4.82134 131.698 4.97277 131.051C5.03958 130.77 5.12419 130.417 5.12864 130.274C5.15091 129.35 5.3736 128.565 5.55176 127.935C5.58293 127.823 5.61412 127.707 5.64529 127.6C5.63639 127.582 5.62748 127.565 5.61411 127.547C5.1821 126.774 4.46504 125.48 4.66546 123.868C4.74563 123.212 4.8837 122.601 5.00395 122.06C5.07076 121.757 5.13756 121.453 5.191 121.159C5.47159 119.489 6.6741 118.529 7.46687 117.976C7.50696 117.458 7.5604 116.824 7.73855 116.137C7.81871 115.829 7.88108 115.525 7.94789 115.222C8.05478 114.722 8.17502 114.155 8.35317 113.565C8.36653 113.472 8.37098 113.262 8.37543 113.106C8.39325 112.503 8.41999 111.682 8.73176 110.789C8.81638 110.543 8.901 110.235 8.98562 109.905C9.11924 109.387 9.2751 108.798 9.52005 108.182C9.80955 107.454 10.1792 106.869 10.4732 106.396C10.6068 106.186 10.7404 105.972 10.8072 105.834C10.8295 105.735 10.8606 105.53 10.8874 105.374C10.9764 104.78 11.1011 103.963 11.5198 103.12C11.551 103.044 11.6178 102.771 11.6623 102.57C11.7915 102.012 11.9741 101.254 12.3883 100.495C13.2746 98.8743 15.3055 98.2761 16.9222 99.1644C18.5167 100.039 19.118 102.035 18.2806 103.646C18.2495 103.745 18.2005 103.954 18.1604 104.115C18.0446 104.615 17.8843 105.289 17.5547 105.99C17.5369 106.084 17.5101 106.258 17.4879 106.387C17.4032 106.95 17.283 107.722 16.9222 108.534C16.6684 109.101 16.3655 109.583 16.1205 109.972C15.9513 110.235 15.7821 110.512 15.7197 110.668C15.6262 110.9 15.5371 111.24 15.4436 111.606C15.3412 111.998 15.2253 112.445 15.065 112.914C15.0561 113.012 15.0517 113.186 15.0472 113.32C15.0294 113.878 15.0071 114.637 14.7532 115.472C14.6508 115.802 14.5662 116.199 14.4771 116.623C14.3925 117.021 14.3079 117.418 14.201 117.82C14.1653 117.962 14.1386 118.279 14.1164 118.561C14.0807 119.02 14.0362 119.592 13.907 120.212C13.5596 121.846 12.3616 122.73 11.5777 123.266C11.5599 123.346 11.5421 123.426 11.5243 123.502C11.4753 123.734 11.4263 123.958 11.3817 124.167C11.404 124.208 11.4263 124.248 11.4441 124.283C11.8672 125.042 12.5041 126.19 12.3927 127.658C12.3304 128.484 12.13 129.189 11.9696 129.756C11.9028 129.997 11.8049 130.332 11.796 130.453C11.7737 131.288 11.6 132.015 11.4619 132.604C11.404 132.846 11.3238 133.176 11.3194 133.296C11.3639 135.144 9.90755 136.667 8.06369 136.711C8.03697 136.711 8.01024 136.711 7.97907 136.711H7.99241Z" fill="#3D3D3D"/>
<path d="M61.8611 137.466C60.9659 137.488 60.0796 135.952 59.22 135.917C58.3605 135.881 57.3583 136.997 56.5032 136.908C55.6481 136.818 54.9533 135.171 54.1027 135.028C53.252 134.885 52.2944 135.22 51.4527 135.024C50.6109 134.827 49.8538 134.256 49.0298 134.006C48.2059 133.756 47.4443 133.292 46.6381 132.997C45.7875 132.685 44.919 132.613 44.1351 132.274C43.2978 131.912 42.2111 132.203 41.4539 131.823C40.63 131.412 39.5655 131.502 38.8351 131.091C38.0156 130.631 37.0046 130.538 36.3143 130.109C35.4814 129.591 35.8377 127.377 35.1919 126.953C34.4125 126.444 33.4639 126.283 32.7379 125.752C32.0119 125.221 31.0544 124.953 30.3596 124.382C29.6648 123.81 28.6493 123.547 27.9813 122.94C27.3132 122.333 26.4135 121.886 25.7767 121.243C25.1398 120.601 24.1911 120.159 23.5899 119.48C22.9886 118.802 22.5655 117.886 21.9999 117.181C21.4342 116.476 21.4476 115.271 20.9131 114.538C20.3787 113.806 20.2807 112.757 19.773 112.003C19.2653 111.248 17.8311 111.07 17.3546 110.298C16.878 109.525 16.0986 108.887 15.6488 108.097C15.199 107.307 15.6488 105.985 15.2168 105.182C14.7848 104.378 14.4195 103.535 14.0009 102.722C13.5822 101.91 12.4599 101.45 12.0501 100.637C11.6404 99.825 11.244 98.9858 10.8387 98.1733C10.4245 97.343 10.6427 96.2136 10.2419 95.4012C9.84106 94.5887 8.99485 93.9593 8.61183 93.1379C8.2288 92.3165 8.59846 91.138 8.24216 90.2988C7.88586 89.4596 7.78788 88.5444 7.47166 87.6829C7.15545 86.8213 7.1599 85.9196 6.89268 85.0357C6.62545 84.1518 4.47873 83.8036 4.2694 82.9019C4.06007 82.0002 3.7305 81.085 3.58353 80.1655C3.43655 79.2459 3.42763 78.2861 3.34301 77.3531C3.25839 76.4201 3.79731 75.4738 3.7795 74.5318C3.76613 73.773 5.12898 72.8846 5.13343 71.9025C5.13789 71.0856 3.68595 70.1705 3.7394 69.242C3.78839 68.4072 3.42763 67.4341 3.54343 66.5323C3.65478 65.6886 3.99326 64.7824 4.18478 63.903C4.37629 63.0236 5.81932 62.5326 6.091 61.6844C6.36268 60.8362 5.9752 59.8006 6.33596 58.9836C6.69671 58.1667 8.13082 58.0105 8.58511 57.2427C9.03939 56.4749 7.85024 54.6402 8.39806 53.9348C8.94587 53.2295 9.65847 52.5822 10.2909 51.9439C10.8877 51.3457 12.2149 51.5466 12.8251 51.0511C13.4843 50.5154 13.8717 49.6404 14.522 49.2119C15.239 48.7432 16.2545 48.8458 16.9359 48.4932C17.7153 48.087 18.6373 48.2477 19.3231 47.9709C20.2005 47.6182 21.3451 47.2611 21.9865 47.0736C22.1825 46.3594 20.8553 44.6497 21.1492 43.7792C21.3942 43.0426 23.2781 42.8417 23.6077 42.0159C23.9016 41.2793 23.0331 39.9937 23.4072 39.2035C23.7502 38.4804 24.5474 37.9268 24.9616 37.1679C25.3491 36.4582 25.0106 35.2484 25.4649 34.5208C25.8969 33.8333 26.7209 33.3244 27.2197 32.628C27.7185 31.9316 28.7696 31.7218 29.313 31.0612C29.8964 30.3469 30.4932 29.6684 31.0989 29.0211C31.7046 28.3738 32.6488 28.0167 33.2991 27.4096C33.9493 26.8025 33.7979 25.1731 34.4838 24.6151C35.1697 24.0571 36.5548 24.2848 37.2808 23.7714C38.0067 23.258 39.0088 23.1152 39.766 22.6554C40.5231 22.1956 41.1823 21.4992 41.9617 21.0841C42.7856 20.6466 43.81 20.7716 44.6117 20.41C45.4668 20.0216 46.2863 19.785 47.1013 19.4726C47.9876 19.1333 48.2237 17.0664 49.0432 16.8075C49.9695 16.5129 50.9538 16.495 51.7644 16.2942C52.7532 16.0442 53.6707 15.7808 54.4412 15.638C55.706 15.4014 56.7215 15.5933 57.2069 15.5397C58.0843 15.4415 59.0196 16.4593 59.8747 16.4147C60.7299 16.3701 61.5984 14.8925 62.4535 14.9103C63.3086 14.9282 64.1103 16.6379 64.961 16.7093C65.8116 16.7807 66.7425 16.1915 67.5842 16.3165C68.426 16.4415 69.5528 15.379 70.3901 15.5576C71.2274 15.7362 71.5792 18.0173 72.3987 18.2494C73.2182 18.4815 74.4653 17.4146 75.267 17.6959C76.0686 17.9771 76.9505 18.236 77.7388 18.5619C78.5272 18.8878 79.0349 19.9547 79.7965 20.3252C80.5581 20.6957 81.1148 21.5215 81.8541 21.9322C82.6335 22.3652 84.3438 21.1644 85.0564 21.6108C85.818 22.084 86.3435 22.9456 87.0249 23.4232C87.7732 23.941 88.4591 24.5214 89.1093 25.0213C89.8442 25.5883 90.6815 25.99 91.2917 26.5079C92.0354 27.1417 92.4853 27.9944 93.0286 28.5122C93.9194 29.3604 94.8547 29.7577 95.1709 30.1014C95.8078 30.7889 95.594 32.2129 96.1641 32.9093C96.7342 33.6057 96.9435 34.6056 97.4646 35.3377C97.9857 36.0698 98.4088 36.8778 98.8809 37.6411C99.353 38.4045 101.362 38.3465 101.789 39.1366C102.217 39.9267 100.894 41.6588 101.273 42.4757C101.651 43.2926 102.987 43.7301 103.317 44.5648C103.664 45.4398 104.956 45.971 105.245 46.8192C105.548 47.7164 105.263 48.8057 105.513 49.6583C105.78 50.569 106.27 51.4082 106.488 52.2653C106.728 53.1938 107.147 54.0509 107.352 54.8991C107.557 55.7428 106.608 56.8722 106.786 57.7516C106.964 58.631 107.797 59.3497 107.949 60.2336C108.1 61.1175 108.759 61.9076 108.884 62.7915C109.009 63.6753 108.042 64.6842 108.14 65.5681C108.238 66.452 107.891 67.3492 107.962 68.2376C108.033 69.1259 109.365 69.9116 109.41 70.7999C109.454 71.6883 109.53 72.5811 109.552 73.4694C109.574 74.3578 107.695 75.2506 107.695 76.1389C107.695 77.0272 109.735 77.9379 109.704 78.8218C109.672 79.7057 109.655 80.6163 109.601 81.5002C109.548 82.3841 107.793 83.1385 107.713 84.0224C107.633 84.9062 108.118 85.8303 108.016 86.7053C107.913 87.5802 107.165 88.3569 107.031 89.2319C106.898 90.1068 108.363 91.2496 108.203 92.1201C108.042 92.9906 106.782 93.6468 106.59 94.5084C106.399 95.3699 106.524 96.3074 106.301 97.1645C106.078 98.0216 105.927 98.901 105.677 99.7491C105.428 100.597 104.306 101.155 104.025 101.995C103.744 102.834 104.92 104.204 104.604 105.03C104.288 105.856 103.468 106.503 103.116 107.311C102.765 108.119 102.101 108.798 101.713 109.592C101.326 110.387 100.066 110.704 99.6425 111.476C99.2194 112.248 99.4198 113.36 98.9566 114.11C98.4934 114.86 97.9723 115.561 97.4735 116.293C96.9747 117.025 96.2576 117.565 95.7187 118.266C95.1798 118.967 94.1955 119.239 93.6165 119.909C93.0375 120.578 93.0999 121.775 92.4853 122.413C91.8707 123.051 91.1001 123.484 90.4454 124.083C89.7907 124.681 89.9867 126.261 89.3008 126.823C88.6149 127.386 87.0962 126.85 86.3747 127.373C85.8625 127.743 85.0876 128.167 84.1345 128.783C83.4753 129.212 83.5866 131.162 82.727 131.649C82.0055 132.06 80.6293 131.43 79.7786 131.85C79.0215 132.225 78.6207 133.555 77.7611 133.921C76.9728 134.256 75.4451 132.783 74.5722 133.091C73.7571 133.381 73.334 134.912 72.4566 135.167C71.6238 135.408 70.9023 136.372 70.0115 136.573C69.1208 136.774 68.1231 136.318 67.2235 136.461C66.3238 136.604 65.5043 137.345 64.6002 137.426C63.6961 137.506 62.7652 137.434 61.8567 137.461L61.8611 137.466Z" fill="#FFEBC1"/>
<path d="M63.5486 140.818C63.3215 140.818 63.0988 140.818 62.8895 140.814C62.5733 140.814 62.2615 140.805 61.9542 140.814C60.6047 140.845 59.5892 140.247 58.8722 139.684C58.1863 140.024 57.2644 140.354 56.1643 140.238C54.5921 140.073 53.5677 139.077 52.9531 138.39C52.3519 138.443 51.5769 138.492 50.6995 138.283C49.8399 138.082 49.1407 137.729 48.633 137.475C48.4414 137.376 48.1787 137.247 48.0762 137.216C47.3458 136.997 46.7312 136.702 46.2324 136.47C45.9473 136.336 45.7024 136.22 45.4931 136.144C45.2926 136.073 45.021 136.006 44.7092 135.935C44.2193 135.819 43.618 135.68 42.9811 135.421C42.8876 135.412 42.754 135.408 42.6426 135.403C41.9968 135.377 41.0259 135.332 40.0283 134.854C39.9303 134.828 39.7165 134.792 39.5606 134.765C38.9326 134.658 38.0731 134.506 37.2046 134.02C37.1066 133.966 36.7815 133.868 36.5677 133.801C35.9932 133.627 35.2761 133.408 34.559 132.962C33.0492 132.024 32.6217 130.462 32.439 129.368C31.9447 129.163 31.3523 128.89 30.7689 128.462C30.6575 128.381 30.3814 128.243 30.1365 128.127C29.5931 127.859 28.9161 127.529 28.2481 126.984C28.1723 126.931 27.9096 126.797 27.7136 126.699C27.1702 126.426 26.422 126.051 25.7317 125.422C25.5847 125.288 25.3264 125.109 25.0547 124.922C24.5692 124.587 23.9635 124.172 23.3979 123.6C23.3044 123.507 23.0327 123.319 22.8145 123.163C22.3023 122.806 21.6698 122.359 21.0908 121.712C20.5698 121.123 20.1823 120.502 19.8705 120.007C19.6923 119.721 19.5231 119.449 19.3895 119.284C18.6591 118.373 18.3829 117.378 18.2003 116.717C18.1691 116.601 18.1291 116.458 18.0979 116.364C17.5902 115.619 17.3318 114.873 17.1448 114.315C17.127 114.271 17.1136 114.222 17.0958 114.172C16.4055 113.838 15.2564 113.275 14.5082 112.057C14.4235 111.923 14.2053 111.673 14.0138 111.454C13.6263 111.016 13.1498 110.467 12.7489 109.766C12.0675 108.579 12.0764 107.387 12.0808 106.601C12.0808 106.543 12.0808 106.472 12.0808 106.41C11.876 106.017 11.6934 105.633 11.5152 105.258C11.3905 104.994 11.2658 104.731 11.1322 104.468C11.0609 104.405 10.9674 104.329 10.8917 104.267C10.3706 103.834 9.5823 103.182 9.0612 102.146C8.83406 101.695 8.61137 101.24 8.39314 100.785C8.21053 100.414 8.03237 100.044 7.84976 99.6733C7.35985 98.6957 7.27077 97.7672 7.20842 97.0886C7.19951 96.9949 7.1906 96.8833 7.17724 96.794C7.10598 96.7047 6.99018 96.5753 6.90111 96.4681C6.50918 96.0128 5.97475 95.3878 5.58727 94.5531C5.07508 93.4504 5.07953 92.388 5.07953 91.6827C5.07953 91.5845 5.07953 91.464 5.07953 91.3747C4.83903 90.7542 4.6965 90.1694 4.57625 89.6873C4.49608 89.3659 4.42482 89.0668 4.34465 88.8525C4.07297 88.1204 3.95717 87.4374 3.86809 86.8794C2.93725 86.3839 1.44526 85.5 1.01769 83.6698C0.950886 83.3841 0.866252 83.0894 0.78163 82.7903C0.607933 82.1698 0.40752 81.4645 0.287268 80.7012C0.17147 79.9602 0.126936 79.2414 0.082398 78.5451C0.0645829 78.246 0.0467613 77.9469 0.0200387 77.6567C-0.0690367 76.6255 0.158102 75.7372 0.322892 75.0854C0.36743 74.9069 0.429791 74.6658 0.443152 74.5587C0.434245 73.4784 0.852884 72.6213 1.27599 71.9874C0.799438 71.2687 0.336259 70.2777 0.411973 69.0501C0.411973 68.9965 0.371887 68.7421 0.340711 68.5546C0.247182 67.9296 0.113577 67.0725 0.238283 66.1083C0.336266 65.3628 0.527768 64.6753 0.701465 64.0727C0.790541 63.7557 0.875167 63.4611 0.928612 63.2067C1.23592 61.7737 2.18012 60.8988 2.84373 60.3497C2.82146 59.6444 2.83483 58.6712 3.29356 57.64C3.72113 56.6758 4.41591 56.0553 5.04389 55.6401C4.84347 54.5822 4.78558 53.1715 5.77432 51.8993C6.32659 51.1895 6.97683 50.5467 7.55137 49.9842C7.68498 49.8548 7.8186 49.7208 7.9433 49.5958C8.94985 48.587 10.1702 48.3325 10.9541 48.1897C10.9674 48.1718 10.9763 48.1584 10.9897 48.145C11.3683 47.6495 11.8894 46.971 12.7133 46.4353C13.6798 45.8059 14.6551 45.6318 15.3009 45.5202C15.3945 45.5023 15.4835 45.4889 15.5682 45.4711C16.4411 45.0515 17.2606 44.9443 17.844 44.8818C17.7327 44.2212 17.7416 43.498 17.991 42.7436C18.3963 41.5383 19.2559 40.8285 20.0264 40.3866C19.9329 39.6411 19.9596 38.7304 20.3961 37.8064C20.788 36.976 21.3358 36.3734 21.7322 35.9359C21.7723 35.8913 21.8168 35.8422 21.8569 35.7975C21.8881 35.0833 21.9371 33.9003 22.6497 32.7709C23.1084 32.0388 23.6607 31.5255 24.106 31.1103C24.2575 30.9675 24.4668 30.7755 24.5247 30.6952C25.1883 29.7711 26.0568 29.2756 26.6269 28.9497C26.7026 28.9051 26.8006 28.8515 26.8718 28.8069C27.4464 28.115 28.0343 27.4409 28.6756 26.7579C29.3169 26.0704 30.0251 25.633 30.5417 25.3115C30.5774 25.2892 30.613 25.2669 30.6486 25.2446C30.8401 24.4053 31.1697 23.0349 32.3945 22.0394C33.4857 21.1511 34.7416 20.9725 35.4899 20.8654C35.5567 20.8564 35.6368 20.8431 35.7126 20.8341C36.3806 20.4234 37.0264 20.1958 37.5208 20.0172C37.7078 19.9502 37.9617 19.861 38.0464 19.8163C38.2201 19.7092 38.4561 19.5217 38.71 19.3208C39.1598 18.9637 39.7165 18.5173 40.4157 18.1468C41.3599 17.6468 42.2552 17.5129 42.9099 17.4147C43.0479 17.3924 43.2305 17.3656 43.3241 17.3477C43.9699 17.0576 44.5756 16.8433 45.1145 16.6558C45.5465 15.7183 46.2725 14.1961 48.054 13.6336C48.8512 13.3837 49.5994 13.2765 50.2007 13.1917C50.5035 13.1471 50.7931 13.1069 50.9623 13.0667C51.2429 12.9953 51.5145 12.9239 51.7818 12.8569C52.5033 12.6694 53.1803 12.4909 53.8439 12.3659C55.0598 12.1382 56.0886 12.1828 56.7076 12.2096C56.8012 12.2096 56.8858 12.2186 56.9615 12.2186C57.9859 12.1293 58.8499 12.4105 59.5046 12.7051C60.1994 12.1561 61.2104 11.5579 62.5243 11.5802C64.0742 11.607 65.152 12.4864 65.8334 13.1694C66.2833 13.0578 66.84 12.9551 67.4546 12.9685C67.4947 12.9507 67.5392 12.9283 67.5749 12.9105C68.3231 12.5623 69.5746 11.973 71.0978 12.2989C72.5185 12.6025 73.3648 13.5622 73.8992 14.4416C74.6074 14.2809 75.4625 14.2274 76.3711 14.5443C76.6205 14.6291 76.8699 14.7139 77.1148 14.7943C77.7339 14.9996 78.3708 15.2094 79.0255 15.4818C80.1479 15.946 80.8516 16.7317 81.3192 17.245C81.3771 17.3075 81.4439 17.3834 81.4974 17.4415C82.0808 17.7584 82.5351 18.1289 82.8958 18.4593C83.8757 18.178 85.3855 17.8745 86.8285 18.7762C87.6124 19.2628 88.178 19.8699 88.5878 20.3118C88.7169 20.4502 88.8951 20.6422 88.9663 20.7002C89.5453 21.102 90.102 21.5439 90.592 21.9323C90.7835 22.0841 90.975 22.2358 91.1576 22.3787C91.3714 22.5438 91.6519 22.7179 91.9503 22.9054C92.418 23.2001 92.9525 23.5304 93.4646 23.9723C94.1594 24.566 94.6493 25.2089 95.0056 25.6821C95.1214 25.8338 95.2773 26.0392 95.3397 26.1061C95.6158 26.3695 95.9632 26.5927 96.2972 26.807C96.7382 27.0882 97.1969 27.3784 97.62 27.8382C98.6087 28.9095 98.8448 30.1996 98.9873 30.9675C99.0007 31.03 99.014 31.1014 99.0229 31.1683C99.4594 31.7933 99.7311 32.4138 99.936 32.887C100.016 33.0745 100.127 33.3289 100.181 33.4093C100.617 34.0209 100.969 34.6235 101.277 35.1547C101.285 35.1681 101.29 35.177 101.299 35.1904C102.265 35.4672 103.851 35.9404 104.724 37.5608C105.468 38.9447 105.218 40.333 104.911 41.324C105.374 41.7168 105.891 42.2525 106.256 42.9846C106.323 43.0427 106.403 43.1141 106.47 43.1721C107.066 43.6855 107.966 44.4667 108.403 45.7568C108.741 46.7567 108.737 47.6808 108.737 48.3548C108.737 48.5066 108.737 48.7075 108.741 48.8146C108.817 49.0468 108.937 49.3325 109.066 49.6316C109.289 50.1583 109.543 50.7565 109.721 51.444C109.797 51.7386 109.926 52.0868 110.059 52.4528C110.242 52.9483 110.447 53.5108 110.598 54.1268C110.915 55.4348 110.549 56.5776 110.269 57.3231C110.598 57.8588 111.044 58.6266 111.222 59.6087C111.257 59.7024 111.347 59.8944 111.418 60.0372C111.685 60.5997 112.05 61.3719 112.188 62.3406C112.384 63.7334 111.868 64.8851 111.556 65.5726C111.534 65.6172 111.511 65.6708 111.489 65.7244C111.507 66.3895 111.422 66.9788 111.355 67.4296C111.355 67.452 111.351 67.4743 111.347 67.4966C111.877 68.1439 112.665 69.1751 112.741 70.6437C112.754 70.9294 112.776 71.2241 112.794 71.5142C112.834 72.1258 112.874 72.7552 112.888 73.4025C112.914 74.514 112.496 75.3979 111.997 76.0765C112.571 76.7818 113.079 77.7281 113.039 78.9468L113.026 79.3932C113.003 80.1521 112.981 80.9333 112.932 81.719C112.839 83.2903 111.917 84.317 111.2 84.9911C111.315 85.5714 111.427 86.2946 111.324 87.1249C111.222 87.982 110.915 88.6918 110.647 89.2275C111.155 90.0444 111.756 91.2452 111.48 92.7541C111.217 94.1692 110.336 95.0977 109.81 95.6557C109.81 95.6557 109.806 95.6601 109.801 95.6646C109.797 95.7583 109.792 95.8566 109.788 95.9503C109.761 96.5217 109.73 97.2359 109.529 98.0216C109.449 98.3386 109.378 98.6555 109.307 98.9724C109.182 99.5304 109.053 100.111 108.87 100.722C108.594 101.655 108.082 102.334 107.623 102.834C107.935 103.709 108.22 104.919 107.708 106.249C107.36 107.151 106.835 107.82 106.447 108.307C106.34 108.441 106.198 108.624 106.145 108.708C105.828 109.427 105.423 110.003 105.102 110.467C104.938 110.704 104.768 110.945 104.701 111.083C104.14 112.231 103.218 112.891 102.608 113.298C102.519 113.963 102.377 114.931 101.789 115.887C101.41 116.503 101.023 117.056 100.644 117.592C100.502 117.797 100.355 118.003 100.212 118.212C99.7756 118.851 99.2857 119.346 98.8938 119.744C98.6756 119.962 98.4751 120.172 98.3504 120.328C97.7002 121.177 96.9074 121.668 96.3819 121.993C96.3507 122.011 96.315 122.034 96.2839 122.056C96.2839 122.065 96.2794 122.074 96.275 122.083C96.0746 122.779 95.7672 123.837 94.8765 124.761C94.3465 125.306 93.7942 125.721 93.3533 126.051C93.282 126.105 93.2108 126.158 93.144 126.207C92.9569 127.051 92.6407 128.431 91.4025 129.439C90.1421 130.471 88.6946 130.475 87.8306 130.48C87.8128 130.48 87.7905 130.48 87.7682 130.48C87.5322 130.631 87.2828 130.783 87.0156 130.944C86.9176 131.002 86.8151 131.064 86.7127 131.131C86.4499 132.1 85.9422 133.685 84.37 134.582C83.2566 135.216 82.1164 135.198 81.3237 135.131C80.8649 135.752 80.1612 136.555 79.0611 137.024C77.7562 137.577 76.5269 137.301 75.6139 136.943C75.1418 137.479 74.496 138.028 73.5919 138.341C73.5162 138.394 73.4004 138.479 73.3158 138.546C72.7546 138.966 71.9039 139.604 70.737 139.867C69.6993 140.1 68.7774 139.966 68.1049 139.867C67.998 139.85 67.8599 139.832 67.7575 139.818C67.6684 139.858 67.5615 139.912 67.4724 139.957C66.8489 140.265 65.9938 140.684 64.8981 140.787C64.435 140.832 63.9718 140.841 63.5353 140.841L63.5486 140.818ZM62.6356 134.113C62.747 134.113 62.8583 134.113 62.9741 134.113C63.4061 134.118 63.8159 134.127 64.1544 134.104C64.2568 134.06 64.4127 133.984 64.5329 133.926C65.0718 133.662 65.8023 133.301 66.7153 133.158C67.6461 133.011 68.4701 133.131 69.0758 133.22C69.1203 133.229 69.1738 133.234 69.2272 133.243C69.2628 133.216 69.294 133.194 69.3252 133.167C69.7082 132.881 70.1937 132.515 70.8172 132.229C70.8306 132.212 70.8439 132.189 70.8573 132.171C71.3116 131.524 72.0776 130.435 73.4717 129.939C74.7276 129.493 75.8722 129.747 76.7541 130.091C77.1371 129.649 77.6359 129.185 78.3174 128.85C79.1101 128.457 79.9074 128.355 80.5799 128.355C80.856 127.556 81.3415 126.618 82.3391 125.971C82.7889 125.681 83.2031 125.426 83.5728 125.203C83.9247 124.989 84.2587 124.783 84.4368 124.658C85.2608 124.065 86.1426 123.868 86.8775 123.801C87.0957 123.105 87.4654 122.297 88.1958 121.623C88.6145 121.239 89.0198 120.935 89.3805 120.668C89.5498 120.543 89.7146 120.422 89.8482 120.31C89.8571 120.275 89.8704 120.239 89.8793 120.208C90.0619 119.569 90.3425 118.61 91.0952 117.73C91.7099 117.021 92.3868 116.596 92.8856 116.288C92.9836 116.23 93.1039 116.154 93.1841 116.101C93.5181 115.681 93.8566 115.338 94.155 115.034C94.3955 114.788 94.6226 114.556 94.7295 114.4C94.8854 114.172 95.0457 113.945 95.2061 113.717C95.4822 113.324 95.745 112.949 95.981 112.583C95.9944 112.507 96.0033 112.414 96.0122 112.338C96.0924 111.726 96.2126 110.802 96.7204 109.869C97.3261 108.767 98.2302 108.168 98.8314 107.771C98.8671 107.749 98.9072 107.722 98.9472 107.695C99.1833 107.276 99.4371 106.918 99.6509 106.615C99.8112 106.387 100.007 106.106 100.061 105.981C100.355 105.307 100.747 104.767 101.067 104.347C100.751 103.499 100.408 102.276 100.867 100.923C101.254 99.7804 101.989 99.0394 102.479 98.5439C102.51 98.5126 102.55 98.4725 102.586 98.4368C102.662 98.1421 102.733 97.8252 102.804 97.4949C102.893 97.1065 102.978 96.7181 103.076 96.3342C103.103 96.2226 103.12 95.8833 103.129 95.6334C103.152 95.1245 103.183 94.4906 103.334 93.7942C103.526 92.9192 103.944 92.2496 104.359 91.7318C103.94 90.9729 103.552 89.9551 103.74 88.7364C103.886 87.7543 104.283 86.9999 104.572 86.4509C104.599 86.3973 104.63 86.3348 104.661 86.2768C104.648 86.2009 104.63 86.125 104.612 86.0536C104.483 85.4688 104.31 84.6697 104.394 83.7278C104.541 82.0716 105.61 81.0315 106.318 80.3887C106.327 80.2101 106.332 80.0271 106.336 79.8486C105.534 79.1254 104.354 77.9692 104.359 76.1389C104.363 74.3935 105.432 73.2552 106.171 72.5409C106.158 72.3401 106.145 72.1347 106.131 71.9294C106.127 71.8356 106.118 71.7419 106.113 71.6481C106.113 71.6481 106.113 71.6481 106.113 71.6437C105.606 71.0321 104.759 70.0054 104.635 68.5233C104.568 67.7109 104.675 66.9877 104.75 66.4609C104.777 66.2645 104.817 66.0011 104.817 65.9074C104.679 64.6798 105.098 63.662 105.41 62.9567C105.405 62.9433 105.396 62.9299 105.392 62.9165C105.165 62.4389 104.862 61.8005 104.697 61.0238C104.648 60.9434 104.577 60.8229 104.519 60.7291C104.18 60.1845 103.722 59.439 103.517 58.4391C103.236 57.0686 103.673 55.8901 103.944 55.1759C103.9 55.0464 103.846 54.9125 103.797 54.7697C103.619 54.2875 103.419 53.7385 103.258 53.118C103.205 52.9215 103.067 52.5867 102.929 52.2653C102.724 51.7877 102.497 51.2475 102.31 50.6181C102.056 49.7432 102.06 48.9262 102.06 48.3325C102.06 48.2924 102.06 48.2477 102.06 48.2075C101.584 47.7924 100.92 47.2031 100.448 46.3282C100.404 46.2969 100.359 46.2612 100.319 46.2344C99.7133 45.788 98.7958 45.1095 98.2391 43.9087C97.7759 42.9043 97.8026 41.9356 97.9763 41.1142C97.286 40.7839 96.5645 40.275 96.0434 39.4357C95.8608 39.1411 95.6871 38.842 95.5134 38.5474C95.2551 38.101 95.0101 37.6814 94.7429 37.3108C94.2975 36.6859 94.0303 36.0788 93.8165 35.5877C93.7274 35.3868 93.6116 35.119 93.5537 35.0342C92.7877 34.0967 92.5694 33.0343 92.4314 32.2933C91.9637 31.9897 91.3491 31.5612 90.7211 30.9675C90.2935 30.5612 89.9684 30.1327 89.6834 29.7577C89.4785 29.4899 89.2692 29.2131 89.1178 29.0836C88.9841 28.9676 88.6902 28.7846 88.4051 28.606C87.9998 28.3515 87.5456 28.0658 87.069 27.6998C86.8597 27.5391 86.6459 27.3695 86.4321 27.1998C86.0001 26.8561 85.5547 26.5034 85.1183 26.1999C84.6328 25.8606 84.2498 25.4856 83.9291 25.1508C82.9537 25.4187 81.5998 25.6419 80.2369 24.8919C79.5199 24.4946 78.9943 24.0036 78.6113 23.642C78.5 23.5393 78.353 23.3965 78.2728 23.3384C77.3509 22.8742 76.7452 22.2001 76.3354 21.7492C76.2864 21.6957 76.233 21.6332 76.184 21.5796C75.8232 21.4412 75.4224 21.3118 75.0038 21.1689C74.9815 21.16 74.9592 21.1555 74.9414 21.1466C74.162 21.4546 72.9194 21.901 71.4897 21.4993C70.2516 21.1511 69.4989 20.3252 69.0001 19.5262C68.5191 19.6556 67.9757 19.736 67.3834 19.6869C67.3076 19.7047 67.2097 19.7315 67.1339 19.7538C66.5639 19.9145 65.6998 20.1556 64.6799 20.0708C63.6511 19.986 62.8583 19.5396 62.2571 19.053C61.6692 19.4235 60.9343 19.7449 60.0302 19.7895C58.7074 19.852 57.6652 19.303 57.0417 18.9726C57.015 18.9592 56.9838 18.9414 56.9526 18.9235C56.7655 18.9235 56.5785 18.9146 56.4003 18.9057C55.9683 18.8878 55.5185 18.8655 55.0553 18.9548C54.6277 19.0351 54.0621 19.1824 53.4609 19.3387C53.1758 19.4146 52.8819 19.4904 52.5835 19.5663C52.0624 19.6958 51.5635 19.7672 51.1182 19.8297C51.0736 19.8342 51.0335 19.8431 50.9935 19.8476C50.5525 20.7672 49.8266 22.0394 48.2989 22.6242C47.9827 22.7447 47.6621 22.8563 47.3414 22.9724C46.8648 23.1376 46.415 23.2983 45.9963 23.4858C45.1947 23.8473 44.4375 23.9634 43.8808 24.0438C43.7427 24.0661 43.5601 24.0929 43.4577 24.1152C43.3018 24.2134 43.0747 24.3964 42.8564 24.5705C42.5001 24.8562 42.0503 25.2133 41.5203 25.5392C40.8745 25.9365 40.251 26.1597 39.7521 26.3383C39.5517 26.4097 39.28 26.5079 39.191 26.557C38.4472 27.0838 37.6455 27.3025 36.9908 27.4186C36.7815 28.173 36.4118 29.1238 35.5834 29.8961C35.0445 30.3961 34.4967 30.7398 34.0558 31.0121C33.8643 31.1282 33.6059 31.2889 33.5302 31.3603C32.9601 31.9719 32.4257 32.5834 31.9046 33.2173C31.2499 34.0209 30.4571 34.4717 29.9316 34.7708C29.8737 34.8065 29.798 34.8467 29.7401 34.8824C29.3659 35.3511 28.9785 35.7127 28.6533 36.0163C28.6133 36.052 28.5732 36.0922 28.5331 36.1323C28.5064 36.8064 28.4529 37.8064 27.9007 38.8108C27.5666 39.4179 27.1658 39.8955 26.8362 40.266C27.0188 41.0383 27.188 42.1275 26.7204 43.2926C26.3418 44.239 25.7005 44.864 25.0591 45.3014C25.3219 46.0737 25.4956 46.9844 25.2239 47.9843C24.9211 49.1048 24.057 49.9887 22.9436 50.319C22.6007 50.4217 21.416 50.7743 20.5787 51.1136C19.8438 51.4082 19.1668 51.4797 18.6725 51.5332C18.5656 51.5422 18.4319 51.56 18.3473 51.5734C17.6347 51.9171 16.9622 52.0332 16.4589 52.1225C16.4277 52.1269 16.3921 52.1359 16.3609 52.1403C16.3342 52.1716 16.3119 52.2073 16.2897 52.2341C15.9824 52.6358 15.5593 53.1894 14.9402 53.6894C13.9826 54.4661 12.9315 54.6536 12.2367 54.7741C12.2367 54.7741 12.2367 54.7741 12.2323 54.7741H12.2278C12.0853 54.917 11.9428 55.0598 11.8047 55.1982C12.0452 56.1803 12.2857 57.6088 11.4662 58.9882C10.9273 59.8988 10.1613 60.4479 9.53776 60.805C9.54221 61.3452 9.50658 62.0237 9.27943 62.7379C8.85187 64.0816 7.87204 64.8941 7.27524 65.3851C7.22625 65.5681 7.17725 65.7467 7.12825 65.9163C7.01691 66.3047 6.90558 66.7065 6.8655 66.9698C6.8655 67.0859 6.91003 67.3716 6.9412 67.5635C6.9902 67.8716 7.04363 68.2242 7.07035 68.6126C7.07035 68.6171 7.07927 68.6215 7.08373 68.626C7.60927 69.2867 8.48667 70.3848 8.47776 71.9606C8.46885 73.5766 7.60926 74.7194 7.07035 75.4158C7.00355 75.9381 6.88775 76.3979 6.78976 76.7684C6.74968 76.9157 6.70069 77.1121 6.67842 77.2237C6.70514 77.5317 6.72296 77.8397 6.74078 78.1522C6.77641 78.7192 6.80758 79.2504 6.87439 79.6745C6.93229 80.045 7.06146 80.5048 7.19953 80.9913L7.23514 81.1163C8.14371 81.594 9.56447 82.3886 10.0811 84.0894C10.2682 84.7099 10.3617 85.2857 10.4374 85.7455C10.4864 86.0625 10.5399 86.3884 10.5978 86.5491C10.8071 87.116 10.9362 87.6427 11.052 88.107C11.1411 88.4641 11.2213 88.8034 11.3104 89.0177C11.7513 90.0578 11.7468 91.0577 11.7468 91.7184C11.7468 91.7675 11.7468 91.8255 11.7468 91.8791C11.8136 91.9595 11.8893 92.0487 11.9562 92.1246C12.3303 92.5621 12.8425 93.1603 13.2299 93.9504C13.6931 94.8968 13.7822 95.803 13.8446 96.4681C13.8579 96.5887 13.8713 96.7494 13.8846 96.8476C14.0539 97.1868 14.2187 97.5306 14.3879 97.8743C14.5571 98.227 14.7309 98.5796 14.909 98.9323C14.9758 98.9903 15.0693 99.0662 15.1406 99.1287C15.6528 99.5528 16.4277 100.196 16.9533 101.209C17.1537 101.597 17.3452 101.995 17.5323 102.392C17.7416 102.825 17.9376 103.24 18.1425 103.615C18.766 104.767 18.7571 105.91 18.7526 106.668C18.7526 106.691 18.7526 106.718 18.7526 106.74C18.8417 106.847 18.9397 106.959 19.0243 107.057C19.2826 107.351 19.5899 107.7 19.8839 108.115C19.9284 108.137 19.9729 108.159 20.013 108.177C20.7167 108.521 21.7812 109.039 22.5339 110.168C23.0149 110.891 23.2687 111.623 23.4513 112.155C23.5092 112.32 23.5849 112.543 23.6295 112.637C24.2218 113.467 24.4579 114.32 24.6316 114.945C24.6628 115.052 24.6984 115.19 24.7296 115.284C25.0458 115.699 25.2996 116.11 25.5312 116.476C25.7272 116.788 25.9276 117.11 26.0746 117.275C26.1503 117.351 26.4309 117.547 26.6313 117.69C27.0723 117.998 27.6201 118.382 28.1411 118.909C28.2569 119.029 28.5598 119.235 28.827 119.418C29.2234 119.69 29.7133 120.025 30.1854 120.458C30.279 120.52 30.515 120.636 30.6887 120.726C31.1964 120.98 31.8244 121.297 32.4524 121.81C32.537 121.873 32.831 122.02 33.0448 122.123C33.5124 122.351 34.0958 122.636 34.6882 123.069C34.755 123.109 35.0222 123.217 35.2182 123.292C35.7215 123.493 36.3495 123.743 36.9997 124.172C38.3848 125.078 38.7322 126.511 38.8926 127.533C39.3112 127.667 39.8011 127.846 40.3 128.109C40.3979 128.131 40.5538 128.158 40.6741 128.176C41.1996 128.265 41.9033 128.39 42.6471 128.712C42.7273 128.716 42.8252 128.721 42.9054 128.725C43.5245 128.752 44.4598 128.792 45.4396 129.216C45.5866 129.279 45.8939 129.35 46.1968 129.422C46.6377 129.524 47.1855 129.654 47.7689 129.868C48.2544 130.047 48.682 130.247 49.0561 130.426C49.4124 130.596 49.7197 130.738 49.9735 130.814C50.6283 131.011 51.1672 131.283 51.5992 131.502C51.7684 131.587 51.9867 131.698 52.1203 131.752C52.2183 131.747 52.3697 131.734 52.4855 131.721C53.0333 131.667 53.7815 131.596 54.6411 131.743C55.7323 131.926 56.525 132.502 57.0951 133.055C57.6964 132.787 58.4491 132.551 59.3265 132.587C60.8853 132.645 61.9587 133.555 62.6178 134.127L62.6356 134.113ZM61.785 134.118C61.785 134.118 61.7805 134.118 61.776 134.118C61.776 134.118 61.7805 134.118 61.785 134.118ZM106.372 78.7236C106.372 78.7236 106.372 78.7236 106.372 78.7281V78.7236ZM56.8814 12.2186C56.8814 12.2186 56.8546 12.2186 56.8413 12.2186C56.8546 12.2186 56.868 12.2186 56.8814 12.2186Z" fill="#FFBE39"/>
<path d="M40.6961 50.1494C40.8921 53.4081 39.213 57.3811 37.1198 57.3811C35.218 57.3811 34.2159 54.7295 33.8017 51.5645C33.196 51.4261 30.2654 50.8681 29.29 48.703C28.6442 47.2656 28.4215 44.9042 28.907 44.7658C29.1787 44.6854 30.203 45.2925 30.4881 45.73C30.929 46.2434 31.3165 47.029 32.3809 47.5826C32.7506 47.7745 33.5256 49.1494 36.1756 49.3771C37.3424 49.4753 38.9324 49.5958 40.852 49.4351C40.9411 49.7789 40.6605 49.6137 40.6917 50.1538L40.6961 50.1494Z" fill="#3D3D3D"/>
<path d="M72.202 50.1315C72.398 53.3903 70.3849 57.4481 68.2961 57.4481C66.3943 57.4481 65.1562 54.8009 64.742 51.6359C64.1363 51.4975 61.5798 50.8056 60.6089 48.6361C59.9631 47.1987 59.7048 45.2613 60.1902 45.1184C60.4619 45.0381 60.4976 45.9666 60.7826 46.4041C61.2235 46.9174 62.5552 46.913 63.6196 47.4665C63.9893 47.6585 64.7598 48.5156 67.4098 48.7432C68.5767 48.8414 70.1711 48.9664 72.0907 48.8102C72.1798 49.1539 72.1753 49.5914 72.2065 50.1315H72.202Z" fill="#3D3D3D"/>
<path d="M13.6175 64.9031C13.7645 64.4835 15.3233 65.0504 17.0469 63.7648C18.6146 62.5997 18.5166 60.6533 19.7325 60.323C20.6723 60.0685 21.2335 61.622 22.6498 61.5461C24.0928 61.4703 24.4268 59.6623 25.5581 59.7338C26.8318 59.8141 26.4444 62.7291 28.266 63.7692C30.2791 64.9209 33.7085 62.9166 33.8198 63.3184C33.9356 63.7335 31.0852 65.3629 27.8206 67.4297C25.1839 69.0993 24.458 69.7466 22.9259 69.8983C22.1732 69.9742 21.4962 69.3671 17.9154 67.6485C13.2122 65.3897 13.5507 65.0906 13.6175 64.9076V64.9031Z" fill="#FF6666"/>
<path d="M22.398 119.087C21.8368 118.413 21.2622 118.248 20.7411 117.547C20.2201 116.846 20.0018 115.976 19.5164 115.248C19.0309 114.521 17.5567 114.436 17.1113 113.686C16.666 112.936 15.6683 112.458 15.2586 111.686C14.8488 110.914 15.2942 109.686 14.9201 108.896C14.546 108.106 13.8868 107.436 13.5439 106.628C13.2009 105.82 12.6709 105.075 12.3636 104.253C12.0563 103.432 11.7178 102.606 11.4417 101.771C11.1655 100.937 12.2879 99.6867 12.043 98.843C11.798 97.9993 11.2591 97.2672 11.0453 96.419C10.8315 95.5708 9.45084 94.9905 9.26823 94.129C9.08563 93.2674 9.5711 92.2719 9.41521 91.4104C9.25933 90.5488 10.1234 89.5355 9.99866 88.6695C9.87395 87.8034 8.15034 86.3705 8.05236 85.5C8.90303 85.7768 10.0699 87.5847 10.9473 87.857C11.8247 88.1293 12.7288 88.232 13.6062 88.4954C14.4836 88.7587 15.6995 87.7811 16.5813 88.04C17.4632 88.2989 18.1223 89.2096 19.0086 89.4551C19.8949 89.7006 20.5764 90.5979 21.4627 90.8345C22.349 91.0711 23.5604 89.9596 24.4467 90.1872C25.333 90.4149 26.1079 90.9818 26.9942 91.1961C27.8805 91.4104 28.4907 92.7273 29.3815 92.9371C30.2722 93.1469 31.3545 92.4416 32.2453 92.638C33.136 92.8344 33.7773 94.129 34.677 94.3165C35.5767 94.5039 36.463 94.6736 37.3582 94.8521C38.2534 95.0307 39.4158 93.7406 40.3155 93.9102C41.2151 94.0799 41.9812 94.8477 42.8809 95.0084C43.7805 95.1691 44.5644 95.9324 45.464 96.0842C46.3637 96.236 47.3346 95.8789 48.2387 96.0172C49.1429 96.1556 50.0737 95.9994 50.9778 96.1288C51.8819 96.2583 52.6836 97.0395 53.5877 97.16C54.4918 97.2806 55.4182 97.16 56.3268 97.2672C57.2354 97.3743 58.2107 96.7672 59.1193 96.8654C60.0279 96.9636 60.981 96.4145 61.8896 96.5083C62.7981 96.602 63.6488 97.0975 64.5574 97.1779C65.4659 97.2582 66.2899 98.2135 67.2029 98.285C68.1204 98.3564 69.0512 98.1243 69.9553 98.1868C70.8595 98.2493 71.8393 97.3029 72.7434 97.352C73.6475 97.4011 74.5071 98.6778 75.4157 98.718C76.3242 98.7582 77.2283 99.4635 78.1325 99.4903C79.0366 99.517 79.9808 99.3162 80.8849 99.334C81.789 99.3519 82.7332 98.5975 83.6418 98.6064C84.5503 98.6153 85.4723 99.5126 86.3764 99.5126C87.2805 99.5126 88.2069 98.4323 89.111 98.4234C90.0151 98.4144 90.9281 97.8029 91.8323 97.7805C92.7364 97.7582 93.6984 99.084 94.6025 99.0528C95.5066 99.0215 96.3751 97.4681 97.2792 97.4279C98.1834 97.3877 99.1008 97.4011 100.005 97.3565C100.909 97.3118 101.862 97.8609 102.762 97.7984C103.661 97.7359 104.543 97.0306 105.443 96.9636L105.764 98.0573C105.349 98.8876 103.737 99.1197 103.314 99.959C102.891 100.798 104.009 102.405 103.577 103.24C103.145 104.075 101.867 104.441 101.417 105.267C100.967 106.093 100.237 106.726 99.7689 107.539C99.3012 108.351 98.8069 109.11 98.3125 109.905C97.8181 110.699 98.7401 112.409 98.2145 113.186C97.689 113.963 96.7938 114.503 96.237 115.257C95.6803 116.012 94.5981 116.346 94.0057 117.079C93.1417 117.36 92.2108 117.453 91.3112 117.726C90.4115 117.998 89.4762 117.958 88.5721 118.208C87.668 118.458 86.8262 118.744 85.9177 118.976C85.0091 119.208 84.1896 119.61 83.281 119.819C82.3724 120.029 81.5441 120.458 80.631 120.654C79.718 120.851 78.7693 120.703 77.8519 120.877C76.9344 121.051 76.0214 121.038 75.1039 121.194C74.1864 121.351 73.5406 123.109 72.6187 123.248C71.6968 123.386 70.5878 122.034 69.6614 122.154C68.735 122.275 67.8354 122.301 66.909 122.404C65.9826 122.507 65.2076 123.975 64.2768 124.056C63.3459 124.136 62.4195 124.136 61.4887 124.194C60.598 124.252 59.6404 123.136 58.763 123.176C57.8856 123.217 56.9949 123.489 56.1175 123.511C55.2401 123.534 54.3315 122.493 53.4541 122.498C52.5767 122.502 51.6815 123.377 50.8041 123.368C49.9267 123.359 49.0003 124.158 48.1229 124.132C47.2455 124.105 46.4083 122.614 45.5309 122.569C44.6535 122.525 43.6291 124.341 42.7517 124.275C41.8743 124.208 40.9969 123.672 40.124 123.592C39.251 123.511 38.3469 123.333 37.4784 123.234C36.61 123.136 35.6969 123.034 34.8284 122.917C33.96 122.801 33.2162 121.601 32.3521 121.467C31.4881 121.333 30.4682 121.967 29.6042 121.819C28.7401 121.672 27.6757 122.364 26.8161 122.199C25.9565 122.034 25.3775 120.293 24.5224 120.11C23.6673 119.927 23.2486 119.288 22.398 119.087Z" fill="#3D3D3D"/>
<path d="M63.5486 140.818C63.3215 140.818 63.0988 140.818 62.8895 140.814C62.5733 140.814 62.2615 140.805 61.9542 140.814C60.6047 140.845 59.5892 140.247 58.8722 139.684C58.1863 140.024 57.2644 140.354 56.1643 140.238C54.5921 140.073 53.5677 139.077 52.9531 138.39C52.3519 138.443 51.5769 138.492 50.6995 138.283C49.8399 138.082 49.1407 137.729 48.633 137.475C48.4414 137.376 48.1787 137.247 48.0762 137.216C47.3458 136.997 46.7312 136.702 46.2324 136.47C45.9473 136.336 45.7024 136.22 45.4931 136.144C45.2926 136.073 45.021 136.006 44.7092 135.935C44.2193 135.819 43.618 135.68 42.9811 135.421C42.8876 135.412 42.754 135.408 42.6426 135.403C41.9968 135.377 41.0259 135.332 40.0283 134.854C39.9303 134.828 39.7165 134.792 39.5606 134.765C38.9326 134.658 38.0731 134.506 37.2046 134.02C37.1066 133.966 36.7815 133.868 36.5677 133.801C35.9932 133.627 35.2761 133.408 34.559 132.962C33.0492 132.024 32.6217 130.462 32.439 129.368C31.9447 129.163 31.3523 128.89 30.7689 128.462C30.6575 128.381 30.3814 128.243 30.1365 128.127C29.5931 127.859 28.9161 127.529 28.2481 126.984C28.1723 126.931 27.9096 126.797 27.7136 126.699C27.1702 126.426 26.422 126.051 25.7317 125.422C25.5847 125.288 25.3264 125.109 25.0547 124.922C24.5692 124.587 23.9635 124.172 23.3979 123.6C23.3044 123.507 23.0327 123.319 22.8145 123.163C22.3023 122.806 21.6698 122.359 21.0908 121.712C20.5698 121.123 20.1823 120.502 19.8705 120.007C19.6923 119.721 19.5231 119.449 19.3895 119.284C18.6591 118.373 18.3829 117.378 18.2003 116.717C18.1691 116.601 18.1291 116.458 18.0979 116.364C17.5902 115.619 17.3318 114.873 17.1448 114.315C17.127 114.271 17.1136 114.222 17.0958 114.172C16.4055 113.838 15.2564 113.275 14.5082 112.057C14.4235 111.923 14.2053 111.673 14.0138 111.454C13.6263 111.016 13.1498 110.467 12.7489 109.766C12.0675 108.579 12.0764 107.387 12.0808 106.601C12.0808 106.543 12.0808 106.472 12.0808 106.41C11.876 106.017 11.6934 105.633 11.5152 105.258C11.3905 104.994 11.2658 104.731 11.1322 104.468C11.0609 104.405 10.9674 104.329 10.8917 104.267C10.3706 103.834 9.5823 103.182 9.0612 102.146C8.83406 101.695 8.61137 101.24 8.39314 100.785C8.21053 100.414 8.03237 100.044 7.84976 99.6733C7.35985 98.6957 7.27077 97.7672 7.20842 97.0886C7.19951 96.9949 7.1906 96.8833 7.17724 96.794C7.10598 96.7047 6.99018 96.5753 6.90111 96.4681C6.50918 96.0128 5.97475 95.3878 5.58727 94.5531C5.07508 93.4504 5.07953 92.388 5.07953 91.6827C5.07953 91.5845 5.07953 91.464 5.07953 91.3747C4.83903 90.7542 4.6965 90.1694 4.57625 89.6873C4.49608 89.3659 4.42482 89.0668 4.34465 88.8525C4.07297 88.1204 3.95717 87.4374 3.86809 86.8794C2.93725 86.3839 1.44526 85.5 1.01769 83.6698C0.950886 83.3841 0.866252 83.0894 0.78163 82.7903C0.607933 82.1698 0.40752 81.4645 0.287268 80.7012C0.17147 79.9602 0.126936 79.2414 0.082398 78.5451C0.0645829 78.246 0.0467613 77.9469 0.0200387 77.6567C-0.0690367 76.6255 0.158102 75.7372 0.322892 75.0854C0.36743 74.9069 0.429791 74.6658 0.443152 74.5587C0.434245 73.4784 0.852884 72.6213 1.27599 71.9874C0.799438 71.2687 0.336259 70.2777 0.411973 69.0501C0.411973 68.9965 0.371887 68.7421 0.340711 68.5546C0.247182 67.9296 0.113577 67.0725 0.238283 66.1083C0.336266 65.3628 0.527768 64.6753 0.701465 64.0727C0.790541 63.7557 0.875167 63.4611 0.928612 63.2067C1.23592 61.7737 2.18012 60.8988 2.84373 60.3497C2.82146 59.6444 2.83483 58.6712 3.29356 57.64C3.72113 56.6758 4.41591 56.0553 5.04389 55.6401C4.84347 54.5822 4.78558 53.1715 5.77432 51.8993C6.32659 51.1895 6.97683 50.5467 7.55137 49.9842C7.68498 49.8548 7.8186 49.7208 7.9433 49.5958C8.94985 48.587 10.1702 48.3325 10.9541 48.1897C10.9674 48.1718 10.9763 48.1584 10.9897 48.145C11.3683 47.6495 11.8894 46.971 12.7133 46.4353C13.6798 45.8059 14.6551 45.6318 15.3009 45.5202C15.3945 45.5023 15.4835 45.4889 15.5682 45.4711C16.4411 45.0515 17.2606 44.9443 17.844 44.8818C17.7327 44.2212 17.7416 43.498 17.991 42.7436C18.3963 41.5383 19.2559 40.8285 20.0264 40.3866C19.9329 39.6411 19.9596 38.7304 20.3961 37.8064C20.788 36.976 21.3358 36.3734 21.7322 35.9359C21.7723 35.8913 21.8168 35.8422 21.8569 35.7975C21.8881 35.0833 21.9371 33.9003 22.6497 32.7709C23.1084 32.0388 23.6607 31.5255 24.106 31.1103C24.2575 30.9675 24.4668 30.7755 24.5247 30.6952C25.1883 29.7711 26.0568 29.2756 26.6269 28.9497C26.7026 28.9051 26.8006 28.8515 26.8718 28.8069C27.4464 28.115 28.0343 27.4409 28.6756 26.7579C29.3169 26.0704 30.0251 25.633 30.5417 25.3115C30.5774 25.2892 30.613 25.2669 30.6486 25.2446C30.8401 24.4053 31.1697 23.0349 32.3945 22.0394C33.4857 21.1511 34.7416 20.9725 35.4899 20.8654C35.5567 20.8564 35.6368 20.8431 35.7126 20.8341C36.3806 20.4234 37.0264 20.1958 37.5208 20.0172C37.7078 19.9502 37.9617 19.861 38.0464 19.8163C38.2201 19.7092 38.4561 19.5217 38.71 19.3208C39.1598 18.9637 39.7165 18.5173 40.4157 18.1468C41.3599 17.6468 42.2552 17.5129 42.9099 17.4147C43.0479 17.3924 43.2305 17.3656 43.3241 17.3477C43.9699 17.0576 44.5756 16.8433 45.1145 16.6558C45.5465 15.7183 46.2725 14.1961 48.054 13.6336C48.8512 13.3837 49.5994 13.2765 50.2007 13.1917C50.5035 13.1471 50.7931 13.1069 50.9623 13.0667C51.2429 12.9953 51.5145 12.9239 51.7818 12.8569C52.5033 12.6694 53.1803 12.4909 53.8439 12.3659C55.0598 12.1382 56.0886 12.1828 56.7076 12.2096C56.8012 12.2096 56.8858 12.2186 56.9615 12.2186C57.9859 12.1293 58.8499 12.4105 59.5046 12.7051C60.1994 12.1561 61.2104 11.5579 62.5243 11.5802C64.0742 11.607 65.152 12.4864 65.8334 13.1694C66.2833 13.0578 66.84 12.9551 67.4546 12.9685C67.4947 12.9507 67.5392 12.9283 67.5749 12.9105C68.3231 12.5623 69.5746 11.973 71.0978 12.2989C72.5185 12.6025 73.3648 13.5622 73.8992 14.4416C74.6074 14.2809 75.4625 14.2274 76.3711 14.5443C76.6205 14.6291 76.8699 14.7139 77.1148 14.7943C77.7339 14.9996 78.3708 15.2094 79.0255 15.4818C80.1479 15.946 80.8516 16.7317 81.3192 17.245C81.3771 17.3075 81.4439 17.3834 81.4974 17.4415C82.0808 17.7584 82.5351 18.1289 82.8958 18.4593C83.8757 18.178 85.3855 17.8745 86.8285 18.7762C87.6124 19.2628 88.178 19.8699 88.5878 20.3118C88.7169 20.4502 88.8951 20.6422 88.9663 20.7002C89.5453 21.102 90.102 21.5439 90.592 21.9323C90.7835 22.0841 90.975 22.2358 91.1576 22.3787C91.3714 22.5438 91.6519 22.7179 91.9503 22.9054C92.418 23.2001 92.9525 23.5304 93.4646 23.9723C94.1594 24.566 94.6493 25.2089 95.0056 25.6821C95.1214 25.8338 95.2773 26.0392 95.3397 26.1061C95.6158 26.3695 95.9632 26.5927 96.2972 26.807C96.7382 27.0882 97.1969 27.3784 97.62 27.8382C98.6087 28.9095 98.8448 30.1996 98.9873 30.9675C99.0007 31.03 99.014 31.1014 99.0229 31.1683C99.4594 31.7933 99.7311 32.4138 99.936 32.887C100.016 33.0745 100.127 33.3289 100.181 33.4093C100.617 34.0209 100.969 34.6235 101.277 35.1547C101.285 35.1681 101.29 35.177 101.299 35.1904C102.265 35.4672 103.851 35.9404 104.724 37.5608C105.468 38.9447 105.218 40.333 104.911 41.324C105.374 41.7168 105.891 42.2525 106.256 42.9846C106.323 43.0427 106.403 43.1141 106.47 43.1721C107.066 43.6855 107.966 44.4667 108.403 45.7568C108.741 46.7567 108.737 47.6808 108.737 48.3548C108.737 48.5066 108.737 48.7075 108.741 48.8146C108.817 49.0468 108.937 49.3325 109.066 49.6316C109.289 50.1583 109.543 50.7565 109.721 51.444C109.797 51.7386 109.926 52.0868 110.059 52.4528C110.242 52.9483 110.447 53.5108 110.598 54.1268C110.915 55.4348 110.549 56.5776 110.269 57.3231C110.598 57.8588 111.044 58.6266 111.222 59.6087C111.257 59.7024 111.347 59.8944 111.418 60.0372C111.685 60.5997 112.05 61.3719 112.188 62.3406C112.384 63.7334 111.868 64.8851 111.556 65.5726C111.534 65.6172 111.511 65.6708 111.489 65.7244C111.507 66.3895 111.422 66.9788 111.355 67.4296C111.355 67.452 111.351 67.4743 111.347 67.4966C111.877 68.1439 112.665 69.1751 112.741 70.6437C112.754 70.9294 112.776 71.2241 112.794 71.5142C112.834 72.1258 112.874 72.7552 112.888 73.4025C112.914 74.514 112.496 75.3979 111.997 76.0765C112.571 76.7818 113.079 77.7281 113.039 78.9468L113.026 79.3932C113.003 80.1521 112.981 80.9333 112.932 81.719C112.839 83.2903 111.917 84.317 111.2 84.9911C111.315 85.5714 111.427 86.2946 111.324 87.1249C111.222 87.982 110.915 88.6918 110.647 89.2275C111.155 90.0444 111.756 91.2452 111.48 92.7541C111.217 94.1692 110.336 95.0977 109.81 95.6557C109.81 95.6557 109.806 95.6601 109.801 95.6646C109.797 95.7583 109.792 95.8566 109.788 95.9503C109.761 96.5217 109.73 97.2359 109.529 98.0216C109.449 98.3386 109.378 98.6555 109.307 98.9724C109.182 99.5304 109.053 100.111 108.87 100.722C108.594 101.655 108.082 102.334 107.623 102.834C107.935 103.709 108.22 104.919 107.708 106.249C107.36 107.151 106.835 107.82 106.447 108.307C106.34 108.441 106.198 108.624 106.145 108.708C105.828 109.427 105.423 110.003 105.102 110.467C104.938 110.704 104.768 110.945 104.701 111.083C104.14 112.231 103.218 112.891 102.608 113.298C102.519 113.963 102.377 114.931 101.789 115.887C101.41 116.503 101.023 117.056 100.644 117.592C100.502 117.797 100.355 118.003 100.212 118.212C99.7756 118.851 99.2857 119.346 98.8938 119.744C98.6756 119.962 98.4751 120.172 98.3504 120.328C97.7002 121.177 96.9074 121.668 96.3819 121.993C96.3507 122.011 96.315 122.034 96.2839 122.056C96.2839 122.065 96.2794 122.074 96.275 122.083C96.0746 122.779 95.7672 123.837 94.8765 124.761C94.3465 125.306 93.7942 125.721 93.3533 126.051C93.282 126.105 93.2108 126.158 93.144 126.207C92.9569 127.051 92.6407 128.431 91.4025 129.439C90.1421 130.471 88.6946 130.475 87.8306 130.48C87.8128 130.48 87.7905 130.48 87.7682 130.48C87.5322 130.631 87.2828 130.783 87.0156 130.944C86.9176 131.002 86.8151 131.064 86.7127 131.131C86.4499 132.1 85.9422 133.685 84.37 134.582C83.2566 135.216 82.1164 135.198 81.3237 135.131C80.8649 135.752 80.1612 136.555 79.0611 137.024C77.7562 137.577 76.5269 137.301 75.6139 136.943C75.1418 137.479 74.496 138.028 73.5919 138.341C73.5162 138.394 73.4004 138.479 73.3158 138.546C72.7546 138.966 71.9039 139.604 70.737 139.867C69.6993 140.1 68.7774 139.966 68.1049 139.867C67.998 139.85 67.8599 139.832 67.7575 139.818C67.6684 139.858 67.5615 139.912 67.4724 139.957C66.8489 140.265 65.9938 140.684 64.8981 140.787C64.435 140.832 63.9718 140.841 63.5353 140.841L63.5486 140.818ZM62.6356 134.113C62.747 134.113 62.8583 134.113 62.9741 134.113C63.4061 134.118 63.8159 134.127 64.1544 134.104C64.2568 134.06 64.4127 133.984 64.5329 133.926C65.0718 133.662 65.8023 133.301 66.7153 133.158C67.6461 133.011 68.4701 133.131 69.0758 133.22C69.1203 133.229 69.1738 133.234 69.2272 133.243C69.2628 133.216 69.294 133.194 69.3252 133.167C69.7082 132.881 70.1937 132.515 70.8172 132.229C70.8306 132.212 70.8439 132.189 70.8573 132.171C71.3116 131.524 72.0776 130.435 73.4717 129.939C74.7276 129.493 75.8722 129.747 76.7541 130.091C77.1371 129.649 77.6359 129.185 78.3174 128.85C79.1101 128.457 79.9074 128.355 80.5799 128.355C80.856 127.556 81.3415 126.618 82.3391 125.971C82.7889 125.681 83.2031 125.426 83.5728 125.203C83.9247 124.989 84.2587 124.783 84.4368 124.658C85.2608 124.065 86.1426 123.868 86.8775 123.801C87.0957 123.105 87.4654 122.297 88.1958 121.623C88.6145 121.239 89.0198 120.935 89.3805 120.668C89.5498 120.543 89.7146 120.422 89.8482 120.31C89.8571 120.275 89.8704 120.239 89.8793 120.208C90.0619 119.569 90.3425 118.61 91.0952 117.73C91.7099 117.021 92.3868 116.596 92.8856 116.288C92.9836 116.23 93.1039 116.154 93.1841 116.101C93.5181 115.681 93.8566 115.338 94.155 115.034C94.3955 114.788 94.6226 114.556 94.7295 114.4C94.8854 114.172 95.0457 113.945 95.2061 113.717C95.4822 113.324 95.745 112.949 95.981 112.583C95.9944 112.507 96.0033 112.414 96.0122 112.338C96.0924 111.726 96.2126 110.802 96.7204 109.869C97.3261 108.767 98.2302 108.168 98.8314 107.771C98.8671 107.749 98.9072 107.722 98.9472 107.695C99.1833 107.276 99.4371 106.918 99.6509 106.615C99.8112 106.387 100.007 106.106 100.061 105.981C100.355 105.307 100.747 104.767 101.067 104.347C100.751 103.499 100.408 102.276 100.867 100.923C101.254 99.7804 101.989 99.0394 102.479 98.5439C102.51 98.5126 102.55 98.4725 102.586 98.4368C102.662 98.1421 102.733 97.8252 102.804 97.4949C102.893 97.1065 102.978 96.7181 103.076 96.3342C103.103 96.2226 103.12 95.8833 103.129 95.6334C103.152 95.1245 103.183 94.4906 103.334 93.7942C103.526 92.9192 103.944 92.2496 104.359 91.7318C103.94 90.9729 103.552 89.9551 103.74 88.7364C103.886 87.7543 104.283 86.9999 104.572 86.4509C104.599 86.3973 104.63 86.3348 104.661 86.2768C104.648 86.2009 104.63 86.125 104.612 86.0536C104.483 85.4688 104.31 84.6697 104.394 83.7278C104.541 82.0716 105.61 81.0315 106.318 80.3887C106.327 80.2101 106.332 80.0271 106.336 79.8486C105.534 79.1254 104.354 77.9692 104.359 76.1389C104.363 74.3935 105.432 73.2552 106.171 72.5409C106.158 72.3401 106.145 72.1347 106.131 71.9294C106.127 71.8356 106.118 71.7419 106.113 71.6481C106.113 71.6481 106.113 71.6481 106.113 71.6437C105.606 71.0321 104.759 70.0054 104.635 68.5233C104.568 67.7109 104.675 66.9877 104.75 66.4609C104.777 66.2645 104.817 66.0011 104.817 65.9074C104.679 64.6798 105.098 63.662 105.41 62.9567C105.405 62.9433 105.396 62.9299 105.392 62.9165C105.165 62.4389 104.862 61.8005 104.697 61.0238C104.648 60.9434 104.577 60.8229 104.519 60.7291C104.18 60.1845 103.722 59.439 103.517 58.4391C103.236 57.0686 103.673 55.8901 103.944 55.1759C103.9 55.0464 103.846 54.9125 103.797 54.7697C103.619 54.2875 103.419 53.7385 103.258 53.118C103.205 52.9215 103.067 52.5867 102.929 52.2653C102.724 51.7877 102.497 51.2475 102.31 50.6181C102.056 49.7432 102.06 48.9262 102.06 48.3325C102.06 48.2924 102.06 48.2477 102.06 48.2075C101.584 47.7924 100.92 47.2031 100.448 46.3282C100.404 46.2969 100.359 46.2612 100.319 46.2344C99.7133 45.788 98.7958 45.1095 98.2391 43.9087C97.7759 42.9043 97.8026 41.9356 97.9763 41.1142C97.286 40.7839 96.5645 40.275 96.0434 39.4357C95.8608 39.1411 95.6871 38.842 95.5134 38.5474C95.2551 38.101 95.0101 37.6814 94.7429 37.3108C94.2975 36.6859 94.0303 36.0788 93.8165 35.5877C93.7274 35.3868 93.6116 35.119 93.5537 35.0342C92.7877 34.0967 92.5694 33.0343 92.4314 32.2933C91.9637 31.9897 91.3491 31.5612 90.7211 30.9675C90.2935 30.5612 89.9684 30.1327 89.6834 29.7577C89.4785 29.4899 89.2692 29.2131 89.1178 29.0836C88.9841 28.9676 88.6902 28.7846 88.4051 28.606C87.9998 28.3515 87.5456 28.0658 87.069 27.6998C86.8597 27.5391 86.6459 27.3695 86.4321 27.1998C86.0001 26.8561 85.5547 26.5034 85.1183 26.1999C84.6328 25.8606 84.2498 25.4856 83.9291 25.1508C82.9537 25.4187 81.5998 25.6419 80.2369 24.8919C79.5199 24.4946 78.9943 24.0036 78.6113 23.642C78.5 23.5393 78.353 23.3965 78.2728 23.3384C77.3509 22.8742 76.7452 22.2001 76.3354 21.7492C76.2864 21.6957 76.233 21.6332 76.184 21.5796C75.8232 21.4412 75.4224 21.3118 75.0038 21.1689C74.9815 21.16 74.9592 21.1555 74.9414 21.1466C74.162 21.4546 72.9194 21.901 71.4897 21.4993C70.2516 21.1511 69.4989 20.3252 69.0001 19.5262C68.5191 19.6556 67.9757 19.736 67.3834 19.6869C67.3076 19.7047 67.2097 19.7315 67.1339 19.7538C66.5639 19.9145 65.6998 20.1556 64.6799 20.0708C63.6511 19.986 62.8583 19.5396 62.2571 19.053C61.6692 19.4235 60.9343 19.7449 60.0302 19.7895C58.7074 19.852 57.6652 19.303 57.0417 18.9726C57.015 18.9592 56.9838 18.9414 56.9526 18.9235C56.7655 18.9235 56.5785 18.9146 56.4003 18.9057C55.9683 18.8878 55.5185 18.8655 55.0553 18.9548C54.6277 19.0351 54.0621 19.1824 53.4609 19.3387C53.1758 19.4146 52.8819 19.4904 52.5835 19.5663C52.0624 19.6958 51.5635 19.7672 51.1182 19.8297C51.0736 19.8342 51.0335 19.8431 50.9935 19.8476C50.5525 20.7672 49.8266 22.0394 48.2989 22.6242C47.9827 22.7447 47.6621 22.8563 47.3414 22.9724C46.8648 23.1376 46.415 23.2983 45.9963 23.4858C45.1947 23.8473 44.4375 23.9634 43.8808 24.0438C43.7427 24.0661 43.5601 24.0929 43.4577 24.1152C43.3018 24.2134 43.0747 24.3964 42.8564 24.5705C42.5001 24.8562 42.0503 25.2133 41.5203 25.5392C40.8745 25.9365 40.251 26.1597 39.7521 26.3383C39.5517 26.4097 39.28 26.5079 39.191 26.557C38.4472 27.0838 37.6455 27.3025 36.9908 27.4186C36.7815 28.173 36.4118 29.1238 35.5834 29.8961C35.0445 30.3961 34.4967 30.7398 34.0558 31.0121C33.8643 31.1282 33.6059 31.2889 33.5302 31.3603C32.9601 31.9719 32.4257 32.5834 31.9046 33.2173C31.2499 34.0209 30.4571 34.4717 29.9316 34.7708C29.8737 34.8065 29.798 34.8467 29.7401 34.8824C29.3659 35.3511 28.9785 35.7127 28.6533 36.0163C28.6133 36.052 28.5732 36.0922 28.5331 36.1323C28.5064 36.8064 28.4529 37.8064 27.9007 38.8108C27.5666 39.4179 27.1658 39.8955 26.8362 40.266C27.0188 41.0383 27.188 42.1275 26.7204 43.2926C26.3418 44.239 25.7005 44.864 25.0591 45.3014C25.3219 46.0737 25.4956 46.9844 25.2239 47.9843C24.9211 49.1048 24.057 49.9887 22.9436 50.319C22.6007 50.4217 21.416 50.7743 20.5787 51.1136C19.8438 51.4082 19.1668 51.4797 18.6725 51.5332C18.5656 51.5422 18.4319 51.56 18.3473 51.5734C17.6347 51.9171 16.9622 52.0332 16.4589 52.1225C16.4277 52.1269 16.3921 52.1359 16.3609 52.1403C16.3342 52.1716 16.3119 52.2073 16.2897 52.2341C15.9824 52.6358 15.5593 53.1894 14.9402 53.6894C13.9826 54.4661 12.9315 54.6536 12.2367 54.7741C12.2367 54.7741 12.2367 54.7741 12.2323 54.7741H12.2278C12.0853 54.917 11.9428 55.0598 11.8047 55.1982C12.0452 56.1803 12.2857 57.6088 11.4662 58.9882C10.9273 59.8988 10.1613 60.4479 9.53776 60.805C9.54221 61.3452 9.50658 62.0237 9.27943 62.7379C8.85187 64.0816 7.87204 64.8941 7.27524 65.3851C7.22625 65.5681 7.17725 65.7467 7.12825 65.9163C7.01691 66.3047 6.90558 66.7065 6.8655 66.9698C6.8655 67.0859 6.91003 67.3716 6.9412 67.5635C6.9902 67.8716 7.04363 68.2242 7.07035 68.6126C7.07035 68.6171 7.07927 68.6215 7.08373 68.626C7.60927 69.2867 8.48667 70.3848 8.47776 71.9606C8.46885 73.5766 7.60926 74.7194 7.07035 75.4158C7.00355 75.9381 6.88775 76.3979 6.78976 76.7684C6.74968 76.9157 6.70069 77.1121 6.67842 77.2237C6.70514 77.5317 6.72296 77.8397 6.74078 78.1522C6.77641 78.7192 6.80758 79.2504 6.87439 79.6745C6.93229 80.045 7.06146 80.5048 7.19953 80.9913L7.23514 81.1163C8.14371 81.594 9.56447 82.3886 10.0811 84.0894C10.2682 84.7099 10.3617 85.2857 10.4374 85.7455C10.4864 86.0625 10.5399 86.3884 10.5978 86.5491C10.8071 87.116 10.9362 87.6427 11.052 88.107C11.1411 88.4641 11.2213 88.8034 11.3104 89.0177C11.7513 90.0578 11.7468 91.0577 11.7468 91.7184C11.7468 91.7675 11.7468 91.8255 11.7468 91.8791C11.8136 91.9595 11.8893 92.0487 11.9562 92.1246C12.3303 92.5621 12.8425 93.1603 13.2299 93.9504C13.6931 94.8968 13.7822 95.803 13.8446 96.4681C13.8579 96.5887 13.8713 96.7494 13.8846 96.8476C14.0539 97.1868 14.2187 97.5306 14.3879 97.8743C14.5571 98.227 14.7309 98.5796 14.909 98.9323C14.9758 98.9903 15.0693 99.0662 15.1406 99.1287C15.6528 99.5528 16.4277 100.196 16.9533 101.209C17.1537 101.597 17.3452 101.995 17.5323 102.392C17.7416 102.825 17.9376 103.24 18.1425 103.615C18.766 104.767 18.7571 105.91 18.7526 106.668C18.7526 106.691 18.7526 106.718 18.7526 106.74C18.8417 106.847 18.9397 106.959 19.0243 107.057C19.2826 107.351 19.5899 107.7 19.8839 108.115C19.9284 108.137 19.9729 108.159 20.013 108.177C20.7167 108.521 21.7812 109.039 22.5339 110.168C23.0149 110.891 23.2687 111.623 23.4513 112.155C23.5092 112.32 23.5849 112.543 23.6295 112.637C24.2218 113.467 24.4579 114.32 24.6316 114.945C24.6628 115.052 24.6984 115.19 24.7296 115.284C25.0458 115.699 25.2996 116.11 25.5312 116.476C25.7272 116.788 25.9276 117.11 26.0746 117.275C26.1503 117.351 26.4309 117.547 26.6313 117.69C27.0723 117.998 27.6201 118.382 28.1411 118.909C28.2569 119.029 28.5598 119.235 28.827 119.418C29.2234 119.69 29.7133 120.025 30.1854 120.458C30.279 120.52 30.515 120.636 30.6887 120.726C31.1964 120.98 31.8244 121.297 32.4524 121.81C32.537 121.873 32.831 122.02 33.0448 122.123C33.5124 122.351 34.0958 122.636 34.6882 123.069C34.755 123.109 35.0222 123.217 35.2182 123.292C35.7215 123.493 36.3495 123.743 36.9997 124.172C38.3848 125.078 38.7322 126.511 38.8926 127.533C39.3112 127.667 39.8011 127.846 40.3 128.109C40.3979 128.131 40.5538 128.158 40.6741 128.176C41.1996 128.265 41.9033 128.39 42.6471 128.712C42.7273 128.716 42.8252 128.721 42.9054 128.725C43.5245 128.752 44.4598 128.792 45.4396 129.216C45.5866 129.279 45.8939 129.35 46.1968 129.422C46.6377 129.524 47.1855 129.654 47.7689 129.868C48.2544 130.047 48.682 130.247 49.0561 130.426C49.4124 130.596 49.7197 130.738 49.9735 130.814C50.6283 131.011 51.1672 131.283 51.5992 131.502C51.7684 131.587 51.9867 131.698 52.1203 131.752C52.2183 131.747 52.3697 131.734 52.4855 131.721C53.0333 131.667 53.7815 131.596 54.6411 131.743C55.7323 131.926 56.525 132.502 57.0951 133.055C57.6964 132.787 58.4491 132.551 59.3265 132.587C60.8853 132.645 61.9587 133.555 62.6178 134.127L62.6356 134.113ZM61.785 134.118C61.785 134.118 61.7805 134.118 61.776 134.118C61.776 134.118 61.7805 134.118 61.785 134.118ZM106.372 78.7236C106.372 78.7236 106.372 78.7236 106.372 78.7281V78.7236ZM56.8814 12.2186C56.8814 12.2186 56.8546 12.2186 56.8413 12.2186C56.8546 12.2186 56.868 12.2186 56.8814 12.2186Z" fill="#FFBE39"/>
<g opacity="0.7">
<path d="M108.457 81.1386C108.475 82.0136 107.82 82.9287 108.109 83.7947C108.381 84.6072 108.875 85.3705 109.361 86.1517C109.815 86.8794 110.795 87.1874 111.405 87.8704C111.98 88.5132 112.675 88.9328 113.374 89.5176C114.073 90.1024 113.833 91.8389 114.59 92.3344C115.347 92.8299 116.514 92.5978 117.315 93.0085C118.117 93.4192 118.794 94.0575 119.627 94.3745C120.46 94.6914 121.44 94.5173 122.304 94.7495C123.168 94.9816 124.058 94.803 124.936 94.937C125.813 95.0709 126.619 95.5128 127.506 95.5396C128.392 95.5664 129.189 94.9102 130.075 94.8254C131.015 94.7316 131.888 94.8387 132.806 94.6155C133.723 94.3923 134.36 93.6513 135.237 93.3076C136.115 92.9639 136.899 92.7407 137.727 92.2809C138.555 91.8211 139.326 91.4997 140.088 90.9417C140.849 90.3836 141.727 90.0979 142.412 89.4462C143.098 88.7945 143.553 88.0356 144.149 87.299C144.746 86.5624 146.519 86.6562 147.013 85.8437C147.508 85.0313 146.813 83.5849 147.196 82.7144C147.53 81.9556 149.191 81.6386 149.449 80.8128C149.708 79.9869 148.247 78.737 148.421 77.8978C148.594 77.0585 150.198 76.4559 150.287 75.6122C150.376 74.7685 149.864 73.8355 149.864 72.9873C149.864 72.1392 150.425 71.1883 150.331 70.3536C150.233 69.4965 149.583 68.6706 149.378 67.8626C149.164 67.0234 149.538 65.8761 149.2 65.1128C148.861 64.3494 147.953 63.6664 147.463 62.9879C146.973 62.3094 146.238 61.6353 145.583 61.0907C144.875 60.5015 143.419 61.2827 142.604 60.9255C141.789 60.5684 141.254 59.7738 140.35 59.6265C139.446 59.4792 138.631 58.7158 137.705 58.7426C136.832 58.7694 135.995 59.5194 135.081 59.6756C134.168 59.8319 133.46 60.3497 132.578 60.6041C131.697 60.8586 130.695 60.5193 129.839 60.8452C128.984 61.1711 128.579 62.3897 127.755 62.7692C126.931 63.1486 125.715 62.6487 124.922 63.0772C124.13 63.5057 123.577 64.3405 122.811 64.8048C122.045 65.269 121.698 66.3583 120.959 66.8538C120.219 67.3493 119.377 67.6885 118.674 68.2153C117.93 68.7733 116.264 68.1037 115.596 68.6617C114.87 69.2688 114.015 69.7375 113.401 70.3223C112.799 70.8892 112.145 71.4383 111.57 72.0142C110.995 72.59 111.797 74.4828 111.276 75.0988C110.755 75.7149 109.312 75.6658 108.898 76.3532C108.484 77.0407 108.016 77.8442 107.78 78.6209C107.544 79.3977 108.439 80.2771 108.457 81.1297V81.1386Z" fill="white"/>
<path d="M127.559 98.8877C127.505 98.8877 127.452 98.8877 127.398 98.8877C126.436 98.8564 125.63 98.602 125.038 98.4189C124.811 98.3475 124.557 98.2672 124.437 98.2493C124.303 98.2314 124.045 98.227 123.791 98.2314C123.185 98.2314 122.352 98.2314 121.448 97.9904C121.372 97.977 121.11 97.9636 120.914 97.9502C120.268 97.9145 119.382 97.8699 118.437 97.5083C117.6 97.1869 116.941 96.7405 116.411 96.3833C116.242 96.2673 116.077 96.1601 115.948 96.0798C115.854 96.0664 115.729 96.053 115.631 96.0396C114.905 95.9548 113.814 95.8298 112.763 95.1423C111.262 94.1558 110.884 92.5577 110.683 91.6604C110.67 91.647 110.652 91.6381 110.639 91.6247C110.122 91.2319 109.534 90.7854 108.955 90.1471C108.884 90.0935 108.724 89.9864 108.603 89.906C108.029 89.5266 107.16 88.9463 106.523 87.924L106.412 87.7454C105.9 86.9241 105.317 85.9911 104.942 84.8706C104.444 83.393 104.8 82.1208 105.027 81.344C104.675 80.5896 104.096 79.2593 104.586 77.6567C104.942 76.4961 105.526 75.4828 106.047 74.6257C106.586 73.7373 107.334 73.2284 108.007 72.916C107.993 71.9249 108.189 70.6839 109.209 69.6617C109.614 69.2555 110.02 68.8894 110.416 68.5367C110.652 68.3269 110.884 68.1171 111.111 67.9029C111.636 67.4073 112.189 67.019 112.679 66.6797C112.973 66.4744 113.253 66.2779 113.467 66.1039C114.794 64.9968 116.344 65.0682 117.262 65.1128C117.279 65.1128 117.297 65.1128 117.319 65.1128C117.671 64.8941 118.005 64.7111 118.317 64.5459C118.553 64.4209 118.762 64.3048 118.941 64.1977C118.994 64.1263 119.056 64.037 119.11 63.9611C119.497 63.4076 120.081 62.5728 121.087 61.9612C121.15 61.9166 121.346 61.7246 121.493 61.5863C121.929 61.1666 122.526 60.5908 123.35 60.1444C124.45 59.5551 125.559 59.5417 126.303 59.5685C126.766 58.9927 127.496 58.1757 128.654 57.7338C129.723 57.3231 130.73 57.3499 131.393 57.3677C131.509 57.3677 131.661 57.3767 131.754 57.3722C131.906 57.3186 132.106 57.2294 132.315 57.1312C132.876 56.8767 133.571 56.5642 134.435 56.4035C134.524 56.3678 134.702 56.283 134.836 56.216C135.464 55.908 136.417 55.4393 137.611 55.408C138.929 55.3679 139.985 55.8678 140.675 56.1982C140.786 56.2517 140.929 56.3187 141.013 56.3544C142.234 56.5865 143.093 57.207 143.637 57.6222C144.55 57.4927 146.265 57.3142 147.721 58.5284C148.808 59.4346 149.587 60.2337 150.166 61.0327C150.224 61.1086 150.424 61.3184 150.558 61.4523C151.079 61.9925 151.796 62.7335 152.255 63.7602C152.763 64.912 152.705 66.0369 152.665 66.7824C152.66 66.8895 152.651 67.019 152.651 67.1172C152.691 67.2065 152.763 67.3493 152.816 67.4609C153.119 68.0769 153.529 68.9207 153.653 69.9831C153.778 71.0991 153.502 72.0633 153.315 72.7017C153.288 72.7999 153.252 72.9204 153.226 73.0142C153.248 73.1079 153.279 73.2329 153.306 73.3311C153.48 73.9918 153.72 74.8935 153.609 75.9693C153.484 77.13 152.91 77.9782 152.335 78.5897C152.727 79.4334 153.034 80.5539 152.633 81.8262C152.219 83.1475 151.266 83.9242 150.504 84.4064C150.571 85.2768 150.553 86.4598 149.854 87.6026C148.923 89.1248 147.387 89.5757 146.474 89.8435C146.447 89.8525 146.42 89.8614 146.389 89.8703C146.345 89.9284 146.3 89.9864 146.26 90.0489C145.846 90.6114 145.374 91.2497 144.71 91.8836C143.993 92.5666 143.263 92.9684 142.675 93.2898C142.43 93.4237 142.194 93.5531 142.056 93.6558C141.307 94.2049 140.599 94.5709 139.976 94.8923C139.766 94.9995 139.553 95.1111 139.334 95.2316C138.51 95.687 137.758 95.9593 137.094 96.2003C136.885 96.2762 136.667 96.3566 136.448 96.4414C136.386 96.4726 136.177 96.611 136.025 96.7137C135.455 97.0976 134.676 97.6199 133.585 97.8877C132.658 98.1109 131.83 98.1288 131.171 98.1422C130.917 98.1466 130.69 98.1511 130.489 98.1645C130.405 98.1957 130.267 98.2493 130.16 98.2939C129.563 98.5395 128.672 98.9011 127.559 98.9011V98.8877ZM123.84 91.5309C124.285 91.5309 124.828 91.5309 125.434 91.6247C126.067 91.7184 126.606 91.8881 127.038 92.0264C127.167 92.0666 127.327 92.1202 127.456 92.1514C127.514 92.1291 127.581 92.1023 127.634 92.08C128.151 91.8702 128.859 91.58 129.745 91.4908C130.226 91.4417 130.658 91.4372 131.042 91.4283C131.398 91.4193 131.714 91.4149 131.932 91.3792C132.026 91.3256 132.182 91.2229 132.297 91.1426C132.716 90.8613 133.286 90.4774 134.017 90.1917C134.288 90.0846 134.551 89.9908 134.809 89.8971C135.33 89.7096 135.74 89.5578 136.11 89.3525C136.386 89.2007 136.653 89.0623 136.92 88.924C137.402 88.674 137.785 88.4775 138.11 88.241C138.6 87.8794 139.076 87.6205 139.459 87.4062C139.695 87.2767 140.016 87.0982 140.105 87.0178C140.345 86.7901 140.595 86.4509 140.884 86.0536C141.098 85.7634 141.312 85.4733 141.548 85.1876C142.203 84.3796 143.013 83.9555 143.735 83.6876C143.708 83.0002 143.77 82.1877 144.14 81.3574C144.452 80.6476 144.919 80.1254 145.396 79.7281C145.12 79.0272 144.951 78.179 145.147 77.2193C145.4 76.0051 146.122 75.1837 146.737 74.6257C146.625 74.1659 146.518 73.6079 146.518 72.9829C146.518 72.1169 146.732 71.3759 146.888 70.8402C146.901 70.7866 146.919 70.7286 146.937 70.6705C146.897 70.5813 146.848 70.4875 146.808 70.4072C146.585 69.9518 146.309 69.3849 146.131 68.6974C145.908 67.8225 145.953 67.019 145.984 66.4297C145.984 66.4074 145.984 66.3851 145.984 66.3583C145.904 66.2735 145.819 66.1842 145.748 66.1128C145.432 65.7869 145.075 65.4164 144.746 64.9611C144.612 64.7736 144.412 64.5548 144.149 64.3048C143.387 64.4075 142.35 64.4789 141.254 64.0013C140.546 63.6933 140.029 63.2915 139.651 63.0013C139.602 62.9612 139.539 62.9165 139.486 62.8764C138.787 62.7156 138.212 62.4433 137.776 62.2335C137.776 62.2335 137.767 62.2335 137.762 62.2291C137.762 62.2291 137.762 62.2291 137.758 62.2291C137.241 62.4835 136.533 62.8273 135.651 62.9835C135.558 63.0058 135.264 63.1397 135.045 63.2335C134.631 63.421 134.11 63.6531 133.5 63.8317C132.636 64.0816 131.852 64.0682 131.269 64.0549C130.828 64.5995 130.186 65.345 129.162 65.8182C128.049 66.336 126.984 66.2958 126.267 66.2646C126.218 66.3137 126.169 66.3583 126.12 66.4029C125.764 66.7467 125.327 67.1663 124.753 67.5457C124.699 67.6172 124.633 67.7154 124.575 67.7957C124.223 68.3001 123.693 69.059 122.824 69.6438C122.343 69.9697 121.885 70.2152 121.484 70.434C121.163 70.6081 120.86 70.7732 120.673 70.9116C119.377 71.8803 117.925 71.8401 117.017 71.7999C116.83 71.9339 116.651 72.0589 116.482 72.1749C116.17 72.3937 115.845 72.6169 115.685 72.7686C115.418 73.0231 115.142 73.2731 114.861 73.5231C114.825 73.5543 114.79 73.59 114.75 73.6213C114.839 74.6167 114.857 76.0452 113.814 77.2773C113.022 78.2148 112.019 78.6031 111.32 78.8263C111.302 78.862 111.285 78.8977 111.262 78.9335C111.503 79.4736 111.766 80.2012 111.783 81.0851C111.797 81.9377 111.592 82.6654 111.449 83.1564C111.605 83.46 111.823 83.8082 112.051 84.1698C112.122 84.2189 112.211 84.2769 112.282 84.326C112.723 84.6162 113.324 85.0179 113.881 85.6384C114.041 85.8215 114.326 86.0357 114.661 86.2857C114.941 86.5 115.226 86.7187 115.516 86.9598C116.411 87.7142 116.803 88.6829 117.021 89.4686C117.56 89.5534 118.183 89.7007 118.825 90.0266C119.337 90.2899 119.76 90.5756 120.139 90.8301C120.344 90.9685 120.615 91.1515 120.767 91.2274C120.882 91.2408 121.096 91.2542 121.257 91.2631C121.782 91.2899 122.432 91.3256 123.158 91.5175C123.247 91.5354 123.559 91.5309 123.782 91.5354H123.831L123.84 91.5309Z" fill="#E1E1E1"/>
</g>
<path d="M96.8808 44.5917C96.1014 44.4221 94.5827 44.7837 93.545 44.5649C92.7076 44.3908 91.8837 43.7703 90.895 43.5739C90.0354 43.4043 89.1179 43.2213 88.1514 43.0382C87.274 42.8731 86.3387 42.7972 85.3856 42.6231C84.4993 42.4624 83.5373 42.5517 82.5887 42.3865C81.6934 42.2347 80.7493 42.266 79.8006 42.1142C78.9188 41.9713 78.1794 40.9134 77.2887 40.775C76.3979 40.6366 75.5428 40.3196 74.652 40.1857C73.7613 40.0518 72.8928 39.7973 72.0021 39.6724C71.1113 39.5474 69.98 41.1723 69.0893 41.0473C68.1985 40.9223 67.4681 39.6456 66.5774 39.525C65.6866 39.4045 64.7379 39.7215 63.8516 39.6054C62.9653 39.4893 62.1147 38.9894 61.2284 38.8822C60.3421 38.7751 59.429 38.7126 58.5472 38.6055C57.6654 38.4983 56.7256 38.6278 55.8438 38.5251C54.9619 38.4224 54.1558 37.3511 53.2784 37.2529C52.401 37.1546 51.3544 38.0966 50.4814 37.9983C49.6085 37.9001 48.7133 37.4627 47.8403 37.3689C46.9184 37.2707 46.0677 36.8065 45.2037 36.7127C44.2728 36.6145 43.4222 36.0877 42.5671 35.9985C41.6229 35.9003 40.6386 36.6859 39.8013 36.6011C38.8348 36.5029 37.9218 36.5743 37.1067 36.494C36.0824 36.3958 35.1382 36.7975 34.3855 36.7306C32.6708 36.5699 33.1518 35.4271 31.8112 35.311C30.9026 35.2351 30.0386 35.0253 29.2013 34.9539C28.2838 34.878 27.4198 34.7307 26.5869 34.6637C25.665 34.5878 24.7787 34.6816 23.9548 34.6102C23.0195 34.5298 22.0441 35.6101 21.2335 35.5297C20.2804 35.4405 19.5856 33.7709 18.7973 33.6727C17.8174 33.5522 16.8732 34.2129 16.1161 34.07C15.0739 33.8736 14.1965 33.8647 13.5418 33.5879C12.5219 33.1549 11.5555 32.6996 11.3239 31.9317C11.0789 31.1237 10.825 29.664 11.3283 28.7042C11.7024 27.99 13.4483 27.9989 14.1431 27.2222C14.7132 26.5883 15.3055 25.9321 16.0448 25.2714C16.6996 24.6866 16.7619 23.3028 17.519 22.7046C18.2227 22.1466 19.452 22.2225 20.218 21.6645C20.9841 21.1065 21.3181 20.0306 22.0886 19.4994C22.8591 18.9682 23.4693 18.2227 24.2398 17.7094C25.0103 17.196 26.1326 17.196 26.8987 16.696C27.6647 16.196 29.1122 16.6826 29.8693 16.1916C30.622 15.705 31.3391 15.214 32.0472 14.7586C32.8044 14.2721 32.3902 12.0088 33.1028 11.5579C33.8599 11.0758 35.0491 11.3213 35.7617 10.8705C36.5233 10.3928 37.0132 9.52679 37.7303 9.08932C38.4963 8.62059 39.2891 8.23669 40.0195 7.80814C40.79 7.35281 42.3889 8.42418 43.1282 8.01795C43.9076 7.58494 43.8319 5.59399 44.5891 5.21008C45.3462 4.82617 46.4819 5.07616 47.2613 4.7235C48.0407 4.37084 49.1008 4.64761 49.9024 4.33067C50.7041 4.01372 51.0203 2.31293 51.8487 2.03616C52.6771 1.75939 53.6436 1.91563 54.4987 1.6835C55.3538 1.45137 56.2312 1.49601 57.1042 1.30406C57.5273 1.21031 58.5383 1.56297 59.8655 1.35316C60.6316 1.23263 61.5758 1.66118 62.5957 1.54511C63.4196 1.45137 64.2168 0.393395 65.1878 0.326435C66.0384 0.268403 66.9381 0.0273447 67.8912 0.000560561C68.7552 -0.0262236 69.6638 0.915687 70.6036 0.924615C71.4765 0.933543 72.3717 0.634452 73.3025 0.679093C74.1799 0.723733 75.0796 0.647845 76.0015 0.732661C76.9235 0.817478 77.6717 1.67457 78.5892 1.79064C79.5067 1.9067 80.6201 0.295186 81.5287 0.451427C82.4372 0.607668 83.2389 1.17906 84.1341 1.37548C85.0293 1.5719 85.9869 1.44244 86.8732 1.67903C87.7595 1.91563 88.5166 2.54059 89.394 2.8129C90.2714 3.0852 91.2512 3.00039 92.1108 3.31287C92.9704 3.62535 93.487 4.76368 94.3333 5.11633C95.1795 5.46899 96.5023 4.71011 97.3307 5.10294C98.1591 5.49578 98.0388 7.70547 98.8449 8.13848C99.6511 8.57149 101.174 7.65636 101.958 8.12509C102.657 8.54471 103.637 8.67863 104.448 9.19199C105.156 9.63839 105.49 10.7946 106.256 11.3258C106.955 11.8124 107.904 12.049 108.634 12.6159C109.311 13.1427 110.042 13.7096 110.728 14.3167C111.373 14.8881 112.326 15.2497 112.968 15.897C113.609 16.5442 114.304 17.1469 114.896 17.8388C115.489 18.5307 114.905 20.111 115.444 20.8431C115.961 21.5439 116.175 22.4234 116.66 23.1912C117.145 23.959 118.66 24.0572 119.083 24.8652C119.506 25.6687 119.827 26.5347 120.174 27.3249C120.539 28.1596 121.417 28.8203 121.702 29.6283C122.009 30.4943 121.381 31.6639 121.613 32.4808C121.866 33.3736 121.92 34.2754 122.098 35.0923C122.299 36.0163 121.991 36.9627 122.125 37.7707C122.285 38.7438 123.831 39.4134 123.937 40.1813C124.071 41.1589 122.53 42.2392 122.597 43.0829C122.673 44.056 124.009 44.8997 124.009 45.7613C124.009 46.7032 124.325 47.663 124.267 48.5558C124.209 49.4486 122.731 50.2387 122.637 51.1762C122.552 52.0377 122.236 52.9127 122.147 53.8814C122.067 54.7295 123.22 55.7339 123.154 56.7115C123.091 57.5597 122.904 58.4481 122.86 59.4257C122.82 60.2783 123.287 61.1577 123.252 62.0103C123.216 62.863 122.668 63.7022 122.637 64.5548C122.606 65.4075 122.664 66.269 122.646 67.1172C122.628 67.9654 121.457 68.8269 121.457 69.6751C121.457 70.5232 122.828 71.3848 122.846 72.2285C122.864 73.0722 122.067 73.9873 122.116 74.8221C122.165 75.6569 123.234 76.447 123.327 77.2773C123.43 78.1567 122.463 79.1522 122.615 79.9647C122.779 80.8396 122.708 81.786 122.949 82.5761C123.207 83.4332 123.381 84.3974 123.733 85.134C124.12 85.9375 126.031 85.6965 126.552 86.3304C127.104 87.0044 127.549 87.2812 128.267 87.741C129.01 88.2142 129.037 90.1739 129.852 90.3748C130.667 90.5756 131.696 89.5221 132.556 89.5132C133.415 89.5043 134.07 88.7543 134.912 88.6025C135.753 88.4508 136.644 88.8124 137.45 88.5892C138.31 88.3481 139.201 88.366 139.967 88.1204C140.875 87.8303 141.606 87.0803 142.318 86.9062C143.512 86.6161 145.463 86.7589 145.797 87.3258C146.108 87.8571 145.877 89.848 145.218 90.9997C144.83 91.6827 142.603 91.272 141.926 92.08C141.378 92.7318 141.637 94.187 140.924 94.879C140.292 95.4905 139.927 96.5262 139.178 97.1378C138.488 97.7047 137.847 98.4904 137.072 99.0439C136.297 99.5974 134.947 99.1868 134.141 99.6733C133.335 100.16 132.524 100.517 131.691 100.937C130.859 101.356 129.812 101.142 128.948 101.49C128.128 101.825 127.451 102.45 126.574 102.731C125.697 103.012 125.078 104.03 124.187 104.24C123.296 104.45 122.535 105.41 121.635 105.552C120.735 105.695 119.653 104.499 118.749 104.579C117.845 104.66 116.95 103.87 116.045 103.887C115.141 103.905 114.308 104.039 113.409 103.986C112.509 103.932 111.525 104.941 110.634 104.816C109.743 104.691 108.973 103.905 108.095 103.7C107.218 103.495 106.176 103.87 105.325 103.579C104.475 103.289 103.704 102.731 102.889 102.352C102.074 101.972 100.742 102.401 99.9762 101.923C99.2235 101.454 99.6644 99.3117 98.9696 98.7314C98.2749 98.1511 96.3152 98.9814 95.6917 98.3207C95.0681 97.6601 95.7629 95.9191 95.2151 95.1914C94.6673 94.4638 94.164 93.8389 93.6919 93.0621C93.2198 92.2854 93.0283 91.4774 92.6275 90.6605C92.2266 89.8435 90.5832 89.6382 90.2491 88.7945C89.9151 87.9508 90.6322 86.7723 90.365 85.9063C90.0977 85.0403 88.5344 84.5492 88.3296 83.6653C88.1247 82.7815 89.3272 81.6387 89.1803 80.7459C89.0333 79.8531 88.0935 79.1031 88 78.2014C87.9065 77.2996 87.2473 76.4381 87.2072 75.5319C87.1671 74.6257 87.2651 73.7016 87.274 72.7954C87.2829 71.8892 87.5814 70.9875 87.6437 70.0858C87.7061 69.184 87.3364 68.2287 87.4477 67.327C87.5591 66.4253 87.9866 65.5637 88.1425 64.6709C88.2984 63.7781 88.4409 62.8764 88.6413 61.9925C88.8418 61.1086 88.8418 60.1622 89.0823 59.2918C89.3228 58.4213 90.6322 57.8811 90.9128 57.0196C91.1933 56.158 91.0464 55.1715 91.3715 54.3278C91.6966 53.4841 92.8635 53.0198 93.2243 52.1895C93.585 51.3592 93.928 50.5824 94.3244 49.7655C94.7207 48.9486 94.3822 47.7969 94.8143 47.0023C95.2463 46.2077 96.4087 45.3774 96.8719 44.6006L96.8808 44.5917Z" fill="#FF6666"/>
<path d="M87.4118 161.478C87.3361 161.478 87.2604 161.478 87.1847 161.469C85.3853 161.348 84.0136 159.817 84.0715 158.023C84.0715 157.978 84.067 157.929 84.0626 157.871C84.0091 156.817 83.8844 154.358 85.5412 152.3C85.7015 152.099 85.8708 151.916 86.0445 151.746C85.461 151.496 84.6193 151.121 83.8622 150.38C83.7864 150.327 83.6172 150.228 83.4925 150.153C82.9402 149.822 82.1786 149.367 81.5061 148.586C80.6198 147.559 80.4416 146.385 80.3659 145.586C79.7914 145.215 79.0298 144.671 78.4464 143.747C78.3706 143.631 78.1836 143.412 78.0144 143.22C77.6224 142.769 77.1325 142.211 76.7361 141.466C76.3709 140.778 76.0859 140.095 75.8365 139.492C75.7474 139.283 75.6627 139.073 75.5737 138.872C75.1773 137.961 75.155 137.091 75.2396 136.372C74.3845 135.886 73.3958 135.1 73.0172 133.707C72.799 132.908 72.652 132.113 72.5184 131.417L72.4204 130.895C72.2645 130.109 72.2423 129.373 72.2244 128.779C72.2155 128.489 72.2066 128.212 72.1844 128.033C71.9661 126.252 72.9148 124.931 73.4848 124.181C73.5071 123.663 73.5606 123.221 73.6051 122.864C73.6274 122.681 73.6586 122.453 73.6586 122.368C73.6942 120.543 75.1817 119.087 76.9989 119.087C77.0211 119.087 77.0434 119.087 77.0657 119.087C78.9096 119.123 80.3748 120.654 80.3392 122.502C80.3303 122.94 80.2813 123.342 80.2368 123.699C80.1878 124.092 80.1433 124.431 80.1611 124.766C80.2412 126.328 79.4084 127.449 78.8873 128.127C78.8917 128.279 78.9007 128.422 78.9051 128.56C78.9185 128.966 78.9318 129.346 78.9808 129.605L79.0877 130.172C79.1322 130.404 79.1768 130.64 79.2213 130.877C80.1388 131.319 81.4081 132.055 81.9559 133.613C82.4102 134.903 82.1341 136.086 81.9559 136.81C81.9693 136.841 81.9827 136.872 81.996 136.899C82.2143 137.417 82.4191 137.903 82.6418 138.327C82.6863 138.399 82.8868 138.631 83.0337 138.796C83.301 139.104 83.6261 139.475 83.9379 139.925C84.0002 139.966 84.0804 140.019 84.1472 140.059C84.646 140.376 85.4031 140.854 86.0089 141.675C86.7215 142.64 86.8996 143.693 86.9753 144.434C87.3806 144.68 87.9106 145.001 88.4139 145.474C88.4985 145.514 88.6321 145.572 88.7346 145.617C89.2557 145.84 89.9638 146.144 90.6452 146.729C91.3445 147.336 91.8834 147.791 92.4178 148.188C93.2195 148.782 93.7273 149.474 94.0969 149.978C94.1548 150.054 94.2261 150.153 94.2751 150.22C95.2683 150.983 95.7582 152.246 95.5221 153.496C95.2683 154.844 94.2172 155.902 92.8721 156.161C92.6049 156.215 92.3733 156.228 92.1239 156.25C91.4202 156.304 90.9659 156.389 90.7655 156.505C90.6987 156.755 90.7299 157.291 90.7388 157.527C90.7521 157.786 90.7655 158.058 90.7477 158.353C90.6274 160.121 89.1621 161.473 87.4207 161.473L87.4118 161.478ZM84.0759 157.907C84.0759 157.907 84.0759 157.951 84.0759 157.978C84.0759 157.956 84.0759 157.929 84.0759 157.907Z" fill="#3D3D3D"/>
<path d="M109.605 116.4C109.454 116.4 109.298 116.391 109.142 116.378C107.641 116.23 106.554 115.454 105.837 114.94C105.739 114.873 105.619 114.784 105.534 114.726C104.127 114.306 101.753 113.507 101.027 111.025C100.631 109.668 100.635 107.561 102.933 105.236C103.53 104.633 104.185 104.249 104.715 103.941C104.942 103.812 105.218 103.646 105.338 103.548C105.423 103.445 105.583 103.173 105.704 102.972C105.94 102.579 106.229 102.088 106.617 101.606C106.893 101.258 107.205 100.977 107.512 100.74C107.263 100.196 107.067 99.5573 107.049 98.8341V98.6065C107.026 97.9815 107.018 97.6333 106.875 97.1646C106.795 96.9012 106.724 96.6334 106.652 96.3611C106.528 95.8789 106.43 95.495 106.256 95.1513C105.775 94.1782 105.735 93.2095 105.708 92.5711C105.708 92.5086 105.704 92.4327 105.699 92.3613C105.566 92.1872 105.392 91.9863 105.214 91.781C104.933 91.4506 104.608 91.0757 104.292 90.6516C104.185 90.5087 103.922 90.2587 103.673 90.0177C103.312 89.6739 102.907 89.2856 102.497 88.799C102.248 88.5044 101.922 88.174 101.584 87.8214C101.294 87.5268 101.001 87.2232 100.711 86.9062C100.105 86.2456 99.5129 85.6206 98.8983 84.9956C98.3416 84.4332 97.9764 83.835 97.678 83.3573C97.5533 83.1565 97.3841 82.8842 97.3084 82.8038C95.9767 81.5226 95.9366 79.4067 97.2148 78.0719C98.493 76.7372 100.609 76.697 101.94 77.9782C102.604 78.6166 103.036 79.3174 103.352 79.8263C103.459 80.0004 103.606 80.237 103.668 80.3129C104.31 80.9646 104.973 81.6655 105.624 82.3708C105.864 82.6342 106.109 82.8842 106.35 83.1297C106.764 83.5538 107.191 83.9912 107.605 84.4823C107.779 84.6876 108.024 84.9198 108.282 85.1697C108.71 85.576 109.195 86.0402 109.636 86.6339C109.819 86.8795 110.042 87.1384 110.278 87.4151C110.679 87.8794 111.128 88.4062 111.52 89.0222C112.295 90.2409 112.353 91.5221 112.384 92.2854C112.384 92.3568 112.384 92.4238 112.393 92.4952C112.772 93.3344 112.963 94.0755 113.119 94.6826C113.168 94.8701 113.213 95.0531 113.271 95.2361C113.627 96.4236 113.689 97.3744 113.712 98.1601C113.761 98.236 113.818 98.3208 113.863 98.3877C114.451 99.2627 115.542 100.892 114.816 102.905C114.21 104.584 112.799 105.369 111.952 105.843C111.877 105.887 111.779 105.941 111.694 105.99C111.614 106.115 111.525 106.262 111.436 106.41C111.07 107.026 110.612 107.789 109.868 108.476C109.619 108.704 109.36 108.905 109.115 109.079C109.334 109.222 109.534 109.365 109.721 109.499C109.734 109.508 109.743 109.517 109.757 109.525C110.46 109.204 111.4 108.793 112.594 108.816C114.438 108.851 115.907 110.378 115.872 112.226C115.84 113.963 114.491 115.369 112.799 115.498C112.696 115.543 112.554 115.605 112.447 115.655C111.774 115.963 110.799 116.409 109.61 116.409L109.605 116.4Z" fill="#3D3D3D"/>
</svg>
