<svg width="162" height="171" viewBox="0 0 162 171" fill="none" xmlns="http://www.w3.org/2000/svg">
<g opacity="0.7">
<path d="M54.3614 75.5454C54.6242 76.3758 55.1809 77.1391 55.1809 78.0542C55.1809 78.9113 55.5417 79.9202 55.3324 80.8175C55.1364 81.6522 53.5553 82.0406 53.1901 82.8843C52.8516 83.6789 52.9273 84.6253 52.4507 85.4065C51.9742 86.1877 51.7916 87.0671 51.2349 87.7813C50.6782 88.4956 50.4867 89.5134 49.8587 90.1562C49.2307 90.799 47.5026 90.1607 46.8168 90.7321C46.1309 91.3035 45.9794 92.4552 45.2357 92.9507C44.4919 93.4462 43.4364 93.2498 42.6436 93.656C41.8508 94.0622 41.3876 95.022 40.5547 95.33C39.7219 95.638 38.9024 95.8612 38.0383 96.0621C37.1209 96.2764 36.1945 96.0398 35.2547 96.1246C34.315 96.2094 33.4688 96.1023 32.5246 96.0576C31.5804 96.013 30.7831 95.7452 29.8523 95.58C28.9215 95.4148 27.7457 96.4371 26.846 96.1514C25.9463 95.8657 25.0601 95.455 24.2005 95.0577C23.3409 94.6604 22.7753 93.7453 21.9736 93.2408C21.1719 92.7364 19.7423 93.0489 19.0163 92.4418C18.2903 91.8347 18.9361 89.8303 18.2903 89.125C17.7292 88.5134 15.8319 88.9956 15.3241 88.2947C14.8164 87.5939 15.8853 85.9288 15.4533 85.1877C15.0213 84.4467 13.4313 84.3798 13.075 83.603C12.7187 82.8263 11.6141 82.2772 11.3425 81.4781C11.0708 80.6791 11.387 79.5988 11.2088 78.7774C11.0307 77.956 10.6254 77.0454 10.563 76.2106C10.5007 75.3758 10.6744 74.3848 10.7546 73.5545C10.8347 72.7242 12.4826 72.1974 12.732 71.3984C12.9814 70.5993 11.9036 69.2065 12.349 68.4789C12.83 67.6932 14.5536 68.0146 15.2083 67.412C15.863 66.8093 16.1125 65.854 16.9186 65.421C17.7247 64.988 18.3571 64.2916 19.2434 64.0238C20.0808 63.7693 20.878 62.9078 21.791 62.7694C22.704 62.631 23.7284 64.4389 24.6459 64.3943C25.5634 64.3497 26.3828 63.2649 27.2958 63.3051C28.2089 63.3453 29.1531 62.7605 30.0572 62.8587C30.9613 62.9569 31.8654 63.1488 32.7562 63.3006C33.6469 63.4524 34.3685 64.5014 35.2414 64.6979C36.1144 64.8943 36.8938 65.4567 37.7489 65.6933C38.604 65.9299 39.8243 65.0862 40.6616 65.363C41.5435 65.6532 42.4565 65.8719 43.2627 66.1844C44.1445 66.5237 44.6834 67.6129 45.4539 67.9655C46.2021 68.3093 47.0261 68.4967 47.7565 68.8583C48.4869 69.2199 49.0436 69.9297 49.734 70.3449C50.4243 70.76 51.8139 70.3449 52.4285 70.8582C53.0431 71.3716 53.1233 72.5903 53.5998 73.2554C54.0764 73.9205 54.0986 74.7375 54.3525 75.5544L54.3614 75.5454Z" fill="white"/>
<path d="M27.1974 99.5529C26.7699 99.5529 26.32 99.4949 25.8435 99.3431C24.7211 98.986 23.6567 98.4905 22.8016 98.0932C21.8084 97.6289 21.1225 96.9549 20.6192 96.4638C20.5479 96.3924 20.4633 96.3121 20.3831 96.2362C20.3252 96.2272 20.2674 96.2228 20.2139 96.2183C19.4034 96.129 18.0405 95.9773 16.8825 95.0086C15.8047 94.1068 15.4662 92.9149 15.3504 91.9328C14.4463 91.7454 13.3996 91.3257 12.6336 90.2722C11.8185 89.1562 11.7829 87.9554 11.9165 87.0046C11.2975 86.643 10.6294 86.1028 10.1707 85.2547C10.1083 85.1922 10.0237 85.1118 9.95244 85.0449C9.41353 84.536 8.59848 83.7681 8.18427 82.5539C7.82797 81.5004 7.87698 80.5317 7.91706 79.822C7.92597 79.6836 7.93486 79.5005 7.93486 79.4023C7.89033 79.2238 7.82353 79.0006 7.74781 78.764C7.55185 78.1345 7.30688 77.3489 7.24008 76.4605C7.16882 75.5008 7.27572 74.5856 7.3648 73.8491C7.39152 73.6393 7.41377 73.4384 7.43159 73.242C7.5652 71.8179 8.3758 70.8582 9.0884 70.2377C8.85235 69.2958 8.72765 67.9923 9.51152 66.7156C10.5181 65.0773 12.2372 64.7201 13.1859 64.5639C13.5823 63.9613 14.2192 63.0685 15.3549 62.4614C15.4528 62.4078 15.6666 62.256 15.8359 62.131C16.3926 61.7248 17.1542 61.1757 18.183 60.8454C18.2721 60.7963 18.4324 60.6936 18.5526 60.6177C19.1628 60.2293 20.0847 59.6401 21.2873 59.4571C22.8594 59.216 24.0664 59.9436 24.877 60.582C25.4917 60.2606 26.2889 59.9526 27.2509 59.9526C27.2687 59.9526 27.291 59.9526 27.3088 59.9526C27.4068 59.9302 27.5805 59.8856 27.7096 59.8454C28.3866 59.6579 29.3085 59.4035 30.4175 59.524C31.1613 59.6044 31.8739 59.7338 32.5598 59.8588C32.8137 59.9035 33.063 59.9481 33.3125 59.9927C34.5818 60.207 35.4725 60.8856 36.0604 61.3364C36.1273 61.3855 36.2074 61.448 36.2742 61.4971C36.9735 61.6891 37.548 61.9614 38.0201 62.189C38.0958 62.2248 38.1804 62.2649 38.2606 62.3006C38.2695 62.3006 38.2784 62.2962 38.2873 62.2917C39.04 62.073 40.3005 61.7114 41.6989 62.1712C42.0062 62.2739 42.3224 62.3631 42.6298 62.4569C43.2221 62.631 43.8367 62.814 44.4647 63.0551C45.6361 63.5104 46.3887 64.3005 46.8875 64.8273C46.941 64.8853 47.0033 64.9523 47.0612 65.0103C47.2305 65.0773 47.4265 65.1442 47.6269 65.2112C48.1079 65.3764 48.6602 65.5683 49.2391 65.854C50.0364 66.2513 50.6287 66.7647 51.0607 67.1441C51.0874 67.1709 51.1187 67.1977 51.1498 67.2245C51.9916 67.2423 53.3678 67.278 54.5748 68.2958C55.6659 69.211 56.0668 70.4252 56.3073 71.1528C56.3385 71.2466 56.3785 71.3715 56.4097 71.4519C57.0466 72.4027 57.2604 73.3759 57.4073 74.0276C57.4519 74.2285 57.492 74.416 57.5321 74.541C57.5632 74.6392 57.6524 74.8401 57.7325 75.0187C58.0398 75.7061 58.5075 76.7418 58.5075 78.0587C58.5075 78.1479 58.5475 78.4024 58.5742 78.5899C58.69 79.3577 58.846 80.4067 58.5654 81.5942C58.1734 83.2637 56.9041 84.1521 56.1648 84.6386C56.049 85.2725 55.8663 86.21 55.2918 87.1519C55.225 87.259 55.1181 87.509 55.0246 87.7277C54.7841 88.2947 54.4501 89.0714 53.8711 89.8214C53.8221 89.9062 53.7286 90.1115 53.6573 90.2633C53.3723 90.8838 52.9803 91.7364 52.2276 92.5042C51.132 93.6292 49.7469 93.7988 48.7804 93.8167C48.4419 94.4193 47.9253 95.1737 47.0612 95.7451C46.0369 96.4281 44.9992 96.571 44.3088 96.6692C44.2643 96.6736 44.2153 96.6826 44.1663 96.6915C44.1307 96.7272 44.095 96.7629 44.0639 96.7942C43.5829 97.2941 42.8525 98.0441 41.6989 98.4771C40.5944 98.8878 39.5566 99.1512 38.7728 99.3342C37.7751 99.5663 36.8799 99.5172 36.2252 99.4815C35.9491 99.4681 35.6863 99.4547 35.5304 99.4681C34.5773 99.5529 33.74 99.4994 32.9963 99.4503C32.7869 99.4369 32.5687 99.4235 32.3505 99.4146C31.433 99.3699 30.6714 99.2003 29.9989 99.0485C29.8964 99.0262 29.7984 99.0039 29.696 98.9815C29.6559 98.9949 29.6203 99.0128 29.5846 99.0217C29.0101 99.2405 28.1684 99.5619 27.1707 99.5619L27.1974 99.5529ZM35.713 92.7587C36.0382 92.7587 36.341 92.7766 36.5993 92.7899C36.8443 92.8033 37.1828 92.8212 37.2941 92.8033C38.0424 92.6292 38.6125 92.4685 39.1336 92.29C39.1826 92.2409 39.2404 92.1784 39.2894 92.1293C39.6769 91.7275 40.2648 91.1249 41.1155 90.6829C41.8993 90.2812 42.6654 90.1428 43.2221 90.0624C43.5116 89.5133 43.9392 88.7768 44.6874 88.1563C45.7118 87.3081 46.8787 87.1474 47.7605 87.1251C47.9654 86.6966 48.2237 86.2055 48.6067 85.7189C48.6691 85.6341 48.7982 85.3261 48.8962 85.0984C49.0565 84.719 49.257 84.2547 49.5376 83.7726C49.5598 83.6789 49.591 83.5048 49.6177 83.3708C49.7068 82.8977 49.827 82.2504 50.121 81.5629C50.5664 80.5228 51.3324 79.8577 51.9559 79.4113C51.9025 79.0586 51.849 78.6434 51.8401 78.197C51.8 78.0899 51.7155 77.9024 51.6531 77.764C51.5061 77.4382 51.3235 77.0319 51.1765 76.5587C51.0474 76.1525 50.9672 75.782 50.9004 75.4829C50.8692 75.349 50.8336 75.1749 50.8024 75.0722C50.5307 74.6615 50.3392 74.2508 50.1967 73.8803C49.5465 73.8223 48.7804 73.6705 48.0188 73.2107C47.4621 72.8715 47.0301 72.4965 46.6827 72.1929C46.5357 72.0635 46.3353 71.8894 46.2551 71.8403C46.0903 71.7599 45.7875 71.6572 45.4668 71.5456C45.0482 71.4028 44.576 71.2376 44.0683 71.0055C43.1241 70.568 42.505 69.9207 42.0552 69.4431C41.9884 69.3717 41.9082 69.2868 41.8414 69.2199C41.5208 69.1083 41.1466 68.9967 40.7591 68.8851C40.5721 68.8315 40.3851 68.7735 40.198 68.7199C40.1802 68.7244 40.1579 68.7288 40.1401 68.7378C39.4186 68.9431 38.216 69.2913 36.871 68.9208C36.1851 68.7333 35.6195 68.461 35.1608 68.2423C34.9381 68.1351 34.6308 67.9923 34.5195 67.9655C33.3837 67.711 32.5642 67.0861 32.0208 66.6709C31.9674 66.6308 31.9051 66.5816 31.8472 66.5415C31.6913 66.5147 31.531 66.4834 31.3751 66.4567C30.8406 66.3584 30.3373 66.2692 29.8697 66.2111C29.7673 66.2335 29.6114 66.2781 29.4911 66.3093C29.0368 66.4343 28.449 66.595 27.7675 66.6441C27.7364 66.6665 27.7007 66.6843 27.674 66.7022C27.046 67.095 26.0973 67.6843 24.8013 67.7423C23.4251 67.8003 22.374 67.1798 21.6258 66.5906C21.2427 66.8138 20.7885 67.0504 20.2629 67.2155C20.156 67.2691 19.9244 67.4387 19.7507 67.5637C19.4835 67.7557 19.1673 67.9878 18.7932 68.2066C18.7575 68.2557 18.7219 68.3137 18.6907 68.3583C18.4191 68.7735 18.0538 69.3449 17.457 69.885C17.0206 70.2823 16.5529 70.5457 16.0942 70.7287C16.1343 71.2376 16.1031 71.8001 15.9205 72.3893C15.5241 73.6661 14.6155 74.4383 13.9564 74.9249C13.9118 75.3177 13.8717 75.7106 13.8896 75.9561C13.9029 76.099 14.0321 76.5052 14.1122 76.7775C14.2325 77.1614 14.3661 77.5944 14.4685 78.0721C14.6422 78.88 14.6022 79.6255 14.5755 80.1746C14.5755 80.188 14.5755 80.2059 14.5755 80.2192C14.8739 80.5005 15.2613 80.8755 15.6087 81.3576C16.3614 81.6701 17.5728 82.1968 18.33 83.4958C18.7709 84.2503 18.9 85.0091 18.8956 85.6966C19.528 85.8975 20.1827 86.2412 20.7484 86.8573C21.5679 87.7545 21.8262 88.817 21.9108 89.7008C22.4809 89.8124 23.1267 90.0133 23.7547 90.4106C24.4094 90.8258 24.8904 91.299 25.2779 91.6829C25.407 91.8123 25.5851 91.982 25.6787 92.0578C26.182 92.29 26.7253 92.5444 27.2464 92.7453C27.9902 92.4641 29.1037 92.0489 30.4398 92.2855C30.8005 92.3525 31.1479 92.4284 31.4864 92.5042C31.9674 92.6114 32.346 92.7007 32.6756 92.7141C32.9339 92.7274 33.1878 92.7408 33.4372 92.7587C34.034 92.7989 34.5061 92.8301 34.9515 92.7899C35.2142 92.7676 35.4636 92.7587 35.6997 92.7587H35.713ZM18.281 60.8186C18.281 60.8186 18.281 60.8186 18.2765 60.8186C18.2765 60.8186 18.2765 60.8186 18.281 60.8186Z" fill="#E1E1E1"/>
</g>
<path d="M108.385 170.326C107.321 170.326 106.278 169.817 105.637 168.888C105.557 168.808 105.361 168.611 104.889 168.192C104.635 167.964 104.426 167.723 104.252 167.487C104.132 167.536 103.998 167.585 103.86 167.625C102.555 168 101.157 167.545 100.315 166.478C99.9585 166.027 99.7359 165.5 99.6468 164.96C99.1034 164.152 98.1726 162.451 99.1212 160.491C99.2548 160.219 99.3929 159.947 99.5354 159.674C99.7626 159.237 99.9764 158.826 100.141 158.407C100.252 158.134 100.346 157.782 100.457 157.371C100.555 157.014 100.662 156.612 100.805 156.184C101.406 154.344 103.063 153.653 104.052 153.242C104.096 153.161 104.141 153.081 104.185 153.005C103.513 152.179 102.804 151.023 102.974 149.51C103.107 148.322 103.704 147.425 104.19 146.814C103.985 146.265 103.762 145.564 103.74 144.742C103.713 143.805 103.985 143.019 104.292 142.39C103.762 141.814 103.21 141.024 103.032 139.961C102.978 139.653 102.862 139.265 102.738 138.859C102.626 138.493 102.497 138.078 102.395 137.636C102.306 137.265 102.234 136.895 102.159 136.528C102.065 136.064 101.976 135.622 101.874 135.283C101.611 134.43 101.593 133.645 101.58 133.064C101.027 132.631 100.248 131.989 99.7714 130.94C99.2815 129.855 99.2727 128.819 99.2682 128.136C99.2682 128.127 99.2682 128.123 99.2682 128.118C99.1658 127.993 99.0411 127.859 98.9208 127.725C98.6046 127.377 98.2483 126.984 97.9365 126.476C96.9745 124.9 97.4689 122.837 99.0411 121.873C100.595 120.922 102.622 121.391 103.597 122.922C103.651 122.985 103.767 123.114 103.856 123.212C104.265 123.663 104.884 124.342 105.374 125.275C105.913 126.292 105.94 127.301 105.949 127.998C106.555 128.475 107.414 129.23 107.873 130.444C108.225 131.381 108.243 132.256 108.26 132.899C108.26 133.064 108.269 133.288 108.283 133.386C108.474 134.024 108.599 134.636 108.715 135.225C108.773 135.515 108.83 135.814 108.902 136.109C108.955 136.341 109.04 136.618 109.133 136.912C109.245 137.283 109.369 137.68 109.476 138.122C109.485 138.131 109.494 138.14 109.503 138.144C110.184 138.778 111.325 139.841 111.494 141.564C111.632 142.988 111.022 144.122 110.594 144.845C110.835 145.483 111.155 146.394 111.111 147.479C111.071 148.461 110.705 149.247 110.305 149.858C110.982 150.711 111.65 151.903 111.369 153.447C111.16 154.599 110.572 155.474 110.18 156.054C110.113 156.152 110.029 156.282 109.975 156.367C109.427 158.143 107.86 158.911 106.853 159.335C106.742 159.733 106.621 160.161 106.457 160.612C106.737 160.697 107.018 160.804 107.298 160.929C108.764 161.585 109.365 162.839 109.659 163.496C110.416 164.183 110.915 164.701 111.253 165.281C112.197 166.87 111.681 168.924 110.095 169.87C109.561 170.192 108.969 170.343 108.39 170.343L108.385 170.326ZM105.512 168.692C105.535 168.732 105.561 168.777 105.593 168.821C105.566 168.777 105.539 168.736 105.512 168.692ZM103.62 122.944C103.62 122.944 103.624 122.953 103.628 122.958C103.628 122.953 103.624 122.949 103.62 122.944Z" fill="#3D3D3D"/>
<path d="M157.848 120.288H157.844C156.116 120.288 154.7 118.967 154.526 117.284C154.486 117.195 154.424 117.074 154.379 116.981C154.063 116.342 153.582 115.378 153.524 114.168C153.47 112.994 153.849 112.017 154.098 111.369C154.13 111.289 154.165 111.191 154.196 111.106C154.147 110.945 154.076 110.735 154.018 110.566C153.907 110.24 153.782 109.869 153.671 109.454C153.012 108.905 151.974 108.008 151.676 106.472C151.319 104.615 152.361 103.187 152.927 102.414C153.003 101.499 153.359 100.727 153.653 100.16C153.631 100.111 153.608 100.062 153.586 100.013C153.404 99.6021 153.199 99.1333 153.03 98.62C152.883 98.178 152.802 97.745 152.753 97.3522C151.524 97.0888 149.934 96.5487 149.208 94.8345C148.789 93.8524 148.763 92.9194 148.745 92.3034C148.745 92.2275 148.741 92.1382 148.736 92.0623C148.58 91.674 148.478 91.2945 148.411 90.9463C147.311 90.7633 145.935 90.3258 145.111 88.8973C144.189 87.2947 144.737 85.2502 146.335 84.3217C147.436 83.6833 148.754 83.7458 149.765 84.3753C149.836 84.3842 149.907 84.3931 149.965 84.3976C151.101 84.5315 153.217 84.777 154.254 86.7501C154.74 87.6786 154.842 88.6072 154.909 89.2232C154.922 89.3437 154.94 89.5044 154.954 89.5982C155.172 90.1026 155.288 90.5892 155.345 91.0311C156.628 91.3124 158.254 91.8972 158.935 93.714C159.269 94.6024 159.314 95.4461 159.349 96.0666C159.358 96.2362 159.372 96.4594 159.385 96.5665C159.456 96.7674 159.572 97.0308 159.692 97.3076C159.924 97.8343 160.187 98.428 160.378 99.1155C160.859 100.816 160.115 102.222 159.67 103.057C159.657 103.084 159.639 103.115 159.621 103.151C159.612 103.995 159.332 104.727 159.002 105.32C159.487 105.878 159.937 106.624 160.084 107.597C160.111 107.78 160.222 108.102 160.325 108.41C160.53 109.017 160.788 109.776 160.877 110.664C161.006 111.99 160.583 113.074 160.307 113.798C160.298 113.82 160.289 113.847 160.276 113.874C160.298 113.918 160.316 113.958 160.338 113.999C160.672 114.668 161.175 115.677 161.171 116.954C161.171 118.802 159.675 120.297 157.831 120.297L157.848 120.288Z" fill="#3D3D3D"/>
<path d="M90.5437 143.372C91.3409 143.448 92.2896 142.8 93.2828 142.872C94.1156 142.93 94.9529 144.126 95.9105 144.157C96.7656 144.184 97.6786 143.693 98.6184 143.684C99.4824 143.671 100.342 143.037 101.273 142.979C102.141 142.925 103.005 142.881 103.927 142.778C104.8 142.68 105.753 143.149 106.662 142.992C107.57 142.836 108.608 143.564 109.508 143.354C110.408 143.144 111.089 142.242 111.971 141.988C112.853 141.734 113.387 140.631 114.251 140.323C115.115 140.015 116.104 140.243 116.95 139.885C117.796 139.528 118.277 138.573 119.101 138.167C119.934 137.756 121.003 137.903 121.778 137.461C122.553 137.019 124.045 137.609 124.793 137.118C125.541 136.627 125.568 134.975 126.285 134.439C127.002 133.904 127.229 132.734 127.915 132.158C128.601 131.582 129.536 131.292 130.187 130.681C130.837 130.069 132.338 130.243 132.952 129.596C133.567 128.949 134.551 128.507 135.13 127.833C135.741 127.123 136.364 126.4 136.912 125.703C137.491 124.962 137.549 123.833 138.061 123.119C138.613 122.351 138.399 121.087 138.889 120.364C139.428 119.57 139.798 118.73 140.275 118.016C140.707 117.364 140.969 116.458 141.526 115.565C141.971 114.851 142.702 114.248 143.196 113.387C143.628 112.637 143.699 111.664 144.145 110.802C144.55 110.021 146.167 109.811 146.572 108.941C146.946 108.137 146.171 106.802 146.536 105.923C146.875 105.097 147.521 104.396 147.841 103.504C148.144 102.66 148.616 101.87 148.897 100.968C149.178 100.066 149.917 99.3699 150.153 98.4592C150.389 97.5486 150.848 96.7361 151.044 95.8165C151.24 94.8969 150.015 93.7854 150.166 92.8569C150.309 91.9641 151.979 91.2721 152.086 90.3392C152.175 89.5446 152.482 88.683 152.576 87.7456C152.656 86.9197 152.901 86.0403 152.963 85.1252C153.026 84.2815 151.458 83.3173 151.489 82.4155C151.52 81.5629 153.026 80.7058 153.017 79.813C153.008 78.9202 152.09 78.0899 152.037 77.206C151.984 76.3221 152.647 75.3847 152.54 74.5097C152.433 73.6348 150.972 72.9964 150.803 72.1304C150.634 71.2644 150.282 70.5278 150.046 69.6797C149.81 68.8315 150.411 67.7691 150.104 66.9432C149.797 66.1174 148.679 65.7067 148.291 64.9165C147.904 64.1264 147.984 63.1622 147.512 62.4167C147.04 61.6712 147.409 60.3186 146.857 59.6311C146.305 58.9437 144.617 59.3187 143.984 58.6937C143.388 58.1044 142.729 57.7518 142.114 57.2563C141.459 56.7295 141.664 55.0778 141.005 54.6537C140.292 54.1939 139.406 54.0243 138.716 53.6672C137.954 53.2699 137.001 53.3904 136.293 53.1003C135.473 52.7655 134.872 52.1941 134.177 51.9753C133.981 51.2611 134.191 50.3593 133.901 49.4844C133.656 48.7478 132.516 48.2747 132.182 47.4488C131.888 46.7122 132.146 45.69 131.772 44.9043C131.429 44.1811 130.539 43.699 130.124 42.9401C129.737 42.2304 129.732 41.2706 129.274 40.543C128.842 39.8555 128.77 38.8645 128.272 38.1726C127.773 37.4806 126.846 37.1592 126.308 36.4985C125.724 35.7843 124.236 35.9272 123.626 35.2754C123.016 34.6237 122.678 33.7219 122.027 33.1148C121.377 32.5077 120.455 32.222 119.765 31.664C119.075 31.106 118.433 30.5034 117.712 29.99C116.99 29.4766 116.972 27.816 116.215 27.3518C115.458 26.8875 114.567 26.4947 113.788 26.0795C112.964 25.642 112.22 25.0439 111.419 24.6778C110.563 24.2894 109.33 24.8921 108.515 24.5841C107.628 24.2448 107.25 22.5261 106.43 22.2672C105.504 21.9726 104.35 22.6065 103.54 22.4012C102.551 22.1512 101.745 21.4682 100.979 21.3253C99.714 21.0887 98.5872 22.3744 98.1017 22.3208C97.1709 22.2181 96.347 21.3209 95.4428 21.2896C94.5387 21.2584 93.5678 20.62 92.6637 20.6513C91.7596 20.6825 90.8466 21.486 89.9469 21.5842C89.0472 21.6824 88.2099 22.3253 87.3147 22.486C86.4195 22.6467 85.1813 21.4235 84.2995 21.6512C83.4176 21.8789 83.0569 23.977 82.1929 24.2627C81.3288 24.5483 79.7567 22.9726 78.9149 23.3118C78.0731 23.6511 77.7525 25.3251 76.933 25.7135C76.1135 26.1018 74.9421 25.8742 74.1449 26.3072C73.3477 26.7402 72.1184 26.575 71.3479 27.0482C70.5774 27.5214 70.5552 29.2936 69.8114 29.7936C69.0231 30.3248 68.4174 31.0257 67.7003 31.5524C66.9298 32.1238 65.2374 31.4363 64.5515 31.981C63.7899 32.5881 64.0259 34.3469 63.3668 34.9049C62.5963 35.5522 61.2513 35.3959 60.6277 35.9361C60.1066 36.3869 59.3183 36.9226 58.4899 37.6904C57.8931 38.244 58.2806 39.9537 57.568 40.6769C56.9667 41.284 55.2253 40.8822 54.5661 41.6054C53.9827 42.2527 54.486 43.8999 53.8713 44.6365C53.3057 45.315 52.7446 45.9891 52.1656 46.7435C51.6267 47.4488 49.569 47.0872 49.0301 47.864C48.5224 48.5961 49.2305 50.1853 48.7272 50.9799C48.2239 51.7744 48.1838 52.7342 47.7207 53.5467C47.2575 54.3591 46.0861 54.7028 45.663 55.5332C45.2399 56.3635 44.3492 56.9304 43.9662 57.783C43.5831 58.6357 44.1621 59.8409 43.8147 60.7114C43.4673 61.5819 43.3293 62.4435 43.0264 63.3273C42.7236 64.2112 42.2158 64.9523 41.953 65.8495C41.6992 66.7155 40.2695 67.2825 40.0557 68.1619C39.8419 69.0413 40.5724 70.1394 40.3987 71.0278C40.225 71.9161 40.8663 72.9161 40.7372 73.8133C40.608 74.7106 38.4657 75.3534 38.3722 76.2507C38.2787 77.148 40.3675 78.2327 40.314 79.1345C40.2606 80.0362 39.214 80.8754 39.1962 81.7816C39.1784 82.6878 39.2808 83.5851 39.2986 84.4913C39.3164 85.3975 39.2897 86.2948 39.3431 87.201C39.3966 88.1072 39.263 89.0223 39.3521 89.924C39.4411 90.8257 40.5769 91.5802 40.7016 92.4774C40.8263 93.3747 40.2695 94.3568 40.4298 95.2451C40.5902 96.1335 41.2271 96.9102 41.4231 97.7941C41.619 98.678 41.5077 99.6154 41.7393 100.49C41.9709 101.365 41.1736 102.544 41.4364 103.405C41.6992 104.267 41.8328 105.213 42.1312 106.066C42.4296 106.919 43.4673 107.521 43.8014 108.36C44.1354 109.2 44.0686 110.231 44.4338 111.057C44.799 111.883 46.5805 112.039 46.9814 112.842C47.3822 113.646 47.4089 114.628 47.8454 115.418C48.2818 116.208 48.0013 117.422 48.4689 118.19C48.9366 118.958 49.9877 119.364 50.4909 120.114C50.9942 120.864 51.5286 121.578 52.0675 122.302C52.6064 123.025 52.553 124.226 53.1275 124.922C53.7021 125.618 54.5483 126.105 55.154 126.775C55.7597 127.444 55.7152 128.788 56.3521 129.422C56.989 130.056 58.4097 129.913 59.0822 130.515C59.7548 131.118 61.0642 130.926 61.7679 131.489C62.4716 132.051 62.6942 133.207 63.4291 133.729C64.164 134.252 65.0726 134.488 65.8342 134.966C66.5913 135.439 67.6201 135.345 68.3817 135.765C69.1433 136.185 69.5219 137.359 70.3013 137.738C71.0807 138.118 72.1363 137.93 72.9335 138.269C73.7307 138.609 73.9044 140.693 74.715 140.988C75.5657 141.3 76.6034 141.1 77.4184 141.359C78.2869 141.631 79.1554 141.89 79.9794 142.108C80.8701 142.345 81.645 143.046 82.4645 143.224C83.382 143.425 84.3262 143.421 85.1323 143.564C86.0944 143.733 87.1143 143.073 87.8848 143.175C88.9849 143.323 89.889 143.314 90.517 143.372H90.5437Z" fill="#FFEBC1"/>
<path d="M101.277 147.55C100.133 147.55 99.2017 147.117 98.5604 146.773C97.9057 147.104 96.9704 147.519 95.808 147.488C94.6634 147.452 93.7637 146.992 93.1045 146.564C92.4008 146.988 91.4121 147.456 90.1695 147.336C89.9869 147.318 89.7731 147.305 89.5326 147.291C88.9536 147.256 88.2321 147.215 87.3948 147.104C85.7692 146.889 84.8205 145.782 84.2415 145.09C84.2192 145.09 84.197 145.09 84.1747 145.09C83.6136 145.064 82.9187 145.032 82.1349 144.858C81.4891 144.715 80.8656 144.546 80.2599 144.376C80.0015 144.305 79.7343 144.229 79.4626 144.157C79.3335 144.122 79.0439 144.091 78.7901 144.064C78.3135 144.015 77.7434 143.952 77.1155 143.791C77.0531 143.8 76.9863 143.814 76.9329 143.823C76.2203 143.943 75.0311 144.144 73.7618 143.68C73.5391 143.599 73.2363 143.515 72.9156 143.425C72.3544 143.269 71.7175 143.095 71.0494 142.814C69.6153 142.207 68.9562 140.979 68.5865 140.055C67.9541 139.993 67.1836 139.85 66.3997 139.417C65.6782 139.019 65.1438 138.519 64.7429 138.113C63.7186 138.314 62.1954 138.506 60.7835 137.502C60.013 136.953 59.483 136.287 59.0911 135.801C58.9574 135.636 58.7748 135.408 58.6991 135.337C58.1112 134.868 57.6525 134.359 57.2472 133.908C57.0245 133.658 56.8107 133.426 56.6415 133.274C56.0803 132.774 55.5726 132.256 55.0827 131.761C54.9134 131.587 54.7397 131.413 54.5705 131.243C53.6263 130.301 53.3413 129.167 53.221 128.31C52.5351 128.051 51.6577 127.627 50.954 126.788C50.8783 126.721 50.6868 126.578 50.5398 126.475C50.0277 126.105 49.3239 125.596 48.7405 124.806C48.6737 124.726 48.4421 124.516 48.2729 124.364C47.8052 123.944 47.2217 123.422 46.7185 122.681C45.8099 121.337 45.9257 119.896 46.0148 118.998C45.9747 118.945 45.9301 118.896 45.8856 118.842C45.5293 118.405 45.084 117.855 44.7054 117.168C44.1531 116.168 44.0507 115.168 43.9794 114.507C43.9705 114.423 43.9616 114.315 43.9482 114.231C43.877 114.137 43.7656 114.003 43.681 113.896C43.4004 113.552 43.0397 113.115 42.719 112.566C42.6878 112.548 42.6522 112.525 42.6255 112.508C41.8906 112.07 40.6614 111.342 40.069 109.856C39.4009 108.177 40.0245 106.682 40.4743 105.731C40.4743 105.722 40.4654 105.713 40.4609 105.704C40.2962 105.347 40.1135 104.959 39.9488 104.521C39.9265 104.504 39.8997 104.486 39.8775 104.468C39.2183 103.95 38.1182 103.08 37.7129 101.557C37.4457 100.553 37.5215 99.6556 37.5705 98.9994C37.5838 98.8521 37.5971 98.6557 37.5971 98.553C37.4635 97.937 37.379 97.3432 37.3032 96.8165C37.281 96.6513 37.2542 96.4862 37.232 96.3255C37.2097 96.2987 37.183 96.2719 37.1607 96.2451C36.6307 95.6558 35.7488 94.6693 35.5395 93.2051C35.3124 91.5891 36.0517 90.3303 36.4926 89.5803C36.4971 89.5714 36.506 89.558 36.5149 89.5446C36.4659 88.9777 36.4258 88.4286 36.3947 87.8974C36.3724 87.8661 36.3501 87.8393 36.3323 87.8126C35.8691 87.1608 35.0897 86.0716 35.0585 84.5761C35.0273 83.045 35.8112 81.9468 36.4258 81.2237C36.2298 80.621 36.0161 79.813 36.074 78.8711C36.074 78.7818 36.0294 78.4917 35.9983 78.2774C35.9092 77.6926 35.7845 76.8846 35.878 75.9873C36.0072 74.724 36.6129 73.8 37.0093 73.1884C37.0449 73.1304 37.0939 73.0589 37.1295 73.0009C37.1473 72.809 37.1562 72.5947 37.1696 72.3715C37.1963 71.8001 37.2319 71.1528 37.37 70.4341C37.5749 69.3761 38.0693 68.5681 38.3988 68.0325C38.4478 67.9521 38.5102 67.8494 38.5592 67.7691C38.5592 67.6664 38.5503 67.5369 38.5458 67.4343C38.5146 66.7915 38.4701 65.9076 38.7551 64.9166C38.8175 64.7068 38.8621 64.3987 38.9155 64.0684C39.0046 63.5059 39.1115 62.8051 39.3653 62.0641C39.6103 61.3543 39.8731 60.7025 40.1314 60.0731C40.2294 59.832 40.3273 59.5954 40.4209 59.3588C40.4342 59.3097 40.4654 59.0374 40.4921 58.841C40.5678 58.2161 40.6747 57.359 41.0756 56.4706C41.2092 56.1715 41.3383 55.868 41.463 55.5689C41.7035 54.993 41.953 54.3993 42.2603 53.7922C42.8749 52.5869 43.8859 51.953 44.6386 51.5602C44.6831 50.8951 44.7989 50.038 45.2621 49.1719C45.2755 49.0827 45.2888 48.9621 45.2977 48.8684C45.3824 48.1184 45.5115 46.989 46.2509 45.9221C47.3153 44.391 48.9632 44.1097 50.0544 43.9758C50.2593 43.6321 50.4775 43.2526 50.7536 42.8643C50.7536 42.8196 50.7581 42.7705 50.7625 42.7304C50.816 41.8733 50.9095 40.4403 51.9829 39.2529C52.9894 38.1458 54.2721 37.7976 55.0426 37.5878C55.0782 37.5789 55.1183 37.5655 55.1584 37.5565C55.5726 37.1682 55.9734 36.8378 56.3075 36.5655C56.548 36.3646 56.7796 36.1772 56.9488 36.0209C57.6481 35.3692 58.3295 34.9272 58.8238 34.6058C58.9753 34.5076 59.189 34.3692 59.2514 34.3157C59.3271 34.2487 59.532 33.9987 59.6834 33.8157C60.0576 33.3648 60.5207 32.8068 61.1576 32.2667C61.2422 32.1953 61.4471 31.9453 61.5985 31.7667C61.9415 31.3515 62.3601 30.8471 62.9302 30.365C62.9747 30.2891 63.0282 30.1864 63.0772 30.1016C63.4202 29.4677 63.9412 28.5169 64.9389 27.7803C64.9968 27.7312 65.1838 27.5125 65.3219 27.3518C65.7272 26.8786 66.2884 26.2358 67.0678 25.7046C67.6423 25.3162 68.2347 25.0082 68.7513 24.7403C69.0854 24.5662 69.3971 24.4055 69.6554 24.2493C70.4437 23.7672 71.2187 23.5484 71.8422 23.3699C72.0649 23.3074 72.3678 23.2181 72.4657 23.169C73.3431 22.6958 74.2116 22.5351 74.8485 22.419C74.9999 22.3923 75.2004 22.3565 75.3162 22.3253C75.4053 22.2539 75.5344 22.1378 75.6368 22.0485C76.1446 21.6021 76.8394 20.9861 77.8326 20.5888C78.0597 20.4995 78.3447 20.3522 78.6476 20.2004C79.2088 19.9192 79.8412 19.5978 80.585 19.3522C80.8388 19.2674 81.1372 19.1514 81.4579 19.0264C82.0458 18.7942 82.7184 18.5309 83.4577 18.3389C84.7894 17.9996 85.9429 18.33 86.7044 18.5532C86.7802 18.5755 86.8693 18.6023 86.9494 18.6201C87.083 18.5934 87.2122 18.571 87.3458 18.5443C88.0139 18.4103 88.7755 18.263 89.5816 18.1737C89.6351 18.1604 89.8889 18.0711 90.0715 18.0041C90.6906 17.7809 91.5368 17.4774 92.5567 17.4461C92.7616 17.4372 93.0644 17.3925 93.3851 17.3434C93.9997 17.2497 94.7613 17.1336 95.6075 17.1693C96.3869 17.2006 97.0907 17.339 97.7098 17.464C98.0482 17.5309 98.3733 17.5979 98.6272 17.6247C99.3265 17.705 99.8921 17.9505 100.391 18.1648C100.769 18.33 101.13 18.4862 101.5 18.5532C102.591 18.7585 103.397 19.3255 103.932 19.7049C103.985 19.7406 104.043 19.7853 104.105 19.8254C104.119 19.8254 104.132 19.8254 104.145 19.821C104.867 19.7183 105.954 19.5665 107.17 19.9504C107.851 20.1647 108.443 20.4549 108.969 20.7048C109.285 20.8566 109.588 21.0039 109.851 21.1066C110.091 21.2004 110.332 21.2852 110.581 21.3745C111.182 21.5932 111.864 21.8387 112.568 22.1557C113.797 22.7137 114.496 23.7002 114.91 24.2895C114.941 24.3341 114.981 24.3877 115.017 24.4412C115.16 24.5037 115.315 24.5707 115.485 24.6421C116.006 24.8609 116.656 25.1332 117.329 25.5439C117.462 25.6287 117.725 25.7403 117.979 25.8474C118.527 26.084 119.213 26.3786 119.912 26.8786C119.983 26.9232 120.237 27.0348 120.424 27.1152C120.941 27.3429 121.635 27.6419 122.321 28.1598C122.41 28.191 122.535 28.2312 122.638 28.2624C123.319 28.4812 124.348 28.8115 125.252 29.6508C126.601 30.9096 126.646 32.6193 126.65 33.588C126.864 33.8023 127.096 34.03 127.332 34.28C128.343 34.3514 130.075 34.5255 131.184 36.07L131.483 36.4852C131.915 37.0789 132.36 37.6949 132.765 38.3377C133.438 39.4091 133.531 40.4939 133.594 41.2126C133.598 41.2795 133.603 41.342 133.612 41.4045C133.874 41.9313 134.07 42.4223 134.244 42.8687C134.351 43.141 134.453 43.4 134.542 43.5964C134.988 44.5383 135.344 45.4132 135.611 46.0739C135.705 46.3105 135.847 46.5873 135.99 46.8774C136.195 47.2837 136.422 47.7301 136.613 48.239C136.689 48.3193 136.783 48.4086 136.881 48.5157C137.197 48.6139 137.567 48.7345 138.003 48.913C139.116 49.3684 139.749 50.1942 140.141 50.9665C140.991 50.8727 142.002 50.9531 142.987 51.5914C144.31 52.4485 144.724 53.7788 144.915 54.6984C145.454 54.9395 146.122 55.2921 146.737 55.9037C147.441 56.6045 148.131 57.2965 148.768 58.0911C149.347 58.8142 149.694 59.5597 149.944 60.1088C150.05 60.3365 150.157 60.5731 150.233 60.6891C150.353 60.8811 150.514 61.0954 150.687 61.3275C151.044 61.8096 151.489 62.4122 151.854 63.1533C152.344 64.1487 152.424 65.113 152.478 65.7469C152.478 65.796 152.487 65.854 152.491 65.912C152.513 65.9388 152.536 65.9611 152.558 65.9835C153.012 66.47 153.685 67.1843 154.05 68.2601C154.103 68.3271 154.17 68.4164 154.228 68.4878C154.691 69.0636 155.386 69.9341 155.631 71.193C155.791 72.0278 155.992 73.0634 156.116 74.0678C156.21 74.8267 156.183 75.5097 156.161 76.1123C156.148 76.4337 156.139 76.7373 156.152 76.9516C156.232 78.264 155.751 79.2907 155.431 79.9737C155.404 80.0318 155.373 80.0987 155.346 80.1567C155.333 80.7014 155.288 81.2013 155.244 81.6522C155.212 81.9781 155.181 82.2861 155.172 82.545C155.141 83.4289 154.932 84.1744 154.776 84.7234C154.749 84.8172 154.718 84.9288 154.691 85.027C154.709 85.0761 154.727 85.1208 154.745 85.1654C155.003 85.8171 155.391 86.8037 155.266 88.0179C155.186 88.7991 155.003 89.4642 154.856 89.9999C154.794 90.2231 154.709 90.5267 154.696 90.6383C154.665 90.8972 154.638 91.1561 154.611 91.4106C154.549 92.0355 154.482 92.6783 154.38 93.339C154.397 93.4372 154.429 93.5801 154.455 93.6917C154.607 94.3702 154.843 95.4014 154.598 96.5665C154.273 98.1155 153.222 99.0485 152.549 99.6154C152.549 99.6735 152.54 99.736 152.54 99.7895C152.513 100.249 152.478 100.794 152.353 101.392C152.371 101.446 152.384 101.499 152.402 101.544C152.656 102.356 153.083 103.713 152.549 105.2C152.166 106.267 151.819 107.173 151.493 107.968C151.039 109.07 150.282 109.807 149.779 110.293C149.703 110.365 149.61 110.454 149.543 110.526C149.454 110.74 149.369 110.999 149.28 111.267C149.093 111.82 148.884 112.445 148.55 113.088C147.997 114.155 147.178 114.824 146.634 115.266C146.594 115.298 146.55 115.333 146.505 115.373C146.487 115.467 146.465 115.579 146.447 115.673C146.327 116.329 146.158 117.226 145.606 118.114C145.508 118.271 145.396 118.592 145.285 118.9C145.093 119.44 144.857 120.11 144.425 120.766C143.704 121.855 142.688 122.364 141.985 122.694C141.824 123.346 141.579 124.293 140.934 125.19C140.301 126.065 139.522 126.569 138.952 126.935C138.836 127.011 138.68 127.109 138.6 127.172L138.417 127.408C137.936 128.029 137.437 128.667 136.872 129.328C136.716 129.507 136.533 129.765 136.342 130.033C135.994 130.52 135.607 131.069 135.081 131.618C134.988 131.716 134.81 131.98 134.667 132.189C134.32 132.703 133.888 133.337 133.255 133.935C132.445 134.698 131.501 135.015 130.775 135.189C130.543 136.073 130.111 137.229 128.98 138.069C127.759 138.975 126.432 138.961 125.457 138.845C125.069 139.439 124.499 140.158 123.608 140.667C122.473 141.314 121.346 141.332 120.602 141.345C120.553 141.345 120.504 141.345 120.451 141.345C120.375 141.408 120.286 141.479 120.21 141.542C119.738 141.934 119.097 142.475 118.21 142.85C117.467 143.162 116.767 143.323 116.202 143.448C116.148 143.461 116.095 143.47 116.046 143.483C115.552 144.256 114.732 145.501 113.133 145.965C111.463 146.452 110.047 145.733 109.147 145.175C108.63 145.448 107.976 145.751 107.165 145.89C106.88 145.939 106.604 145.992 106.328 146.041C105.789 146.144 105.237 146.247 104.649 146.327C104.577 146.372 104.493 146.421 104.426 146.465C103.798 146.858 102.849 147.456 101.562 147.537C101.464 147.541 101.371 147.546 101.277 147.546V147.55ZM89.1629 140.559C89.4302 140.582 89.684 140.595 89.9245 140.609H89.9913C90.7351 140.126 91.9377 139.377 93.5277 139.493C94.6589 139.573 95.5096 140.073 96.1287 140.506C96.7477 140.207 97.5717 139.885 98.5782 139.872C99.6917 139.854 100.565 140.251 101.21 140.595C101.789 140.247 102.582 139.836 103.584 139.72C104.052 139.667 104.56 139.573 105.103 139.47C105.375 139.421 105.646 139.368 105.922 139.318C106.012 139.274 106.163 139.193 106.274 139.131C106.778 138.854 107.468 138.475 108.354 138.269C109.508 138.006 110.505 138.292 111.294 138.676C111.753 138.153 112.367 137.644 113.204 137.345C113.766 137.145 114.282 137.028 114.737 136.926C115.053 136.854 115.356 136.787 115.556 136.711C115.641 136.649 115.805 136.515 115.926 136.412C116.34 136.064 116.91 135.587 117.663 135.216C118.593 134.756 119.502 134.68 120.179 134.658C120.535 134.064 121.056 133.292 121.947 132.712C122.891 132.096 123.876 131.98 124.709 132.015C124.953 131.332 125.354 130.573 126.089 129.957C127.087 129.123 128.191 128.895 128.926 128.743C128.997 128.641 129.073 128.529 129.14 128.435C129.421 128.02 129.772 127.498 130.245 127.002C130.44 126.797 130.663 126.48 130.904 126.15C131.162 125.788 131.456 125.377 131.808 124.962C132.267 124.426 132.699 123.877 133.148 123.293L133.411 122.953C134.044 122.141 134.792 121.659 135.34 121.306C135.38 121.279 135.424 121.253 135.469 121.221C135.487 121.159 135.5 121.096 135.513 121.038C135.665 120.409 135.879 119.547 136.453 118.699C137.206 117.588 138.284 117.047 138.974 116.722C138.978 116.704 138.987 116.686 138.992 116.672C139.17 116.164 139.41 115.485 139.82 114.775C139.838 114.682 139.865 114.552 139.883 114.454C139.998 113.829 140.172 112.887 140.706 111.954C141.219 111.061 141.909 110.494 142.417 110.084C142.506 110.012 142.613 109.923 142.693 109.851C142.773 109.655 142.862 109.387 142.951 109.128C143.111 108.651 143.294 108.106 143.566 107.53C144.007 106.584 144.657 105.95 145.134 105.49C145.218 105.405 145.329 105.303 145.401 105.227C145.601 104.736 145.81 104.187 146.038 103.571V103.562C145.793 102.776 145.378 101.468 145.828 100.022C145.851 99.9324 145.868 99.6244 145.882 99.3967C145.913 98.8521 145.957 98.178 146.149 97.4236C146.47 96.1915 147.262 95.3701 147.877 94.83C147.748 94.214 147.619 93.3926 147.766 92.4819C147.855 91.9373 147.913 91.3525 147.979 90.732C148.006 90.4553 148.037 90.1785 148.069 89.8973C148.14 89.2589 148.296 88.7054 148.429 88.2143C148.478 88.0313 148.527 87.8572 148.567 87.701C148.558 87.6786 148.55 87.6563 148.541 87.634C148.282 86.9822 147.899 86.0002 147.984 84.777C148.037 84.0405 148.216 83.4155 148.354 82.9155C148.411 82.7057 148.496 82.4156 148.505 82.3129C148.523 81.862 148.563 81.4201 148.599 81.0272C148.639 80.6032 148.679 80.2014 148.674 79.8621C148.665 78.6792 149.106 77.7417 149.396 77.1257C149.422 77.0721 149.449 77.0141 149.476 76.956C149.467 76.5721 149.48 76.2106 149.494 75.8802C149.507 75.5097 149.52 75.1258 149.494 74.8937C149.414 74.2464 149.28 73.5009 149.155 72.8491C149.115 72.7956 149.071 72.742 149.031 72.6929C148.674 72.2465 148.158 71.5992 147.832 70.7287C147.788 70.6796 147.739 70.626 147.694 70.5814C147.267 70.1261 146.617 69.4342 146.234 68.4119C145.931 67.5994 145.868 66.8539 145.824 66.3093C145.815 66.2111 145.806 66.0861 145.797 65.9969C145.686 65.8094 145.512 65.5728 145.329 65.3273C145.107 65.0237 144.853 64.6844 144.603 64.2871C144.287 63.7916 144.065 63.305 143.886 62.9167C143.784 62.6935 143.642 62.3855 143.575 62.2962C143.192 61.8185 142.724 61.3409 142.198 60.8186C142.127 60.7873 142.029 60.7472 141.954 60.7159C141.477 60.5195 140.818 60.2472 140.172 59.7249C139.548 59.2249 139.161 58.6267 138.912 58.042C138.243 58.0866 137.482 57.9973 136.711 57.6C135.366 56.9036 134.796 55.6983 134.467 54.7921C134.257 54.7341 134.044 54.6761 133.803 54.6002C132.917 54.3234 132.195 53.6895 131.799 52.8726C131.411 52.4798 130.775 51.7923 130.4 50.6719C130.343 50.5022 130.191 50.1987 130.044 49.9085C129.848 49.5201 129.625 49.0827 129.425 48.5782C129.198 48.0068 128.886 47.2479 128.516 46.4667C128.329 46.065 128.174 45.6721 128.04 45.3284C127.893 44.9534 127.755 44.6008 127.612 44.3419C127.087 43.3866 127.007 42.4268 126.953 41.7929C126.953 41.7393 126.944 41.6813 126.94 41.6233C126.793 41.4045 126.633 41.1769 126.468 40.9447C125.443 40.8644 123.96 40.6457 122.887 39.3332C122.624 39.0118 122.317 38.7038 121.961 38.3511C121.707 38.1012 121.457 37.8467 121.208 37.5833C120.268 36.5789 120.054 35.3781 120.001 34.4407C119.475 34.2487 118.879 33.9719 118.304 33.5032C118.246 33.463 117.974 33.347 117.778 33.2622C117.293 33.0523 116.692 32.789 116.077 32.3515C115.944 32.2577 115.645 32.1283 115.356 32.0033C114.932 31.8203 114.402 31.5926 113.859 31.2578C113.627 31.115 113.307 30.981 112.937 30.8293C112.545 30.6641 112.1 30.4811 111.632 30.2311C110.523 29.6418 109.895 28.7535 109.481 28.1642C109.463 28.1419 109.445 28.1151 109.428 28.0883C109.08 27.95 108.719 27.816 108.336 27.6777C108.051 27.575 107.771 27.4723 107.49 27.3652C106.96 27.1643 106.497 26.9366 106.087 26.7402C105.833 26.6152 105.588 26.4992 105.388 26.4188C105.299 26.4277 105.192 26.4456 105.107 26.459C104.462 26.5527 103.575 26.6777 102.564 26.4188C101.451 26.1376 100.64 25.5617 100.101 25.1823C100.048 25.1421 99.9945 25.1064 99.941 25.0707C99.0013 24.8564 98.262 24.535 97.7543 24.3162C97.7008 24.2939 97.6474 24.2671 97.5984 24.2493C97.1753 24.1913 96.7834 24.1109 96.4271 24.0395C96.0129 23.9547 95.6209 23.8788 95.3671 23.8698C95.1577 23.8609 94.7658 23.9189 94.3917 23.977C93.9374 24.0439 93.4252 24.1243 92.8641 24.1466C92.7527 24.1734 92.5122 24.2582 92.334 24.3252C91.7951 24.5171 91.127 24.7582 90.3165 24.8475C89.7954 24.9055 89.2386 25.0126 88.6507 25.1287C88.3791 25.1823 88.1119 25.2358 87.8402 25.2849C86.6243 25.5081 85.5732 25.2046 84.874 25.0037C84.8339 24.9903 84.7849 24.9769 84.7359 24.9635C84.482 25.0483 84.2059 25.1599 83.9164 25.2715C83.5244 25.4233 83.1236 25.584 82.6827 25.7269C82.4155 25.8162 82.0547 25.9992 81.6762 26.1911C81.3065 26.3786 80.8878 26.5929 80.4291 26.7804C80.34 26.8473 80.1841 26.9857 80.0639 27.0929C79.6229 27.4812 79.0217 28.0125 78.2022 28.4008C77.4005 28.7803 76.6211 28.9231 76.0511 29.0258C75.8863 29.057 75.6724 29.0972 75.5656 29.124C74.8797 29.4811 74.2205 29.6731 73.6861 29.8249C73.4857 29.8829 73.214 29.9588 73.1071 30.0079C72.6617 30.2757 72.2208 30.5078 71.8288 30.7087C71.4369 30.9141 71.0628 31.106 70.809 31.2801C70.7422 31.3337 70.5239 31.5881 70.3769 31.7578C70.0473 32.1417 69.642 32.6104 69.1076 33.039C69.0586 33.1238 68.9918 33.2443 68.9383 33.338C68.6088 33.9452 68.1545 34.7755 67.2949 35.4629C67.1569 35.5745 66.9386 35.8334 66.7293 36.0834C66.3997 36.4763 65.9944 36.9673 65.46 37.4182C65.2774 37.5699 65.0591 37.8378 64.8231 38.119C64.489 38.5252 64.106 38.9806 63.6072 39.418C63.2197 39.7528 62.8367 40.0028 62.4626 40.2484C62.1063 40.4805 61.7722 40.6992 61.4916 40.9581C61.1754 41.2528 60.8548 41.5161 60.543 41.7706C60.1778 42.0697 59.8348 42.3509 59.5364 42.6545C58.8416 43.3598 58.0355 43.7035 57.3675 43.9133C57.2739 44.7258 57.0334 45.757 56.2763 46.6676C56.1516 46.8149 55.9868 47.1006 55.8086 47.4042C55.5681 47.8149 55.2697 48.3238 54.8778 48.8371C54.0049 49.9844 52.789 50.3594 51.8136 50.5245C51.7245 51.0067 51.5775 51.5468 51.3014 52.0869C51.3014 52.1539 51.2925 52.2298 51.288 52.2968C51.248 53.0199 51.1901 54.1092 50.571 55.1984C49.8495 56.4706 48.6648 57.0554 47.9611 57.4036C47.9611 57.4036 47.9522 57.4036 47.9522 57.4081C47.8453 57.6536 47.7339 57.9125 47.6226 58.1803C47.4801 58.5151 47.342 58.8544 47.1906 59.1892C47.1683 59.2964 47.1416 59.5196 47.1193 59.6892C47.0481 60.2561 46.9501 61.0373 46.6294 61.8542C46.527 62.1176 46.4201 62.3765 46.3132 62.6399C46.0816 63.2024 45.8634 63.7381 45.6852 64.2603C45.6229 64.4389 45.5694 64.7871 45.516 65.1219C45.4447 65.5683 45.3601 66.1174 45.1998 66.6977C45.1998 66.8004 45.2086 66.9789 45.2175 67.1173C45.2487 67.7021 45.2888 68.4967 45.0706 69.394C44.8434 70.3359 44.407 71.0457 44.0908 71.5635C44.0284 71.6617 43.9527 71.7867 43.9037 71.8715C43.8725 72.1081 43.8547 72.4117 43.8413 72.7286C43.8191 73.1884 43.7924 73.7062 43.7078 74.2732C43.5385 75.4338 42.9728 76.2998 42.6032 76.8668C42.5854 76.8935 42.5676 76.9203 42.5497 76.9471C42.5631 77.0498 42.5854 77.1703 42.5987 77.273C42.6744 77.773 42.7725 78.3845 42.7502 79.0854C42.7769 79.1747 42.8214 79.3041 42.8571 79.4068C43.0664 80.0184 43.3514 80.8487 43.3292 81.8843C43.3069 83.0896 42.7813 84.0137 42.2647 84.6922C42.621 85.2859 42.9684 86.0582 43.0263 86.9912C43.0753 87.8081 43.1332 88.683 43.2223 89.5446C43.3381 90.6874 42.9773 91.6427 42.6121 92.3525C43.0619 92.9149 43.5385 93.6649 43.7211 94.6559C43.7968 95.0621 43.8547 95.4684 43.9126 95.8746C43.9839 96.3522 44.0462 96.8031 44.1353 97.2004C44.3268 98.053 44.2823 98.8253 44.2377 99.4146C44.8657 99.9235 45.7342 100.718 46.1217 101.977C46.1974 102.222 46.3399 102.53 46.5092 102.892C46.7051 103.312 46.9233 103.785 47.1149 104.329C47.5291 105.503 47.3287 106.575 47.0258 107.427C47.5692 107.847 48.1392 108.427 48.5089 109.253C48.5401 109.298 48.7138 109.508 48.8385 109.664C49.177 110.075 49.6357 110.637 49.9965 111.365C50.4641 112.302 50.5576 113.226 50.6244 113.838C50.6333 113.923 50.6423 114.025 50.6556 114.11C50.7625 114.262 50.9139 114.449 51.0654 114.632C51.3682 115.003 51.7423 115.463 52.0764 116.012C52.8201 117.23 52.7712 118.507 52.6954 119.364L52.7177 119.387C53.1141 119.739 53.604 120.177 54.0494 120.762C54.1296 120.833 54.3166 120.967 54.4547 121.07C54.811 121.328 55.2742 121.663 55.7196 122.119C55.7641 122.136 55.8131 122.15 55.8532 122.163C56.5658 122.4 57.6391 122.761 58.521 123.735C59.5409 124.859 59.6968 126.208 59.7859 127.033C59.7992 127.047 59.8126 127.06 59.8259 127.074C60.2669 127.52 60.681 127.94 61.0863 128.301C61.5273 128.694 61.8836 129.091 62.2042 129.444C62.4492 129.716 62.7031 129.998 62.8768 130.14C63.4068 130.565 63.8076 131.029 64.1328 131.431C65.0992 131.252 66.4621 131.127 67.7581 131.939C68.4529 132.377 68.9606 132.895 69.3303 133.27C69.3793 133.319 69.4327 133.377 69.4906 133.43C69.5129 133.43 69.5352 133.43 69.5574 133.43C70.1899 133.462 71.1474 133.506 72.1362 133.984C73.6015 134.694 74.1983 136.015 74.5457 136.953C74.5902 136.966 74.6303 136.975 74.6748 136.988C74.9732 137.069 75.2983 137.158 75.6368 137.269C75.6947 137.261 75.7616 137.247 75.815 137.238C76.5053 137.122 77.552 136.944 78.7099 137.31C78.8614 137.359 79.182 137.39 79.4894 137.426C79.9615 137.475 80.5449 137.537 81.1684 137.702C81.4624 137.783 81.7519 137.859 82.0324 137.939C82.5758 138.091 83.088 138.229 83.5557 138.332C83.7873 138.381 84.1257 138.399 84.482 138.417C84.9408 138.439 85.4574 138.461 86.0275 138.564C87.5863 138.836 88.5483 139.854 89.1585 140.573L89.1629 140.559ZM125.76 39.9939C125.76 39.9939 125.764 40.0028 125.769 40.0073L125.76 39.9939Z" fill="#FFBE39"/>
<path d="M150.691 95.6202C150.549 96.4773 149.912 96.9684 149.734 97.8165C149.556 98.6647 150.696 99.8164 150.486 100.656C150.277 101.495 149.284 102.138 149.043 102.972C148.803 103.807 148.5 104.615 148.228 105.437C147.957 106.258 147.939 107.173 147.636 107.986C147.333 108.798 146.211 109.276 145.877 110.07C145.543 110.865 145.552 111.802 145.186 112.584C144.821 113.365 144.567 114.2 144.171 114.967C143.775 115.735 144.149 116.94 143.721 117.695C143.294 118.449 143.022 119.338 142.563 120.07C142.105 120.802 141.579 121.543 141.085 122.257C140.59 122.971 139.383 123.19 138.858 123.878C138.332 124.565 137.174 124.73 136.622 125.395C136.07 126.06 136.021 127.016 135.437 127.65C134.546 127.65 133.749 127.413 132.845 127.404C131.941 127.395 131.055 127.703 130.151 127.685C129.246 127.667 128.365 127.601 127.461 127.574C126.556 127.547 125.697 126.971 124.793 126.935C123.889 126.9 122.935 128.422 122.036 128.382C121.136 128.342 120.339 126.627 119.439 126.574C118.54 126.52 117.546 128.203 116.642 128.145C115.738 128.087 114.847 128.038 113.948 127.967C113.048 127.895 112.22 127.065 111.32 126.984C110.42 126.904 109.552 126.632 108.657 126.543C107.761 126.453 106.875 126.377 105.976 126.284C105.076 126.19 104.176 126.248 103.281 126.141C102.386 126.034 101.401 126.739 100.506 126.627C99.6111 126.516 98.7292 126.355 97.834 126.23C96.9388 126.105 96.3197 124.105 95.429 123.98C94.5382 123.855 93.6831 123.61 92.7879 123.471C91.8927 123.333 90.7391 124.967 89.8484 124.819C88.9576 124.672 88.2094 123.748 87.3187 123.592C86.4279 123.436 85.6307 122.855 84.7444 122.69C83.8803 122.529 83.0786 122.065 82.2235 121.9C81.3684 121.735 80.5489 121.355 79.6938 121.181C78.8387 121.007 77.7786 121.779 76.928 121.601C76.0773 121.422 75.2266 121.159 74.376 120.967C73.5253 120.775 72.6167 120.784 71.7661 120.588C70.9154 120.391 70.2384 119.418 69.3922 119.213C68.546 119.007 67.5083 119.534 66.6621 119.32C65.8158 119.105 64.836 119.364 63.9898 119.141C63.1436 118.918 62.2261 118.909 61.3844 118.681C60.5426 118.454 59.7587 117.94 58.9169 117.708C58.0752 117.476 57.367 116.731 56.5297 116.485C55.6924 116.24 54.864 115.914 54.0312 115.664C53.1983 115.414 52.0492 116.119 51.2164 115.86C50.3835 115.601 49.5818 115.173 48.7579 114.905C47.9339 114.637 46.9853 114.061 46.1613 113.789C45.7605 113.048 45.7516 111.829 45.3419 110.999C44.9677 110.235 44.0903 109.655 43.7207 108.816C43.3733 108.03 42.5939 107.361 42.2643 106.512C41.9525 105.709 41.4671 104.896 41.1776 104.035C40.8881 103.173 41.0618 102.191 40.8079 101.321C40.554 100.45 41.1241 99.4102 40.9103 98.5308C40.6965 97.6514 40.8569 96.7586 40.6832 95.8747C40.5095 94.9908 40.4471 94.8346 40.3135 93.9418C41.1687 94.098 41.3424 94.2275 42.2108 94.3792C43.0793 94.531 43.9612 94.5355 44.8297 94.6828C45.6982 94.8301 46.7314 93.857 47.6044 93.9953C48.4773 94.1337 49.1186 95.647 49.9916 95.7809C50.8645 95.9149 51.6885 96.2943 52.5614 96.4193C53.4343 96.5443 54.5656 94.6873 55.443 94.8033C56.3204 94.9194 57.0508 95.9774 57.9238 96.089C58.7967 96.2006 59.5449 97.263 60.4223 97.3657C61.2997 97.4684 62.3107 96.2854 63.1836 96.3836C64.0566 96.4818 64.9117 96.6648 65.7847 96.7586C66.6576 96.8523 67.4727 97.4594 68.3501 97.5442C69.2275 97.6291 70.1003 97.6558 70.9777 97.7317C71.8551 97.8076 72.7014 98.1603 73.5788 98.2317C74.4562 98.3031 75.2846 98.937 76.1664 99.004C77.0482 99.0709 77.9613 98.5085 78.8431 98.5665C79.7383 98.6245 80.6157 98.8924 81.502 98.9459C82.3883 98.9995 83.3325 98.1692 84.2233 98.2138C85.114 98.2585 85.987 98.7361 86.8777 98.7718C87.7685 98.8076 88.6414 99.5397 89.5277 99.5709C90.414 99.6022 91.3627 98.0308 92.2534 98.0531C93.1442 98.0755 94.0127 99.2852 94.899 99.3031C95.7853 99.3209 96.6894 99.3209 97.5802 99.3298C98.4709 99.3388 99.375 97.9505 100.266 97.9549C101.157 97.9594 102.052 99.129 102.938 99.1245C103.824 99.12 104.724 99.0129 105.615 99.004C106.505 98.995 107.392 98.379 108.278 98.3612C109.164 98.3433 110.095 99.62 110.986 99.5977C111.877 99.5754 112.785 99.7539 113.672 99.7227C114.558 99.6914 115.386 97.7853 116.273 97.7451C117.159 97.7049 118.121 99.004 119.007 98.9593C119.894 98.9147 120.824 99.312 121.711 99.2584C122.597 99.2049 123.457 98.437 124.343 98.379C125.229 98.321 126.151 98.5397 127.033 98.4728C127.915 98.4058 128.703 96.9014 129.585 96.83C130.467 96.7586 131.398 97.1023 132.279 97.0219C133.161 96.9416 134.106 97.3791 134.987 97.2943C135.869 97.2094 136.876 98.1692 137.758 98.0755C138.639 97.9817 139.388 96.5131 140.27 96.4104C141.151 96.3077 142.038 96.1515 142.915 96.0488C143.792 95.9461 144.657 95.5845 145.534 95.4729C146.411 95.3613 147.24 94.7765 148.113 94.656C148.986 94.5355 149.818 95.7318 150.691 95.6024V95.6202Z" fill="#3D3D3D"/>
<path d="M95.9458 147.425C95.9012 147.425 95.8522 147.425 95.8077 147.425C94.6497 147.389 93.7367 146.925 93.082 146.506C92.3917 146.898 91.4029 147.349 90.1781 147.233C89.7016 147.189 89.234 147.095 88.744 146.997C88.3254 146.912 87.8933 146.827 87.4391 146.764C86.094 146.586 85.1899 145.796 84.6109 145.233C84.0854 145.336 83.4039 145.434 82.6334 145.354C82.5933 145.367 82.5577 145.381 82.5176 145.394C81.7649 145.657 80.5046 146.095 79.0526 145.711C77.5918 145.323 76.7411 144.278 76.2333 143.649C76.2022 143.613 76.171 143.573 76.1398 143.533C75.4629 143.233 74.9462 142.85 74.5454 142.55C74.4385 142.47 74.3049 142.372 74.2158 142.314C74.1268 142.3 73.9352 142.278 73.7882 142.26C73.1914 142.189 72.3764 142.091 71.5034 141.725C71.4188 141.693 71.1427 141.635 70.9423 141.595C70.3722 141.479 69.5928 141.318 68.7867 140.93C68.5862 140.832 68.3012 140.725 68.0028 140.613C67.455 140.408 66.8315 140.18 66.1768 139.814C65.4018 139.385 64.6625 138.921 63.9499 138.475L63.892 138.439C63.794 138.417 63.6514 138.386 63.5356 138.363C62.8631 138.225 61.8477 138.011 60.8946 137.336C60.1419 136.801 59.3268 136.185 58.543 135.56C58.3337 135.39 58.1154 135.225 57.8972 135.055C57.3583 134.636 56.7971 134.203 56.2493 133.712C55.2962 132.859 54.9444 131.792 54.7796 130.931C53.9734 130.743 52.9847 130.382 52.1785 129.498C51.31 128.538 51.1007 127.413 51.0918 126.471C50.2679 126.239 49.3415 125.797 48.6512 124.868C48.1434 124.19 47.8406 123.502 47.5912 122.949C47.4843 122.708 47.3506 122.413 47.2794 122.302C46.7316 121.489 46.4866 120.659 46.304 120.056C46.255 119.891 46.1882 119.663 46.1482 119.574C45.7295 118.873 45.4934 118.199 45.3019 117.655C45.2797 117.597 45.2574 117.534 45.2396 117.472C44.4691 117.097 43.2353 116.467 42.5406 115.074C42.2332 114.458 41.9749 113.847 41.7211 113.258C41.6053 112.981 41.4851 112.708 41.3693 112.441C41.0308 111.682 40.8793 110.954 40.7546 110.369C40.7012 110.11 40.6344 109.789 40.5809 109.659C40.0955 108.441 40.2692 107.298 40.474 106.477C39.9975 106.012 39.414 105.356 39.0711 104.441C39.0132 104.37 38.933 104.276 38.8706 104.2C38.4075 103.66 37.7082 102.838 37.392 101.655C37.2228 101.008 37.1159 100.379 37.0179 99.8252C36.9556 99.4681 36.8976 99.1289 36.8308 98.8342C36.6839 98.178 36.6081 97.5441 36.5369 96.9861C36.4923 96.6245 36.4523 96.2853 36.3988 95.9951C36.194 94.8613 36.4167 93.8702 36.5681 93.214C36.5904 93.1114 36.6215 92.9864 36.6393 92.8926C36.5992 92.7007 36.5369 92.4685 36.4701 92.223C36.3276 91.6873 36.145 91.0177 36.0693 90.2678C35.9312 88.9196 36.4077 87.8572 36.724 87.1519C36.7462 87.1028 36.7685 87.0492 36.7952 86.9956C36.7774 86.7948 36.7596 86.5983 36.7418 86.4019C36.6972 85.9153 36.6483 85.4198 36.626 84.8797C36.5948 84.8127 36.5547 84.7324 36.5191 84.6654C36.2029 84.0315 35.7308 83.0807 35.7219 81.8531C35.6996 81.7549 35.6417 81.5808 35.6016 81.4469C35.4012 80.7996 35.125 79.9112 35.1918 78.8309C35.2854 77.3087 36.1405 76.2463 36.6482 75.6124C36.6749 75.5767 36.7062 75.5365 36.7373 75.5008C36.8798 74.7999 37.1248 74.2241 37.3163 73.7732C37.3831 73.617 37.4722 73.4027 37.5034 73.3089C37.6192 72.5277 37.7528 71.7912 37.8953 71.0546C37.8819 71.0189 37.8686 70.9876 37.8597 70.9519C37.5969 70.2421 37.1649 69.0681 37.4455 67.6932C37.4455 67.595 37.4232 67.4209 37.4099 67.2914C37.343 66.5995 37.2495 65.6487 37.5568 64.5818C37.9087 63.3675 38.6613 62.5729 39.2091 62.0239C39.1022 61.2561 38.9865 60.1624 39.4497 58.9883C39.7302 58.2875 40.0643 57.6938 40.3627 57.1715C40.5364 56.8679 40.6967 56.5867 40.7992 56.3635C41.3336 55.185 42.2511 54.5332 43.0572 54.127C42.9637 53.2878 42.9904 52.2432 43.5783 51.2075C43.7387 50.9218 43.8945 50.6362 44.0504 50.346C44.3488 49.7924 44.6517 49.2255 45.0124 48.6541C45.8141 47.3863 47.0255 46.8908 47.9564 46.6185C48.09 45.9445 48.335 45.1008 48.9407 44.3017C49.4484 43.6321 49.9472 43.0384 50.4282 42.4625L50.7623 42.0652C50.8157 41.9938 50.9449 41.7215 51.0428 41.5251C51.3056 40.9805 51.6708 40.235 52.2854 39.552C52.8154 38.9672 53.3454 38.4404 53.8131 37.9717C53.9333 37.8512 54.0536 37.7351 54.1694 37.619C54.2095 37.5208 54.2674 37.3691 54.3074 37.2619C54.5524 36.6057 54.922 35.6102 55.7905 34.7978C56.9619 33.7086 58.3381 33.4541 59.1977 33.3157C59.2912 33.2309 59.3847 33.1506 59.4783 33.0657C59.8123 32.7667 60.1819 32.4318 60.5783 32.0881C60.614 32.0167 60.6541 31.9319 60.6853 31.8649C61.0059 31.1998 61.4869 30.1954 62.4846 29.4008C63.6648 28.4633 65.0099 28.4098 65.8917 28.4142C66.2836 27.8785 66.8136 27.1822 67.6554 26.6152C68.2477 26.2135 68.8357 25.9233 69.3523 25.6688C69.673 25.5081 69.9758 25.3608 70.2163 25.2135C70.4434 25.0751 70.7063 24.8876 70.9868 24.6868C71.4679 24.343 72.0156 23.9547 72.6659 23.602C72.9376 23.4547 73.2093 23.2895 73.4765 23.1288C73.9931 22.8208 74.5766 22.4681 75.2402 22.1557C76.171 21.7137 77.0618 21.6155 77.712 21.5441C77.7922 21.5352 77.8902 21.5262 77.9748 21.5128C78.0015 21.4816 78.0283 21.4548 78.055 21.428C78.5805 20.8656 79.3733 20.0174 80.6471 19.5978C81.3552 19.3656 82.0411 19.2273 82.6468 19.1067C82.9586 19.0442 83.2748 18.9817 83.5776 18.9058C84.6554 18.6291 85.5997 18.7496 86.2945 18.8389C86.4058 18.8523 86.5394 18.8701 86.6418 18.8791C86.7353 18.8344 86.8512 18.7719 86.9492 18.7228C87.5682 18.4059 88.4189 17.9684 89.5234 17.8523C90.8863 17.705 91.9997 18.2139 92.6901 18.5532C93.3448 18.263 94.2979 17.8479 95.5093 17.8881C95.6117 17.8747 95.8389 17.8256 96.0081 17.7854C96.6673 17.6381 97.5669 17.4416 98.618 17.5577C99.8829 17.7006 100.68 18.4237 101.21 18.9058C101.313 18.9996 101.455 19.129 101.553 19.2049C102.234 19.3389 102.943 19.5085 103.664 19.6871L103.726 19.6692C104.51 19.4326 105.82 19.0398 107.289 19.5085C108.688 19.9504 109.494 20.9861 109.975 21.6066C109.984 21.62 109.997 21.6334 110.006 21.6468C110.078 21.6602 110.149 21.6735 110.216 21.6825C110.808 21.7851 111.619 21.928 112.469 22.3119C113.48 22.7717 114.153 23.4859 114.598 23.9591C114.687 24.0529 114.803 24.1779 114.874 24.2448C115.431 24.5484 115.912 24.8743 116.34 25.1689C117.395 24.8609 119.194 24.4189 120.811 25.5662C122.134 26.5036 122.512 27.8919 122.708 28.8472C123.221 29.0615 123.884 29.3651 124.517 29.8784C124.597 29.9052 124.69 29.932 124.771 29.9588C125.519 30.1909 126.65 30.548 127.581 31.539L127.674 31.6373C128.28 32.2845 128.966 33.0166 129.594 33.7844C130.587 35.0031 130.636 36.3914 130.663 37.2173C130.663 37.2262 130.663 37.2396 130.663 37.2485C130.917 37.6637 131.113 38.061 131.282 38.3958C131.407 38.6502 131.527 38.8868 131.625 39.0475C132.07 39.7529 132.262 40.4716 132.364 41.0608C133.259 41.3867 134.431 41.9804 135.068 43.333C135.17 43.5473 135.326 43.8151 135.491 44.0919C135.776 44.574 136.096 45.1186 136.355 45.7614C136.831 46.9489 136.725 48.0872 136.662 48.7657V48.788C136.684 48.8282 136.716 48.8684 136.738 48.9086C136.858 49.0916 137.001 49.3103 137.148 49.5737C137.41 49.846 137.62 50.1317 137.785 50.3951C138.395 50.4174 139.165 50.5201 139.958 50.8995C140.038 50.9174 140.167 50.9442 140.27 50.962C140.898 51.0825 141.846 51.27 142.773 51.8682C144.002 52.6628 144.479 53.8502 144.759 54.56C144.768 54.5868 144.781 54.6136 144.79 54.6404C145.294 55.0734 145.734 55.5109 146.162 55.9394C146.22 55.9617 146.278 55.984 146.331 55.9974C147.048 56.234 148.246 56.6313 149.146 57.7518C149.828 58.6 150.121 59.4883 150.34 60.1356C150.389 60.2829 150.455 60.4749 150.491 60.5641C151.092 61.5373 151.248 62.5105 151.351 63.1577C151.351 63.189 151.36 63.2202 151.364 63.2515C151.377 63.2604 151.386 63.2693 151.4 63.2827C151.934 63.7336 152.825 64.4925 153.288 65.7335C153.662 66.7334 153.671 67.6441 153.676 68.3092C153.676 68.4521 153.676 68.644 153.684 68.7333C153.952 69.7511 153.867 70.6573 153.809 71.2644C153.809 71.2867 153.805 71.3135 153.8 71.3403C154.219 71.8894 154.896 72.7822 155.092 74.0366C155.127 74.1259 155.199 74.2642 155.252 74.3758C155.537 74.9606 155.969 75.849 156.036 76.956C156.054 77.2596 156.081 77.5676 156.112 77.8712C156.165 78.4827 156.223 79.1122 156.228 79.7862C156.236 81.0005 155.796 81.9602 155.506 82.5941C155.47 82.6745 155.426 82.7682 155.395 82.8441C155.323 83.6521 155.074 84.3261 154.851 84.8395C155.332 85.5716 155.938 86.6608 155.796 88.0759C155.702 89.0268 155.399 89.799 155.181 90.3615C155.127 90.491 155.061 90.6695 155.034 90.7588C155.003 91.0668 154.98 91.3793 154.958 91.6873C154.914 92.2989 154.869 92.9283 154.758 93.6024C154.513 95.1202 153.564 96.1022 152.999 96.6915C152.976 96.7183 152.95 96.7451 152.923 96.7719C152.803 97.2718 152.669 97.7405 152.549 98.1646C152.469 98.4503 152.388 98.736 152.313 99.0262C152.237 99.3253 152.17 99.6556 152.103 100.004C151.996 100.553 151.872 101.178 151.671 101.834C151.64 101.941 151.609 102.263 151.587 102.495C151.529 103.106 151.458 103.87 151.155 104.704C150.892 105.437 150.553 106.057 150.286 106.553C150.13 106.838 149.983 107.111 149.899 107.316C149.565 108.133 149.128 108.753 148.776 109.249C148.75 109.289 148.723 109.325 148.692 109.369C148.861 110.217 149.119 111.615 148.389 113.021C147.908 113.949 147.267 114.583 146.794 115.048C146.688 115.155 146.541 115.298 146.474 115.373C146.064 116.07 145.614 116.614 145.245 117.056C145.102 117.226 144.955 117.405 144.862 117.534C144.835 117.646 144.808 117.829 144.786 117.958C144.674 118.632 144.523 119.552 143.926 120.454C143.499 121.096 143.009 121.583 142.612 121.976C142.403 122.181 142.167 122.418 142.078 122.552C141.976 122.708 141.837 122.98 141.69 123.266C141.437 123.77 141.125 124.395 140.671 125.025C139.927 126.056 138.938 126.547 138.279 126.873C138.203 126.909 138.11 126.958 138.034 126.998C137.638 127.467 137.237 127.837 136.876 128.176C136.618 128.417 136.395 128.623 136.235 128.81C136.07 129.002 135.909 129.19 135.754 129.382C135.326 129.89 134.885 130.417 134.36 130.966C134.239 131.096 134.07 131.323 133.896 131.569C133.576 132.015 133.179 132.564 132.631 133.1C132.582 133.185 132.507 133.323 132.449 133.43C132.137 134.02 131.665 134.904 130.792 135.636C130.707 135.707 130.498 135.957 130.347 136.136C129.941 136.622 129.438 137.225 128.712 137.761C128.071 138.238 127.193 138.89 126.294 139.475C125.176 140.202 124.022 140.274 123.256 140.323C123.172 140.327 123.069 140.336 122.985 140.341C122.352 140.649 121.729 140.787 121.221 140.872C120.887 141.89 120.259 143.345 118.66 144.024C117.27 144.613 115.988 144.305 115.061 143.97C114.554 144.452 113.859 144.992 112.888 145.273C111.623 145.64 110.514 145.403 109.779 145.247C109.717 145.233 109.641 145.215 109.574 145.202C109.378 145.251 109.182 145.3 108.986 145.354C108.439 145.497 107.877 145.644 107.254 145.756C107.169 145.8 107.036 145.876 106.933 145.934C106.359 146.269 105.486 146.769 104.354 146.898C104.065 146.93 103.735 146.992 103.388 147.055C102.827 147.157 102.19 147.273 101.5 147.318C100.279 147.394 99.3084 146.952 98.5913 146.51C97.9366 146.952 97.0369 147.407 95.8968 147.407L95.9458 147.425ZM98.6225 139.381C100.052 139.381 101.112 140.1 101.767 140.564C101.914 140.537 102.07 140.51 102.23 140.479C102.582 140.417 102.969 140.341 103.388 140.287C103.464 140.243 103.566 140.189 103.646 140.14C104.181 139.832 104.987 139.368 106.02 139.189C106.421 139.122 106.853 139.01 107.347 138.881C107.699 138.787 108.06 138.698 108.425 138.613C109.423 138.386 110.318 138.524 110.964 138.653C111.449 138.167 112.144 137.546 113.146 137.189C114.01 136.881 114.825 136.908 115.529 137.055C115.908 136.27 116.5 135.457 117.529 134.953C118.42 134.515 119.257 134.399 119.867 134.314C119.978 134.301 120.116 134.279 120.205 134.265C121.212 133.747 122.205 133.685 122.878 133.64C122.927 133.64 122.98 133.636 123.034 133.631C123.59 133.252 124.156 132.837 124.771 132.381C124.864 132.31 125.087 132.038 125.252 131.841C125.554 131.48 125.92 131.038 126.396 130.618C126.45 130.529 126.521 130.39 126.579 130.283C126.868 129.739 127.265 128.989 127.977 128.319C128.115 128.19 128.302 127.926 128.507 127.645C128.779 127.27 129.117 126.801 129.549 126.342C129.928 125.944 130.284 125.516 130.663 125.069C130.841 124.86 131.015 124.65 131.197 124.44C131.603 123.967 132.003 123.592 132.36 123.266C132.623 123.025 132.868 122.793 132.997 122.627C133.754 121.659 134.716 121.181 135.348 120.869C135.384 120.851 135.424 120.833 135.464 120.811C135.553 120.645 135.651 120.458 135.749 120.257C135.972 119.811 136.226 119.302 136.578 118.784C137.032 118.114 137.535 117.614 137.94 117.213C138.025 117.132 138.123 117.034 138.203 116.945C138.203 116.918 138.212 116.887 138.217 116.856C138.332 116.164 138.506 115.115 139.156 114.07C139.477 113.557 139.829 113.133 140.141 112.762C140.385 112.467 140.617 112.191 140.742 111.967C141.16 111.24 141.69 110.704 142.091 110.307C141.935 109.463 141.793 108.231 142.376 106.968C142.675 106.325 143.04 105.807 143.329 105.392C143.49 105.164 143.686 104.883 143.739 104.754C143.962 104.218 144.211 103.754 144.434 103.343C144.621 102.999 144.795 102.678 144.888 102.423C144.906 102.352 144.933 102.062 144.955 101.847C145.009 101.294 145.075 100.606 145.307 99.8431C145.405 99.5217 145.481 99.1423 145.57 98.6959C145.65 98.2852 145.739 97.8254 145.868 97.3343C145.957 96.9951 146.051 96.6603 146.144 96.3255C146.291 95.8166 146.425 95.3344 146.523 94.8613C146.812 93.4819 147.659 92.6069 148.22 92.0266C148.229 92.0177 148.242 92.0043 148.251 91.9953C148.273 91.7454 148.295 91.4775 148.313 91.1963C148.344 90.7722 148.376 90.3481 148.425 89.924C148.514 89.1518 148.75 88.5179 148.95 88.0045C148.465 87.2679 147.863 86.1743 147.966 84.7636C148.037 83.7726 148.384 82.9914 148.638 82.4245C148.683 82.3263 148.736 82.2013 148.772 82.1165C148.848 81.1299 149.217 80.3308 149.467 79.7907C149.498 79.7237 149.538 79.6389 149.569 79.5675C149.556 79.2327 149.52 78.8622 149.485 78.4694C149.458 78.1792 149.431 77.8846 149.413 77.5944C149.373 77.5096 149.32 77.398 149.275 77.3087C149.053 76.8489 148.759 76.2463 148.598 75.5008C148.572 75.4651 148.545 75.4294 148.518 75.3936C148.099 74.8446 147.467 74.0142 147.235 72.8224C147.066 71.9519 147.137 71.1974 147.191 70.6439C147.2 70.5323 147.213 70.3895 147.218 70.2957C147.031 69.5413 147.026 68.8583 147.026 68.3494V68.3182C146.541 67.903 145.859 67.2959 145.396 66.354C144.995 65.5371 144.875 64.7737 144.786 64.2113C144.772 64.1175 144.75 63.997 144.737 63.9122C144.394 63.3184 144.198 62.7337 144.046 62.2917C143.396 62.073 142.523 61.7248 141.753 60.9659L141.486 60.6981C141.04 60.2561 140.657 59.8767 140.274 59.5687C139.468 58.9214 139.036 58.1134 138.764 57.4884C138.372 57.4081 137.9 57.2965 137.406 57.0867C137.357 57.0867 137.303 57.0867 137.254 57.0867C136.667 57.0956 135.776 57.109 134.823 56.7161C133.371 56.1224 132.676 54.935 132.32 54.2699C131.848 53.8726 131.487 53.3458 131.286 52.7476C131.251 52.6896 131.211 52.6316 131.175 52.5735C130.912 52.1718 130.516 51.5647 130.231 50.7165C129.892 49.7032 129.977 48.7657 130.035 48.1452C130.035 48.1006 130.044 48.047 130.048 47.9934C129.964 47.8417 129.861 47.6676 129.763 47.5024C129.701 47.3997 129.639 47.2926 129.576 47.181C128.694 46.8998 127.296 46.3641 126.508 44.9267C126.004 44.0071 125.906 43.1053 125.839 42.5072C125.835 42.4491 125.826 42.3866 125.817 42.3241C125.626 41.9893 125.465 41.6724 125.323 41.3867C125.167 41.0742 125.02 40.7796 124.895 40.6055C124.098 39.4939 124.031 38.2708 124.009 37.5119C123.688 37.1459 123.345 36.7753 123.002 36.4093C122.936 36.387 122.864 36.3647 122.802 36.3468C122.165 36.1459 121.216 35.8513 120.375 35.1192C120.281 35.0746 120.121 35.0076 119.996 34.9585C119.453 34.7397 118.709 34.4362 117.992 33.8559C117.31 33.3023 116.905 32.6238 116.651 31.9765C115.765 32.106 114.723 32.0613 113.716 31.4364C113.324 31.1953 112.968 30.9543 112.656 30.74C112.282 30.4811 111.957 30.2623 111.663 30.1016C110.772 29.6284 110.184 29.0035 109.752 28.5437C109.699 28.4901 109.641 28.4232 109.583 28.3651C109.445 28.3339 109.245 28.2982 109.089 28.2714C108.586 28.1821 107.958 28.075 107.285 27.816C106.301 27.4366 105.615 26.7804 105.138 26.2224C104.452 26.4009 103.562 26.5483 102.564 26.2983C101.7 26.0795 100.863 25.8742 100.159 25.7403C98.8986 25.5037 97.9544 24.8787 97.3042 24.3475C96.8454 24.4457 96.2664 24.5618 95.6251 24.5707C95.5449 24.6064 95.438 24.6511 95.3579 24.6868C94.7789 24.9457 93.9059 25.334 92.8281 25.3698C91.639 25.4099 90.6814 24.9903 90.0178 24.6689C89.4923 24.9412 88.7707 25.3073 87.8621 25.4724C86.9179 25.6465 86.0806 25.5394 85.4749 25.459C85.3502 25.4412 85.1899 25.4233 85.083 25.4144C84.7 25.5081 84.3348 25.5796 83.9829 25.651C83.6623 25.7135 83.3549 25.776 83.0833 25.8429C83.0387 25.892 82.9898 25.9412 82.9497 25.9813C82.4776 26.4858 81.765 27.2446 80.6738 27.6866C79.8365 28.0214 79.0437 28.1107 78.4692 28.1732C78.3177 28.191 78.1217 28.2133 78.0149 28.2312C77.6808 28.3964 77.3156 28.6151 76.9282 28.8472C76.5719 29.0615 76.22 29.2713 75.8637 29.4633C75.5742 29.6195 75.2357 29.8606 74.8794 30.115C74.532 30.3605 74.1401 30.6418 73.7081 30.9052C73.2182 31.2042 72.746 31.4408 72.3274 31.6462C72.0112 31.8024 71.7128 31.9497 71.4945 32.0837C71.4233 32.1685 71.3164 32.3202 71.2318 32.4363C70.8755 32.9274 70.39 33.597 69.6329 34.155C68.5773 34.9362 67.4149 35.0656 66.5553 35.0835C66.2658 35.6593 65.8427 36.3825 65.1301 36.9852C64.7115 37.3378 64.324 37.686 63.9632 38.0163C63.6648 38.2842 63.3753 38.5431 63.0992 38.7842C62.204 39.5609 61.184 39.7529 60.4714 39.8689C60.2176 40.5251 59.8346 41.3911 59.0819 42.15C58.9037 42.3286 58.7256 42.5116 58.5385 42.6946C58.1243 43.1053 57.6967 43.5339 57.2959 43.9714C57.2425 44.0651 57.1401 44.2704 57.0688 44.4222C56.8194 44.9356 56.4764 45.6409 55.9152 46.315L55.5678 46.7301C55.1982 47.1721 54.8464 47.5961 54.5034 48.0292C54.4945 48.0872 54.4811 48.1497 54.4722 48.2033C54.3564 48.8952 54.1827 49.9398 53.488 50.9442C52.566 52.2744 51.1631 52.6762 50.2679 52.9039C50.1655 53.0914 50.063 53.2833 49.9516 53.4842C49.8982 53.5824 49.8448 53.6806 49.7958 53.7788C49.965 54.6448 50.2278 56.0555 49.5018 57.475C48.7402 58.966 47.3462 59.5463 46.5 59.8901C46.3886 60.091 46.2817 60.2829 46.1793 60.4659C46.0591 60.6802 45.9388 60.8856 45.8408 61.073C45.8453 61.1177 45.8542 61.1579 45.8586 61.198C45.9611 61.9257 46.117 63.0283 45.7072 64.2246C45.3198 65.354 44.5804 66.104 44.0682 66.604C44.1172 67.1039 44.1796 67.7512 44.0905 68.4789C44.1039 68.519 44.1217 68.5592 44.135 68.5949C44.3889 69.2868 44.8209 70.452 44.5581 71.8046C44.3978 72.6393 44.2419 73.4562 44.1217 74.2866C43.997 75.1392 43.6986 75.84 43.4848 76.3534C43.418 76.5052 43.3334 76.7105 43.3022 76.8087C43.1552 78.0408 42.5138 78.9559 42.0417 79.563C42.1932 80.0585 42.3758 80.6924 42.4114 81.4335C42.4426 81.5004 42.4827 81.5763 42.5139 81.6388C42.8212 82.2548 43.2844 83.1878 43.3111 84.3842C43.32 84.8038 43.3645 85.2547 43.4091 85.7368C43.4447 86.1296 43.4848 86.5224 43.507 86.9242C43.5828 88.1875 43.1374 89.1919 42.839 89.8571C42.8301 89.8794 42.8167 89.9062 42.8078 89.933C42.8435 90.0937 42.8924 90.2678 42.9414 90.4553C43.0706 90.9329 43.2131 91.4686 43.3022 92.0891C43.4492 93.1381 43.2487 94.0265 43.1017 94.6738C43.0795 94.7764 43.0483 94.9014 43.0305 94.9952C43.0973 95.3925 43.1418 95.7719 43.1864 96.138C43.2398 96.5844 43.2933 97.004 43.369 97.3433C43.4714 97.803 43.5471 98.245 43.6184 98.6691C43.6763 99.0083 43.7342 99.3387 43.7965 99.6288C43.8455 99.6913 43.9079 99.7583 43.9569 99.8163C44.3265 100.249 44.8566 100.865 45.2084 101.709C45.2529 101.749 45.3019 101.794 45.342 101.83C45.8854 102.325 46.7049 103.075 47.1324 104.285C47.6312 105.709 47.2661 107.008 47.0478 107.785C47.0478 107.798 47.0389 107.816 47.0344 107.834C47.1547 108.244 47.2349 108.633 47.3061 108.963C47.3596 109.218 47.4308 109.561 47.4798 109.673C47.6134 109.976 47.7471 110.284 47.8762 110.592C48.0054 110.892 48.1256 111.182 48.2503 111.454C48.9807 111.811 50.1788 112.405 50.9003 113.708C51.2432 114.333 51.4526 114.932 51.6218 115.414C51.7064 115.655 51.8223 115.981 51.8802 116.083C52.3344 116.829 52.5571 117.574 52.7175 118.119C52.7665 118.275 52.8288 118.489 52.8644 118.588C53.2207 119.132 53.4657 119.668 53.6661 120.11C54.6148 120.253 55.9598 120.561 56.9441 121.761C57.7369 122.726 57.915 123.81 57.9105 124.726C58.5474 124.926 59.2511 125.257 59.8657 125.868C60.9525 126.949 61.1663 128.315 61.2821 129.172C61.5092 129.355 61.7497 129.542 61.9947 129.734C62.2396 129.926 62.4801 130.114 62.7162 130.301C63.3352 130.797 63.9721 131.283 64.5734 131.716C64.6669 131.739 64.7961 131.765 64.8941 131.788C65.5354 131.922 66.4173 132.105 67.2902 132.654L67.4995 132.783C68.1631 133.203 68.7911 133.596 69.4013 133.93C69.624 134.051 69.9669 134.18 70.3276 134.314C70.7418 134.466 71.2095 134.64 71.695 134.877C71.7752 134.908 72.0691 134.966 72.2829 135.011C72.7817 135.113 73.4052 135.238 74.0688 135.515C74.1668 135.537 74.4073 135.569 74.5855 135.591C75.0977 135.654 75.8058 135.738 76.5496 136.011C77.4225 136.328 78.0639 136.81 78.5315 137.158C78.6295 137.234 78.7631 137.328 78.8388 137.381C79.7874 137.716 80.4645 138.314 80.9455 138.845C81.5735 138.658 82.3617 138.506 83.2525 138.653C83.3416 138.64 83.4707 138.613 83.5732 138.591C84.1611 138.47 85.0429 138.292 86.0495 138.466C87.5237 138.725 88.4857 139.635 89.0781 140.216C89.4433 140.278 89.7773 140.345 90.0668 140.403C90.1024 140.412 90.1425 140.417 90.1826 140.426C90.913 139.988 92.0576 139.359 93.5362 139.466C94.5027 139.533 95.2643 139.908 95.8522 140.269C96.5203 139.827 97.4289 139.368 98.5779 139.354C98.5958 139.354 98.6136 139.354 98.6314 139.354L98.6225 139.381ZM45.3732 102.187C45.3732 102.187 45.3732 102.187 45.3732 102.191C45.3732 102.191 45.3732 102.191 45.3732 102.187ZM36.6616 76.0722C36.6616 76.0722 36.6616 76.0722 36.6616 76.0766C36.6616 76.0766 36.6616 76.0766 36.6616 76.0722ZM133.46 54.9038C133.46 54.9038 133.46 54.9038 133.464 54.9038C133.464 54.9038 133.464 54.9038 133.46 54.9038Z" fill="#FFBE39"/>
<path d="M134.65 43.4982C133.741 43.6634 132.926 44.7079 132.049 44.7883C131.171 44.8686 130.138 44.3553 129.256 44.3642C128.374 44.3731 127.439 43.7883 126.562 43.7169C125.684 43.6455 124.624 44.3776 123.751 44.2347C122.878 44.0919 122.05 43.2928 121.19 43.0875C120.331 42.8821 119.574 42.1233 118.727 41.8643C117.881 41.6054 116.674 42.2438 115.846 41.9447C115.017 41.6456 114.14 41.2394 113.325 40.9135C112.461 40.5653 112.024 39.2574 111.227 38.9181C110.497 38.6101 109.464 38.7842 108.6 38.4092C107.842 38.0789 106.72 38.4047 105.896 38.0208C105.13 37.6637 104.903 36.1013 104.106 35.6995C103.308 35.2978 102.351 35.329 101.58 34.896C100.81 34.463 100.498 33.347 99.7543 32.8783C99.0106 32.4095 97.6878 32.0256 96.9841 31.5123C96.8683 32.2444 97.9238 33.8871 97.7279 34.7621C97.5586 35.512 96.6412 36.1727 96.4007 37.003C96.1824 37.753 95.7237 38.4851 95.4342 39.2886C95.1625 40.0341 93.7507 40.3109 93.4077 41.0876C93.0871 41.8152 92.7931 42.5027 92.4012 43.2527C92.0271 43.958 92.4769 45.1186 92.0315 45.8329C91.5416 46.623 91.5238 47.7435 90.9893 48.4756C90.4548 49.2077 88.6066 48.8997 88.0098 49.5827C87.4129 50.2656 88.3304 52.4128 87.6846 53.0512C87.0388 53.6896 86.2015 54.261 85.5067 54.8502C84.812 55.4395 83.6362 55.5109 82.9013 56.0466C82.1664 56.5822 81.6008 57.4527 80.8303 57.9393C80.0598 58.4259 78.6657 57.8902 77.8685 58.3321C77.0713 58.7741 76.7684 60.216 75.9444 60.6133C75.1205 61.0106 74.2387 61.3721 73.3969 61.7248C72.5551 62.0775 71.2591 61.3097 70.4084 61.6221C69.5578 61.9346 68.8674 62.7649 68.0034 63.0417C67.1394 63.3185 66.4668 64.372 65.5983 64.6175C64.7299 64.863 63.5363 64.0952 62.6633 64.3184C61.7904 64.5416 61.011 65.3719 60.138 65.5773C59.2205 65.7871 58.1828 65.3451 57.3143 65.5326C56.3835 65.7335 55.4571 65.7647 54.5975 65.9433C53.7335 66.1219 53.0476 67.2066 52.1836 67.3584C51.3195 67.5102 50.3487 67.095 49.4846 67.229C48.6206 67.3629 47.7565 67.6039 46.888 67.7155C46.0196 67.8271 45.1511 68.0994 44.2826 68.1842C43.4141 68.2691 42.5011 68.1441 41.6371 68.211C40.773 68.278 39.9001 68.9521 39.036 68.9967C38.172 69.0413 37.2056 67.6352 36.346 67.6575C35.4864 67.6798 34.5868 68.5548 33.7316 68.5592C32.8231 68.5592 31.9412 68.5949 31.0905 68.5726C30.1775 68.5503 29.358 67.3495 28.5207 67.3004C27.5943 67.2468 26.6724 68.0727 25.8484 67.9923C24.8998 67.903 24.0402 67.7512 23.2474 67.6352C22.2453 67.4834 21.2789 67.8003 20.5663 67.6173C19.1633 67.2557 18.2191 66.6263 18.188 66.2022C18.1479 65.7156 18.9496 64.1309 20.3569 63.6309C21.172 63.3408 22.6417 64.6264 23.6394 64.3586C24.5747 64.1086 25.7103 63.689 26.6189 63.4836C26.5655 62.9256 25.1358 61.7025 25.0735 60.4749C25.0334 59.6847 26.6457 58.7116 26.6323 57.6893C26.6234 56.8501 26.8461 55.9662 26.8684 54.993C26.8906 54.1315 25.9286 53.1896 25.9865 52.2387C26.04 51.3683 27.091 50.5513 27.1846 49.6139C27.2692 48.7345 26.6991 47.7703 26.8283 46.8462C26.9574 45.9222 25.9687 44.8731 26.1335 43.958C26.2983 43.0429 26.4898 42.15 26.6902 41.2439C26.8906 40.3377 27.5943 39.5743 27.8304 38.6815C28.0664 37.7887 29.4916 37.2932 29.7722 36.4138C30.0528 35.5344 29.7232 34.5032 30.0439 33.6416C30.3646 32.7801 29.8746 31.6016 30.2398 30.7623C30.605 29.9231 30.9168 29.0303 31.3221 28.2089C31.7274 27.3875 33.0235 27.0393 33.4777 26.2447C33.932 25.4501 34.177 24.5484 34.6714 23.7806C35.1657 23.0128 36.2702 22.7048 36.8136 21.9637C37.357 21.2227 37.9894 20.6379 38.5773 19.9326C39.1652 19.2273 39.8199 18.6827 40.4479 18.0131C41.0759 17.3435 41.1026 16.1426 41.7751 15.5177C42.4298 14.9061 42.4476 13.549 43.1157 13C43.7838 12.4509 45.3248 12.9151 46.0196 12.4018C46.7144 11.8884 47.6452 11.6741 48.3667 11.201C49.0882 10.7278 49.8721 10.3171 50.6114 9.88407C51.3909 9.42874 51.52 7.83954 52.2727 7.44224C53.0833 7.01816 54.0453 6.93335 54.8069 6.57622C55.6442 6.18785 56.6641 6.31731 57.4301 5.9959C58.3075 5.63431 59.2473 5.6611 60 5.38433C60.9442 5.03614 61.207 3.10768 61.9062 2.86662C62.797 2.56306 64.2756 4.14333 65.153 3.88442C66.0304 3.6255 66.596 2.07649 67.4867 1.85775C68.3775 1.63901 69.6201 2.87555 70.5153 2.69698C71.4105 2.51842 72.3013 2.29076 73.2054 2.15237C74.1095 2.01399 75.0226 1.89792 75.9267 1.79972C76.8308 1.70151 77.7082 0.880126 78.6123 0.81763C79.5164 0.755134 80.4829 0.746205 81.387 0.728349C82.3401 0.706029 83.2665 0.49622 84.1661 0.514076C85.1237 0.531932 86.0768 0.17481 86.972 0.232843C87.934 0.290875 88.9272 -0.0751759 89.809 0.0141047C90.7844 0.116777 91.6574 0.79531 92.5259 0.920302C93.5146 1.06315 94.2138 2.43807 95.0467 2.59878C95.8216 2.74609 96.944 1.79972 97.9595 2.01845C98.7834 2.19701 99.8657 1.71043 100.823 1.95596C101.661 2.17469 102.208 3.64782 103.13 3.93352C103.968 4.19243 104.729 4.73258 105.624 5.05845C106.457 5.36201 107.825 4.38439 108.698 4.7549C109.517 5.09863 109.882 6.54497 110.733 6.95567C111.539 7.34404 112.791 6.91995 113.614 7.37082C114.438 7.82169 114.652 9.19661 115.449 9.69211C116.211 10.1653 117.436 9.86621 118.122 10.3394C118.861 10.8483 119.618 11.317 120.282 11.8259C120.99 12.3705 122.041 12.5089 122.678 13.0535C123.359 13.6338 122.696 15.6828 123.31 16.2587C123.961 16.8658 125.613 16.3837 126.214 16.9774C126.842 17.6024 127.265 18.4059 127.858 19.013C128.45 19.6201 129.416 19.9103 130.022 20.5129C130.628 21.1156 130.623 22.3789 131.26 22.9592C131.897 23.5395 133.153 23.3476 133.839 23.8877C134.525 24.4279 134.2 26.3251 134.939 26.8072C135.678 27.2893 137.135 26.4367 137.928 26.8518C138.662 27.2357 138.997 28.5526 139.829 28.8919C140.595 29.2044 141.549 29.1731 142.408 29.4499C143.33 29.7445 144.261 29.7802 145.08 29.9767C146.047 30.2088 146.933 30.3561 147.735 30.5123C148.773 30.7132 149.503 31.5346 150.224 31.7265C151.414 32.0435 152.451 31.8917 152.625 32.6729C152.781 33.3872 151.552 33.6952 150.812 34.6058C150.318 35.213 150.073 36.0567 149.267 36.6905C148.608 37.2084 148.26 38.2887 147.432 38.7976C146.693 39.2529 145.544 39.0342 144.697 39.4627C143.909 39.86 143.21 40.4537 142.35 40.8153C141.491 41.1769 140.448 40.7528 139.576 41.0519C138.703 41.351 137.923 41.592 137.037 41.8242C136.151 42.0563 135.545 43.3464 134.654 43.5071L134.65 43.4982Z" fill="#FF6666"/>
<path d="M117.587 50.1272C117.502 50.6986 117.814 51.5021 117.814 52.1182C117.814 53.7609 118.179 55.1046 118.705 56.3099C119.44 58.0018 120.201 58.6714 121.493 58.6714C122.784 58.6714 123.573 58.0107 124.303 56.3188C124.824 55.1135 124.86 53.7565 124.86 52.1182C124.86 51.5021 125.474 50.7299 125.394 50.1585C123.475 49.8817 123.377 51.0602 121.444 50.904C119.511 50.7477 119.502 49.8505 117.582 50.1272H117.587Z" fill="#3D3D3D"/>
<path d="M82.0104 54.9394C81.9257 55.5108 81.2354 55.9662 81.2354 56.5867C81.2354 58.2294 82.3354 59.6713 82.861 60.8766C83.5959 62.5684 84.5801 63.0818 85.8717 63.0818C87.1633 63.0818 87.9428 62.4792 88.6776 60.7873C89.1987 59.582 90.1875 58.2294 90.1875 56.5867C90.1875 55.9706 89.9113 54.81 89.8312 54.2386C87.9116 53.9618 87.827 54.2609 85.8851 54.2163C83.9433 54.1716 83.9343 54.6671 82.0148 54.9439L82.0104 54.9394Z" fill="#3D3D3D"/>
<path d="M120.139 67.2958C118.927 67.4298 117.484 67.9878 115.827 67.9744C114.5 67.961 113.084 67.1887 111.534 66.9923C110.184 66.8182 108.71 66.8539 107.227 66.4789C105.553 66.0549 103.882 65.8763 102.511 65.3227C100.832 64.6487 99.6825 63.9077 98.48 63.2291C97.8654 64.5594 97.0414 66.3361 97.9455 68.1663C98.5334 69.3493 99.4509 70.5769 100.791 71.0233C102.003 71.4295 103.535 71.2019 104.844 71.2599C106.403 71.3269 107.833 70.6974 108.777 70.6349C109.801 70.5635 111.164 70.7465 112.754 70.3537C113.917 70.068 115.021 69.2913 116.393 68.702C117.533 68.211 118.909 68.0726 120.143 67.3003L120.139 67.2958Z" fill="#FF6666"/>
<path d="M76.0063 166.353C74.5544 166.353 73.2227 165.397 72.7996 163.933C72.5324 163.009 72.6883 162.219 72.8085 161.639C72.7996 161.63 72.7907 161.621 72.7818 161.616C72.755 161.594 72.7284 161.567 72.7016 161.54C72.617 161.563 72.5324 161.585 72.4656 161.607C72.1494 161.697 71.7574 161.808 71.2542 161.822C69.8913 161.853 68.6353 161.045 68.1009 159.782C67.5664 158.518 67.8559 157.054 68.8313 156.09C69.4548 155.474 70.1674 155.126 70.7909 154.818C70.9691 154.728 71.223 154.603 71.361 154.523C71.6015 154.233 71.8732 153.862 72.1538 153.474C72.3275 153.233 72.5057 152.992 72.6883 152.746C73.1871 152.081 73.7839 151.626 74.2159 151.295C74.3362 151.202 74.492 151.086 74.5722 151.01C74.9775 150.376 75.4006 149.697 75.7614 149.041C76.0019 148.599 76.2869 148.229 76.563 147.916C76.0865 147.055 75.6322 145.916 75.8816 144.631C75.8772 144.608 75.8727 144.586 75.8638 144.564C75.7124 143.921 75.454 142.845 75.797 141.622C76.1978 140.185 77.2489 139.363 78.0194 138.872C78.0194 138.854 78.0194 138.841 78.0194 138.823C78.0372 138.435 78.0551 137.997 78.113 137.528C78.2555 136.377 78.8345 135.524 79.3645 134.913C79.1685 134.448 78.9814 133.881 78.9235 133.225C78.8879 133.149 78.8434 133.06 78.8033 132.984C78.5361 132.457 78.1352 131.658 78.0417 130.649C77.9571 129.703 78.1218 128.877 78.2376 128.324C78.2243 128.306 78.2109 128.288 78.1976 128.27C77.8635 127.815 77.3558 127.123 77.1287 126.176C76.7011 124.377 77.8101 122.574 79.605 122.145C81.2484 121.753 82.8919 122.65 83.4887 124.181C83.5154 124.217 83.5465 124.257 83.5733 124.297C83.9964 124.868 84.7001 125.828 84.9228 127.199C85.0875 128.199 84.9094 129.047 84.7803 129.663C84.7669 129.734 84.7491 129.819 84.7313 129.899C84.7402 129.917 84.7491 129.94 84.7624 129.957C85.0475 130.52 85.4617 131.346 85.5597 132.408C85.5908 132.471 85.622 132.533 85.6532 132.6C85.9828 133.283 86.4816 134.319 86.4148 135.649C86.3301 137.296 85.3236 138.354 84.6912 138.997C84.6912 139.037 84.6912 139.077 84.6867 139.118C84.66 139.68 84.6288 140.381 84.4774 141.14C84.1968 142.533 83.3016 143.381 82.54 143.916C82.5845 144.238 82.6113 144.595 82.589 144.979C82.6113 145.019 82.638 145.055 82.6558 145.091C83.2615 146.059 84.3839 147.863 83.4797 149.876C83.0255 150.885 82.3396 151.563 81.8363 152.054C81.7428 152.148 81.6225 152.264 81.5557 152.34C81.0925 153.184 80.5893 153.978 80.1172 154.719C79.5337 155.626 78.7988 156.193 78.2599 156.603C78.1575 156.684 78.0194 156.786 77.9481 156.849C77.8858 156.929 77.8279 157.014 77.7656 157.094C80.1305 159.121 79.5337 162 79.3378 162.96C79.3378 162.969 79.3378 162.978 79.3333 162.991C79.3333 164.447 78.3846 165.786 76.9193 166.21C76.612 166.299 76.3003 166.344 75.993 166.344L76.0063 166.353ZM82.3351 146.314C82.3351 146.314 82.3351 146.314 82.3351 146.318C82.3351 146.318 82.3351 146.318 82.3351 146.314Z" fill="#3D3D3D"/>
<path d="M64.6267 94.6024C64.3728 94.6024 64.1101 94.589 63.8384 94.5488C62.2439 94.3301 61.2106 93.3703 60.5827 92.7721C60.4624 92.7721 60.3333 92.7811 60.2308 92.7855C59.5628 92.8168 58.6498 92.857 57.6788 92.4641C55.9686 91.7677 55.1491 89.8125 55.8439 88.1028C56.4763 86.5448 58.142 85.7234 59.7231 86.1118C59.7899 86.1118 59.8567 86.1029 59.928 86.1029C60.5738 86.0761 61.5536 86.0315 62.6581 86.3261C63.8027 86.6341 64.5732 87.3439 65.0943 87.8394C65.1344 87.8305 65.17 87.826 65.2101 87.8171C65.7 87.7233 66.2968 87.6117 66.9827 87.5939C67.0807 87.5581 67.2277 87.5001 67.3435 87.451C67.8557 87.2412 68.5594 86.9555 69.419 86.835C70.2385 86.7234 70.8931 86.6118 71.6102 86.402C72.2604 86.2145 72.835 86.2413 73.2537 86.2591C73.4719 86.2681 73.7703 86.2814 73.8727 86.2413C74.7947 85.8663 75.6854 85.8752 76.3179 85.902C76.5895 85.5404 76.9369 85.1029 77.4046 84.6922C77.4179 84.6655 77.4269 84.6342 77.4402 84.6074C77.6718 84.036 78.0192 83.1789 78.7719 82.4156C79.2128 81.9692 79.6671 81.6567 80.0412 81.4246C80.0501 80.9916 80.0857 80.4425 80.2416 79.8443C80.4242 79.1435 80.6959 78.5765 80.8919 78.1614C80.932 78.0766 80.9809 77.9739 81.0166 77.8935C81.0388 76.8311 81.404 75.9294 81.6891 75.2821C81.5956 75.1482 81.4931 75.0142 81.4174 74.9205C80.9587 74.3178 80.0011 73.0679 80.4554 71.3627C80.7315 70.327 81.4575 69.4922 82.4507 69.0726C84.7177 68.1129 87.7463 69.7556 89.2472 71.8225C89.6168 72.3358 89.8529 72.8313 90.0444 73.2286C90.129 73.4072 90.2448 73.6527 90.2983 73.7197C91.0955 74.5098 91.4384 75.483 91.6611 76.1258C91.6611 76.1347 91.67 76.1481 91.6745 76.157C91.8348 76.2642 91.9907 76.3713 92.1332 76.474C92.3025 76.5945 92.5474 76.7641 92.6855 76.8445C93.1888 76.9561 93.7944 77.0409 94.2754 77.0677C94.3734 77.0275 94.5026 76.9695 94.6006 76.9248C94.997 76.7463 95.4691 76.532 96.0258 76.3892C96.0614 76.3579 96.1015 76.3222 96.1327 76.2954C96.6048 75.8803 97.3219 75.2464 98.364 74.9428C100.137 74.425 101.989 75.4472 102.506 77.2239C102.978 78.8444 102.168 80.5362 100.671 81.2103C100.631 81.246 100.586 81.2862 100.546 81.3219C99.9941 81.813 99.0766 82.6209 97.696 82.8754C97.6069 82.9111 97.4554 82.9781 97.3352 83.0316C96.6716 83.3307 95.665 83.7816 94.4447 83.7682C93.3936 83.7593 92.102 83.5896 90.993 83.3263C89.8618 83.0539 88.9621 82.4245 88.3029 81.9647C88.1114 81.8308 87.8932 81.6746 87.773 81.6076C87.4567 81.429 87.1806 81.2237 86.9401 81.005C86.9312 81.0228 86.9223 81.0362 86.9178 81.0541C86.851 81.1969 86.762 81.3799 86.7219 81.4871C86.7219 81.563 86.7219 81.679 86.7219 81.7728C86.7219 82.4959 86.7218 83.7012 85.9781 84.9288C85.2966 86.0493 84.3391 86.6386 83.769 86.9912C83.7378 87.0135 83.7022 87.0359 83.6621 87.0582C83.6488 87.085 83.6398 87.1117 83.6309 87.1341C83.3592 87.8037 82.9094 88.9108 81.8183 89.7321C81.7559 89.808 81.6446 89.9509 81.5644 90.0625C81.1458 90.6205 80.5088 91.4642 79.4711 92.0177C78.2062 92.6918 76.9325 92.6337 76.1709 92.6025C76.1174 92.6025 76.0595 92.598 76.0061 92.5936C74.7679 93.0132 73.6857 92.9864 73.0399 92.9552C72.1135 93.1962 71.2762 93.3391 70.332 93.4685C70.2741 93.4819 70.0381 93.5801 69.8644 93.6515C69.2096 93.9194 68.31 94.2854 67.1743 94.2854C67.1653 94.2854 67.1653 94.2854 67.152 94.2854C67.0228 94.2854 66.7066 94.3435 66.4527 94.3926C65.9628 94.4863 65.3349 94.6024 64.6356 94.6024H64.6267Z" fill="#3D3D3D"/>
<g opacity="0.7">
<path d="M46.8655 87.2769C47.2085 88.0804 46.6562 89.241 46.7408 90.1472C46.821 90.9999 46.91 91.8882 46.7853 92.7989C46.6695 93.647 47.0348 94.705 46.7542 95.58C46.4914 96.4013 46.291 97.3879 45.8946 98.2093C45.4982 99.0306 43.7434 99.0217 43.2535 99.7851C42.7636 100.548 42.9195 101.673 42.3538 102.374C41.7882 103.075 40.9865 103.508 40.3541 104.142C39.7217 104.776 39.3876 105.713 38.6973 106.276C38.007 106.838 37.4636 107.669 36.7154 108.151C35.9671 108.633 34.9784 108.771 34.1812 109.16C33.384 109.548 32.7382 110.494 31.8964 110.78C31.0012 111.079 29.9278 111.097 29.0014 111.271C28.0751 111.445 27.0863 112.079 26.1421 112.124C25.1979 112.168 24.1245 112.021 23.1848 111.941C22.245 111.86 21.2207 111.57 20.2943 111.369C19.3679 111.168 18.4772 110.561 17.5864 110.244C16.6957 109.927 15.6936 109.695 14.8473 109.267C14.0011 108.838 13.9699 107.075 13.1905 106.535C12.4111 105.995 10.9013 106.45 10.1931 105.812C9.57852 105.253 10.0239 103.651 9.44937 103.004C8.87483 102.356 7.02205 102.803 6.51878 102.111C6.0155 101.419 6.81273 99.8967 6.38517 99.1601C5.95761 98.4235 5.08912 97.9682 4.74173 97.1959C4.39433 96.4237 4.67048 95.455 4.41661 94.6514C4.16275 93.8479 3.49022 93.1917 3.34769 92.3703C3.20517 91.5489 3.85097 90.7186 3.84651 89.8839C3.84206 89.0491 3.45013 88.2902 3.62383 87.4733C3.79752 86.6564 3.9445 85.9287 4.32307 85.1654C4.72837 84.3351 4.10037 82.7414 4.69717 82.0807C5.29398 81.4201 6.50542 81.2013 7.27147 80.6969C8.03752 80.1925 9.13313 80.4335 9.98826 80.0809C10.7944 79.7461 11.4402 78.8488 12.3354 78.6211C13.2306 78.3935 14.0546 77.8935 14.9631 77.764C15.8717 77.6346 16.8248 78.1926 17.7334 78.1435C18.6419 78.0944 19.5327 77.1167 20.4412 77.1257C21.3498 77.1346 22.2183 78.1703 23.118 78.2372C24.0176 78.3042 24.9663 77.9426 25.8526 78.0542C26.7389 78.1658 27.79 77.5855 28.663 77.7417C29.5359 77.8979 30.4578 78.2952 31.3129 78.4917C32.2215 78.697 32.7203 80.4291 33.5532 80.6656C34.4662 80.9201 35.2145 81.3799 36.0161 81.6611C36.7955 81.9334 37.5304 82.2504 38.292 82.545C39.0536 82.8396 40.5813 81.4245 41.3072 81.7727C42.0332 82.1209 42.2425 83.5896 42.9016 84.0449C43.5608 84.5002 44.1131 85.0672 44.6475 85.6832C45.182 86.2992 46.5226 86.4912 46.8521 87.2769H46.8655Z" fill="white"/>
<path d="M25.7767 115.481C25.0017 115.481 24.249 115.405 23.5631 115.342C23.3404 115.32 23.1222 115.298 22.9129 115.28C21.9776 115.204 21.0824 114.99 20.2941 114.806C20.058 114.748 19.822 114.695 19.5993 114.646C18.6596 114.445 17.8623 114.057 17.2254 113.744C16.9359 113.601 16.6643 113.472 16.4772 113.405C16.2323 113.315 15.9739 113.24 15.7156 113.159C14.9896 112.932 14.1657 112.677 13.3462 112.258C12.0056 111.579 11.3954 110.414 11.0391 109.53C10.1618 109.45 8.98595 109.226 7.96603 108.307C7.11091 107.535 6.76352 106.584 6.60764 105.776C5.69462 105.588 4.60344 105.164 3.81957 104.075C2.89764 102.798 2.97335 101.392 3.08915 100.477C2.65268 100.044 2.09151 99.4368 1.70403 98.5797C1.22748 97.5128 1.21412 96.5218 1.20967 95.8612C1.20967 95.7853 1.20967 95.696 1.20967 95.6201C1.16513 95.5397 1.10276 95.4371 1.05377 95.3567C0.733101 94.8255 0.252111 94.0175 0.0695061 92.9461C-0.157636 91.6114 0.225382 90.5266 0.452524 89.8794C0.465885 89.8392 0.479236 89.799 0.497051 89.7588C0.483689 89.6874 0.465885 89.6026 0.452524 89.5312C0.323365 88.8973 0.127402 87.942 0.372359 86.7858C0.541603 85.9867 0.724194 85.0939 1.13839 84.1252C1.13839 84.0493 1.1295 83.9645 1.12505 83.8976C1.0716 82.9646 0.969166 81.2236 2.23849 79.8219C3.10252 78.8711 4.16252 78.4336 4.93748 78.1122C5.11117 78.0408 5.3784 77.9336 5.46302 77.8845C6.53638 77.1747 7.66764 77.0631 8.42033 76.9873C8.51386 76.9783 8.62519 76.9649 8.71872 76.956C8.78998 76.9024 8.87015 76.8355 8.94141 76.7819C9.49813 76.34 10.3354 75.6748 11.5291 75.3713C11.676 75.3311 11.9433 75.2284 12.2016 75.1258C12.8207 74.8802 13.5867 74.5767 14.5086 74.4472C15.6087 74.291 16.544 74.5231 17.2254 74.6927C17.2744 74.7061 17.3278 74.7195 17.3813 74.7329C17.3991 74.724 17.4125 74.7151 17.4303 74.7061C18.1118 74.3312 19.1628 73.7732 20.4945 73.7776C21.8573 73.7955 22.8728 74.407 23.5409 74.8133C23.5721 74.8311 23.6032 74.849 23.6344 74.8713C23.7368 74.8579 23.8438 74.8401 23.9417 74.8267C24.5029 74.7418 25.2556 74.6302 26.1063 74.7106C26.2042 74.6927 26.3646 74.657 26.4893 74.6258C27.144 74.474 28.1327 74.2419 29.2506 74.4383C29.9855 74.5677 30.6313 74.7776 31.2014 74.9606C31.5265 75.0677 31.8294 75.1659 32.0565 75.215C33.7846 75.6034 34.6931 76.9024 35.241 77.6792C35.241 77.6792 35.241 77.6792 35.241 77.6836C35.6863 77.8488 36.0738 78.0274 36.4123 78.1791C36.684 78.3041 36.9378 78.4202 37.1293 78.4872C37.6326 78.6613 38.1002 78.8488 38.5501 79.0273C39.4854 78.5809 41.062 77.9247 42.7589 78.7416C44.2331 79.4514 44.8477 80.7504 45.2129 81.5272C45.2263 81.5539 45.2352 81.5763 45.2486 81.6031C45.9344 82.1298 46.4778 82.6878 46.9588 83.228C47.0122 83.2547 47.0657 83.2815 47.1191 83.3083C47.8674 83.6788 49.2614 84.3663 49.9384 85.9599C50.5263 87.3438 50.2947 88.6428 50.1433 89.5044C50.121 89.6428 50.0853 89.8213 50.0764 89.9195C50.1655 90.8302 50.268 91.9551 50.1076 93.1917C50.1076 93.2854 50.1299 93.4908 50.1433 93.6381C50.2101 94.3568 50.3125 95.4371 49.9429 96.5977C49.8716 96.812 49.8092 97.0441 49.7424 97.2762C49.5509 97.9682 49.3104 98.8253 48.9051 99.66C48.2192 101.084 46.9321 101.696 46.0591 102.03C45.9077 102.722 45.6405 103.624 44.9591 104.468C44.4023 105.16 43.7877 105.637 43.2934 106.026C43.0662 106.204 42.8524 106.369 42.7277 106.494C42.6832 106.548 42.5406 106.762 42.4382 106.923C42.0864 107.472 41.6009 108.222 40.8082 108.865C40.6968 108.954 40.4964 109.168 40.3227 109.36C39.8728 109.847 39.3117 110.45 38.5278 110.954C37.7306 111.467 36.9378 111.722 36.301 111.927C36.0872 111.994 35.8511 112.07 35.7086 112.133C35.6284 112.195 35.4814 112.324 35.3701 112.423C34.8178 112.909 34.0651 113.574 32.965 113.945C32.0654 114.248 31.1702 114.351 30.4487 114.44C30.1369 114.476 29.843 114.512 29.6158 114.556C29.5089 114.579 29.1927 114.704 28.9878 114.784C28.3109 115.048 27.3889 115.409 26.3111 115.463C26.133 115.472 25.9548 115.476 25.7811 115.476L25.7767 115.481ZM17.0517 106.557C17.2566 106.624 17.4749 106.695 17.702 106.767C18.0449 106.874 18.379 106.981 18.7041 107.093C19.2475 107.285 19.7285 107.521 20.1516 107.727C20.4277 107.86 20.8463 108.066 21.0022 108.102C21.2694 108.16 21.5456 108.222 21.8262 108.289C22.4185 108.427 23.0242 108.57 23.4652 108.606C23.7101 108.624 23.9595 108.651 24.2134 108.677C24.828 108.735 25.456 108.798 25.9236 108.785C26.0617 108.749 26.3601 108.633 26.5606 108.552C27.0594 108.356 27.6874 108.115 28.3955 107.981C28.8409 107.901 29.2773 107.847 29.6604 107.802C30.0122 107.762 30.4042 107.713 30.6714 107.655C30.756 107.584 30.8674 107.485 30.9564 107.41C31.3795 107.039 31.9585 106.526 32.7246 106.155C33.2768 105.887 33.8202 105.713 34.2522 105.57C34.4793 105.499 34.8223 105.387 34.9292 105.329C35.0004 105.276 35.2498 105.003 35.4146 104.825C35.713 104.499 36.0827 104.102 36.537 103.727C36.6038 103.642 36.7285 103.446 36.8265 103.298C37.1115 102.856 37.4634 102.312 37.9934 101.78C38.4076 101.361 38.8351 101.03 39.1781 100.763C39.2983 100.669 39.4453 100.553 39.5611 100.455C39.57 100.414 39.5789 100.374 39.5834 100.339C39.7036 99.7449 39.8817 98.8521 40.4385 97.9816C41.2001 96.7941 42.3536 96.2808 43.1597 95.9772C43.2087 95.8165 43.2533 95.6469 43.3023 95.4817C43.3735 95.2228 43.4448 94.9728 43.5205 94.7273C43.516 94.6112 43.4983 94.4237 43.4849 94.2809C43.4359 93.7541 43.3735 93.0935 43.476 92.3524C43.5472 91.8391 43.4893 91.2275 43.4181 90.5177V90.4731C43.3602 89.9195 43.4002 89.4017 43.4626 88.9553C43.0306 88.7053 42.554 88.3661 42.1398 87.8884C41.7301 87.4197 41.4005 87.0759 41.013 86.8081C40.5454 86.4867 40.1935 86.1028 39.913 85.7234C39.1113 85.9644 38.1492 86.0715 37.1071 85.6742C36.8042 85.5582 36.5058 85.4377 36.2118 85.3216C35.762 85.143 35.3389 84.9734 34.9247 84.8261C34.4437 84.6564 34.0161 84.4645 33.6376 84.2904C33.2634 84.1208 32.9383 83.9735 32.6622 83.8931C31.1123 83.4601 30.2705 82.2593 29.7673 81.545C29.5446 81.4781 29.3308 81.4066 29.1303 81.3441C28.8275 81.2459 28.538 81.1522 28.2975 81.0897C28.204 81.1075 28.0837 81.1388 27.9902 81.1611C27.3578 81.3084 26.4937 81.5093 25.4783 81.3888C25.3669 81.3888 25.1041 81.429 24.9082 81.4602C24.3559 81.5406 23.6656 81.6432 22.8773 81.5852C21.8173 81.5093 20.9755 81.0808 20.3698 80.7281C19.7685 81.0495 18.9401 81.4379 17.9202 81.4959C16.9849 81.5495 16.1832 81.3486 15.5998 81.2013C15.5018 81.1745 15.3816 81.1477 15.2836 81.1254C15.1054 81.1834 14.8382 81.2861 14.6422 81.3665C14.2637 81.5138 13.8406 81.6834 13.364 81.8173C13.2838 81.8754 13.1681 81.9691 13.0745 82.0405C12.6425 82.3843 12.0501 82.853 11.2574 83.1833C10.4201 83.5271 9.63621 83.6074 9.06167 83.6654C8.9815 83.6744 8.87906 83.6833 8.79889 83.6922C8.45595 83.8931 8.11747 84.0449 7.81016 84.1788C7.82352 84.893 7.75225 85.7725 7.32469 86.6519C7.1599 86.9867 7.07083 87.3483 6.94167 87.9688C6.95503 88.0402 6.97284 88.125 6.9862 88.1964C7.07082 88.616 7.19108 89.1919 7.19108 89.8883C7.19108 90.7409 6.97285 91.4507 6.79915 91.9596C7.04856 92.3747 7.37814 92.9372 7.60528 93.6559C7.87251 94.4996 7.88142 95.254 7.88587 95.8031C7.88587 95.8076 7.88587 95.8165 7.88587 95.821C7.89478 95.8299 7.90368 95.8388 7.91259 95.8478C8.30452 96.2227 8.83897 96.7361 9.27544 97.4861C9.67628 98.178 9.82325 98.8788 9.85443 99.5127C10.5581 99.7091 11.3153 100.075 11.9477 100.789C12.5757 101.499 12.8563 102.285 12.9943 102.986C13.6401 103.088 14.3706 103.298 15.0743 103.78C16.2456 104.584 16.731 105.74 17.0428 106.561L17.0517 106.557Z" fill="#E1E1E1"/>
</g>
</svg>
