<svg width="156" height="154" viewBox="0 0 156 154" fill="none" xmlns="http://www.w3.org/2000/svg">
<g opacity="0.7">
<path d="M40.9918 79.1717C41.2917 79.8729 40.8087 80.8857 40.8827 81.6765C40.9528 82.4206 41.0307 83.1958 40.9216 83.9905C40.8204 84.7307 41.1398 85.6539 40.8944 86.4174C40.6646 87.1342 40.4892 87.9952 40.1425 88.7119C39.7958 89.4287 38.261 89.4209 37.8324 90.0871C37.4039 90.7532 37.5403 91.7349 37.0456 92.3465C36.5508 92.9581 35.8496 93.336 35.2965 93.8892C34.7433 94.4423 34.4511 95.2604 33.8473 95.7512C33.2435 96.2421 32.7682 96.9667 32.1138 97.3874C31.4593 97.8081 30.5945 97.9289 29.8972 98.2678C29.1999 98.6067 28.635 99.4326 27.8987 99.6819C27.1157 99.9429 26.1769 99.9585 25.3666 100.11C24.5563 100.262 23.6915 100.815 22.8657 100.854C22.0398 100.893 21.101 100.765 20.279 100.695C19.4571 100.625 18.5611 100.371 17.7508 100.196C16.9405 100.021 16.1614 99.491 15.3823 99.2144C14.6032 98.9378 13.7267 98.7353 12.9865 98.3613C12.2464 97.9873 12.2191 96.4486 11.5373 95.9772C10.8556 95.5058 9.53501 95.9032 8.91562 95.3461C8.37803 94.8592 8.76762 93.4606 8.26509 92.8958C7.76256 92.3309 6.14197 92.7205 5.70177 92.1167C5.26157 91.5129 5.95891 90.1845 5.58493 89.5417C5.21096 88.8989 4.4513 88.5016 4.14744 87.8277C3.84359 87.1537 4.08512 86.3084 3.86307 85.6072C3.64103 84.906 3.05279 84.3333 2.92813 83.6165C2.80347 82.8998 3.36832 82.1752 3.36443 81.4467C3.36053 80.7182 3.01772 80.056 3.16965 79.3431C3.32158 78.6302 3.45016 77.9952 3.78128 77.3291C4.13578 76.6045 3.58649 75.2138 4.1085 74.6372C4.6305 74.0607 5.69011 73.8698 6.36015 73.4296C7.03019 72.9894 7.98849 73.1998 8.73644 72.892C9.44154 72.5999 10.0064 71.8169 10.7894 71.6182C11.5724 71.4195 12.2931 70.9832 13.0878 70.8702C13.8825 70.7573 14.7161 71.2442 15.5108 71.2014C16.3055 71.1585 17.0846 70.3054 17.8793 70.3132C18.674 70.321 19.4337 71.2247 20.2206 71.2832C21.0075 71.3416 21.8372 71.0261 22.6125 71.1234C23.3877 71.2208 24.3071 70.7144 25.0706 70.8507C25.8341 70.9871 26.6405 71.3338 27.3884 71.5052C28.1831 71.6844 28.6194 73.1959 29.3479 73.4023C30.1465 73.6244 30.8009 74.0256 31.5021 74.2711C32.1839 74.5087 32.8267 74.7853 33.4928 75.0424C34.159 75.2995 35.4951 74.0646 36.1301 74.3684C36.7651 74.6723 36.9482 75.954 37.5247 76.3513C38.1013 76.7486 38.5843 77.2434 39.0518 77.781C39.5192 78.3186 40.6918 78.4861 40.9801 79.1717H40.9918Z" fill="white"/>
<path d="M22.546 103.784C21.8682 103.784 21.2099 103.718 20.6099 103.663C20.4152 103.644 20.2243 103.624 20.0412 103.609C19.2231 103.542 18.4401 103.355 17.7506 103.196C17.5441 103.145 17.3376 103.098 17.1429 103.055C16.3209 102.88 15.6236 102.541 15.0665 102.269C14.8133 102.144 14.5757 102.031 14.4121 101.972C14.1978 101.895 13.9719 101.828 13.7459 101.758C13.111 101.56 12.3903 101.337 11.6735 100.971C10.501 100.379 9.96724 99.3624 9.65559 98.5911C8.88816 98.521 7.85972 98.3262 6.96764 97.5237C6.21969 96.8498 5.91586 96.02 5.77952 95.3149C4.98092 95.1513 4.0265 94.7813 3.34088 93.8307C2.5345 92.7166 2.60072 91.4895 2.702 90.6909C2.32024 90.313 1.8294 89.7832 1.49049 89.0353C1.07366 88.1042 1.06198 87.2394 1.05808 86.6629C1.05808 86.5966 1.05808 86.5187 1.05808 86.4525C1.01913 86.3824 0.964552 86.2928 0.921701 86.2227C0.64122 85.7591 0.220513 85.054 0.0607947 84.1191C-0.137879 82.9543 0.197134 82.0077 0.395808 81.4428C0.407495 81.4077 0.419172 81.3727 0.434754 81.3376C0.423068 81.2753 0.407495 81.2013 0.395808 81.139C0.282837 80.5858 0.111458 79.7521 0.325715 78.7432C0.473746 78.0459 0.633453 77.2668 0.995742 76.4214C0.995742 76.3552 0.987939 76.2812 0.984043 76.2227C0.937297 75.4086 0.847698 73.8893 1.95794 72.6661C2.71368 71.8363 3.64085 71.4546 4.31868 71.1741C4.4706 71.1117 4.70431 71.0183 4.77833 70.9754C5.71716 70.356 6.70664 70.2586 7.36499 70.1924C7.4468 70.1846 7.54421 70.1729 7.62601 70.1651C7.68834 70.1184 7.75846 70.0599 7.82079 70.0132C8.30774 69.6275 9.04008 69.0471 10.0841 68.7822C10.2126 68.7471 10.4464 68.6575 10.6723 68.5679C11.2138 68.3537 11.8839 68.0888 12.6903 67.9758C13.6564 67.8395 14.4705 68.042 15.0665 68.1901C15.1094 68.2018 15.1561 68.2134 15.2029 68.2251C15.2185 68.2173 15.2301 68.2096 15.2457 68.2018C15.834 67.8784 16.7183 67.3915 17.8752 67.3915C17.8947 67.3915 17.9103 67.3915 17.9298 67.3915C19.1218 67.4071 20.01 67.9408 20.5943 68.2952C20.6216 68.3108 20.6489 68.3264 20.6762 68.3459C20.7658 68.3342 20.8592 68.3186 20.945 68.3069C21.4358 68.2329 22.098 68.1355 22.8382 68.2057C22.9239 68.1901 23.0642 68.1589 23.1733 68.1316C23.7459 67.9992 24.6107 67.7966 25.5885 67.968C26.2313 68.081 26.7961 68.2641 27.2948 68.4238C27.5791 68.5173 27.844 68.603 28.0427 68.6459C29.5542 68.9848 30.3489 70.1184 30.828 70.7962C30.828 70.7962 30.828 70.7962 30.828 70.8001C31.2176 70.9442 31.5565 71.1001 31.8526 71.2325C32.0902 71.3416 32.3122 71.4429 32.4797 71.5013C32.9199 71.6532 33.329 71.8168 33.7224 71.9727C34.5405 71.5831 35.9195 71.0105 37.4037 71.7234C38.6932 72.3427 39.2308 73.4764 39.5502 74.1542C39.5619 74.1776 39.5697 74.197 39.5814 74.2204C40.1813 74.6801 40.6566 75.167 41.0773 75.6384C41.124 75.6618 41.1708 75.6851 41.2175 75.7085C41.872 76.0319 43.0913 76.6318 43.6834 78.0225C44.1976 79.2301 43.9951 80.3637 43.8626 81.1156C43.8432 81.2363 43.812 81.3922 43.8042 81.4779C43.8821 82.2726 43.9717 83.2543 43.8314 84.3333C43.8314 84.4151 43.8509 84.5943 43.8626 84.7229C43.9211 85.3501 44.0106 86.2928 43.6873 87.3056C43.625 87.4926 43.5705 87.6952 43.512 87.8978C43.3445 88.5016 43.1341 89.2495 42.7797 89.978C42.1797 91.2207 41.0539 91.7544 40.2904 92.0466C40.1579 92.6504 39.9242 93.4373 39.3282 94.1735C38.8412 94.7773 38.3036 95.1942 37.8712 95.5331C37.6726 95.6889 37.4856 95.833 37.3765 95.9421C37.3375 95.9889 37.2129 96.1759 37.1233 96.3161C36.8155 96.7953 36.3909 97.4497 35.6975 98.0107C35.6001 98.0886 35.4248 98.2756 35.2729 98.4431C34.8794 98.8677 34.3886 99.3936 33.7029 99.8338C33.0056 100.282 32.3122 100.504 31.7552 100.683C31.5682 100.741 31.3617 100.808 31.2371 100.862C31.1669 100.917 31.0384 101.03 30.941 101.115C30.458 101.54 29.7996 102.121 28.8374 102.444C28.0505 102.709 27.2675 102.798 26.6364 102.876C26.3637 102.907 26.1066 102.939 25.9079 102.978C25.8144 102.997 25.5379 103.106 25.3587 103.176C24.7665 103.406 23.9601 103.722 23.0174 103.768C22.8616 103.776 22.7058 103.78 22.5538 103.78L22.546 103.784ZM14.9146 95.9928C15.0938 96.0512 15.2847 96.1135 15.4834 96.1759C15.7833 96.2694 16.0755 96.3629 16.3599 96.4602C16.8351 96.6278 17.2558 96.8342 17.6259 97.0134C17.8674 97.1303 18.2336 97.3095 18.37 97.3406C18.6037 97.3913 18.8452 97.4458 19.0907 97.5043C19.6088 97.625 20.1386 97.7497 20.5242 97.7808C20.7385 97.7964 20.9566 97.8198 21.1787 97.8432C21.7163 97.8938 22.2656 97.9483 22.6746 97.9367C22.7954 97.9055 23.0563 97.8042 23.2316 97.7341C23.668 97.5627 24.2172 97.3523 24.8366 97.2355C25.2262 97.1653 25.608 97.1186 25.943 97.0796C26.2507 97.0446 26.5935 97.0017 26.8273 96.9511C26.9013 96.8887 26.9987 96.803 27.0766 96.7368C27.4467 96.4135 27.9531 95.9655 28.6232 95.6422C29.1062 95.4084 29.5814 95.2565 29.9593 95.1319C30.158 95.0695 30.458 94.9721 30.5514 94.9215C30.6138 94.8747 30.8319 94.6371 30.976 94.4813C31.2371 94.1969 31.5604 93.8502 31.9577 93.523C32.0162 93.449 32.1253 93.2776 32.211 93.149C32.4603 92.7633 32.768 92.2881 33.2316 91.8245C33.5939 91.4583 33.9679 91.17 34.2678 90.9363C34.373 90.8545 34.5016 90.7532 34.6028 90.6675C34.6106 90.6325 34.6184 90.5974 34.6223 90.5662C34.7275 90.0481 34.8833 89.269 35.3703 88.5094C36.0364 87.4732 37.0454 87.0252 37.7505 86.7603C37.7933 86.62 37.8323 86.472 37.8751 86.3279C37.9375 86.1019 37.9998 85.8838 38.066 85.6695C38.0621 85.5682 38.0465 85.4046 38.0348 85.2799C37.992 84.8203 37.9374 84.2437 38.027 83.5971C38.0894 83.1491 38.0388 82.6154 37.9764 81.996V81.957C37.9258 81.474 37.9608 81.0221 38.0154 80.6325C37.6375 80.4144 37.2206 80.1183 36.8584 79.7015C36.5 79.2924 36.2117 78.9925 35.8728 78.7588C35.4638 78.4783 35.156 78.1433 34.9106 77.8121C34.2094 78.0225 33.368 78.116 32.4564 77.7693C32.1915 77.668 31.9305 77.5628 31.6734 77.4615C31.2799 77.3057 30.9098 77.1577 30.5475 77.0291C30.1268 76.8811 29.7528 76.7136 29.4217 76.5617C29.0945 76.4136 28.8101 76.2851 28.5686 76.2149C27.213 75.8371 26.4767 74.7892 26.0365 74.1659C25.8417 74.1074 25.6547 74.0451 25.4794 73.9906C25.2145 73.9049 24.9613 73.8231 24.7509 73.7685C24.6691 73.7841 24.564 73.8114 24.4822 73.8309C23.929 73.9594 23.1732 74.1347 22.2851 74.0295C22.1877 74.0295 21.9578 74.0646 21.7864 74.0919C21.3034 74.162 20.7034 74.2516 20.01 74.2009C19.0829 74.1347 18.3466 73.7607 17.8168 73.453C17.2909 73.7335 16.5664 74.0724 15.6743 74.123C14.8562 74.1698 14.155 73.9945 13.6447 73.8659C13.5589 73.8425 13.4538 73.8192 13.3681 73.7997C13.2123 73.8503 12.9785 73.9399 12.8071 74.0101C12.476 74.1386 12.1059 74.2866 11.6891 74.4035C11.6189 74.4542 11.5177 74.536 11.4359 74.5983C11.058 74.8982 10.5399 75.3073 9.84647 75.5956C9.1141 75.8955 8.42851 75.9656 7.92598 76.0163C7.85586 76.0241 7.76623 76.0319 7.69611 76.0396C7.39615 76.2149 7.1001 76.3474 6.8313 76.4643C6.84299 77.0876 6.78067 77.855 6.4067 78.6224C6.26256 78.9146 6.18466 79.2301 6.07168 79.7716C6.08337 79.8339 6.09894 79.908 6.11063 79.9703C6.18465 80.3365 6.28981 80.839 6.28981 81.4467C6.28981 82.1908 6.09893 82.8101 5.947 83.2542C6.16515 83.6165 6.45345 84.1074 6.65212 84.7346C6.88585 85.4708 6.89365 86.1292 6.89754 86.6083C6.89754 86.6122 6.89754 86.62 6.89754 86.6239C6.90533 86.6317 6.9131 86.6395 6.92089 86.6473C7.2637 86.9745 7.73119 87.4225 8.11296 88.077C8.46356 88.6808 8.59209 89.2924 8.61936 89.8456C9.23486 90.017 9.89713 90.3364 10.4503 90.9597C10.9996 91.5791 11.245 92.2647 11.3658 92.8763C11.9306 92.9659 12.5695 93.149 13.185 93.5697C14.2095 94.2709 14.6341 95.2799 14.9068 95.9967L14.9146 95.9928Z" fill="#E1E1E1"/>
</g>
<g opacity="0.7">
<path d="M113.897 81.0844C113.668 81.809 113.933 82.6855 113.933 83.4802C113.933 84.2281 114.439 84.8943 114.626 85.6734C114.797 86.4019 113.909 87.5394 114.229 88.2756C114.525 88.9691 115.312 89.5183 115.725 90.2001C116.137 90.8818 116.827 91.3259 117.314 91.9453C117.801 92.5647 118.631 92.8023 119.18 93.3633C119.729 93.9242 119.34 95.5097 119.94 96.0084C120.539 96.507 121.642 96.4135 122.292 96.8459C122.943 97.2783 123.344 98.2288 124.038 98.5833C124.731 98.9378 125.736 98.7314 126.465 99.0041C127.193 99.2767 127.957 99.5338 128.712 99.7091C129.515 99.8961 130.337 100.36 131.159 100.434C131.981 100.508 132.888 100.628 133.714 100.59C134.54 100.551 135.475 100.597 136.289 100.453C137.103 100.309 137.668 99.0196 138.459 98.7703C139.25 98.521 140.002 98.2834 140.754 97.9367C141.505 97.59 142.444 97.5977 143.145 97.1537C143.847 96.7096 143.917 95.4708 144.552 94.941C145.187 94.4112 146.932 95.0345 147.493 94.4229C147.984 93.8892 147.267 92.3153 147.711 91.7037C148.155 91.0921 149.881 91.3415 150.259 90.6948C150.637 90.0481 149.924 88.8093 150.232 88.1354C150.539 87.4615 150.13 86.5616 150.368 85.8604C150.605 85.1592 151.291 84.6528 151.443 83.936C151.595 83.2192 151.47 82.5063 151.525 81.7778C151.579 81.0494 151.735 80.3793 151.669 79.6547C151.603 78.9302 152.764 77.8784 152.545 77.181C152.327 76.4837 150.773 76.3201 150.383 75.6852C149.963 74.9995 150.457 73.5192 149.881 72.9972C149.304 72.4752 148.221 72.4168 147.516 72.0428C146.811 71.6688 145.962 71.7195 145.187 71.4857C144.454 71.2637 143.613 71.6727 142.814 71.5481C142.016 71.4234 141.42 69.7093 140.617 69.6743C139.815 69.6392 139.016 70.5897 138.218 70.6209C137.419 70.6521 136.718 71.2793 135.927 71.365C135.136 71.4507 134.392 71.5013 133.613 71.6299C132.834 71.7584 131.918 71.1507 131.155 71.3182C130.391 71.4857 129.519 71.3844 128.771 71.587C128.023 71.7896 127.528 72.9972 126.8 73.2348C126.028 73.4881 125.335 73.827 124.63 74.0997C123.858 74.3957 122.873 74.0646 122.199 74.3723C121.545 74.6723 120.952 75.1203 120.317 75.4358C119.682 75.7514 118.86 75.8254 118.257 76.1877C117.653 76.55 117.629 77.7654 117.092 78.2173C116.554 78.6692 115.584 78.677 115.167 79.2574C114.751 79.8378 114.123 80.3754 113.897 81.0883V81.0844Z" fill="white"/>
<path d="M133.383 103.519C132.686 103.519 132.012 103.453 131.404 103.39C131.233 103.375 131.065 103.355 130.898 103.344C130.021 103.266 129.281 102.993 128.689 102.771C128.447 102.681 128.198 102.588 128.046 102.553C127.298 102.378 126.496 102.132 125.53 101.774C125.44 101.762 125.28 101.754 125.159 101.747C124.544 101.708 123.617 101.653 122.697 101.182C121.77 100.703 121.186 99.974 120.8 99.4871C120.765 99.4443 120.73 99.3975 120.691 99.3508C120.644 99.3391 120.594 99.3274 120.547 99.3196C119.904 99.1833 118.934 98.9729 118.073 98.26C116.928 97.3134 116.718 95.9694 116.636 95.1319C116.157 94.8319 115.541 94.4268 115.011 93.7528C114.93 93.6476 114.75 93.4762 114.579 93.3087C114.162 92.9114 113.648 92.4127 113.223 91.7154C113.181 91.6531 113.001 91.4583 112.884 91.3337C112.472 90.8896 111.907 90.278 111.541 89.4326C110.937 88.0263 111.373 86.7018 111.626 85.9617C111.618 85.9461 111.614 85.9344 111.607 85.9188C111.369 85.3618 111.007 84.5242 111.007 83.4763C111.007 83.3633 110.983 83.1569 110.96 82.9543C110.878 82.2414 110.769 81.2675 111.108 80.2001C111.439 79.1483 112.059 78.4237 112.507 77.8939C112.616 77.7654 112.729 77.6329 112.787 77.555C113.449 76.6318 114.345 76.2227 114.953 75.9929C115.21 75.319 115.674 74.3295 116.741 73.6867C117.403 73.2894 118.066 73.0985 118.549 72.9622C118.712 72.9154 118.938 72.8492 119.016 72.818C119.195 72.7284 119.417 72.5921 119.655 72.4479C120.037 72.2142 120.465 71.9532 120.972 71.7195C121.914 71.2871 122.83 71.3026 123.43 71.3104C123.523 71.3104 123.64 71.3143 123.722 71.3104C123.905 71.2364 124.088 71.1585 124.275 71.0806C124.63 70.9287 125.023 70.765 125.448 70.6092C125.471 70.582 125.494 70.5547 125.514 70.5313C125.966 70.0015 126.725 69.1133 127.988 68.7705C128.693 68.5757 129.343 68.5446 129.869 68.5173C130.115 68.5056 130.387 68.49 130.512 68.4628C131.61 68.2173 132.549 68.4745 133.173 68.6459C133.239 68.6653 133.317 68.6848 133.383 68.7004C133.936 68.6186 134.454 68.5679 134.957 68.5173C135.136 68.5017 135.319 68.4822 135.498 68.4628C135.576 68.4316 135.709 68.3732 135.806 68.3264C136.258 68.12 136.908 67.8239 137.715 67.7226C137.777 67.6875 137.843 67.6486 137.902 67.6135C138.49 67.2668 139.476 66.6903 140.738 66.7448C142.28 66.8149 143.254 67.8239 143.839 68.5407C144.419 68.4667 145.183 68.4199 146.024 68.677C146.137 68.7121 146.375 68.7471 146.585 68.7822C147.189 68.8757 148.015 69.0042 148.848 69.4406C148.934 69.4756 149.152 69.5379 149.296 69.5769C150.009 69.7795 150.983 70.0561 151.832 70.8274C152.884 71.7857 153.063 73.0284 153.091 73.9088C153.878 74.2944 154.902 74.9645 155.319 76.3045C155.818 77.9056 155.042 79.2262 154.629 79.9352C154.618 79.9547 154.606 79.9781 154.59 79.9976C154.59 80.539 154.532 81.0182 154.485 81.4233C154.462 81.6064 154.439 81.7934 154.423 81.9882C154.411 82.1245 154.419 82.3271 154.423 82.5375C154.435 83.0517 154.454 83.7529 154.283 84.5398C154.072 85.5254 153.57 86.2149 153.239 86.6746C153.231 86.6824 153.227 86.6901 153.219 86.7018C153.262 87.1849 153.32 87.9211 153.098 88.7314C153.106 88.7626 153.11 88.7938 153.114 88.8249C153.262 89.5962 153.511 90.8857 152.763 92.1634C152.199 93.1256 151.342 93.5892 150.574 93.8346C150.562 94.6293 150.375 95.5759 149.628 96.3901C148.622 97.4848 147.278 97.6289 146.351 97.6328C146.051 98.2639 145.572 99.0547 144.684 99.6157C143.87 100.13 143.048 100.321 142.444 100.457C142.269 100.496 142.031 100.551 141.949 100.582C141.17 100.944 140.414 101.197 139.686 101.431C139.643 101.478 139.596 101.528 139.557 101.567C139.039 102.128 138.175 103.071 136.784 103.32C135.985 103.464 135.21 103.476 134.524 103.484C134.287 103.484 134.053 103.492 133.831 103.5C133.675 103.507 133.519 103.511 133.367 103.511L133.383 103.519ZM125.42 95.911C125.452 95.911 125.483 95.9149 125.514 95.9149C126.032 95.946 126.737 95.9889 127.481 96.2655C128.249 96.5498 128.849 96.7407 129.371 96.8615C129.877 96.9784 130.325 97.1459 130.715 97.29C130.944 97.3757 131.295 97.5043 131.42 97.5237C131.599 97.5393 131.786 97.5588 131.981 97.5783C132.549 97.6328 133.138 97.6912 133.574 97.6718C133.858 97.6601 134.154 97.6523 134.458 97.6484C134.735 97.6445 135.015 97.6406 135.268 97.625C135.268 97.625 135.272 97.6172 135.276 97.6172C135.748 97.1069 136.457 96.3356 137.571 95.9811L137.625 95.9655C138.338 95.7396 138.954 95.5448 139.518 95.2838C140.126 94.9994 140.703 94.8709 141.162 94.7657C141.194 94.7579 141.225 94.7501 141.26 94.7423C141.509 94.1619 141.891 93.3516 142.674 92.6971C143.313 92.1634 144.01 91.9375 144.657 91.844C144.715 91.2441 144.898 90.5896 145.346 89.978C145.88 89.2495 146.577 88.8639 147.228 88.6418C147.22 88.2289 147.267 87.7731 147.419 87.3095C147.419 87.2745 147.411 87.2355 147.407 87.2005C147.36 86.6551 147.286 85.8331 147.598 84.9177C147.851 84.1697 148.256 83.6126 148.521 83.2465C148.545 83.2153 148.572 83.1763 148.595 83.1413C148.595 83.0127 148.595 82.8452 148.591 82.6894C148.583 82.3739 148.576 81.9843 148.607 81.5519C148.63 81.2636 148.661 80.9909 148.693 80.7182C148.732 80.3832 148.771 80.0988 148.751 79.9196C148.696 79.3236 148.79 78.7938 148.942 78.3303C148.56 78.0576 148.186 77.6992 147.886 77.2122C147.434 76.4799 147.306 75.7124 147.271 75.0736C146.936 74.9723 146.569 74.8398 146.199 74.6489C146.094 74.6217 145.868 74.5866 145.697 74.5593C145.377 74.5087 144.992 74.4503 144.579 74.3412C144.509 74.349 144.427 74.3646 144.357 74.3723C143.854 74.4464 143.169 74.5515 142.362 74.4269C141.307 74.2633 140.563 73.6711 140.033 73.1024C139.604 73.2972 139.098 73.4725 138.513 73.5192C138.436 73.5504 138.323 73.601 138.233 73.6439C137.746 73.8659 137.08 74.1698 136.235 74.2594C135.993 74.2866 135.755 74.31 135.518 74.3334C135.015 74.3801 134.54 74.4269 134.092 74.5048C133.079 74.6762 132.207 74.4386 131.634 74.2789C131.575 74.2633 131.509 74.2438 131.447 74.2282C130.968 74.31 130.527 74.3295 130.157 74.349C130.083 74.349 130.005 74.3568 129.924 74.3607C129.476 74.8827 128.81 75.6423 127.699 76.0046C127.333 76.1254 126.955 76.2851 126.554 76.4565C126.258 76.5811 125.966 76.7058 125.674 76.8188C124.758 77.1733 123.897 77.1577 123.329 77.146C123.282 77.146 123.223 77.146 123.173 77.146C123.025 77.2278 122.865 77.3252 122.697 77.4304C122.378 77.6251 122.016 77.8472 121.607 78.0498C121.108 78.2991 120.633 78.4393 120.239 78.5523C120.025 79.1094 119.674 79.8534 118.965 80.4533C118.327 80.987 117.657 81.2325 117.201 81.3961C117.119 81.4973 117.037 81.5908 116.963 81.6804C116.893 81.7623 116.803 81.8674 116.733 81.957C116.741 82.0661 116.757 82.1947 116.768 82.2998C116.8 82.5842 116.838 82.9348 116.85 83.3088C116.881 83.3906 116.936 83.5114 116.975 83.6087C117.127 83.9593 117.333 84.4385 117.466 85.0073C117.695 85.985 117.489 86.846 117.279 87.4848C117.571 87.8043 117.914 88.1938 118.214 88.6808C118.26 88.747 118.471 88.9457 118.623 89.0937C118.888 89.3508 119.215 89.6625 119.526 90.0442C119.6 90.0949 119.729 90.1728 119.826 90.2351C120.22 90.4766 120.757 90.8078 121.26 91.322C122.008 92.0855 122.257 93.0088 122.362 93.745C122.834 93.8697 123.371 94.0567 123.901 94.4073C124.583 94.8592 125.039 95.4279 125.366 95.8447C125.381 95.8642 125.397 95.8837 125.417 95.9071L125.42 95.911Z" fill="#E1E1E1"/>
</g>
<path d="M69.8531 140.913C70.5504 140.979 71.349 140.831 72.2177 140.893C72.9461 140.944 73.6863 142.112 74.5239 142.14C75.2718 142.163 76.0977 142.253 76.9197 142.241C77.6754 142.229 78.4701 141.61 79.2842 141.559C80.0439 141.512 80.7023 140.192 81.5047 140.098C82.2683 140.013 83.0629 140.309 83.8576 140.172C84.6523 140.036 85.6886 141.349 86.4755 141.17C87.2624 140.99 87.9402 140.441 88.7116 140.219C89.4829 139.997 89.7322 138.338 90.4879 138.069C91.2437 137.8 92.0228 137.839 92.7629 137.527C93.5031 137.216 94.4302 137.465 95.1509 137.11C95.8794 136.752 96.8455 136.842 97.5233 136.456C98.2012 136.07 98.9997 135.72 99.6503 135.295C100.301 134.87 100.453 133.616 101.08 133.153C101.707 132.689 102.591 132.486 103.191 131.984C103.791 131.481 104.679 131.216 105.248 130.683C105.817 130.149 105.521 128.684 106.059 128.123C106.596 127.562 107.142 126.982 107.648 126.394C108.182 125.774 108.945 125.404 109.42 124.797C109.927 124.15 111.021 123.978 111.469 123.355C111.953 122.685 111.606 121.474 112.034 120.843C112.506 120.149 113.674 119.978 114.091 119.354C114.543 118.673 114.43 117.656 114.835 116.982C115.24 116.308 116.717 116.183 117.095 115.49C117.473 114.797 117.839 114.014 118.185 113.305C118.544 112.572 117.547 111.224 117.862 110.504C118.178 109.783 119.51 109.436 119.794 108.704C120.079 107.972 120.16 107.103 120.418 106.355C120.675 105.607 120.531 104.695 120.76 103.94C120.99 103.184 121.501 102.471 121.703 101.707C121.906 100.944 122.529 100.239 122.712 99.4753C122.895 98.7118 122.626 97.7924 122.794 97.025C122.961 96.2576 123.822 95.5953 123.99 94.824C124.157 94.0527 123.335 93.0632 123.499 92.2724C123.663 91.4816 124.079 90.7726 124.235 89.9818C124.391 89.191 124.352 88.3924 124.492 87.5977C124.633 86.803 124.539 86.0044 124.656 85.2058C124.773 84.4072 124.364 83.5892 124.453 82.7867C124.543 81.9842 124.582 81.2401 124.644 80.4338C124.707 79.6274 126.577 78.9456 126.6 78.1393C126.623 77.3329 125.684 76.5226 125.673 75.7162C125.661 74.9098 125.521 74.1385 125.47 73.3321C125.42 72.5257 124.656 71.8362 124.566 71.0298C124.477 70.2235 125.755 69.2768 125.63 68.4782C125.505 67.6797 125.462 66.8694 125.295 66.0747C125.127 65.28 124.368 64.6489 124.165 63.862C123.998 63.2153 123.386 62.5998 123.156 61.8051C122.965 61.1312 123.09 60.3131 122.841 59.5535C122.619 58.8757 122.237 58.2134 121.96 57.4772C121.703 56.7993 121.629 56.0202 121.317 55.3073C121.029 54.6412 120.234 54.1893 119.888 53.4959C119.561 52.8414 119.144 52.2415 118.766 51.5715C118.388 50.9014 117.714 50.5197 117.297 49.873C116.88 49.2263 117.749 47.7733 117.297 47.1539C116.845 46.5345 116.639 45.7281 116.152 45.1321C115.665 44.5361 114.711 44.3608 114.192 43.7959C113.659 43.2116 112.771 42.9817 112.221 42.448C111.672 41.9143 110.932 41.5598 110.351 41.0573C109.771 40.5548 109.51 39.6198 108.902 39.1524C108.295 38.6849 108.073 37.5708 107.438 37.1384C106.803 36.706 105.435 37.3254 104.777 36.9319C104.119 36.5385 103.834 35.4048 103.156 35.0465C102.478 34.6881 101.785 34.205 101.092 33.8856C100.398 33.5661 99.5256 33.4765 98.8166 33.1922C98.1077 32.9078 97.0247 33.5116 96.304 33.2662C95.5833 33.0208 94.9172 32.491 94.1887 32.2806C93.4213 32.0585 92.798 31.3612 92.0656 31.1859C91.2826 30.9989 90.5892 30.4107 89.8529 30.2666C89.0504 30.1108 88.1311 30.7964 87.4026 30.6873C86.5767 30.5665 85.7275 31.2561 85.0108 31.182C84.142 31.0924 83.4915 29.5108 82.8137 29.4719C81.7696 29.4135 80.9438 29.6861 80.4568 29.6783C79.8608 29.6706 79.0622 29.0667 78.1312 29.0823C77.4455 29.0979 76.7521 30.9678 75.9146 31.0262C75.2017 31.073 74.4771 31.1431 73.6669 31.2366C72.9423 31.3184 71.9878 29.9316 71.197 30.0562C70.4686 30.1731 69.8998 31.3418 69.1246 31.5054C68.3961 31.6573 67.5858 31.4937 66.8223 31.6924C66.0977 31.8794 65.5757 32.752 64.8278 32.9896C64.0798 33.2272 63.0709 32.4948 62.3385 32.7714C61.6061 33.048 61.3062 34.2284 60.5894 34.54C59.8726 34.8517 58.813 34.2907 58.1157 34.6374C57.4184 34.9841 56.725 35.288 56.0471 35.6736C55.3693 36.0593 54.9097 36.7332 54.2552 37.1578C53.6007 37.5825 52.9229 37.898 52.2919 38.3577C51.6608 38.8174 51.1894 39.4134 50.5817 39.9042C49.9974 40.3756 49.4325 40.8353 48.8949 41.3183C48.3573 41.8014 47.808 42.3195 47.2977 42.8298C46.7874 43.3401 46.3628 43.9829 45.8836 44.5166C45.3772 45.0775 44.3683 45.1866 43.9164 45.7437C43.4372 46.3319 43.8073 47.5395 43.3826 48.1161C42.9308 48.7316 41.9335 48.9186 41.54 49.5107C41.1154 50.1535 40.8116 50.8352 40.4571 51.439C40.0598 52.113 40.1649 53.0011 39.8455 53.6127C39.4715 54.3256 39.0936 55.2917 38.817 55.8917C38.0769 56.0825 36.5693 55.1866 35.6733 55.5333C34.9137 55.8293 34.3722 56.8266 33.5658 57.2707C32.8373 57.6719 31.9453 57.9251 31.2246 58.4783C30.5623 58.9886 30.1845 59.8729 29.5612 60.5274C29.0197 61.1 28.8054 61.8558 28.3613 62.4946C27.9172 63.1335 27.2784 63.5932 26.9316 64.3022C26.5849 65.0112 26.8343 65.8565 26.5811 66.6162C26.3396 67.3329 25.9422 67.9562 25.7747 68.7431C25.615 69.4794 25.9422 70.2585 25.8409 71.0571C25.7474 71.8012 25.5682 72.5063 25.5215 73.3127C25.4786 74.0645 25.3306 74.7969 25.3267 75.6032C25.3228 76.359 25.0345 77.1147 25.0618 77.9211C25.0891 78.6769 25.2838 79.4326 25.3345 80.2312C25.3851 80.9869 24.123 81.8556 24.1775 82.662C24.2281 83.4217 25.4124 84.1229 25.4747 84.9214C25.537 85.72 24.3372 86.5732 24.4073 87.3679C24.4774 88.1626 26.0552 88.7703 26.137 89.5611C26.2188 90.3519 25.0073 91.2518 25.1007 92.0387C25.1942 92.8256 25.7864 93.5268 25.8955 94.3098C26.0045 95.0928 25.5955 95.9381 25.724 96.7211C25.8526 97.5042 26.4136 98.1937 26.5577 98.9689C26.7018 99.7324 26.2382 100.64 26.4019 101.411C26.5655 102.183 27.1381 102.864 27.3251 103.628C27.5121 104.392 27.7848 105.136 27.9951 105.895C28.2055 106.655 29.6313 107.033 29.8689 107.781C30.1066 108.529 29.8338 109.421 30.0949 110.161C30.3559 110.901 30.0442 111.852 30.3364 112.58C30.6285 113.308 31.4622 113.803 31.7817 114.52C32.1011 115.237 32.6971 115.798 33.0516 116.499C33.4061 117.2 33.2697 118.143 33.6554 118.825C34.0411 119.506 35.1513 119.728 35.5681 120.395C35.985 121.061 35.6889 122.171 36.1408 122.814C36.5927 123.456 37.3718 123.834 37.8587 124.454C38.3457 125.073 39.3079 125.229 39.8299 125.821C40.3519 126.413 40.7103 127.068 41.2635 127.625C41.8166 128.182 41.4349 129.697 42.0231 130.223C42.6113 130.749 43.1061 131.415 43.7216 131.91C44.3371 132.405 44.9604 132.93 45.6031 133.39C46.2459 133.85 47.8002 132.903 48.4703 133.324C49.1325 133.741 49.2572 135.015 49.9194 135.385C50.5817 135.755 51.2712 136.187 51.9529 136.518C52.6346 136.849 53.4917 136.912 54.1851 137.208C54.8785 137.504 55.8485 137.2 56.5536 137.461C57.2976 137.734 57.6989 138.926 58.4118 139.152C59.1714 139.389 60.0401 139.183 60.7608 139.374C61.5399 139.58 62.3969 139.237 63.1176 139.393C63.9162 139.565 64.6447 139.732 65.3576 139.853C66.1912 139.993 66.8652 140.62 67.5508 140.71C68.4662 140.827 69.2415 140.889 69.8453 140.948L69.8531 140.913Z" fill="#FFEBC1"/>
<path d="M76.7875 145.163C76.2266 145.163 75.6929 145.131 75.2176 145.1C74.9488 145.085 74.6878 145.069 74.4346 145.057C73.0634 145.015 72.0973 144.271 71.5051 143.803C71.3805 143.807 71.248 143.815 71.1117 143.823C70.6559 143.846 70.1339 143.873 69.5769 143.823L69.2067 143.788C68.6575 143.737 67.9719 143.675 67.185 143.573C66.3357 143.464 65.6735 143.125 65.1943 142.876C65.0697 142.81 64.9021 142.724 64.8203 142.693C64.1931 142.584 63.5855 142.451 62.9466 142.311L62.6271 142.241C62.5492 142.245 62.4245 142.257 62.3272 142.268C61.7857 142.323 60.9754 142.405 60.0717 142.179C59.986 142.171 59.8028 142.171 59.6665 142.171C59.1172 142.171 58.3654 142.167 57.5434 141.906C56.4293 141.555 55.7475 140.784 55.319 140.243C54.7347 140.25 53.9127 140.231 53.0479 139.865C52.9505 139.822 52.6934 139.759 52.4831 139.713C51.9767 139.592 51.3456 139.44 50.6794 139.113C50.138 138.848 49.6432 138.564 49.168 138.283C48.9498 138.158 48.7316 138.03 48.5096 137.905C47.7421 137.481 47.2669 136.873 46.9435 136.327C46.0904 136.46 44.9568 136.476 43.9167 135.739C43.3636 135.346 42.8532 134.933 42.3624 134.532C42.2065 134.403 42.0507 134.278 41.8988 134.158C41.3846 133.745 40.9755 133.308 40.6132 132.919C40.4146 132.705 40.2237 132.502 40.0679 132.362C38.9187 131.329 38.7901 129.954 38.7122 129.136C38.7122 129.132 38.7122 129.128 38.7122 129.121C38.4668 128.829 38.2642 128.544 38.085 128.299C37.9565 128.123 37.8435 127.968 37.7383 127.835C37.6721 127.8 37.5825 127.753 37.5124 127.714C36.9904 127.442 36.2035 127.033 35.5685 126.226C35.5218 126.176 35.3348 126.024 35.1984 125.911C34.7894 125.58 34.2284 125.124 33.7571 124.462C33.1377 123.585 33.0013 122.642 32.9468 121.992C32.4014 121.661 31.6301 121.139 31.1119 120.223C30.6406 119.39 30.5237 118.552 30.4419 117.999C30.4263 117.901 30.4108 117.773 30.3952 117.691C30.3212 117.57 30.2004 117.407 30.0913 117.255C29.8069 116.869 29.4602 116.394 29.172 115.786C29.1174 115.72 29.0161 115.615 28.9421 115.533C28.5604 115.124 27.9799 114.508 27.6293 113.624C27.2592 112.697 27.2748 111.82 27.2865 111.236C27.2865 111.139 27.2904 111.014 27.2865 110.932C27.0606 110.215 27.045 109.545 27.045 109.051C26.4061 108.599 25.5257 107.882 25.179 106.639C25.0972 106.351 25.0076 106.067 24.918 105.778C24.77 105.303 24.6142 104.812 24.4856 104.283C24.4661 104.22 24.3493 104.002 24.2674 103.838C24.0298 103.379 23.7065 102.752 23.5429 101.98C23.3364 101.018 23.4961 100.157 23.5974 99.5845C23.6091 99.5182 23.6247 99.4403 23.6364 99.3702C23.5935 99.2767 23.539 99.1598 23.4961 99.0625C23.2702 98.5872 22.9624 97.9405 22.8339 97.1419C22.6897 96.2538 22.8261 95.4863 22.9235 94.9254C22.9391 94.8397 22.9585 94.7345 22.9702 94.6488C22.9313 94.5631 22.8806 94.4501 22.8378 94.3605C22.6079 93.8658 22.2924 93.1879 22.1911 92.3387C22.0781 91.396 22.3391 90.6013 22.6547 89.9819C22.1171 89.4248 21.5795 88.6535 21.486 87.5783C21.3925 86.5304 21.7548 85.6773 22.1249 85.0423C21.7314 84.5008 21.3185 83.7645 21.2523 82.814C21.1549 81.4116 21.86 80.3754 22.3314 79.7287C22.3197 79.6625 22.3118 79.5924 22.3002 79.5262C22.23 79.0665 22.1483 78.5484 22.1288 77.9718C22.1054 77.2278 22.2184 76.6006 22.308 76.0942C22.343 75.8994 22.3898 75.6345 22.3937 75.5371C22.3937 74.906 22.4599 74.3489 22.5183 73.8542C22.5495 73.5815 22.5806 73.3205 22.5923 73.0946C22.6313 72.4284 22.7287 71.8558 22.8183 71.3533C22.8573 71.1195 22.9001 70.8858 22.9312 70.6443C22.9312 70.6092 22.904 70.4105 22.8845 70.2625C22.8144 69.7132 22.717 68.9575 22.9079 68.081C23.0754 67.3135 23.3481 66.7019 23.5662 66.2111C23.6519 66.0202 23.726 65.8527 23.7805 65.7086C23.7883 65.6307 23.7922 65.4904 23.7961 65.3852C23.8156 64.7931 23.8467 63.901 24.3064 62.97C24.6998 62.1714 25.2219 61.6065 25.6036 61.1936C25.7439 61.0417 25.8919 60.882 25.9581 60.7885C26.0243 60.6911 26.1256 60.4963 26.2191 60.3093C26.4723 59.8107 26.8229 59.1251 27.4306 58.4823C27.5358 58.3693 27.6917 58.1434 27.8436 57.9213C28.2215 57.3759 28.6889 56.6942 29.4369 56.1177C30.1692 55.5567 30.9172 55.2295 31.5171 54.9646C31.7391 54.8672 31.9495 54.7737 32.1014 54.6958C32.1832 54.6296 32.3508 54.4543 32.4637 54.3374C32.9429 53.8388 33.6012 53.157 34.6024 52.7714C35.475 52.4325 36.332 52.4519 37.0683 52.5727C37.1033 52.4987 37.1384 52.4286 37.1774 52.3584C37.1891 52.2883 37.2046 52.1948 37.2202 52.1169C37.3098 51.5715 37.4461 50.7496 37.9331 49.9198C38.0539 49.7172 38.1668 49.503 38.2798 49.2848C38.5057 48.8563 38.7629 48.3733 39.094 47.8668C39.581 47.1267 40.2159 46.6904 40.7223 46.3943C40.773 45.6892 40.9366 44.7309 41.6417 43.8622C42.3078 43.0441 43.1415 42.6702 43.6908 42.4208C43.7414 42.3975 43.8037 42.3702 43.8544 42.3468C43.9518 42.23 44.053 42.0975 44.1621 41.9612C44.4582 41.5833 44.7932 41.1587 45.2217 40.7263C45.7437 40.2043 46.3047 39.6745 46.9319 39.1096C47.4851 38.611 48.0577 38.1474 48.6109 37.6994L48.7355 37.5981C48.8992 37.4657 49.09 37.2748 49.2965 37.0761C49.6549 36.7255 50.06 36.3282 50.5742 35.9542C51.0768 35.5919 51.5676 35.3114 52.0039 35.0621C52.2298 34.9336 52.4558 34.805 52.6701 34.6648C52.748 34.6141 52.9427 34.4271 53.083 34.2947C53.4647 33.9285 53.94 33.4766 54.5984 33.0987C55.1476 32.7871 55.6969 32.5222 56.18 32.2924C56.3903 32.1911 56.6007 32.0937 56.8033 31.9885C57.7304 31.5249 58.6381 31.5288 59.312 31.5912C59.7171 31.0497 60.3326 30.3679 61.3143 30.0018C62.3973 29.5966 63.3984 29.7719 64.0841 29.9433C64.5359 29.5616 65.1787 29.0707 66.0825 28.837C66.8421 28.6383 67.5395 28.6344 68.0459 28.6305C68.0809 28.6305 68.116 28.6305 68.1511 28.6305C68.6497 28.1358 69.4678 27.345 70.7377 27.1424C72.2843 26.897 73.4685 27.7112 74.1464 28.2176C74.3879 28.1942 74.6099 28.1708 74.8242 28.1514C75.3657 27.4424 76.3551 26.1685 78.0731 26.1335C79.1638 26.1101 80.0559 26.4529 80.6363 26.6788L80.6636 26.6905C80.6636 26.6905 80.6831 26.6905 80.6948 26.6866C81.2207 26.6009 82.0193 26.4724 82.9815 26.5269C84.2826 26.6009 85.1358 27.3528 85.6967 27.9644C86.1759 27.8202 86.7797 27.6917 87.4575 27.7306C87.5159 27.7112 87.5783 27.6917 87.6289 27.6761C88.2717 27.4657 89.2417 27.1463 90.4065 27.3723C91.1973 27.5242 91.84 27.8592 92.3075 28.1007C92.4672 28.1825 92.6854 28.2955 92.7672 28.3228C93.6086 28.5253 94.2553 28.9461 94.7266 29.2538C94.8396 29.3278 94.9876 29.4252 95.0656 29.4642C95.7239 29.6628 96.2576 29.955 96.6861 30.1926C96.7718 30.2394 96.8536 30.2861 96.9355 30.329C96.9432 30.329 96.9471 30.329 96.9549 30.329C97.6171 30.2004 98.7235 29.9862 99.9 30.4575C100.032 30.5121 100.293 30.5744 100.543 30.6367C101.045 30.7614 101.669 30.9133 102.311 31.2133C102.857 31.4665 103.351 31.7626 103.788 32.0236C104.049 32.1794 104.294 32.3274 104.516 32.4443C105.35 32.8845 105.86 33.5234 106.215 34.0532C106.998 33.9947 108.069 34.0181 109.078 34.7037C109.997 35.327 110.457 36.1879 110.761 36.7567C110.8 36.8268 110.847 36.9164 110.885 36.9865C111.517 37.5319 111.894 38.1669 112.155 38.5993C112.21 38.6928 112.284 38.8135 112.331 38.8876C112.452 38.9811 112.627 39.0979 112.806 39.2187C113.215 39.4914 113.721 39.8264 114.212 40.2978C114.282 40.3445 114.442 40.4302 114.559 40.4964C115.026 40.7535 115.661 41.1002 116.238 41.6963C116.308 41.7391 116.425 41.7976 116.515 41.8443C117.025 42.1131 117.796 42.5143 118.416 43.274C118.895 43.8622 119.183 44.466 119.417 44.9491C119.499 45.1205 119.612 45.3542 119.662 45.4282C120.515 46.6086 120.395 47.9136 120.235 48.7706C120.57 49.1017 120.971 49.538 121.298 50.1185C121.431 50.3522 121.567 50.5743 121.703 50.7963C121.953 51.2015 122.206 51.6183 122.451 52.0935C122.506 52.1559 122.603 52.2572 122.681 52.3351C123.055 52.7168 123.624 53.2934 123.99 54.1348C124.263 54.762 124.403 55.3502 124.52 55.8255C124.578 56.0709 124.637 56.3047 124.687 56.441C124.773 56.6747 124.894 56.9318 125.023 57.2045C125.217 57.6253 125.439 58.1044 125.615 58.6381C125.864 59.4055 125.907 60.1028 125.938 60.6132C125.946 60.7456 125.957 60.9248 125.969 61.0105C126 61.0767 126.113 61.2598 126.195 61.3962C126.437 61.7935 126.764 62.335 126.959 63.0128C127.005 63.0907 127.095 63.2271 127.161 63.3323C127.492 63.8387 127.952 64.5282 128.147 65.467C128.275 66.0748 128.342 66.6591 128.4 67.1733C128.431 67.4577 128.462 67.7382 128.505 68.0109C128.715 69.3198 128.186 70.3521 127.742 71.0611C128.014 71.5792 128.326 72.2804 128.38 73.1491C128.4 73.4374 128.431 73.7257 128.462 74.0139C128.505 74.4074 128.552 74.8398 128.575 75.2995C128.606 75.354 128.638 75.4085 128.665 75.4592C129.019 76.0708 129.553 76.9979 129.514 78.2289C129.46 79.943 128.264 80.9403 127.488 81.548C127.453 82.0349 127.414 82.5297 127.36 83.0439C127.368 83.1296 127.403 83.3049 127.426 83.4373C127.531 83.9905 127.671 84.7462 127.543 85.6266C127.512 85.8292 127.508 86.1175 127.5 86.4174C127.488 86.9122 127.477 87.4731 127.368 88.0964C127.329 88.3263 127.305 88.6262 127.286 88.9457C127.255 89.4209 127.216 89.9585 127.103 90.5389C126.974 91.1895 126.76 91.7505 126.589 92.2023C126.55 92.3036 126.511 92.4088 126.476 92.5062C126.479 92.5179 126.483 92.5296 126.487 92.5413C126.721 93.1684 127.107 94.2164 126.846 95.4318C126.635 96.4135 126.113 97.138 125.767 97.6172C125.735 97.6639 125.696 97.7146 125.661 97.7652C125.661 97.8548 125.669 97.9561 125.677 98.0379C125.708 98.5833 125.751 99.3274 125.552 100.153C125.365 100.932 125.015 101.563 124.758 102.023C124.668 102.183 124.547 102.401 124.516 102.483C124.345 103.137 124.064 103.698 123.838 104.15C123.721 104.388 123.597 104.637 123.554 104.777C123.542 104.836 123.531 105.077 123.519 105.253C123.488 105.786 123.445 106.515 123.18 107.294C123.118 107.481 123.059 107.753 122.993 108.042C122.888 108.525 122.755 109.129 122.518 109.752C122.171 110.652 121.552 111.244 121.01 111.649C121.217 112.448 121.341 113.499 120.807 114.586L120.57 115.073C120.285 115.661 119.989 116.269 119.658 116.885C119.047 118.007 118.03 118.521 117.325 118.829C117.216 119.405 117.029 120.196 116.526 120.963C115.977 121.789 115.237 122.241 114.668 122.537C114.614 123.223 114.473 124.177 113.834 125.062C113.196 125.942 112.35 126.378 111.789 126.666C111.715 126.705 111.626 126.752 111.555 126.787C111.127 127.286 110.675 127.636 110.305 127.925C110.141 128.049 109.923 128.221 109.857 128.295C109.432 128.79 108.996 129.261 108.575 129.705C108.575 129.705 108.575 129.709 108.575 129.713C108.482 130.492 108.322 131.797 107.247 132.81C106.663 133.359 106.043 133.686 105.549 133.947C105.373 134.041 105.136 134.165 105.062 134.224C104.446 134.738 103.788 135.038 103.309 135.256C103.238 135.287 103.157 135.326 103.083 135.361C103.075 135.373 103.071 135.389 103.063 135.4C102.779 136.016 102.307 137.048 101.244 137.738C100.722 138.077 100.188 138.353 99.713 138.595C99.4598 138.723 99.2066 138.852 98.965 138.992C98.1664 139.444 97.3757 139.58 96.7991 139.678C96.6589 139.701 96.4719 139.732 96.3823 139.756C95.4863 140.18 94.6215 140.227 94.0449 140.254C93.9514 140.258 93.8307 140.266 93.7489 140.274C93.1217 140.519 92.5334 140.624 92.0776 140.698C91.6764 141.431 90.9596 142.603 89.5222 143.02C89.4248 143.047 89.1521 143.188 88.9729 143.281C88.482 143.53 87.8743 143.842 87.1225 144.013C85.5448 144.376 84.306 143.601 83.5658 143.141C83.558 143.137 83.5503 143.129 83.5386 143.125C83.0594 143.137 82.6348 143.09 82.292 143.047C81.7388 143.573 80.8701 144.345 79.5651 144.461C79.4794 144.493 79.3236 144.555 79.2067 144.602C78.6535 144.832 77.8939 145.143 76.9511 145.155C76.8927 145.155 76.8343 145.155 76.7759 145.155L76.7875 145.163ZM60.021 142.163H60.0249C60.0249 142.163 60.0249 142.163 60.021 142.163ZM75.1592 139.241C75.2955 139.249 75.4358 139.257 75.576 139.265C75.9734 139.288 76.3551 139.311 76.7096 139.315C76.7914 139.284 76.9005 139.237 76.9901 139.202C77.3524 139.054 77.8082 138.864 78.3496 138.747C78.3496 138.747 78.3535 138.743 78.3574 138.739C78.895 138.221 79.7949 137.352 81.1778 137.192C81.8712 137.111 82.4907 137.185 82.9425 137.239C83.0984 137.259 83.3087 137.282 83.4022 137.282H83.4061C84.6917 137.075 85.7279 137.605 86.4213 138.026C86.6161 137.929 86.8265 137.819 87.0602 137.718C87.4536 136.986 88.112 135.809 89.5222 135.311C90.1026 135.104 90.6363 135.019 91.0648 134.945C91.2713 134.91 91.5517 134.863 91.6413 134.828C92.4516 134.485 93.2074 134.446 93.7567 134.419C93.8501 134.415 93.967 134.407 94.0527 134.399C94.7228 134.103 95.3616 133.994 95.8369 133.912C95.9576 133.893 96.1135 133.865 96.2031 133.846C96.4836 133.69 96.7718 133.542 97.0601 133.394C97.2938 133.273 97.5236 133.156 97.7262 133.044C97.7379 133.016 97.7535 132.985 97.7652 132.962C98.0379 132.366 98.4508 131.47 99.3546 130.796C99.9117 130.383 100.461 130.134 100.901 129.931C101.057 129.861 101.271 129.763 101.349 129.713C101.867 129.284 102.389 129.004 102.814 128.782C102.911 128.049 103.11 126.978 103.951 126.098C104.466 125.56 104.964 125.03 105.439 124.481C105.887 123.959 106.359 123.593 106.737 123.301C106.885 123.188 107.083 123.032 107.142 122.97C107.683 122.276 108.361 121.871 108.883 121.594C108.93 120.932 109.047 120.044 109.627 119.195C110.235 118.303 111.045 117.839 111.633 117.531C111.739 116.974 111.887 116.222 112.342 115.467C113.032 114.321 114.142 113.838 114.82 113.55C114.96 113.27 115.1 112.985 115.241 112.701C114.995 111.926 114.614 110.663 115.194 109.331C115.697 108.182 116.631 107.555 117.212 107.177C117.239 107.06 117.266 106.932 117.294 106.803C117.383 106.386 117.488 105.911 117.66 105.408C117.672 105.354 117.683 105.101 117.695 104.914C117.726 104.411 117.761 103.784 117.968 103.094C118.151 102.483 118.408 101.965 118.614 101.552C118.716 101.345 118.856 101.061 118.887 100.952C119.086 100.212 119.421 99.6117 119.662 99.1715C119.728 99.0508 119.818 98.8911 119.865 98.7937C119.865 98.6885 119.853 98.5132 119.845 98.3768C119.814 97.8626 119.775 97.1575 119.947 96.3862C120.145 95.4941 120.589 94.8202 120.928 94.341C120.698 93.7022 120.418 92.7516 120.644 91.6648C120.772 91.0609 120.971 90.5312 121.135 90.1104C121.236 89.8455 121.341 89.5689 121.372 89.4131C121.415 89.1872 121.439 88.8716 121.462 88.5366C121.493 88.1081 121.524 87.6173 121.618 87.0914C121.653 86.9005 121.657 86.6005 121.665 86.2811C121.672 85.8643 121.684 85.3968 121.754 84.8826C121.742 84.793 121.711 84.6372 121.692 84.5164C121.594 83.9983 121.462 83.2854 121.552 82.4595C121.61 81.9258 121.649 81.3805 121.688 80.8039L121.731 80.2196C121.82 78.9769 122.518 78.1315 123.168 77.5394C122.946 77.0486 122.759 76.4526 122.751 75.7553C122.748 75.4358 122.705 75.054 122.662 74.6528C122.631 74.3723 122.599 74.0802 122.576 73.7763C122.545 73.714 122.502 73.64 122.471 73.5815C122.194 73.0829 121.774 72.3271 121.668 71.3494C121.513 69.9314 122.214 68.8523 122.65 68.1978C122.635 68.0771 122.623 67.9602 122.607 67.8394C122.564 67.4772 122.525 67.1305 122.471 66.8266C122.424 66.7487 122.354 66.6396 122.296 66.5539C122 66.1059 121.602 65.506 121.376 64.7113C121.337 64.6412 121.267 64.5243 121.213 64.4347C120.944 63.9945 120.578 63.3907 120.352 62.5999C120.176 61.9805 120.141 61.4195 120.114 60.9677C120.102 60.7807 120.087 60.5275 120.067 60.4418C120.001 60.2431 119.869 59.9587 119.728 59.6549C119.573 59.3159 119.393 58.9342 119.23 58.5018C119.051 58.0265 118.945 57.5863 118.852 57.2006C118.797 56.9786 118.747 56.7682 118.696 56.6085C118.645 56.554 118.583 56.4878 118.529 56.4371C118.159 56.0631 117.652 55.5489 117.278 54.7932C117.138 54.5127 116.955 54.2088 116.737 53.8621C116.577 53.6011 116.413 53.3323 116.254 53.0596C116.199 52.9973 116.071 52.8727 115.977 52.7792C115.658 52.4675 115.217 52.039 114.839 51.4469C114.033 50.1886 114.267 48.868 114.434 48.046C114.329 47.8474 114.24 47.6565 114.154 47.4851C114.099 47.376 114.029 47.228 113.971 47.115C113.92 47.0877 113.862 47.0566 113.815 47.0332C113.336 46.7839 112.685 46.445 112.101 45.8295C112.023 45.7788 111.867 45.6931 111.75 45.6308C111.318 45.3932 110.73 45.0698 110.184 44.54C110.067 44.4271 109.818 44.2596 109.577 44.0998C109.23 43.87 108.84 43.609 108.439 43.2623C107.796 42.7052 107.422 42.0819 107.146 41.6222C107.095 41.5365 107.029 41.4275 106.982 41.3535C106.456 40.9133 106.106 40.4029 105.852 39.9666C105.136 40.0134 104.185 39.9783 103.27 39.429C102.339 38.8681 101.836 38.0695 101.501 37.5397C101.482 37.5046 101.454 37.4657 101.431 37.4306C101.201 37.3021 100.983 37.1696 100.784 37.0489C100.445 36.8463 100.122 36.6515 99.861 36.5307C99.7247 36.4684 99.4169 36.3944 99.1481 36.3243C98.8482 36.2503 98.5209 36.1685 98.1742 36.0555C98.1353 36.0633 98.0963 36.0711 98.0652 36.075C97.4185 36.1996 96.4407 36.3905 95.3499 36.0165C94.7578 35.814 94.2708 35.5452 93.8813 35.3348C93.7021 35.2374 93.4567 35.1011 93.3632 35.0738C92.5724 34.844 91.9725 34.4505 91.5323 34.1661C91.4388 34.1038 91.318 34.0259 91.244 33.983C90.574 33.8038 90.0247 33.5195 89.6157 33.3052C89.5728 33.2818 89.5261 33.2585 89.4793 33.2351C89.4676 33.2351 89.4598 33.2429 89.4481 33.2468C88.9339 33.4143 88.1899 33.6636 87.2978 33.6052C87.2355 33.6285 87.1576 33.6558 87.0952 33.6792C86.546 33.8817 85.7162 34.1856 84.7072 34.0804C83.3165 33.9363 82.4166 33.0948 81.8284 32.4404C81.7583 32.4521 81.6882 32.4638 81.618 32.4754C81.2402 32.5378 80.8506 32.6001 80.4065 32.5923C79.8611 32.5845 79.3859 32.4599 78.9885 32.3235C78.3769 33.0403 77.4732 33.8467 76.1019 33.9363C75.5176 33.9752 74.8865 34.0337 73.9905 34.135C72.9582 34.2479 72.1206 33.9012 71.4896 33.5117C71.0377 33.8662 70.4573 34.209 69.721 34.3609C69.0977 34.4895 68.5367 34.4934 68.0848 34.4973C67.9874 34.4973 67.8745 34.4972 67.7771 34.5011C67.7615 34.5167 67.7459 34.5284 67.7303 34.544C67.3018 34.9141 66.6513 35.475 65.7085 35.7711C64.8632 36.036 64.0802 35.962 63.4725 35.8334C63.0907 36.3126 62.5492 36.8658 61.7545 37.2086C60.6832 37.6721 59.647 37.5397 59.0276 37.4618C59.012 37.4618 58.9965 37.4579 58.9809 37.454C58.8913 37.4968 58.8017 37.5397 58.7082 37.5825C58.2719 37.789 57.8629 37.9877 57.4928 38.198C57.4421 38.2331 57.259 38.4084 57.1227 38.537C56.7916 38.8525 56.3787 39.246 55.8372 39.5966C55.5138 39.8069 55.2061 39.9822 54.9061 40.1536C54.5711 40.3445 54.2516 40.5276 54.0062 40.7068C53.8465 40.8237 53.6284 41.0379 53.3946 41.2639C53.1181 41.5365 52.8025 41.8482 52.4207 42.152L52.2961 42.2533C51.7779 42.6702 51.291 43.0675 50.8508 43.4649C50.2976 43.9635 49.8107 44.4232 49.3627 44.8712C49.1796 45.0543 48.9771 45.3114 48.7667 45.5802C48.5602 45.8451 48.3226 46.145 48.0499 46.445C47.5513 46.9981 46.9825 47.3332 46.515 47.5669C46.4605 48.2058 46.3086 49.0394 45.7398 49.8146C45.1399 50.6366 44.3725 51.0612 43.8661 51.3417C43.8466 51.3534 43.8232 51.3651 43.8037 51.3768C43.6869 51.5754 43.5739 51.7936 43.4531 52.0234C43.3168 52.2805 43.1843 52.5337 43.0441 52.7753C43.0285 52.8532 43.009 52.9778 42.9934 53.0713C42.9116 53.5661 42.8026 54.24 42.4325 54.9451C42.2455 55.2996 42.0273 55.806 41.8365 56.254C41.704 56.5657 41.5755 56.8578 41.4625 57.0994C41.0924 57.8902 40.3912 58.4745 39.5459 58.6926C38.459 58.9731 37.489 58.7082 36.706 58.494C36.6788 58.4862 36.6515 58.4784 36.6203 58.4706C36.2307 58.8757 35.7048 59.4016 34.9764 59.8029C34.5907 60.0171 34.209 60.1847 33.8739 60.3288C33.5467 60.4729 33.2039 60.621 33.0247 60.7495C32.9429 60.8391 32.7832 61.0728 32.6624 61.2442C32.4131 61.6104 32.1014 62.0623 31.6807 62.5064C31.6379 62.5648 31.5132 62.8025 31.4236 62.9778C31.2561 63.305 31.0496 63.7101 30.7575 64.1309C30.4614 64.5594 30.1459 64.8983 29.8927 65.171C29.8148 65.2567 29.7174 65.3619 29.6395 65.4476C29.6395 65.4982 29.6394 65.5489 29.6356 65.5917C29.62 66.0825 29.5966 66.7565 29.3434 67.5122C29.2031 67.929 29.0434 68.2874 28.9032 68.5991C28.7941 68.8445 28.6967 69.0627 28.6461 69.2302C28.6539 69.312 28.6694 69.4405 28.6811 69.5379C28.7395 70.0054 28.8213 70.6443 28.7279 71.3922C28.685 71.7194 28.6305 72.0389 28.576 72.3622C28.5058 72.7673 28.4474 73.1179 28.4279 73.453C28.4046 73.8425 28.3617 74.2126 28.3266 74.5398C28.2799 74.9333 28.2409 75.2722 28.2409 75.5916C28.237 76.1993 28.1396 76.7291 28.0617 77.1577C28.0189 77.3875 27.9682 77.6758 27.9721 77.7926C27.9799 78.0186 28.0267 78.3302 28.0773 78.6575C28.1397 79.0548 28.2058 79.5067 28.2409 80.0092C28.3071 81.0454 27.9293 81.8752 27.5436 82.4907C27.9254 83.0322 28.3111 83.7529 28.3812 84.6683C28.4474 85.5526 28.1903 86.2928 27.8864 86.8732C28.4123 87.4264 28.9304 88.186 29.0395 89.23C29.1681 90.4727 28.6422 91.4466 28.2254 92.0972C28.4357 92.5568 28.685 93.1529 28.7863 93.8697C28.9032 94.7033 28.7746 95.4318 28.6811 95.9616C28.6655 96.0551 28.646 96.168 28.6305 96.2537C28.6733 96.3472 28.7318 96.4758 28.7785 96.5771C28.9928 97.029 29.2849 97.6445 29.4252 98.3963C29.5966 99.304 29.4525 100.087 29.3473 100.66C29.3356 100.722 29.32 100.8 29.3083 100.866C29.3551 100.964 29.4135 101.08 29.4641 101.178C29.6979 101.63 29.9861 102.191 30.1575 102.9C30.2432 103.25 30.364 103.632 30.4926 104.041C30.5315 104.17 30.5744 104.302 30.6133 104.431C31.2327 104.855 32.2378 105.564 32.6507 106.873C32.9078 107.683 32.8961 108.416 32.8883 108.953C32.8883 109.062 32.8883 109.203 32.8883 109.284C33.1493 110.095 33.1338 110.831 33.1221 111.372C33.1221 111.404 33.1221 111.435 33.1221 111.466C33.1493 111.497 33.1766 111.524 33.2039 111.552C33.5779 111.953 34.0921 112.498 34.4466 113.293C34.4894 113.39 34.6686 113.632 34.8011 113.811C35.0621 114.166 35.3854 114.606 35.662 115.155C36.0399 115.903 36.149 116.624 36.223 117.153C36.7567 117.473 37.4968 117.948 38.0383 118.805C38.6148 119.717 38.6967 120.648 38.7473 121.279C38.7902 121.314 38.833 121.349 38.8719 121.38C39.207 121.649 39.6121 121.976 39.9978 122.428C40.064 122.463 40.1458 122.506 40.212 122.541C40.6873 122.79 41.4041 123.16 42.0157 123.854C42.3351 124.216 42.5922 124.567 42.8143 124.875C43.0129 125.147 43.1843 125.385 43.3362 125.537C44.3257 126.534 44.4582 127.788 44.5283 128.56C44.6569 128.692 44.7738 128.821 44.8867 128.941C45.1321 129.202 45.362 129.452 45.5412 129.596C45.7087 129.728 45.8762 129.865 46.0437 130.001C46.2268 130.149 46.4099 130.297 46.5852 130.437C47.45 130.246 48.7667 130.028 50.025 130.815C51.0729 131.474 51.5481 132.475 51.8286 133.071C51.9182 133.121 52.0078 133.172 52.0935 133.223C52.4987 133.456 52.8843 133.682 53.231 133.85C53.3245 133.897 53.6245 133.967 53.8426 134.021C54.2088 134.111 54.649 134.216 55.1165 134.395C55.1944 134.395 55.2918 134.395 55.3697 134.395C55.9034 134.384 56.7059 134.368 57.5629 134.684C58.5991 135.065 59.2497 135.805 59.6665 136.324H59.686C60.134 136.324 60.7378 136.327 61.3884 136.483C61.4741 136.479 61.6221 136.464 61.7351 136.452C62.2454 136.402 62.9427 136.331 63.7335 136.503L64.1854 136.6C64.7775 136.729 65.3384 136.849 65.8488 136.939C66.7214 137.087 67.4109 137.446 67.8706 137.683C67.9446 137.722 68.0342 137.769 68.1004 137.8C68.712 137.874 69.2535 137.925 69.7365 137.968L70.1222 138.003C70.2508 138.014 70.5391 138.003 70.7962 137.987C71.2442 137.964 71.8012 137.932 72.4206 137.979C73.6711 138.069 74.5593 138.774 75.0891 139.195C75.1085 139.21 75.128 139.226 75.1514 139.245L75.1592 139.241ZM115.572 112.019C115.572 112.019 115.568 112.027 115.564 112.031L115.572 112.019ZM122.748 68.9302C122.748 68.9302 122.748 68.9302 122.748 68.9341C122.748 68.9341 122.748 68.9341 122.748 68.9302Z" fill="#FFBE39"/>
<path d="M34.5328 121.131C35.2964 121.334 36.3833 120.889 37.1741 121.088C37.9649 121.287 38.8258 120.999 39.6127 121.182C40.3996 121.365 40.8788 122.806 41.6696 122.977C42.4604 123.149 43.2395 123.297 44.0341 123.453C44.8288 123.609 45.7677 122.892 46.5624 123.04C47.3571 123.188 48.0817 123.577 48.8803 123.71C49.6789 123.842 50.2904 125.034 51.089 125.155C51.8876 125.276 52.916 123.667 53.7185 123.776C54.521 123.885 55.304 123.854 56.1065 123.951C56.909 124.049 57.6102 124.766 58.4166 124.851C59.223 124.937 59.9437 125.658 60.7462 125.732C61.5486 125.806 62.3901 125.233 63.1926 125.291C63.9951 125.35 64.743 126.059 65.5494 126.106C66.3558 126.152 67.131 126.631 67.9413 126.667C68.7515 126.702 69.5618 126.343 70.3682 126.363C71.1746 126.382 71.9771 125.95 72.7874 125.961C73.5977 125.973 74.3884 126.219 75.1948 126.215C75.9856 126.215 76.7687 126.047 77.5478 126.032C78.3269 126.016 79.106 125.556 79.8851 125.529C80.6642 125.502 81.4472 125.377 82.2263 125.338C83.0055 125.299 83.7768 125.023 84.552 124.972C85.3272 124.921 86.231 126.355 87.0101 126.293C87.7892 126.23 88.6034 126.265 89.3786 126.191C90.1538 126.117 90.8239 124.824 91.5991 124.738C92.3743 124.653 93.2079 124.953 93.9832 124.855C94.7584 124.758 95.6037 125.062 96.375 124.953C97.1464 124.843 97.8125 123.909 98.58 123.788C99.3474 123.667 100.197 123.92 100.964 123.788C101.731 123.655 102.518 123.515 103.282 123.371C104.045 123.227 104.813 122.993 105.572 122.837C106.332 122.681 107.068 122.3 107.824 122.132C108.58 121.965 109.32 121.626 110.076 121.45C110.832 121.275 111.938 121.805 112.69 121.618C113.192 120.882 113.886 120.169 114.326 119.506C114.634 119.043 115.163 118.427 115.658 117.598C116.005 117.017 115.05 115.588 115.459 114.84C115.798 114.216 117.053 114.022 117.419 113.285C117.742 112.635 117.727 111.782 118.062 111.045C118.366 110.375 118.977 109.807 119.281 109.07C119.562 108.385 119.799 107.648 120.072 106.904C120.329 106.203 120.383 105.412 120.629 104.664C120.874 103.916 121.899 103.461 122.117 102.705C122.335 101.949 121.638 100.995 121.829 100.235C122.02 99.4755 122.471 98.8288 122.635 98.0614C122.799 97.2939 123.153 96.2928 123.29 95.5254C122.522 95.6578 121.357 95.3033 120.578 95.428C119.799 95.5526 119.156 96.433 118.373 96.5538C117.59 96.6746 116.846 96.9239 116.063 97.0407C115.28 97.1576 114.571 97.6874 113.788 97.7965C113.005 97.9056 112.101 96.9823 111.315 97.0875C110.528 97.1927 109.752 97.1654 108.966 97.2628C108.179 97.3602 107.407 97.3835 106.62 97.4731C105.834 97.5627 105.086 97.7887 104.299 97.8705C103.512 97.9523 102.842 99.0392 102.055 99.1132C101.268 99.1872 100.368 97.8822 99.5811 97.9523C98.7942 98.0224 98.0813 98.7743 97.2944 98.8366C96.5075 98.8989 95.7479 99.1521 94.9571 99.2067C94.1663 99.2612 93.4144 99.6625 92.6275 99.7092C91.8406 99.756 91.0849 100.262 90.298 100.305C89.5111 100.348 88.6696 99.1482 87.8788 99.1833C87.088 99.2184 86.3167 99.3041 85.5298 99.3352C84.7429 99.3664 83.9949 100.286 83.2041 100.313C82.4133 100.34 81.6187 99.6586 80.8279 99.6741C80.0371 99.6897 79.2696 100.305 78.4788 100.317C77.688 100.329 76.9089 100.578 76.1181 100.582C75.3273 100.586 74.5443 100.052 73.7574 100.048C72.9705 100.044 72.1991 99.0002 71.4083 98.9924C70.6175 98.9846 69.8462 98.9924 69.0554 98.9807C68.2646 98.969 67.4427 100.804 66.6519 100.784C65.8611 100.765 65.1014 100.001 64.3145 99.9741C63.5276 99.9468 62.7251 100.329 61.9343 100.294C61.1435 100.258 60.3644 100.153 59.5736 100.11C58.814 100.071 58.1439 98.525 57.396 98.4782C56.648 98.4315 55.7832 99.9468 55.0313 99.8962C54.2795 99.8455 53.5627 99.1599 52.8109 99.1054C52.059 99.0508 51.3461 98.4042 50.5982 98.3419C49.8502 98.2795 48.9698 99.5144 48.2219 99.4443C47.4739 99.3742 46.7416 98.934 45.9936 98.8561C45.2457 98.7782 44.5055 98.4821 43.7576 98.4003C43.0096 98.3185 42.3045 97.7536 41.5566 97.6679C40.8086 97.5822 40.1113 97.0096 39.3673 96.9161C38.6232 96.8226 37.7545 97.5783 37.0104 97.477C36.2664 97.3758 35.4834 97.442 34.7393 97.3368C33.9953 97.2316 33.3603 96.3006 32.6163 96.1876C31.8722 96.0746 31.0775 96.2421 30.3334 96.1253C29.5894 96.0084 28.822 96.0045 28.0779 95.8799C27.3338 95.7552 25.8808 95.241 25.1406 95.1124C25.2419 95.9188 26.6482 97.2433 26.7806 98.0497C26.9131 98.8561 26.7106 99.7014 26.8703 100.5C27.03 101.299 27.5014 102.011 27.6961 102.802C27.8909 103.593 27.7624 104.454 27.9844 105.237C28.2065 106.02 28.7713 106.682 29.0245 107.454C29.2777 108.225 28.8298 109.238 29.1141 110.001C29.3985 110.765 30.6957 111.108 31.0113 111.859C31.3268 112.611 30.0451 114.076 30.3957 114.812C30.7463 115.549 32.3202 115.677 32.7019 116.398C33.0837 117.119 33.7654 117.637 34.1784 118.334C34.5913 119.031 34.0771 120.465 34.525 121.147L34.5328 121.131Z" fill="#3D3D3D"/>
<path d="M76.7885 145.163C76.2276 145.163 75.6939 145.132 75.2186 145.1C74.9498 145.085 74.6888 145.069 74.4356 145.058C73.0644 145.015 72.0983 144.271 71.5061 143.803C71.3815 143.807 71.249 143.815 71.1127 143.823C70.653 143.846 70.1349 143.873 69.5779 143.823L69.2077 143.788C68.6585 143.737 67.9768 143.675 67.1899 143.573C66.3406 143.464 65.6784 143.125 65.1953 142.876C65.0707 142.81 64.9031 142.724 64.8213 142.693C64.198 142.584 63.5904 142.451 62.9515 142.315L62.6281 142.245C62.5502 142.249 62.4255 142.26 62.3282 142.272C61.7906 142.327 60.9764 142.409 60.0726 142.183C59.9869 142.175 59.8038 142.175 59.6675 142.175C59.1182 142.175 58.3664 142.171 57.5444 141.91C56.4303 141.559 55.7485 140.788 55.32 140.246C54.7318 140.254 53.9137 140.235 53.0489 139.865C52.9515 139.826 52.6944 139.763 52.4841 139.713C51.9777 139.592 51.3466 139.44 50.6765 139.113C50.135 138.848 49.6403 138.564 49.165 138.287C48.9469 138.162 48.7287 138.034 48.5067 137.909C47.7392 137.485 47.264 136.877 46.9406 136.331C46.0875 136.464 44.9539 136.479 43.9138 135.743C43.3607 135.354 42.8581 134.941 42.3672 134.543C42.2075 134.415 42.0517 134.286 41.8998 134.165C41.3817 133.753 40.9726 133.312 40.6142 132.927C40.4156 132.712 40.2247 132.51 40.0727 132.37C38.9236 131.337 38.795 129.966 38.7171 129.144C38.7171 129.14 38.7171 129.136 38.7171 129.129C38.4717 128.836 38.2691 128.552 38.0899 128.307C37.9614 128.131 37.8484 127.975 37.7432 127.843C37.677 127.808 37.5874 127.761 37.5173 127.722C36.9953 127.45 36.2084 127.04 35.5734 126.234C35.5266 126.183 35.3396 126.032 35.2033 125.919C34.7942 125.587 34.2333 125.132 33.7619 124.469C33.1425 123.593 33.0062 122.65 32.9517 122C32.4063 121.669 31.6349 121.146 31.1168 120.231C30.6455 119.397 30.5286 118.56 30.4468 118.007C30.4312 117.909 30.4156 117.781 30.4001 117.699C30.326 117.578 30.2053 117.415 30.0962 117.263C29.8118 116.877 29.4651 116.402 29.1768 115.794C29.1223 115.728 29.021 115.623 28.947 115.541C28.5653 115.132 27.9848 114.516 27.6342 113.632C27.2641 112.705 27.2797 111.828 27.2953 111.244C27.2953 111.147 27.2992 111.022 27.2953 110.94C27.0694 110.223 27.0538 109.553 27.0538 109.059C26.4149 108.607 25.5345 107.89 25.1878 106.647C25.106 106.359 25.0164 106.075 24.9268 105.786C24.7788 105.311 24.6229 104.82 24.4944 104.29C24.4749 104.228 24.358 104.01 24.2762 103.846C24.0386 103.387 23.7153 102.759 23.5517 101.988C23.3452 101.026 23.5049 100.165 23.6062 99.5923C23.6179 99.5261 23.6335 99.4482 23.6452 99.378C23.6023 99.2845 23.5478 99.1677 23.5049 99.0703C23.279 98.595 22.9712 97.9484 22.8426 97.1498C22.6985 96.2616 22.8348 95.4942 22.9322 94.9332C22.9478 94.8475 22.9673 94.7423 22.979 94.6566C22.9401 94.5709 22.8894 94.4579 22.8465 94.3683C22.6167 93.8736 22.3012 93.1958 22.1999 92.3465C22.0869 91.4038 22.3479 90.6091 22.6635 89.9897C22.1259 89.4326 21.5883 88.6613 21.4948 87.5861C21.4013 86.5382 21.7636 85.6851 22.1337 85.0501C21.7402 84.5086 21.3273 83.7724 21.2611 82.8219C21.1637 81.4195 21.8688 80.3832 22.3401 79.7366C22.3285 79.6703 22.3206 79.6002 22.3089 79.534C22.2388 79.0743 22.157 78.5562 22.1376 77.9797C22.1142 77.2356 22.2272 76.6084 22.3167 76.102C22.3518 75.9072 22.3985 75.6423 22.4024 75.5449C22.4024 74.91 22.4726 74.3529 22.5271 73.862C22.5583 73.6088 22.5855 73.3595 22.6011 73.1063C22.6401 72.4441 22.7375 71.8714 22.8271 71.365C22.866 71.1313 22.9089 70.8975 22.94 70.6599C22.94 70.6248 22.9128 70.4223 22.8933 70.2781C22.8232 69.7288 22.7258 68.9731 22.9167 68.0966C23.0842 67.3292 23.3569 66.7176 23.575 66.2267C23.6607 66.0358 23.7347 65.8644 23.7893 65.7242C23.7971 65.6463 23.801 65.506 23.8049 65.4009C23.8244 64.8087 23.8555 63.9167 24.3152 62.9856C24.7086 62.187 25.2306 61.6222 25.6124 61.2092C25.7526 61.0573 25.9007 60.8976 25.9669 60.8041C26.0331 60.7067 26.1344 60.5119 26.2279 60.3249C26.4811 59.8263 26.8317 59.1407 27.4394 58.4979C27.5446 58.3849 27.7004 58.159 27.8523 57.937C28.2302 57.3916 28.6977 56.7098 29.4457 56.1333C30.178 55.5723 30.926 55.2451 31.5259 54.9802C31.7479 54.8828 31.9583 54.7893 32.1102 54.7114C32.192 54.6452 32.3596 54.4699 32.4725 54.353C32.9517 53.8544 33.61 53.1727 34.6112 52.787C35.4838 52.4481 36.3408 52.4676 37.0771 52.5883C37.1121 52.5143 37.1472 52.4442 37.1862 52.3741C37.1979 52.304 37.2134 52.2105 37.229 52.1326C37.3186 51.5872 37.4549 50.7652 37.9419 49.9354C38.0626 49.729 38.1756 49.5147 38.2925 49.2966C38.5184 48.8681 38.7755 48.385 39.1067 47.8825C39.5936 47.1423 40.2286 46.706 40.735 46.41C40.7857 45.7049 40.9493 44.7465 41.6544 43.8778C42.3205 43.0598 43.1542 42.6858 43.7034 42.4365C43.7541 42.4131 43.8164 42.3858 43.8671 42.3625C43.9645 42.2456 44.0657 42.1131 44.1748 41.9768C44.4709 41.5989 44.8059 41.1743 45.2344 40.7419C45.7564 40.2199 46.3174 39.6901 46.9445 39.1252C47.4977 38.6266 48.0704 38.163 48.6236 37.715L48.7482 37.6138C48.9118 37.4813 49.1027 37.2904 49.3092 37.0917C49.6676 36.7411 50.0727 36.3438 50.5869 35.9698C51.0895 35.6075 51.5803 35.3271 52.0166 35.0777C52.2425 34.9492 52.4685 34.8206 52.6828 34.6804C52.7607 34.6297 52.9554 34.4428 53.0957 34.3064C53.4774 33.9402 53.9527 33.4883 54.611 33.1144C55.1603 32.8027 55.7096 32.5378 56.1965 32.308C56.4069 32.2067 56.6173 32.1093 56.8199 32.0041C57.747 31.5406 58.6546 31.5445 59.3286 31.6068C59.7337 31.0653 60.3492 30.3836 61.3309 30.0174C62.4139 29.6122 63.415 29.7875 64.1007 29.959C64.5525 29.5772 65.1953 29.0863 66.0991 28.8526C66.8587 28.6539 67.556 28.65 68.0625 28.6461C68.0975 28.6461 68.1326 28.6461 68.1677 28.6461C68.6663 28.1514 69.4843 27.3606 70.7543 27.158C72.3008 26.9126 73.4851 27.7268 74.1629 28.2332C74.4044 28.2098 74.6265 28.1865 74.8407 28.167C75.3822 27.458 76.3717 26.1841 78.0897 26.1491C79.1804 26.1257 80.0725 26.4685 80.6529 26.6945L80.6802 26.7062C80.6802 26.7062 80.6997 26.7062 80.7114 26.7023C81.2373 26.6166 82.0359 26.488 82.9981 26.5425C84.2992 26.6166 85.1523 27.3684 85.7133 27.98C86.1924 27.8359 86.7963 27.7073 87.4741 27.7463C87.5325 27.7268 87.5949 27.7073 87.6455 27.6917C88.2883 27.4814 89.2582 27.1619 90.423 27.3879C91.2138 27.5398 91.8566 27.8748 92.3241 28.1163C92.4838 28.1982 92.702 28.3111 92.7838 28.3384C93.6252 28.541 94.2719 28.9617 94.7432 29.2694C94.8562 29.3435 95.0042 29.4408 95.0822 29.4798C95.7405 29.6785 96.2742 29.9706 96.7027 30.2083C96.7884 30.255 96.8702 30.3018 96.952 30.3446C96.9598 30.3446 96.9637 30.3446 96.9715 30.3446C97.6337 30.2161 98.7401 30.0018 99.9166 30.4732C100.049 30.5277 100.31 30.59 100.559 30.6524C101.062 30.777 101.685 30.929 102.328 31.2289C102.873 31.4821 103.368 31.7782 103.804 32.0392C104.065 32.195 104.311 32.343 104.533 32.4599C105.366 32.9001 105.877 33.539 106.231 34.0688C107.014 34.0103 108.086 34.0337 109.095 34.7193C110.014 35.3426 110.474 36.2036 110.777 36.7723C110.816 36.8424 110.863 36.932 110.902 37.0021C111.533 37.5475 111.911 38.1825 112.172 38.6149C112.227 38.7084 112.301 38.8292 112.347 38.9032C112.468 38.9967 112.643 39.1135 112.823 39.2343C113.232 39.507 113.738 39.842 114.229 40.3134C114.299 40.3601 114.459 40.4458 114.576 40.5121C115.043 40.7692 115.678 41.1159 116.255 41.7119C116.325 41.7547 116.442 41.8132 116.531 41.8599C117.041 42.1287 117.813 42.53 118.432 43.2896C118.911 43.8778 119.2 44.4816 119.433 44.9647C119.515 45.1361 119.628 45.3698 119.679 45.4438C120.532 46.6242 120.411 47.9292 120.251 48.7862C120.586 49.1174 120.988 49.5537 121.315 50.1341C121.447 50.3679 121.584 50.5899 121.72 50.812C121.969 51.2171 122.223 51.6339 122.468 52.1092C122.523 52.1715 122.62 52.2728 122.698 52.3507C123.072 52.7325 123.641 53.309 124.007 54.1505C124.279 54.7776 124.42 55.3659 124.537 55.8411C124.595 56.0866 124.653 56.3203 124.704 56.4566C124.79 56.6904 124.911 56.9475 125.039 57.2202C125.234 57.6409 125.456 58.12 125.631 58.6537C125.881 59.4212 125.923 60.1185 125.955 60.6288C125.962 60.7612 125.974 60.9404 125.986 61.0261C126.017 61.0924 126.13 61.2755 126.212 61.4118C126.453 61.8091 126.78 62.3506 126.975 63.0285C127.022 63.1064 127.112 63.2427 127.178 63.3479C127.509 63.8543 127.969 64.5438 128.163 65.4827C128.292 66.0904 128.358 66.6747 128.417 67.1889C128.448 67.4733 128.479 67.7538 128.522 68.0265C128.732 69.3354 128.202 70.3677 127.758 71.0767C128.031 71.5948 128.343 72.296 128.397 73.1647C128.417 73.453 128.448 73.7413 128.479 74.0296C128.522 74.423 128.568 74.8554 128.592 75.3151C128.623 75.3696 128.654 75.4242 128.681 75.4748C129.036 76.0864 129.566 77.0136 129.531 78.2407C129.476 79.9586 128.276 80.952 127.505 81.5597C127.47 82.0466 127.431 82.5414 127.376 83.0556C127.384 83.1413 127.419 83.3166 127.443 83.449C127.548 84.0022 127.688 84.758 127.56 85.6384C127.528 85.8409 127.524 86.1292 127.517 86.4292C127.505 86.9239 127.493 87.4849 127.384 88.1043C127.345 88.338 127.322 88.638 127.299 88.9574C127.267 89.4326 127.228 89.9702 127.115 90.5507C126.987 91.2012 126.773 91.7661 126.601 92.2141C126.562 92.3154 126.523 92.4205 126.488 92.5179C126.492 92.5296 126.496 92.5413 126.5 92.553C126.734 93.1802 127.119 94.232 126.858 95.4474C126.648 96.4291 126.126 97.1537 125.779 97.6289C125.748 97.6757 125.709 97.7263 125.674 97.777C125.674 97.8666 125.682 97.9678 125.69 98.0497C125.721 98.595 125.764 99.3391 125.565 100.165C125.378 100.944 125.027 101.575 124.77 102.035C124.681 102.195 124.56 102.413 124.529 102.494C124.357 103.149 124.077 103.71 123.851 104.162C123.734 104.399 123.609 104.649 123.567 104.789C123.555 104.847 123.543 105.089 123.532 105.264C123.5 105.798 123.458 106.526 123.193 107.306C123.13 107.489 123.072 107.765 123.009 108.053C122.904 108.537 122.772 109.14 122.534 109.764C122.188 110.664 121.568 111.256 121.027 111.661C121.233 112.459 121.358 113.511 120.824 114.598L120.586 115.085C120.302 115.673 120.006 116.281 119.675 116.896C119.063 118.018 118.047 118.533 117.341 118.84C117.232 119.417 117.045 120.208 116.543 120.975C115.994 121.801 115.253 122.253 114.685 122.549C114.63 123.235 114.49 124.189 113.851 125.073C113.212 125.954 112.367 126.39 111.806 126.678C111.732 126.717 111.642 126.764 111.572 126.799C111.144 127.298 110.692 127.648 110.322 127.936C110.158 128.061 109.94 128.233 109.874 128.307C109.445 128.805 109.02 129.265 108.592 129.717C108.592 129.717 108.592 129.721 108.592 129.725C108.498 130.504 108.339 131.809 107.264 132.822C106.679 133.371 106.06 133.698 105.565 133.959C105.39 134.053 105.152 134.177 105.078 134.236C104.463 134.75 103.804 135.05 103.325 135.268C103.255 135.299 103.173 135.338 103.099 135.373C103.091 135.385 103.088 135.4 103.08 135.412C102.795 136.028 102.324 137.06 101.261 137.749C100.742 138.088 100.205 138.361 99.7334 138.606C99.4802 138.735 99.2271 138.864 98.9855 139.004C98.1869 139.46 97.3961 139.592 96.8196 139.689C96.6793 139.713 96.4924 139.744 96.4028 139.767C95.5068 140.192 94.642 140.239 94.0654 140.266C93.9719 140.27 93.8512 140.278 93.7693 140.285C93.1422 140.531 92.5539 140.636 92.0981 140.71C91.6969 141.442 90.9801 142.615 89.5427 143.032C89.4453 143.059 89.1726 143.199 88.9934 143.293C88.5025 143.542 87.8948 143.854 87.143 144.025C85.5653 144.387 84.3265 143.612 83.5863 143.153C83.5785 143.149 83.5707 143.141 83.559 143.137C83.0799 143.149 82.6553 143.102 82.3125 143.059C81.7593 143.585 80.8906 144.356 79.5856 144.473C79.4999 144.504 79.344 144.567 79.2271 144.613C78.674 144.843 77.9144 145.155 76.9716 145.167C76.9132 145.167 76.8547 145.167 76.7963 145.167L76.7885 145.163ZM60.022 142.163C60.022 142.163 60.022 142.163 60.0259 142.163C60.0259 142.163 60.0259 142.163 60.022 142.163ZM75.1602 139.241C75.2965 139.249 75.4368 139.257 75.577 139.265C75.9743 139.288 76.3561 139.312 76.7106 139.315C76.7924 139.284 76.9015 139.238 76.9911 139.202C77.3534 139.054 77.8092 138.864 78.3506 138.747C78.3506 138.747 78.3545 138.743 78.3584 138.739C78.896 138.221 79.7959 137.352 81.1788 137.192C81.8722 137.111 82.4916 137.185 82.9435 137.239C83.0994 137.259 83.3097 137.282 83.4032 137.282H83.4071C84.6927 137.075 85.7289 137.605 86.4223 138.026C86.6171 137.929 86.8274 137.82 87.0612 137.718C87.4546 136.986 88.113 135.809 89.5232 135.311C90.1036 135.104 90.6373 135.019 91.0658 134.945C91.2723 134.91 91.5527 134.863 91.6423 134.828C92.4526 134.485 93.2084 134.446 93.7576 134.419C93.8511 134.415 93.968 134.407 94.0537 134.399C94.7238 134.103 95.3626 133.994 95.8379 133.912C95.9586 133.893 96.1145 133.866 96.2041 133.846C96.4846 133.69 96.7728 133.538 97.065 133.39C97.2987 133.27 97.5246 133.153 97.7272 133.04C97.7389 133.012 97.7545 132.981 97.7662 132.958C98.0389 132.362 98.4518 131.466 99.3556 130.792C99.9127 130.379 100.462 130.13 100.902 129.927C101.058 129.857 101.272 129.76 101.35 129.709C101.868 129.28 102.39 129 102.815 128.778C102.912 128.046 103.111 126.974 103.952 126.094C104.467 125.556 104.965 125.026 105.44 124.477C105.888 123.955 106.36 123.589 106.738 123.297C106.886 123.184 107.084 123.028 107.143 122.966C107.684 122.272 108.362 121.867 108.884 121.591C108.931 120.928 109.048 120.04 109.628 119.191C110.236 118.299 111.046 117.835 111.634 117.528C111.74 116.97 111.888 116.219 112.343 115.463C113.033 114.318 114.143 113.835 114.821 113.546C114.961 113.266 115.101 112.981 115.242 112.697C114.996 111.922 114.615 110.66 115.195 109.327C115.694 108.178 116.632 107.551 117.213 107.173C117.24 107.056 117.267 106.928 117.295 106.799C117.384 106.382 117.489 105.907 117.657 105.408C117.669 105.354 117.68 105.101 117.692 104.914C117.723 104.411 117.758 103.784 117.965 103.094C118.148 102.483 118.405 101.965 118.611 101.552C118.713 101.345 118.853 101.061 118.884 100.952C119.083 100.212 119.418 99.6118 119.659 99.1716C119.726 99.0508 119.815 98.8911 119.862 98.7937C119.862 98.6885 119.85 98.5132 119.842 98.3769C119.811 97.8627 119.772 97.1576 119.944 96.3862C120.142 95.4942 120.586 94.8163 120.925 94.3411C120.696 93.7022 120.415 92.7517 120.641 91.6648C120.77 91.061 120.968 90.5351 121.132 90.1105C121.233 89.8456 121.338 89.569 121.369 89.4132C121.412 89.1872 121.436 88.8717 121.459 88.5367C121.49 88.1043 121.525 87.6173 121.615 87.0875C121.646 86.8966 121.654 86.5967 121.662 86.2811C121.669 85.8643 121.681 85.3968 121.751 84.8787C121.74 84.7891 121.708 84.6333 121.689 84.5125C121.591 83.9944 121.459 83.2815 121.549 82.4557C121.607 81.922 121.646 81.3766 121.685 80.804L121.728 80.2157C121.817 78.973 122.515 78.1277 123.165 77.5356C122.943 77.0447 122.756 76.4487 122.749 75.7514C122.745 75.432 122.702 75.0502 122.659 74.649C122.628 74.3685 122.597 74.0763 122.573 73.7724C122.542 73.7101 122.499 73.6361 122.468 73.5777C122.191 73.079 121.771 72.3233 121.666 71.3455C121.51 69.9275 122.211 68.8484 122.647 68.194C122.632 68.0732 122.62 67.9564 122.604 67.8356C122.562 67.4733 122.523 67.1266 122.468 66.8228C122.421 66.7448 122.351 66.6358 122.293 66.5501C121.997 66.1021 121.599 65.5022 121.373 64.7075C121.334 64.6373 121.264 64.5205 121.21 64.4309C120.941 63.9907 120.575 63.3869 120.349 62.5961C120.174 61.9767 120.138 61.4157 120.111 60.9638C120.1 60.7768 120.084 60.5236 120.064 60.4379C119.998 60.2392 119.866 59.9549 119.726 59.651C119.57 59.3121 119.391 58.9303 119.227 58.4979C119.048 58.0227 118.943 57.5825 118.849 57.1968C118.795 56.9747 118.744 56.7644 118.693 56.6047C118.643 56.5501 118.58 56.4839 118.526 56.4333C118.156 56.0593 117.649 55.5451 117.275 54.7893C117.135 54.5088 116.952 54.205 116.734 53.8583C116.574 53.5973 116.41 53.3285 116.251 53.0558C116.196 52.9935 116.068 52.8688 115.974 52.7753C115.655 52.4637 115.214 52.0352 114.837 51.443C114.03 50.1848 114.264 48.8642 114.431 48.0422C114.326 47.8435 114.237 47.6526 114.151 47.4812C114.096 47.3722 114.026 47.2241 113.968 47.1112C113.917 47.0839 113.859 47.0527 113.812 47.0293C113.333 46.78 112.682 46.4411 112.098 45.8256C112.02 45.775 111.864 45.6893 111.747 45.6269C111.315 45.3893 110.727 45.066 110.181 44.5362C110.065 44.4232 109.815 44.2557 109.574 44.096C109.227 43.8661 108.837 43.6051 108.436 43.2584C107.793 42.7014 107.419 42.0781 107.143 41.6184C107.092 41.5327 107.026 41.4236 106.979 41.3496C106.453 40.9094 106.103 40.3991 105.85 39.9628C105.133 40.0095 104.182 39.9745 103.267 39.4252C102.336 38.8642 101.833 38.0656 101.498 37.5358C101.479 37.5008 101.451 37.4618 101.428 37.4268C101.198 37.2982 100.98 37.1658 100.781 37.045C100.442 36.8424 100.119 36.6476 99.8581 36.5269C99.7218 36.4646 99.414 36.3905 99.1452 36.3204C98.8452 36.2464 98.518 36.1646 98.1713 36.0516C98.1324 36.0594 98.0934 36.0672 98.0623 36.0711C97.4156 36.1958 96.4378 36.3866 95.347 36.0127C94.7549 35.8101 94.268 35.5413 93.8784 35.3309C93.6992 35.2336 93.4538 35.0972 93.3603 35.0699C92.5695 34.8401 91.9696 34.4467 91.5294 34.1623C91.4359 34.0999 91.3151 34.022 91.2411 33.9792C90.5711 33.8 90.0218 33.5156 89.6128 33.3014C89.5699 33.278 89.5232 33.2546 89.4764 33.2312C89.4647 33.2312 89.457 33.239 89.4453 33.2429C88.9311 33.4104 88.187 33.6597 87.2949 33.6013C87.2326 33.6247 87.1547 33.652 87.0923 33.6753C86.5431 33.8779 85.7133 34.1818 84.7043 34.0766C83.3136 33.9324 82.4137 33.091 81.8255 32.4365C81.7554 32.4482 81.6853 32.4599 81.6151 32.4716C81.2373 32.5339 80.8477 32.5963 80.4036 32.5885C79.8582 32.5807 79.383 32.456 78.9856 32.3197C78.374 33.0365 77.4703 33.8428 76.099 33.9324C75.5147 33.9714 74.8836 34.0298 73.9876 34.1311C72.9553 34.2441 72.1177 33.8974 71.4866 33.5078C71.0348 33.8623 70.4543 34.2051 69.7181 34.3571C69.0948 34.4856 68.5338 34.4895 68.0819 34.4934C67.9845 34.4934 67.8716 34.4934 67.7742 34.4973C67.7586 34.5129 67.743 34.5246 67.7275 34.5401C67.2989 34.9102 66.6484 35.4712 65.7056 35.7672C64.8603 36.0321 64.0773 35.9581 63.4696 35.8296C63.0878 36.3087 62.5463 36.8619 61.7516 37.2047C60.6803 37.6683 59.6441 37.5358 59.0247 37.4579C59.0091 37.4579 58.9935 37.454 58.978 37.4501C58.8884 37.493 58.7988 37.5358 58.7053 37.5787C58.269 37.7852 57.86 37.9838 57.4899 38.1942C57.4392 38.2293 57.2561 38.4046 57.1198 38.5331C56.7887 38.8486 56.3757 39.2421 55.8343 39.5927C55.5109 39.8031 55.2032 39.9784 54.9032 40.1498C54.5682 40.3407 54.2487 40.5237 54.0033 40.7029C53.8436 40.8198 53.6255 41.0341 53.3917 41.26C53.1151 41.5327 52.7996 41.8443 52.4178 42.1482L52.2932 42.2495C51.7751 42.6663 51.2881 43.0637 50.8479 43.461C50.2947 43.9596 49.8078 44.4193 49.3598 44.8673C49.1767 45.0504 48.9742 45.3075 48.7638 45.5763C48.5573 45.8412 48.3197 46.1412 48.047 46.4411C47.5484 46.9943 46.9796 47.3293 46.5121 47.563C46.4576 48.2019 46.3057 49.0356 45.7369 49.8108C45.137 50.6328 44.3696 51.0574 43.8632 51.3379C43.8437 51.3495 43.8203 51.3612 43.8008 51.3729C43.684 51.5716 43.571 51.7897 43.4502 52.0157C43.3139 52.2728 43.1776 52.526 43.0373 52.7714C43.0217 52.8493 43.0023 52.974 42.9867 53.0675C42.9049 53.5622 42.7958 54.2362 42.4257 54.9413C42.2387 55.2958 42.0205 55.8022 41.8297 56.2502C41.6972 56.5618 41.5687 56.854 41.4557 57.0955C41.0856 57.8863 40.3844 58.4706 39.5391 58.6888C38.4522 58.9693 37.4822 58.7044 36.6992 58.4901C36.6719 58.4823 36.6447 58.4745 36.6135 58.4667C36.224 58.8719 35.698 59.3978 34.9696 59.799C34.5839 60.0133 34.2021 60.1808 33.8671 60.3249C33.5399 60.4691 33.1971 60.6171 33.0179 60.7457C32.9361 60.8353 32.7764 61.069 32.6556 61.2404C32.4063 61.6066 32.0946 62.0585 31.6739 62.5026C31.6311 62.561 31.5064 62.7986 31.4168 62.9739C31.2493 63.3012 31.0428 63.7063 30.7507 64.127C30.4546 64.5555 30.1391 64.8944 29.8859 65.1671C29.808 65.2528 29.7106 65.358 29.6326 65.4437C29.6326 65.4944 29.6326 65.545 29.6287 65.5879C29.6132 66.0787 29.5898 66.7526 29.3366 67.5084C29.1963 67.9252 29.0366 68.2836 28.8964 68.5952C28.7873 68.8407 28.6899 69.0588 28.6393 69.2263C28.647 69.3081 28.6627 69.4328 28.6743 69.5302C28.7328 69.9976 28.8146 70.6404 28.7211 71.3845C28.6782 71.7078 28.6237 72.0272 28.5692 72.3506C28.499 72.7557 28.4406 73.1063 28.4211 73.4413C28.3978 73.8348 28.3549 74.201 28.3198 74.5282C28.2731 74.9216 28.2341 75.2645 28.2341 75.58C28.2303 76.1877 28.1328 76.7175 28.0549 77.146C28.0121 77.3759 27.9614 77.6641 27.9653 77.781C27.9731 78.0069 28.0199 78.3186 28.0705 78.6458C28.1328 79.0432 28.1991 79.495 28.2341 79.9976C28.3004 81.0338 27.9225 81.8635 27.5368 82.479C27.9186 83.0205 28.3043 83.7412 28.3744 84.6567C28.4406 85.541 28.1835 86.2811 27.8796 86.8655C28.4055 87.4186 28.9236 88.1783 29.0327 89.2223C29.1613 90.465 28.6354 91.4389 28.2185 92.0894C28.4289 92.5491 28.6782 93.1451 28.7795 93.8619C28.8964 94.6956 28.7678 95.424 28.6743 95.9538C28.6588 96.0473 28.6393 96.1603 28.6237 96.246C28.6666 96.3395 28.725 96.4681 28.7717 96.5693C28.986 97.0212 29.2781 97.6367 29.4184 98.3886C29.5898 99.2962 29.4457 100.079 29.3405 100.652C29.3288 100.714 29.3132 100.792 29.3015 100.858C29.3483 100.956 29.4067 101.073 29.4573 101.17C29.691 101.622 29.9793 102.183 30.1507 102.892C30.2364 103.242 30.3572 103.624 30.4858 104.033C30.5247 104.162 30.5676 104.294 30.6065 104.423C31.2259 104.847 32.231 105.556 32.6439 106.865C32.901 107.676 32.8893 108.408 32.8815 108.946C32.8815 109.055 32.8815 109.195 32.8815 109.277C33.1425 110.087 33.1269 110.823 33.1153 111.365C33.1153 111.396 33.1153 111.427 33.1153 111.458C33.1425 111.489 33.1698 111.517 33.1971 111.544C33.5711 111.945 34.0853 112.491 34.4398 113.285C34.4826 113.383 34.6618 113.624 34.7943 113.803C35.0553 114.158 35.3786 114.598 35.6552 115.147C36.0331 115.895 36.1422 116.616 36.2162 117.146C36.7499 117.465 37.49 117.94 38.0315 118.797C38.608 119.709 38.6898 120.64 38.7405 121.271C38.7833 121.306 38.8262 121.341 38.8651 121.372C39.2001 121.641 39.6053 121.968 39.991 122.42C40.0572 122.455 40.139 122.498 40.2052 122.533C40.6805 122.783 41.3973 123.153 42.0089 123.846C42.3283 124.208 42.5854 124.559 42.8074 124.867C43.0061 125.139 43.1776 125.377 43.3295 125.529C44.319 126.526 44.4514 127.781 44.5215 128.552C44.6501 128.684 44.7669 128.813 44.8799 128.934C45.1253 129.199 45.3552 129.444 45.5382 129.588C45.7058 129.721 45.8772 129.861 46.0486 129.997C46.2317 130.145 46.407 130.289 46.5823 130.43C47.4471 130.239 48.7638 130.021 50.0221 130.808C51.07 131.466 51.5452 132.467 51.8296 133.063C51.9192 133.114 52.0088 133.164 52.0945 133.219C52.4997 133.453 52.8853 133.679 53.232 133.846C53.3255 133.893 53.6255 133.963 53.8436 134.017C54.2098 134.107 54.65 134.212 55.1175 134.391C55.1915 134.391 55.2928 134.391 55.3707 134.391C55.9044 134.38 56.7068 134.364 57.5639 134.68C58.6001 135.061 59.2507 135.802 59.6675 136.32H59.687C60.135 136.32 60.7388 136.324 61.3932 136.479C61.479 136.476 61.627 136.46 61.74 136.448C62.2503 136.398 62.9475 136.328 63.7383 136.499L64.1941 136.596C64.7863 136.725 65.3433 136.846 65.8537 136.935C66.7263 137.083 67.4158 137.442 67.8755 137.679C67.9495 137.718 68.0391 137.765 68.1053 137.796C68.7169 137.87 69.2584 137.921 69.7414 137.964L70.131 137.999C70.2595 138.01 70.5478 137.999 70.801 137.983C71.249 137.96 71.8061 137.929 72.4255 137.975C73.676 138.065 74.5642 138.77 75.0939 139.191C75.1134 139.206 75.1329 139.222 75.1563 139.241H75.1602ZM115.573 112.019C115.573 112.019 115.569 112.027 115.565 112.031L115.573 112.019ZM122.749 68.9303C122.749 68.9303 122.749 68.9303 122.749 68.9341C122.749 68.9341 122.749 68.9342 122.749 68.9303Z" fill="#FFBE39"/>
<path d="M23.6245 151.668C23.2466 151.668 22.861 151.594 22.4987 151.442C21.5014 151.025 20.8314 150.102 20.7223 149.058C20.5899 148.68 20.4769 148.213 20.4341 147.551C20.3678 146.522 20.7535 145.704 21.0807 145.116C20.8859 144.773 20.6483 144.348 20.4574 143.873C20.3094 143.503 20.2003 143.137 20.1068 142.81C20.0367 142.568 19.9276 142.198 19.8653 142.081C19.7601 141.91 19.4446 141.602 19.1874 141.353C18.9615 141.135 18.7278 140.905 18.5018 140.652C18.233 140.352 17.8357 140.052 17.4539 139.763C17.2903 139.639 17.1345 139.522 16.9981 139.413C15.736 138.408 15.5256 136.569 16.5268 135.307C17.5279 134.045 19.3706 133.834 20.6327 134.835C20.7379 134.917 20.8509 135.003 20.9716 135.096C21.4975 135.494 22.2143 136.035 22.8649 136.764C22.9545 136.865 23.1025 137.009 23.2622 137.165C23.7492 137.64 24.3569 138.232 24.8477 139.027C25.3113 139.783 25.5372 140.55 25.7164 141.166C25.7749 141.372 25.8372 141.583 25.8801 141.692C25.9307 141.816 26.0632 142.05 26.18 142.257C26.2696 142.416 26.367 142.588 26.4644 142.771C26.5501 142.732 26.628 142.697 26.6709 142.669C27.1773 142.268 27.6915 141.996 28.1083 141.773C28.1434 141.754 28.1784 141.735 28.2135 141.715C28.4589 140.955 28.8836 139.795 30.0834 139.058C31.3962 138.252 32.7908 138.56 33.5388 138.723C33.5388 138.723 33.5426 138.723 33.5465 138.723C33.8621 138.595 34.1581 138.489 34.4347 138.396C34.6996 138.306 34.9295 138.228 35.1164 138.143C35.7125 137.874 36.2579 137.71 36.737 137.566C36.7526 137.562 36.7682 137.558 36.7838 137.555C37.1655 136.849 37.8628 135.654 39.3081 135.217C40.4962 134.859 41.5597 135.186 42.2882 135.502C42.7713 135.143 43.4257 134.742 44.2983 134.594C45.1982 134.442 45.9734 134.598 46.5499 134.754C47.1148 134.267 47.9835 133.616 49.2145 133.569C49.5106 133.558 49.8222 133.527 50.1533 133.491C50.6598 133.441 51.1857 133.386 51.735 133.402C53.3477 133.449 54.6177 134.789 54.5749 136.405C54.5281 138.018 53.1919 139.292 51.5713 139.245C51.4077 139.241 51.0571 139.276 50.7494 139.308C50.5624 139.327 50.3637 139.347 50.1572 139.366C49.6041 139.853 48.7159 140.601 47.4148 140.733C46.6006 140.815 45.8916 140.64 45.3891 140.504C44.9255 140.866 44.2672 141.329 43.3673 141.54C42.5765 141.723 41.8597 141.614 41.2715 141.427C40.8741 141.968 40.3093 142.518 39.4717 142.833C39.0938 142.973 38.7393 143.082 38.4238 143.176C38.0693 143.281 37.7654 143.375 37.5161 143.484C37.0837 143.678 36.6825 143.815 36.3319 143.936C36.0475 144.033 35.7748 144.126 35.619 144.208C34.8282 144.625 34.0413 144.68 33.3751 144.621C33.118 145.167 32.7285 145.759 32.0779 146.214C31.6377 146.522 31.2092 146.752 30.8625 146.935C30.6521 147.048 30.395 147.184 30.3054 147.255C29.7016 147.738 29.0861 148.006 28.6342 148.205C28.5368 148.248 28.4122 148.302 28.3343 148.337C28.0149 148.622 27.7071 148.86 27.4305 149.074C27.1851 149.261 26.9358 149.456 26.815 149.58C26.3592 150.052 26.2813 150.141 25.993 150.476L25.8567 150.636C25.2879 151.302 24.4699 151.66 23.6323 151.66L23.6245 151.668Z" fill="#3D3D3D"/>
<path d="M123.281 153.172C122.444 153.172 121.626 152.813 121.057 152.143C120.749 151.781 120.476 151.368 120.192 150.932C120.063 150.733 119.873 150.441 119.728 150.242C119.697 150.227 119.662 150.215 119.631 150.2C119.148 149.993 118.42 149.678 117.761 149.043C117.157 148.462 116.834 147.8 116.616 147.364C116.581 147.293 116.534 147.2 116.503 147.138C115.985 146.631 115.693 146.043 115.513 145.521C114.976 145.478 114.356 145.346 113.753 144.999C113.71 144.991 113.663 144.987 113.616 144.98C113.063 144.894 112.222 144.765 111.392 144.228C110.839 143.869 110.43 143.452 110.13 143.149C110.032 143.047 109.896 142.911 109.834 142.86C108.786 142.241 108.268 141.279 107.96 140.702C107.948 140.683 107.937 140.659 107.925 140.636C107.535 140.391 107.216 140.133 106.939 139.911C106.795 139.798 106.604 139.643 106.519 139.592L106.468 139.569C105.821 139.28 105.151 138.984 104.563 138.754C104.466 138.747 104.294 138.747 104.162 138.747C103.71 138.743 103.11 138.739 102.459 138.575C102.385 138.587 102.296 138.602 102.226 138.614C101.653 138.715 100.784 138.871 99.8182 138.614C99.491 138.528 99.1209 138.474 98.7313 138.419C98.3885 138.369 98.0379 138.318 97.6601 138.24C96.0824 137.909 95.0695 136.359 95.4006 134.781C95.7317 133.203 97.2822 132.19 98.8599 132.521C99.0547 132.56 99.304 132.599 99.5689 132.634C99.9818 132.693 100.48 132.767 101.022 132.892C101.08 132.88 101.147 132.868 101.205 132.86C101.84 132.747 102.787 132.576 103.858 132.892C103.944 132.895 104.103 132.899 104.22 132.899C104.828 132.903 105.658 132.911 106.558 133.258C107.317 133.55 108.096 133.893 108.848 134.228L108.926 134.263C109.639 134.578 110.173 135.007 110.605 135.354C110.757 135.478 110.991 135.661 111.076 135.708C112.233 136.296 112.787 137.321 113.114 137.936C113.137 137.979 113.161 138.026 113.188 138.069C113.675 138.408 114.033 138.774 114.31 139.058C114.353 139.101 114.399 139.148 114.442 139.195C114.466 139.195 114.489 139.202 114.512 139.206C114.968 139.276 115.599 139.374 116.261 139.697C116.281 139.697 116.304 139.697 116.32 139.697C117.068 139.678 118.314 139.643 119.425 140.523C120.192 141.131 120.562 141.902 120.772 142.556C120.971 142.307 121.174 142.101 121.345 141.921C121.407 141.855 121.493 141.77 121.548 141.707C121.98 140.757 122.631 140.157 123.071 139.756C123.141 139.693 123.231 139.608 123.281 139.561C123.881 138.645 124.465 138.006 124.968 137.477C125.1 137.336 125.233 137.107 125.377 136.865C125.658 136.386 126.039 135.731 126.737 135.229C128.046 134.282 129.873 134.578 130.815 135.887C131.672 137.071 131.513 138.68 130.504 139.674C130.476 139.72 130.449 139.767 130.422 139.814C130.176 140.235 129.802 140.87 129.206 141.497C128.829 141.894 128.49 142.268 128.143 142.802C127.777 143.367 127.344 143.768 127.029 144.056C126.959 144.119 126.873 144.2 126.815 144.259C126.518 144.905 126.106 145.396 125.767 145.759C125.883 146.199 126.024 146.771 126.008 147.418C125.989 148.1 126.113 149.319 126.187 149.81C126.382 151.099 125.7 152.366 124.512 152.907C124.123 153.086 123.71 153.172 123.301 153.172H123.281Z" fill="#3D3D3D"/>
<path d="M73.7533 35.9932C73.243 35.3816 72.0626 35.3153 71.6653 34.6804C71.2446 34.0103 70.6641 33.387 70.3486 32.7053C70.0174 31.9846 69.3513 31.3263 69.1215 30.6095C68.8799 29.8499 69.0397 28.9305 68.8916 28.1981C68.7358 27.4112 68.9539 26.562 68.8838 25.8257C68.8059 25.0077 68.9072 24.2169 68.9072 23.4962C68.9072 22.6314 68.6696 21.825 68.728 21.1549C68.8332 19.998 69.3357 19.2188 69.4019 18.9033C69.5577 18.132 69.25 17.2282 69.476 16.4958C69.7019 15.7635 69.8187 14.8948 70.1187 14.1897C70.4187 13.4846 72.1483 13.43 72.5067 12.76C72.8651 12.0899 72.2301 10.7966 72.6431 10.1616C73.0794 9.4916 74.3571 9.46043 74.8168 8.86831C75.3154 8.22554 75.1012 7.04907 75.6037 6.50369C76.1685 5.89209 76.5931 5.15582 77.1307 4.68446C77.793 4.09623 78.315 3.32101 78.8682 2.96262C79.8888 2.30816 81.4314 2.17961 81.7665 2.39776C82.121 2.63149 81.186 3.70278 80.6679 4.87924C80.4147 5.45578 80.6523 6.38683 80.3056 7.19321C80.0368 7.82429 80.0291 8.61509 79.7447 9.38642C79.4993 10.0487 78.7007 10.5668 78.4708 11.3381C78.2644 12.0276 77.2983 12.5847 77.123 13.3599C76.9594 14.065 78.4241 15.1246 78.2994 15.9037C78.1747 16.6789 77.0996 17.3022 77.0295 18.0541C76.9594 18.8059 76.3477 19.6045 76.3244 20.3602C76.301 21.116 77.2671 21.9341 77.2944 22.6898C77.3216 23.4455 77.3255 24.2402 77.3956 24.9921C77.4658 25.779 77.0294 26.6165 77.1346 27.3567C77.2476 28.1436 78.0969 28.7864 78.2371 29.5187C78.389 30.3056 79.0162 30.9406 79.1798 31.6613C79.3629 32.456 78.2838 33.5078 78.4591 34.209C78.6656 35.0193 78.876 35.7633 79.0435 36.4412C79.2577 37.3138 80.294 37.902 80.3797 38.537C80.5277 39.6355 80.0914 40.5549 79.5499 40.8471C78.9461 41.1704 78.502 39.9238 77.567 39.2849C76.8892 38.8214 75.0972 39.5576 74.4623 38.9421C73.726 38.2292 74.1623 36.4996 73.7494 36.0049L73.7533 35.9932Z" fill="#FF6666"/>
<path d="M70.0993 75.5643C70.0993 76.2967 69.776 77.029 69.6046 77.6484C69.3981 78.3847 68.6852 78.7665 68.2996 79.2456C67.8126 79.8533 67.4737 79.604 66.8192 79.604C66.1648 79.604 65.5337 80.091 65.0468 79.4794C64.6611 79.0002 64.1819 78.3964 63.9794 77.664C63.8041 77.0407 64.5325 76.2928 64.5325 75.5604C64.5325 74.828 64.3339 74.2281 64.5092 73.6048C64.7156 72.8686 64.8714 72.2881 65.2571 71.8051C65.744 71.1974 66.1687 71.5986 66.8231 71.5986C67.4776 71.5986 68.58 70.6559 69.067 71.2636C69.4526 71.7427 69.5383 72.7011 69.7409 73.4334C69.9162 74.0567 70.1032 74.8241 70.1032 75.5565L70.0993 75.5643Z" fill="#FF6666"/>
<path d="M99.0511 152.05C98.4863 152.05 97.9136 151.886 97.4111 151.544C96.7995 151.127 96.445 150.589 96.2074 150.098C95.7711 150.211 95.2646 150.289 94.7193 150.27C94.2752 150.25 93.9518 150.34 93.313 150.531L93.0013 150.624C92.0313 150.905 91.038 150.971 90.3095 151.018C90.1615 151.025 89.9744 151.041 89.842 151.053C88.7434 151.454 87.4774 151.162 86.6671 150.258C85.6932 149.171 85.6699 147.527 86.6204 146.413C86.7606 146.25 86.9242 146.063 87.0956 145.864C87.4735 145.428 87.902 144.937 88.2254 144.524C88.9227 143.628 89.8381 143.265 90.4809 143.032C90.4809 143.024 90.4887 143.012 90.4926 143.004C90.6523 142.537 90.8744 141.898 91.2834 141.259C91.4236 141.041 91.5794 140.729 91.743 140.402C91.8677 140.153 92.0041 139.876 92.1638 139.588C92.1638 139.534 92.1677 139.475 92.1716 139.428C92.1989 138.828 92.2417 137.917 92.7286 136.99C93.0442 136.386 93.4259 135.934 93.7337 135.572C93.8505 135.435 94.0103 135.245 94.0531 135.171C94.3063 134.629 94.6258 134.173 94.8868 133.811C95.0114 133.636 95.1828 133.394 95.2218 133.301C95.4477 132.747 95.7321 132.288 95.962 131.918C96.0126 131.836 96.071 131.742 96.1217 131.657C95.9814 131.01 95.775 130.044 96.11 128.949C96.4255 127.917 97.0761 127.243 97.5085 126.795C97.528 126.776 97.5475 126.756 97.5669 126.733C97.5825 126.589 97.5981 126.421 97.6137 126.25C97.6526 125.833 97.6916 125.358 97.7968 124.839C97.8942 124.352 97.9643 123.85 98.0422 123.312C98.0773 123.071 98.1084 122.833 98.1474 122.596C98.2448 121.941 98.4396 121.388 98.5915 120.944C98.6616 120.745 98.7551 120.473 98.7707 120.375C98.7707 120.297 98.7278 120.021 98.6967 119.818C98.6227 119.347 98.5291 118.758 98.5681 118.088C98.6109 117.286 98.8837 116.631 99.1758 116.106C98.6616 115.517 98.1162 114.691 98.0694 113.577C98.05 113.149 98.0539 112.748 98.0539 112.393C98.0539 111.984 98.0539 111.63 98.0305 111.33C97.8864 109.721 99.0706 108.303 100.68 108.159C102.288 108.014 103.706 109.199 103.851 110.808C103.901 111.38 103.901 111.906 103.897 112.416C103.897 112.475 103.897 112.533 103.897 112.592C104.528 113.231 105.506 114.267 105.498 115.856C105.491 117.122 104.879 118.042 104.474 118.645C104.462 118.661 104.45 118.681 104.439 118.7C104.45 118.774 104.462 118.848 104.47 118.914C104.552 119.44 104.665 120.165 104.583 120.979C104.505 121.723 104.291 122.35 104.115 122.853C104.034 123.086 103.944 123.347 103.924 123.476C103.893 123.694 103.862 123.912 103.831 124.134C103.745 124.73 103.66 125.346 103.527 126C103.488 126.203 103.461 126.479 103.438 126.772C103.391 127.278 103.34 127.855 103.18 128.486C102.927 129.495 102.331 130.204 101.891 130.671C102.023 131.322 102.168 132.276 101.801 133.297C101.552 133.99 101.213 134.543 100.94 134.987C100.816 135.186 100.68 135.412 100.633 135.521C100.344 136.226 99.9627 136.764 99.655 137.196C99.542 137.356 99.3823 137.578 99.3433 137.664C98.9966 138.404 98.5369 138.949 98.198 139.35C98.1435 139.417 98.0772 139.491 98.0227 139.561C98.0227 139.608 98.0188 139.658 98.0149 139.701C97.9838 140.332 97.9409 141.283 97.3877 142.233C97.2553 142.463 97.1229 142.728 96.9826 143.012C96.8385 143.297 96.6866 143.608 96.5074 143.924C97.0761 143.83 97.7266 143.826 98.4162 144.056C100.391 144.719 101.069 146.499 101.396 147.356C101.404 147.371 101.408 147.387 101.416 147.403C102.129 148.373 102.195 149.724 101.478 150.78C100.913 151.61 99.9939 152.058 99.0589 152.058L99.0511 152.05Z" fill="#3D3D3D"/>
<path d="M84.061 64.5242C84.061 65.6734 84.6376 66.8693 84.2714 67.7108C83.7572 68.895 82.6392 69.4755 81.7315 69.4755C80.8238 69.4755 80.0642 68.7392 79.55 67.555C79.1838 66.7096 78.8877 65.6695 78.8877 64.5203C78.8877 63.3711 78.9072 62.2102 79.2734 61.3649C79.7876 60.1806 80.8277 59.1016 81.7354 59.1016C82.643 59.1016 83.0872 60.4377 83.6014 61.6259C83.9676 62.4712 84.0649 63.3711 84.0649 64.5203L84.061 64.5242Z" fill="#3D3D3D"/>
<path d="M56.5698 64.5242C56.5698 65.6734 57.1463 66.8693 56.7801 67.7108C56.2659 68.895 55.1479 69.4755 54.2403 69.4755C53.3326 69.4755 52.5729 68.7392 52.0587 67.555C51.6925 66.7096 51.3965 65.6695 51.3965 64.5203C51.3965 63.3711 51.416 62.2102 51.7821 61.3649C52.2964 60.1806 53.3365 59.1016 54.2441 59.1016C55.1518 59.1016 55.5959 60.4377 56.1101 61.6259C56.4763 62.4712 56.5737 63.3711 56.5737 64.5203L56.5698 64.5242Z" fill="#3D3D3D"/>
<path d="M111.715 21.3848C111.856 19.472 112.67 18.6384 114.088 18.989C116.328 19.4876 116.406 21.7899 114.15 23.1417C113.032 23.839 111.645 22.7949 111.715 21.3848ZM114.01 12.7677C114.193 12.4444 114.384 12.0938 114.555 11.6965C115.015 10.7732 116.149 9.83438 116.616 9.998C116.647 10.0097 116.982 9.84607 117.637 9.47988C118.72 8.87607 119.405 8.62286 120.901 8.44366C122.861 8.1437 123.242 7.54378 122.701 5.77909C122.37 4.71949 120.874 3.88584 118.225 3.34825C117.683 3.19633 116.191 3.86636 116.028 4.33383C115.853 4.83247 114.949 5.21813 114.294 5.09736C113.616 4.92986 113.227 4.4468 113.11 3.67159C112.919 2.30814 114.123 1.15505 116.655 0.216214C117.559 -0.0642671 118.093 -0.0915375 119.37 0.251273C120.005 0.43826 120.403 0.504486 120.508 0.508382C120.788 0.500591 122.362 1.11609 122.837 1.4589L123.749 2.05492C125.003 2.87689 125.467 3.35215 125.658 4.11568C125.677 4.15853 125.728 4.31435 125.786 4.64937C125.845 4.98439 125.934 5.22592 125.977 5.4168C126.176 6.25435 126.281 6.85427 126.258 7.22824C126.246 8.06579 125.591 9.55 124.956 10.1694C124.076 11.0888 123.196 11.4121 120.987 11.7276C120.664 11.7549 120.36 11.825 120.118 11.9146C119.834 12.0276 119.277 12.3198 118.424 12.76C117.372 13.2703 117.126 13.5702 116.53 15.183C116.086 16.4646 115.545 16.9048 114.661 16.7373C113.169 16.4997 112.896 14.8636 114.01 12.7677Z" fill="#3D3D3D"/>
<path d="M48.4944 114.033C48.0269 114.033 47.4854 113.983 46.9167 113.788C46.8271 113.788 46.6908 113.788 46.5817 113.788C45.8922 113.788 44.8482 113.788 43.8158 113.211C42.9315 112.717 42.3589 112.027 41.9459 111.524C41.8524 111.411 41.7317 111.267 41.6616 111.193C41.5681 111.147 41.3889 111.065 41.2642 111.01C40.6409 110.738 39.7839 110.364 39.071 109.584C38.3347 108.778 38.027 107.874 37.801 107.212C37.7504 107.064 37.6842 106.865 37.6452 106.784C36.9635 105.65 37.0492 104.497 37.1739 103.722C36.5739 103.172 35.7598 102.28 35.6507 100.897C35.6273 100.808 35.5689 100.617 35.5299 100.488C35.3079 99.7793 34.969 98.7041 35.2144 97.5004C35.4092 96.5499 35.8611 95.7708 36.2234 95.1436C36.348 94.9293 36.4765 94.7073 36.535 94.5709C37.1193 93.2659 38.2451 92.6816 38.9191 92.3349C38.9775 92.3037 39.0476 92.2687 39.1099 92.2375C39.6086 91.6259 40.1579 91.2363 40.5747 90.9442C40.7227 90.8429 40.9019 90.7143 40.9642 90.652C41.6771 89.9352 42.3511 89.4132 42.9783 88.9574C43.025 88.9029 43.1107 88.7938 43.1731 88.7159C43.5237 88.2679 44.0379 87.6096 44.8871 87.1187C44.9378 87.0603 45.0079 86.9824 45.0624 86.92C45.5221 86.3863 46.2194 85.5839 47.3919 85.1865C47.5672 85.1281 47.7464 85.0618 47.9295 84.9956C48.584 84.758 49.328 84.4892 50.1578 84.3412C50.3253 84.31 50.5629 84.2477 50.8162 84.1814C50.9525 84.1464 51.0927 84.1074 51.2447 84.0724C51.4979 82.9699 52.1991 82.1635 52.6977 81.5909C52.7717 81.5052 52.8691 81.3961 52.947 81.2987C52.947 81.2637 52.947 81.2325 52.9431 81.2052C52.8964 80.4105 52.8185 79.0783 53.7924 77.9291C54.6494 76.9201 55.7285 76.3786 56.3089 76.0864C56.3673 76.0592 56.418 76.0319 56.4608 76.0085C57.8126 75.1788 59.5851 75.58 60.446 76.9201C61.3186 78.2797 60.9252 80.0872 59.5656 80.9559C59.3513 81.0923 59.141 81.1974 58.9384 81.3026C58.8995 81.3221 58.8527 81.3455 58.7982 81.3727C58.8099 81.9532 58.767 82.6778 58.4632 83.414C58.1905 84.0646 57.797 84.6022 57.4425 85.0346C57.6607 85.28 57.8905 85.5955 58.058 86.0124C58.4398 86.9629 58.2957 88.042 57.6802 88.8561C57.0647 89.6742 56.0674 90.1066 55.0506 90.0053C54.4897 89.9469 54.0261 89.83 53.656 89.7365C53.4963 89.6937 53.2743 89.6391 53.2003 89.6352C53.0366 89.643 52.6276 89.7482 52.2964 89.8339C51.9653 89.9196 51.5875 90.0209 51.1901 90.091C50.8473 90.1534 50.3759 90.3248 49.9202 90.4884C49.815 90.5273 49.7059 90.5663 49.6046 90.6014C49.5657 90.6481 49.5228 90.6948 49.4839 90.7377C49.1333 91.1428 48.6619 91.6882 47.9451 92.1012C47.8984 92.1596 47.8321 92.2414 47.7815 92.3076C47.4932 92.6777 47.0959 93.188 46.4843 93.6321C45.9545 94.0178 45.5416 94.3411 45.113 94.7696C44.6923 95.1903 44.2638 95.4942 43.9522 95.7162C43.847 95.7903 43.7028 95.8915 43.6366 95.9461C43.0133 96.7992 42.1758 97.2316 41.6187 97.5199C41.6109 97.5238 41.5992 97.5316 41.5875 97.5355C41.4862 97.7264 41.3811 97.9055 41.2837 98.0731C41.2097 98.2016 41.1123 98.3652 41.0383 98.5055C41.0617 98.5834 41.0889 98.6652 41.1084 98.7314C41.1902 98.9924 41.2837 99.2924 41.3577 99.6196C41.8602 100.06 42.5731 100.714 42.9315 101.774C43.2899 102.83 43.1107 103.784 42.99 104.423C43.1341 104.75 43.2393 105.062 43.3328 105.331C43.3562 105.405 43.3873 105.494 43.4185 105.58C43.4808 105.607 43.5431 105.634 43.5977 105.658C44.0768 105.864 44.6689 106.125 45.2494 106.577C45.7636 106.978 46.1415 107.434 46.4414 107.796C46.4804 107.843 46.5232 107.894 46.5661 107.948C47.092 107.948 47.8166 107.948 48.5918 108.194C48.6697 108.19 48.7671 108.182 48.845 108.174C49.3631 108.131 50.0682 108.073 50.8785 108.256C52.4523 108.614 53.4379 110.18 53.0756 111.754C52.725 113.297 51.2135 114.275 49.6708 113.971C49.589 113.971 49.441 113.986 49.328 113.994C49.0904 114.014 48.81 114.037 48.4944 114.037V114.033ZM35.6468 100.827C35.6468 100.827 35.6468 100.835 35.6468 100.839C35.6468 100.839 35.6468 100.831 35.6468 100.827ZM56.4258 76.0163C56.4258 76.0163 56.4063 76.028 56.3985 76.0319C56.4063 76.0241 56.418 76.0202 56.4258 76.0163Z" fill="#3D3D3D"/>
</svg>
