<svg width="32" height="32" viewBox="0 0 32 32" fill="none" xmlns="http://www.w3.org/2000/svg">
<path fill-rule="evenodd" clip-rule="evenodd" d="M15.1579 0C8.9568 0 3.92982 5.02697 3.92982 11.2281V17.6329C1.59667 18.8289 0 21.2581 0 24.0602C0 25.6547 1.29265 26.9474 2.88722 26.9474H27.4286C29.0231 26.9474 30.3158 25.6547 30.3158 24.0602C30.3158 21.2581 28.7191 18.8289 26.386 17.6329V11.2281C26.386 5.02698 21.359 0 15.1579 0Z" fill="#FF6666" fill-opacity="0.2"/>
<path fill-rule="evenodd" clip-rule="evenodd" d="M5.61404 17.6329C5.61404 18.2647 5.2604 18.8434 4.69813 19.1316C2.9052 20.0508 1.68421 21.9143 1.68421 24.0602C1.68421 24.7246 2.22282 25.2632 2.88722 25.2632H27.4286C28.093 25.2632 28.6316 24.7246 28.6316 24.0602C28.6316 21.9143 27.4106 20.0507 25.6177 19.1316C25.0554 18.8434 24.7018 18.2647 24.7018 17.6329V11.2281C24.7018 5.95714 20.4288 1.68421 15.1579 1.68421C9.88696 1.68421 5.61404 5.95714 5.61404 11.2281V17.6329ZM3.92982 11.2281C3.92982 5.02697 8.9568 0 15.1579 0C21.359 0 26.386 5.02698 26.386 11.2281V17.6329C28.7191 18.8289 30.3158 21.2581 30.3158 24.0602C30.3158 25.6547 29.0231 26.9474 27.4286 26.9474H2.88722C1.29265 26.9474 0 25.6547 0 24.0602C0 21.2581 1.59667 18.8289 3.92982 17.6329V11.2281Z" fill="#FF6666"/>
<rect x="18.5264" width="13.4737" height="13.4737" rx="6.73684" fill="#FF6666"/>
<path d="M25.4092 10.0977C23.9443 10.0977 22.8994 9.30664 22.8604 8.1543H23.9541C23.9932 8.7793 24.6084 9.16992 25.3994 9.16992C26.249 9.16992 26.874 8.70117 26.874 8.01758C26.874 7.32422 26.2881 6.81641 25.2822 6.81641H24.6768V5.9375H25.2822C26.083 5.9375 26.6494 5.48828 26.6494 4.81445C26.6494 4.16992 26.1709 3.73047 25.4189 3.73047C24.7061 3.73047 24.0811 4.12109 24.0518 4.76562H23.0166C23.0459 3.61328 24.1104 2.83203 25.4287 2.83203C26.8154 2.83203 27.6943 3.71094 27.6846 4.75586C27.6943 5.55664 27.1963 6.14258 26.4346 6.32812V6.37695C27.4014 6.51367 27.958 7.1582 27.958 8.05664C27.958 9.23828 26.874 10.0977 25.4092 10.0977Z" fill="white"/>
<path fill-rule="evenodd" clip-rule="evenodd" d="M10.393 25.2632C10.2068 25.79 10.1055 26.3569 10.1055 26.9474C10.1055 29.7379 12.3676 32 15.1581 32C17.9486 32 20.2107 29.7379 20.2107 26.9474C20.2107 26.3569 20.1094 25.79 19.9232 25.2632H10.393Z" fill="#FF6666" fill-opacity="0.2"/>
<path fill-rule="evenodd" clip-rule="evenodd" d="M10.393 25.2632C10.2068 25.79 10.1055 26.3569 10.1055 26.9474C10.1055 29.7379 12.3676 32 15.1581 32C17.9486 32 20.2107 29.7379 20.2107 26.9474C20.2107 26.3569 20.1094 25.79 19.9232 25.2632H10.393ZM18.5265 26.9474H11.7897C11.7897 28.8077 13.2978 30.3158 15.1581 30.3158C17.0184 30.3158 18.5265 28.8077 18.5265 26.9474Z" fill="#FF6666"/>
</svg>
