<svg width="20" height="20" viewBox="0 0 20 20" fill="none" xmlns="http://www.w3.org/2000/svg">
<path fill-rule="evenodd" clip-rule="evenodd" d="M9.86035 0C6.17845 0 3.19368 2.98477 3.19368 6.66667V10.4695C1.80837 11.1797 0.860352 12.622 0.860352 14.2857C0.860352 15.2325 1.62786 16 2.57464 16H17.1461C18.0928 16 18.8604 15.2325 18.8604 14.2857C18.8604 12.622 17.9123 11.1797 16.527 10.4695V6.66667C16.527 2.98477 13.5423 0 9.86035 0Z" fill="#FF6666" fill-opacity="0.2"/>
<path fill-rule="evenodd" clip-rule="evenodd" d="M4.19368 10.4695C4.19368 10.8447 3.98371 11.1883 3.64987 11.3594C2.58531 11.9051 1.86035 13.0116 1.86035 14.2857C1.86035 14.6802 2.18015 15 2.57464 15H17.1461C17.5406 15 17.8604 14.6802 17.8604 14.2857C17.8604 13.0116 17.1354 11.9051 16.0708 11.3594C15.737 11.1883 15.527 10.8447 15.527 10.4695V6.66667C15.527 3.53705 12.99 1 9.86035 1C6.73074 1 4.19368 3.53705 4.19368 6.66667V10.4695ZM3.19368 6.66667C3.19368 2.98477 6.17845 0 9.86035 0C13.5423 0 16.527 2.98477 16.527 6.66667V10.4695C17.9123 11.1797 18.8604 12.622 18.8604 14.2857C18.8604 15.2325 18.0928 16 17.1461 16H2.57464C1.62786 16 0.860352 15.2325 0.860352 14.2857C0.860352 12.622 1.80837 11.1797 3.19368 10.4695V6.66667Z" fill="#FF6666"/>
<path fill-rule="evenodd" clip-rule="evenodd" d="M7.03106 15C6.92051 15.3128 6.86035 15.6494 6.86035 16C6.86035 17.6569 8.2035 19 9.86035 19C11.5172 19 12.8604 17.6569 12.8604 16C12.8604 15.6494 12.8002 15.3128 12.6896 15H7.03106Z" fill="#FF6666" fill-opacity="0.2"/>
<path fill-rule="evenodd" clip-rule="evenodd" d="M7.03106 15C6.92051 15.3128 6.86035 15.6494 6.86035 16C6.86035 17.6569 8.2035 19 9.86035 19C11.5172 19 12.8604 17.6569 12.8604 16C12.8604 15.6494 12.8002 15.3128 12.6896 15H7.03106ZM11.8604 16H7.86035C7.86035 17.1046 8.75578 18 9.86035 18C10.9649 18 11.8604 17.1046 11.8604 16Z" fill="#FF6666"/>
</svg>
