<svg width="38" height="38" viewBox="0 0 38 38" fill="none" xmlns="http://www.w3.org/2000/svg">
<rect width="38" height="38" rx="8" fill="white"/>
<path d="M34.2073 20.7915C34.2073 21.4342 33.8074 21.9154 33.4584 22.2638C33.006 22.7154 32.4325 22.7738 31.9835 22.7738C31.5862 22.7738 31.4083 22.8363 31.1821 22.9158C31.0796 22.9522 30.9661 22.9919 30.8331 23.0275C30.8416 23.0883 30.8509 23.1492 30.8568 23.2135C30.9043 23.6828 30.9576 24.2148 30.7247 24.7746C30.3638 25.6431 29.7174 26.3644 29.3633 26.7171C28.9008 27.1797 28.2781 27.4097 27.7292 27.6135C27.5758 27.6701 27.431 27.7234 27.2954 27.7801C27.1489 27.8401 26.9922 27.9179 26.8261 28C26.3161 28.2503 25.7384 28.5353 25.0793 28.5353C24.6057 28.5353 24.3533 28.504 24.1313 28.4769C23.9272 28.4524 23.734 28.4287 23.3376 28.4287C22.7861 28.4287 22.4421 28.2401 22.1914 28.1023C22.0753 28.0388 22.0109 28.0042 21.9508 27.9932C21.5628 28.6714 20.9961 29.4638 20.6259 29.8333C20.492 29.9661 20.3624 30.1133 20.226 30.2697C19.9261 30.6097 19.6169 30.9606 19.2213 31.2168C18.774 31.5061 18.2725 31.616 17.8701 31.7048C17.6727 31.7479 17.4855 31.7894 17.3474 31.8418C16.8501 32.0304 16.3283 32.1944 15.8827 32.1944C15.515 32.1944 15.1999 32.0828 14.9932 31.7809C14.6492 31.2777 14.983 30.7856 15.227 30.4253C15.4803 30.0532 15.8268 29.5424 16.0148 28.7137C16.0665 28.4862 16.1038 28.2883 16.1284 28.1175C15.9437 28.1116 15.8039 28.1268 15.6243 28.1471C15.3964 28.1725 15.1126 28.2046 14.6611 28.2046C14.1799 28.2046 13.9571 28.2393 13.6988 28.279C13.4277 28.3213 13.121 28.3687 12.5416 28.3687C11.5877 28.3687 10.8329 28.2486 10.2339 28.0008C9.65279 27.7598 8.8336 27.3463 8.23043 26.7441C7.63574 26.1513 7.22064 25.3277 6.9775 24.7416C6.7564 24.2105 6.70218 23.5492 6.68948 22.9344C6.67931 22.9395 6.66999 22.9429 6.65983 22.948C6.52598 23.0131 6.44211 23.0858 6.415 23.1154C6.24388 23.304 5.82962 23.216 5.63732 23.216C4.43353 23.216 3.80325 21.9966 3.80325 20.7915C3.80325 20.7222 3.80071 20.6554 3.79817 20.5911C3.78462 20.2359 3.76683 19.7497 4.18023 19.337C4.21497 19.3023 4.25139 19.2643 4.28867 19.2254C4.57754 18.9243 5.01552 18.4693 5.63732 18.4693C6.16255 18.4693 6.45905 18.5175 6.70981 18.564C6.80723 18.2393 6.93006 17.9163 7.04443 17.6169C7.13423 17.381 7.21894 17.1594 7.28248 16.9615C7.35364 16.7366 7.38498 16.4685 7.41802 16.1844C7.4697 15.7362 7.529 15.2288 7.77467 14.7679C8.10251 14.1522 8.5354 13.6085 8.95389 13.0825L9.06995 12.937C9.55367 12.3264 10.1611 11.792 10.649 11.3632C11.0404 11.0191 11.5089 10.8296 11.9223 10.663C12.1773 10.5607 12.417 10.4634 12.6203 10.3417C12.8118 10.2267 13.0032 10.0355 13.2066 9.83259C13.531 9.51039 13.8978 9.14506 14.401 8.95563C14.9898 8.73322 15.6141 8.62583 16.2173 8.52266C16.3418 8.50067 16.4655 8.47953 16.5884 8.45754C16.79 8.42118 16.9925 8.39581 17.1949 8.37636C17.1263 8.15733 17.089 7.91209 17.089 7.64147C17.089 6.50913 17.7481 5.80554 18.8104 5.80554C19.927 5.80554 20.6767 6.54296 20.6767 7.64147C20.6767 7.86558 20.6436 8.0753 20.5835 8.26811C20.7411 8.27741 20.8995 8.29263 21.0571 8.32139C21.6289 8.42456 22.1516 8.64105 22.6565 8.84993C22.8386 8.92519 23.0106 8.99623 23.1808 9.0605C23.6857 9.25077 24.1008 9.54506 24.5024 9.83005C24.7006 9.97043 24.8878 10.1032 25.0768 10.2165C25.2521 10.3222 25.4334 10.4203 25.6257 10.5243C26.0747 10.767 26.5398 11.0182 26.9549 11.3835C27.1277 11.5349 27.3285 11.6804 27.5411 11.8334C27.9418 12.1218 28.3552 12.4203 28.6831 12.8338C29.1778 13.4579 29.5861 14.1844 29.8868 14.7467C30.185 15.3066 30.5586 16.0474 30.8026 16.8144C30.9602 17.3091 30.9737 17.8478 30.9856 18.3687C30.9898 18.5226 30.9932 18.6706 31.0008 18.8118C31.2397 18.789 31.5083 18.7679 31.9835 18.7679C33.2102 18.7679 34.2073 19.6753 34.2073 20.7915ZM32.9366 20.7915C32.9366 20.7044 32.8908 20.6418 31.9835 20.0363C31.9835 20.0363 31.7811 19.901 31.3965 19.7344C31.3965 19.7344 31.2016 19.6499 31.0576 19.6499C30.9424 19.6617 30.7636 19.6846 30.5493 19.7344C30.0207 19.8562 29.9504 19.9805 29.6632 19.9611C29.415 19.945 29.1659 19.8292 28.9872 19.7497C28.7635 19.6516 28.5873 19.5738 28.2646 19.5738C27.8605 19.5738 27.6868 19.6414 27.4471 19.7353C27.1633 19.8469 26.81 19.9856 26.1645 19.9856C25.624 19.9856 25.3495 19.9721 25.0835 19.9602C24.8218 19.9476 24.5735 19.9357 24.0636 19.9357C23.4663 19.9357 23.1495 19.863 22.8708 19.7987C22.6268 19.7421 22.4159 19.6939 21.9626 19.6939C21.5094 19.6939 21.29 19.7387 21.0427 19.7903C20.7665 19.8478 20.453 19.9129 19.8626 19.9129C19.3916 19.9129 19.1738 19.9509 18.9206 19.9949C18.6495 20.0414 18.3411 20.0947 17.7617 20.0947C17.1822 20.0947 16.8815 20.0465 16.6121 20.0042C16.3562 19.9645 16.136 19.9298 15.6607 19.9298C15.094 19.9298 14.806 19.8926 14.5281 19.8562C14.279 19.8241 14.0435 19.7928 13.5598 19.7928C13.1142 19.7928 12.9067 19.8461 12.6661 19.9078C12.384 19.9797 12.0638 20.0617 11.4581 20.0617C10.9091 20.0617 10.6295 20.0397 10.3593 20.0194C10.1018 19.9991 9.8578 19.9805 9.35713 19.9805C9.01912 19.9805 8.79632 20.0228 8.5803 20.0634C8.38715 20.0989 8.19146 20.1361 7.95596 20.1361C7.69419 20.1361 7.38329 20.0905 6.97327 19.9467L6.70303 19.852C6.64373 19.8418 6.58782 19.8317 6.5336 19.8215C6.29301 19.7767 6.08546 19.7378 5.63732 19.7378C5.54414 19.7514 5.31541 19.989 5.20612 20.104C5.16207 20.1488 5.11972 20.1928 5.07905 20.2334C5.05787 20.2782 5.0638 20.4389 5.06804 20.5446C5.07058 20.6241 5.07397 20.7061 5.07397 20.7915C5.07397 21.3378 5.30524 21.9475 5.63732 21.9475C5.81014 21.9475 5.93382 21.9315 6.04141 21.9027C6.18034 21.8655 6.28623 21.8148 6.3413 21.786C6.35994 21.7767 6.37349 21.7691 6.37688 21.7674C6.46413 21.7184 6.73183 21.6592 7.42226 21.5949C7.529 21.5746 7.75773 21.5332 8.03559 21.5704C8.32785 21.6093 8.56844 21.7209 8.73957 21.8012C8.96237 21.9053 9.13857 21.9881 9.45371 21.9881C10.0162 21.9881 10.3017 22.027 10.5787 22.0642C10.8235 22.0972 11.0557 22.1285 11.5326 22.1285C12.0417 22.1285 12.2883 22.1201 12.55 22.1108C12.8109 22.1023 13.0812 22.093 13.6115 22.093C14.0588 22.093 14.2663 22.0448 14.5078 21.989C14.7848 21.9247 15.0982 21.852 15.6904 21.852C16.175 21.852 16.4105 21.8258 16.6595 21.7987C16.9323 21.7683 17.2144 21.737 17.7701 21.737C18.4046 21.737 18.752 21.8664 19.0315 21.9704C19.2713 22.0592 19.4441 22.1234 19.849 22.1234C20.3582 22.1234 20.6047 22.115 20.8664 22.1057C21.1274 22.0964 21.3976 22.0871 21.9288 22.0871C22.4599 22.0871 22.7039 22.082 22.9564 22.0778C23.2156 22.0727 23.4824 22.0676 24.0077 22.0676C24.5329 22.0676 24.8268 22.0879 25.0937 22.1065C25.3487 22.1251 25.5901 22.1429 26.0874 22.1429C26.4576 22.1429 26.6008 22.0651 26.8371 21.9374C27.1209 21.7843 27.4742 21.5932 28.1282 21.5636C28.5882 21.5433 28.8838 21.5594 29.143 21.611C29.5726 21.6972 29.5336 21.7877 29.8326 21.83C30.3375 21.901 30.7103 21.6879 30.9153 21.6499C31.0246 21.6169 31.1237 21.5957 31.2101 21.5839C31.3719 21.5611 31.5235 21.5053 31.9835 21.5053C32.347 21.5053 32.4774 21.4494 32.5604 21.3666C32.6536 21.2736 32.9366 20.9911 32.9366 20.7915ZM29.7233 18.6799C29.72 18.586 29.7174 18.4922 29.7157 18.3991C29.7056 17.967 29.6945 17.5205 29.592 17.1983C29.3786 16.5294 29.038 15.8554 28.7644 15.3429C28.4899 14.8279 28.1189 14.1658 27.6868 13.6203C27.4682 13.3455 27.1421 13.1104 26.7973 12.8617C26.5694 12.6977 26.3339 12.5277 26.1154 12.3349C25.8078 12.0651 25.4249 11.8588 25.02 11.6389C24.8243 11.5332 24.621 11.4233 24.4211 11.3032C24.1906 11.1645 23.9746 11.0114 23.7662 10.8643C23.4155 10.6148 23.0834 10.3797 22.7319 10.247C22.5429 10.1759 22.3532 10.0973 22.1702 10.022C21.706 9.83005 21.268 9.64908 20.8309 9.56958C20.4641 9.50362 20.0447 9.53068 19.6 9.56028C19.3441 9.5772 19.079 9.59411 18.8104 9.59411H18.7655C18.0751 9.59411 17.4236 9.5958 16.8154 9.70574C16.6892 9.72857 16.5613 9.75056 16.4333 9.77254C15.8632 9.87064 15.3253 9.96282 14.8492 10.1421C14.6018 10.2351 14.3604 10.4761 14.1037 10.7315C13.8563 10.9785 13.5996 11.2338 13.276 11.4284C12.9872 11.6017 12.6881 11.7226 12.3984 11.8393C12.0485 11.9806 11.7181 12.1142 11.4886 12.3155C11.0158 12.7315 10.4788 13.2025 10.0662 13.7243L9.94929 13.8715C9.56553 14.3527 9.16992 14.8507 8.89629 15.3641C8.76329 15.6127 8.72262 15.9611 8.68027 16.3307C8.64214 16.6613 8.60233 17.0038 8.49305 17.3455C8.41934 17.5772 8.32785 17.8165 8.23128 18.0693C8.12962 18.3366 8.02542 18.6089 7.94494 18.8676H7.94833C8.07286 18.8676 8.19062 18.8457 8.34564 18.8161C8.59301 18.7704 8.90052 18.712 9.35713 18.712C9.90693 18.712 10.1865 18.734 10.4559 18.7543C10.7143 18.7746 10.9574 18.7932 11.4581 18.7932C11.9037 18.7932 12.1112 18.7399 12.3518 18.6782C12.6339 18.6063 12.9541 18.5243 13.5598 18.5243C14.1257 18.5243 14.4137 18.5624 14.6916 18.5979C14.9407 18.6309 15.1762 18.6613 15.6607 18.6613C16.2351 18.6613 16.5409 18.7087 16.8095 18.7518C17.0653 18.7915 17.2856 18.8262 17.7617 18.8262C18.2378 18.8262 18.4504 18.7881 18.7028 18.745C18.9748 18.6977 19.2823 18.6444 19.8626 18.6444C20.3217 18.6444 20.5352 18.5996 20.7826 18.548C21.0587 18.4905 21.3722 18.4254 21.9626 18.4254C22.5531 18.4254 22.8767 18.4981 23.1563 18.5624C23.4003 18.619 23.6112 18.6672 24.0636 18.6672C24.604 18.6672 24.8785 18.6799 25.1437 18.6926C25.4063 18.7053 25.6545 18.7171 26.1645 18.7171C26.5694 18.7171 26.7422 18.6486 26.982 18.5547C27.2666 18.444 27.6199 18.3053 28.2646 18.3053C28.8559 18.3053 29.2286 18.4693 29.5014 18.5903C29.5903 18.6292 29.6598 18.6596 29.7233 18.6799ZM29.5514 24.2892C29.6615 24.0236 29.631 23.7217 29.5929 23.3395C29.5844 23.2592 29.5759 23.1746 29.5683 23.0867C29.4989 23.0604 29.4362 23.0368 29.3786 23.0148C28.9406 22.8473 28.8237 22.8025 28.1849 22.8313C27.8224 22.8473 27.6631 22.9336 27.442 23.0528C27.1472 23.2127 26.7795 23.4114 26.0874 23.4114C25.5452 23.4114 25.2691 23.3911 25.0022 23.3716C24.7464 23.3539 24.5049 23.3361 24.0077 23.3361C23.5104 23.3361 23.2325 23.3412 22.9801 23.3454C22.7217 23.3505 22.454 23.3556 21.9288 23.3556C21.4035 23.3556 21.1731 23.364 20.9113 23.3733C20.6504 23.3826 20.3802 23.3919 19.849 23.3919C19.2145 23.3919 18.8672 23.2625 18.5876 23.1585C18.3479 23.0697 18.1751 23.0055 17.7701 23.0055C17.2856 23.0055 17.0501 23.0317 16.8001 23.0587C16.5274 23.0892 16.2461 23.1205 15.6904 23.1205C15.2431 23.1205 15.0355 23.1687 14.795 23.2245C14.5179 23.2888 14.2037 23.3615 13.6115 23.3615C13.1032 23.3615 12.8558 23.3699 12.5941 23.3784C12.3332 23.3877 12.0638 23.397 11.5326 23.397C10.9701 23.397 10.6846 23.3581 10.4076 23.3209C10.1619 23.2879 9.93065 23.2566 9.45371 23.2566C8.85478 23.2566 8.4761 23.079 8.19909 22.9488C8.10082 22.9031 8.02712 22.8685 7.9585 22.8473C7.96782 23.3547 8.00509 23.9044 8.1508 24.2562C8.4329 24.9344 8.78023 25.4993 9.12841 25.8477C9.48421 26.2021 10.0493 26.5505 10.721 26.8287C11.1565 27.0088 11.769 27.1002 12.5416 27.1002C13.0227 27.1002 13.2455 27.0655 13.5039 27.0257C13.775 26.9835 14.0817 26.9361 14.6611 26.9361C15.0415 26.9361 15.266 26.9107 15.4828 26.8862C15.665 26.8659 15.8344 26.8473 16.0479 26.8473C16.2614 26.8473 16.524 26.8668 16.8874 26.9243C17.1754 26.9699 17.3957 27.2059 17.4211 27.4959C17.4541 27.8773 17.4025 28.3399 17.2542 28.9944C17.0721 29.7978 16.7637 30.3813 16.5062 30.7923C16.618 30.7568 16.7468 30.7128 16.8959 30.6562C17.1212 30.5708 17.3635 30.5175 17.5973 30.4659C17.9311 30.3923 18.2759 30.3171 18.53 30.1522C18.7782 29.9915 19.018 29.72 19.2713 29.4317C19.4153 29.2676 19.5652 29.0985 19.727 28.9361C20.0286 28.635 20.6259 27.8004 20.9732 27.134C21.0486 26.9902 21.1765 26.8803 21.3307 26.827C22.0524 26.5792 22.504 26.827 22.8022 26.9902C22.9885 27.0926 23.1122 27.1602 23.3376 27.1602C23.812 27.1602 24.0636 27.1906 24.2855 27.2177C24.4897 27.2431 24.6828 27.2668 25.0793 27.2668C25.4419 27.2668 25.8595 27.0613 26.2636 26.8617C26.4407 26.7746 26.6236 26.6841 26.8083 26.608C26.9667 26.5429 27.1294 26.482 27.287 26.4236C27.7351 26.2579 28.1985 26.0862 28.4645 25.8198C28.9533 25.3327 29.3489 24.7746 29.5514 24.2892ZM19.406 7.64147C19.406 7.39792 19.3441 7.07404 18.8104 7.07404C18.5783 7.07404 18.3597 7.07404 18.3597 7.64147C18.3597 8.24612 18.6097 8.24612 18.8104 8.24612C19.206 8.24612 19.406 8.04316 19.406 7.64147Z" fill="#FF6666"/>
<path d="M31.9173 20.1138C32.82 20.6936 32.8655 20.7535 32.8655 20.8369C32.8655 21.028 32.584 21.2985 32.4912 21.3875C32.4086 21.4669 32.2789 21.5203 31.9173 21.5203C31.4596 21.5203 31.3088 21.5738 31.1478 21.5956C31.0618 21.607 30.9632 21.6272 30.8545 21.6588C30.6505 21.6952 30.2797 21.8993 29.7773 21.8313C29.4798 21.7908 29.5186 21.7041 29.0913 21.6216C28.8334 21.5722 28.5392 21.5568 28.0816 21.5762C27.4309 21.6046 27.0794 21.7876 26.7971 21.9341C26.5619 22.0564 26.4195 22.1309 26.0512 22.1309C25.5564 22.1309 25.3162 22.1139 25.0625 22.0961C24.797 22.0782 24.5223 22.0588 23.982 22.0588C23.4418 22.0588 23.194 22.0637 22.9361 22.0685C22.6849 22.0726 22.4253 22.0774 21.9137 22.0774C21.4021 22.0774 21.1164 22.0863 20.8568 22.0953C20.5964 22.1042 20.3511 22.1123 19.8446 22.1123C19.4417 22.1123 19.2698 22.0507 19.0312 21.9657C18.7531 21.8661 18.4076 21.7422 17.7763 21.7422C17.2234 21.7422 16.9427 21.7722 16.6713 21.8013C16.4235 21.8272 16.1892 21.8523 15.7071 21.8523C15.118 21.8523 14.8061 21.922 14.5305 21.9835C14.2903 22.0369 14.0838 22.0831 13.6388 22.0831C13.1112 22.0831 12.8423 22.092 12.5827 22.1001C12.3223 22.109 12.077 22.1171 11.5705 22.1171C11.096 22.1171 10.8651 22.0872 10.6215 22.0556C10.3459 22.0199 10.0618 21.9827 9.5022 21.9827C9.18867 21.9827 9.01336 21.9033 8.7917 21.8037C8.62144 21.7268 8.38208 21.6199 8.0913 21.5827C7.81486 21.5471 7.58729 21.5867 7.48109 21.6062C6.79419 21.6677 6.52785 21.7244 6.44104 21.7714C6.43767 21.773 6.42418 21.7803 6.40564 21.7892C6.35086 21.8167 6.2455 21.8653 6.10728 21.9009C6.00024 21.9284 5.87719 21.9438 5.70525 21.9438C5.37486 21.9438 5.14477 21.36 5.14477 20.8369C5.14477 20.7551 5.1414 20.6766 5.13887 20.6005C5.13465 20.4993 5.12875 20.3454 5.14982 20.3025C5.19028 20.2636 5.23242 20.2215 5.27625 20.1786C5.38497 20.0685 5.61254 19.8409 5.70525 19.828C6.15111 19.828 6.3576 19.8652 6.59696 19.9082C6.65091 19.9179 6.70653 19.9276 6.76553 19.9373L7.03439 20.028C7.44232 20.1656 7.75164 20.2094 8.01208 20.2094C8.24638 20.2094 8.44108 20.1737 8.63324 20.1397C8.84817 20.1009 9.06983 20.0604 9.40612 20.0604C9.90423 20.0604 10.147 20.0782 10.4032 20.0976C10.6721 20.1171 10.9502 20.1381 11.4963 20.1381C12.099 20.1381 12.4176 20.0596 12.6982 19.9907C12.9376 19.9316 13.1441 19.8806 13.5874 19.8806C14.0687 19.8806 14.303 19.9106 14.5508 19.9414C14.8272 19.9762 15.1138 20.0118 15.6776 20.0118C16.1504 20.0118 16.3696 20.045 16.6241 20.0831C16.8921 20.1235 17.1956 20.1697 17.7678 20.1697C18.3401 20.1697 18.6511 20.1187 18.9208 20.0741C19.1728 20.032 19.3894 19.9956 19.8581 19.9956C20.4455 19.9956 20.7574 19.9333 21.0321 19.8782C21.2782 19.8288 21.4906 19.7859 21.9474 19.7859C22.4043 19.7859 22.6082 19.832 22.851 19.8863C23.1282 19.9478 23.4435 20.0175 24.0377 20.0175C24.545 20.0175 24.792 20.0288 25.0524 20.0409C25.3171 20.0523 25.5902 20.0652 26.1279 20.0652C26.7701 20.0652 27.1216 19.9324 27.4039 19.8256C27.6424 19.7357 27.8152 19.6709 28.2173 19.6709C28.5384 19.6709 28.7137 19.7454 28.9362 19.8393C29.114 19.9154 29.3618 20.0264 29.6088 20.0418C29.8945 20.0604 29.9644 19.9414 30.4904 19.8247C30.7036 19.777 30.8814 19.7551 30.9961 19.7438C31.1393 19.7438 31.3332 19.8247 31.3332 19.8247C31.7158 19.9843 31.9173 20.1138 31.9173 20.1138Z" fill="white"/>
<path d="M29.727 18.5288C29.7286 18.6223 29.7312 18.7167 29.7346 18.8111C29.6713 18.7907 29.6021 18.7601 29.5135 18.721C29.2418 18.5994 28.8705 18.4343 28.2815 18.4343C27.6394 18.4343 27.2875 18.5738 27.004 18.6853C26.7652 18.7797 26.5931 18.8486 26.1897 18.8486C25.6818 18.8486 25.4345 18.8367 25.1729 18.8239C24.9088 18.8111 24.6354 18.7984 24.0971 18.7984C23.6465 18.7984 23.4364 18.7499 23.1934 18.6929C22.9149 18.6283 22.6002 18.5551 22.0044 18.5551C21.4087 18.5551 21.1041 18.6206 20.829 18.6785C20.5826 18.7303 20.37 18.7754 19.9127 18.7754C19.3346 18.7754 19.0283 18.829 18.7575 18.8766C18.506 18.92 18.2883 18.9583 17.82 18.9583C17.3517 18.9583 17.1264 18.9234 16.8716 18.8834C16.6041 18.8401 16.2995 18.7924 15.7274 18.7924C15.2447 18.7924 15.0101 18.7618 14.7621 18.7286C14.4853 18.6929 14.1984 18.6546 13.6347 18.6546C13.0314 18.6546 12.7125 18.7371 12.4315 18.8094C12.1918 18.8715 11.9851 18.9251 11.5413 18.9251C11.0426 18.9251 10.8004 18.9064 10.543 18.886C10.2747 18.8656 9.99625 18.8435 9.44862 18.8435C8.99381 18.8435 8.6875 18.9021 8.44111 18.9481C8.2867 18.9778 8.16941 19 8.04537 19H8.04199C8.12215 18.7397 8.22594 18.4658 8.3272 18.197C8.42339 17.9427 8.51452 17.702 8.58793 17.469C8.69679 17.1254 8.73644 16.7809 8.77442 16.4483C8.81661 16.0767 8.85711 15.7262 8.98959 15.4762C9.26214 14.9599 9.65619 14.4589 10.0384 13.975L10.1549 13.827C10.5658 13.3022 11.1008 12.8285 11.5716 12.41C11.8003 12.2076 12.1294 12.0732 12.4779 11.9312C12.7665 11.8138 13.0643 11.6922 13.3521 11.5178C13.6744 11.3222 13.9301 11.0653 14.1765 10.817C14.4321 10.5601 14.6726 10.3177 14.919 10.2241C15.3932 10.0438 15.929 9.95111 16.4969 9.85245C16.6243 9.83034 16.7518 9.80822 16.8775 9.78526C17.4833 9.67469 18.1322 9.67299 18.8199 9.67299H18.8646C19.1321 9.67299 19.3962 9.65598 19.6511 9.63897C20.0941 9.6092 20.5118 9.58198 20.8771 9.64832C21.3125 9.72827 21.7488 9.91029 22.2112 10.1034C22.3934 10.1791 22.5825 10.2582 22.7706 10.3296C23.1208 10.4631 23.4516 10.6996 23.8009 10.9505C24.0085 11.0985 24.2237 11.2524 24.4532 11.3919C24.6523 11.5127 24.8548 11.6233 25.0497 11.7296C25.4531 11.9507 25.8345 12.1583 26.1408 12.4296C26.3585 12.6235 26.5931 12.7945 26.82 12.9595C27.1635 13.2095 27.4883 13.446 27.706 13.7224C28.1364 14.271 28.506 14.9369 28.7794 15.4549C29.0519 15.9703 29.3911 16.6482 29.6038 17.321C29.7059 17.6451 29.7168 18.0941 29.727 18.5288ZM16.1054 11.9193C16.1054 11.5671 15.9662 11.2779 15.616 11.2779C15.2658 11.2779 14.7038 11.5671 14.7038 11.9193C14.7038 12.2714 15.2667 12.746 15.616 12.746C15.9653 12.746 16.1054 12.2714 16.1054 11.9193ZM14.0541 13.5285C14.3418 13.3277 14.4136 12.9305 14.2144 12.6414C14.0153 12.3513 13.6212 12.279 13.3335 12.4798C13.2095 12.5665 13.0441 12.6592 12.8686 12.7587C12.38 13.0343 11.7716 13.3771 11.256 13.9869C10.7185 14.6223 10.5152 15.3222 10.3515 15.8844C10.2882 16.103 10.2274 16.3106 10.1616 16.4535C10.0148 16.7733 10.1532 17.1526 10.4705 17.3006C10.5565 17.3406 10.6468 17.3601 10.7363 17.3601C10.9751 17.3601 11.2037 17.2223 11.3109 16.9893C11.4155 16.7605 11.4889 16.5087 11.5666 16.2434C11.7092 15.7509 11.8577 15.2423 12.2197 14.8145C12.5876 14.3781 13.0652 14.1094 13.4862 13.8721C13.6887 13.7581 13.8803 13.6501 14.0541 13.5285Z" fill="white"/>
<path d="M29.6996 23.3234C29.7378 23.7095 29.7683 24.0145 29.658 24.2828C29.4554 24.7732 29.0593 25.337 28.57 25.8291C28.3037 26.0983 27.8398 26.2717 27.3912 26.4391C27.2335 26.4981 27.0706 26.5596 26.912 26.6254C26.7272 26.7023 26.544 26.7937 26.3667 26.8817C25.9622 27.0833 25.5441 27.2909 25.1812 27.2909C24.7843 27.2909 24.5909 27.267 24.3865 27.2413C24.1644 27.214 23.9125 27.1833 23.4376 27.1833C23.212 27.1833 23.0882 27.1149 22.9016 27.0115C22.6031 26.8466 22.1511 26.5963 21.4285 26.8466C21.2742 26.9005 21.1461 27.0115 21.0706 27.1568C20.7229 27.83 20.1251 28.6732 19.8232 28.9773C19.6612 29.1414 19.5111 29.3122 19.3669 29.478C19.1133 29.7693 18.8733 30.0436 18.6249 30.2059C18.3704 30.3725 18.0253 30.4485 17.6912 30.5228C17.4571 30.5749 17.2145 30.6288 16.989 30.7151C16.8397 30.7723 16.7108 30.8167 16.5989 30.8526C16.8567 30.4374 17.1654 29.8479 17.3477 29.0363C17.4961 28.375 17.5478 27.9077 17.5148 27.5224C17.4893 27.2294 17.2688 26.991 16.9805 26.9449C16.6167 26.8868 16.3563 26.8672 16.1401 26.8672C15.9238 26.8672 15.7567 26.8859 15.5744 26.9065C15.3573 26.9312 15.1326 26.9569 14.7518 26.9569C14.1717 26.9569 13.8647 27.0047 13.5934 27.0474C13.3347 27.0876 13.1117 27.1226 12.63 27.1226C11.8565 27.1226 11.2434 27.0303 10.8075 26.8484C10.135 26.5673 9.56934 26.2153 9.21316 25.8573C8.8646 25.5053 8.5169 24.9347 8.2345 24.2495C8.08864 23.8941 8.05132 23.3388 8.04199 22.8262C8.11068 22.8475 8.18447 22.8826 8.28284 22.9287C8.56015 23.0603 8.93923 23.2397 9.53881 23.2397C10.0163 23.2397 10.2478 23.2713 10.4937 23.3046C10.771 23.3422 11.0568 23.3815 11.6199 23.3815C12.1517 23.3815 12.4213 23.3721 12.6825 23.3627C12.9446 23.3541 13.1922 23.3456 13.7011 23.3456C14.2938 23.3456 14.6085 23.2721 14.8858 23.2072C15.1266 23.1508 15.3344 23.1021 15.7822 23.1021C16.3385 23.1021 16.6201 23.0705 16.8931 23.0397C17.1433 23.0124 17.3791 22.9859 17.8642 22.9859C18.2695 22.9859 18.4425 23.0509 18.6825 23.1406C18.9624 23.2456 19.3101 23.3764 19.9453 23.3764C20.477 23.3764 20.7475 23.367 21.0087 23.3576C21.2708 23.3482 21.5176 23.3396 22.0273 23.3396C22.5369 23.3396 22.821 23.3345 23.0797 23.3294C23.3324 23.3251 23.5945 23.32 24.1084 23.32C24.6223 23.32 24.8479 23.3379 25.104 23.3559C25.3711 23.3755 25.6476 23.396 26.1904 23.396C26.8832 23.396 27.2513 23.1952 27.5464 23.0338C27.7677 22.9133 27.9272 22.8262 28.2901 22.8099C28.9296 22.7809 29.0466 22.8262 29.485 22.9953C29.5427 23.0175 29.6055 23.0415 29.675 23.0679C29.6826 23.1568 29.6911 23.2422 29.6996 23.3234Z" fill="white"/>
<path d="M18.8108 7.14734C19.3812 7.14734 19.4473 7.45633 19.4473 7.68868C19.4473 8.07189 19.2336 8.26551 18.8108 8.26551C18.5962 8.26551 18.3291 8.26551 18.3291 7.68868C18.3291 7.14734 18.5627 7.14734 18.8108 7.14734Z" fill="white"/>
<path d="M15.5462 11.1727C15.9373 11.1727 16.0928 11.4811 16.0928 11.8566C16.0928 12.2321 15.9373 12.7382 15.5462 12.7382C15.155 12.7382 14.5273 12.2321 14.5273 11.8566C14.5273 11.4811 15.156 11.1727 15.5462 11.1727Z" fill="#FF6666"/>
<path d="M14.1904 12.562C14.3907 12.8469 14.3186 13.2382 14.0291 13.436C13.8543 13.5558 13.6616 13.6622 13.4579 13.7745C13.0343 14.0083 12.5539 14.2731 12.1839 14.7029C11.8197 15.1244 11.6703 15.6255 11.5269 16.1107C11.4488 16.3721 11.375 16.6201 11.2697 16.8455C11.1619 17.0751 10.9319 17.2109 10.6917 17.2109C10.6017 17.2109 10.5109 17.1916 10.4243 17.1522C10.1052 17.0064 9.96599 16.6327 10.1137 16.3176C10.1799 16.1768 10.241 15.9724 10.3047 15.757C10.4693 15.2032 10.6739 14.5136 11.2146 13.8876C11.7332 13.2868 12.3451 12.9491 12.8366 12.6776C13.0131 12.5796 13.1795 12.4883 13.3043 12.4028C13.5937 12.2051 13.9901 12.2763 14.1904 12.562Z" fill="#FF6666"/>
</svg>
