<svg width="31" height="27" viewBox="0 0 31 27" fill="none" xmlns="http://www.w3.org/2000/svg">
<path d="M30.4143 14.986C30.4143 15.6287 30.0145 16.1099 29.6654 16.4583C29.2131 16.9099 28.6395 16.9682 28.1906 16.9682C27.7932 16.9682 27.6153 17.0308 27.3892 17.1103C27.2867 17.1466 27.1731 17.1864 27.0401 17.2219C27.0486 17.2828 27.0579 17.3437 27.0639 17.408C27.1113 17.8773 27.1647 18.4092 26.9317 18.9691C26.5708 19.8375 25.9244 20.5589 25.5703 20.9115C25.1078 21.3741 24.4851 21.6041 23.9362 21.8079C23.7829 21.8646 23.638 21.9179 23.5025 21.9745C23.3559 22.0346 23.1992 22.1124 23.0331 22.1944C22.5232 22.4447 21.9454 22.7297 21.2863 22.7297C20.8128 22.7297 20.5603 22.6984 20.3384 22.6714C20.1342 22.6468 19.9411 22.6232 19.5446 22.6232C18.9931 22.6232 18.6492 22.4346 18.3984 22.2967C18.2824 22.2333 18.218 22.1986 18.1578 22.1876C17.7698 22.8659 17.2031 23.6582 16.8329 24.0278C16.699 24.1606 16.5694 24.3077 16.433 24.4642C16.1331 24.8041 15.8239 25.1551 15.4283 25.4113C14.981 25.7005 14.4795 25.8105 14.0771 25.8993C13.8797 25.9424 13.6925 25.9838 13.5544 26.0363C13.0572 26.2248 12.5353 26.3889 12.0897 26.3889C11.7221 26.3889 11.4069 26.2773 11.2002 25.9754C10.8563 25.4722 11.1901 24.98 11.434 24.6198C11.6873 24.2477 12.0338 23.7369 12.2219 22.9081C12.2736 22.6807 12.3108 22.4828 12.3354 22.312C12.1507 22.306 12.0109 22.3213 11.8313 22.3416C11.6035 22.3669 11.3197 22.3991 10.8681 22.3991C10.387 22.3991 10.1642 22.4337 9.90578 22.4735C9.6347 22.5158 9.32803 22.5631 8.74858 22.5631C7.7947 22.5631 7.03989 22.443 6.44096 22.1953C5.85982 21.9542 5.04063 21.5407 4.43746 20.9386C3.84277 20.3458 3.42767 19.5221 3.18454 18.9361C2.96343 18.405 2.90921 17.7437 2.89651 17.1289C2.88634 17.134 2.87702 17.1373 2.86686 17.1424C2.73301 17.2075 2.64914 17.2803 2.62203 17.3099C2.45091 17.4984 2.03665 17.4105 1.84435 17.4105C0.64056 17.4105 0.0102839 16.1911 0.0102839 14.986C0.0102839 14.9166 0.00774246 14.8498 0.00520102 14.7856C-0.00835329 14.4304 -0.0261433 13.9441 0.387263 13.5314C0.421996 13.4968 0.458424 13.4587 0.495698 13.4198C0.784574 13.1188 1.22255 12.6638 1.84435 12.6638C2.36958 12.6638 2.66608 12.712 2.91684 12.7585C3.01426 12.4338 3.1371 12.1107 3.25146 11.8114C3.34126 11.5754 3.42597 11.3539 3.48951 11.156C3.56067 10.931 3.59201 10.663 3.62505 10.3788C3.67673 9.93061 3.73603 9.42321 3.9817 8.96233C4.30954 8.34669 4.74243 7.80293 5.16092 7.27692L5.27698 7.13147C5.7607 6.5209 6.36811 5.98644 6.85606 5.55769C7.24744 5.21351 7.71591 5.02408 8.12932 4.85748C8.38431 4.75516 8.62405 4.65791 8.82737 4.53613C9.01882 4.42112 9.21028 4.23 9.41359 4.02704C9.73805 3.70485 10.1049 3.33952 10.6081 3.15009C11.1968 2.92768 11.8212 2.82028 12.4243 2.71711C12.5489 2.69513 12.6726 2.67398 12.7954 2.652C12.997 2.61563 13.1995 2.59026 13.4019 2.57081C13.3333 2.35179 13.2961 2.10654 13.2961 1.83593C13.2961 0.703591 13.9551 0 15.0175 0C16.134 0 16.8837 0.737417 16.8837 1.83593C16.8837 2.06003 16.8507 2.26976 16.7905 2.46257C16.9481 2.47187 17.1065 2.48709 17.2641 2.51585C17.8359 2.61902 18.3586 2.83551 18.8635 3.04438C19.0456 3.11965 19.2176 3.19068 19.3879 3.25495C19.8928 3.44523 20.3079 3.73952 20.7094 4.02451C20.9077 4.16489 21.0949 4.29766 21.2838 4.41097C21.4591 4.51668 21.6404 4.61478 21.8327 4.7188C22.2817 4.9615 22.7468 5.21266 23.1619 5.57799C23.3347 5.72936 23.5355 5.87482 23.7481 6.02788C24.1488 6.31625 24.5622 6.61477 24.8901 7.0283C25.3848 7.6524 25.7931 8.37882 26.0939 8.94119C26.3921 9.50102 26.7657 10.2418 27.0096 11.0088C27.1672 11.5035 27.1808 12.0422 27.1926 12.5632C27.1969 12.7171 27.2002 12.8651 27.2079 13.0063C27.4468 12.9835 27.7153 12.9623 28.1906 12.9623C29.4172 12.9623 30.4143 13.8697 30.4143 14.986ZM29.1436 14.986C29.1436 14.8989 29.0979 14.8363 28.1906 14.2308C28.1906 14.2308 27.9881 14.0955 27.6035 13.9289C27.6035 13.9289 27.4086 13.8443 27.2646 13.8443C27.1494 13.8562 26.9707 13.879 26.7563 13.9289C26.2277 14.0507 26.1574 14.175 25.8702 14.1555C25.622 14.1395 25.373 14.0236 25.1942 13.9441C24.9706 13.846 24.7944 13.7682 24.4716 13.7682C24.0675 13.7682 23.8938 13.8359 23.6541 13.9297C23.3703 14.0414 23.017 14.1801 22.3715 14.1801C21.831 14.1801 21.5566 14.1665 21.2906 14.1547C21.0288 14.142 20.7806 14.1302 20.2706 14.1302C19.6734 14.1302 19.3565 14.0574 19.0778 13.9932C18.8338 13.9365 18.6229 13.8883 18.1697 13.8883C17.7165 13.8883 17.497 13.9331 17.2497 13.9847C16.9735 14.0422 16.6601 14.1073 16.0696 14.1073C15.5986 14.1073 15.3809 14.1454 15.1276 14.1894C14.8565 14.2359 14.5481 14.2892 13.9687 14.2892C13.3892 14.2892 13.0885 14.241 12.8191 14.1987C12.5633 14.1589 12.343 14.1243 11.8678 14.1243C11.301 14.1243 11.013 14.087 10.7351 14.0507C10.4861 14.0185 10.2506 13.9873 9.76685 13.9873C9.32125 13.9873 9.1137 14.0405 8.87311 14.1023C8.59101 14.1741 8.27079 14.2562 7.66509 14.2562C7.11614 14.2562 6.83658 14.2342 6.56634 14.2139C6.30881 14.1936 6.06483 14.175 5.56417 14.175C5.22615 14.175 5.00336 14.2173 4.78733 14.2579C4.59418 14.2934 4.39849 14.3306 4.16299 14.3306C3.90122 14.3306 3.59032 14.2849 3.1803 14.1412L2.91006 14.0465C2.85076 14.0363 2.79485 14.0262 2.74063 14.016C2.50004 13.9712 2.29249 13.9323 1.84435 13.9323C1.75117 13.9458 1.52244 14.1834 1.41316 14.2985C1.3691 14.3433 1.32675 14.3873 1.28608 14.4278C1.26491 14.4727 1.27084 14.6333 1.27507 14.739C1.27761 14.8185 1.281 14.9006 1.281 14.986C1.281 15.5323 1.51227 16.142 1.84435 16.142C2.01717 16.142 2.14085 16.1259 2.24844 16.0972C2.38737 16.06 2.49327 16.0092 2.54833 15.9805C2.56697 15.9712 2.58052 15.9636 2.58391 15.9619C2.67117 15.9128 2.93886 15.8536 3.62929 15.7894C3.73603 15.7691 3.96476 15.7276 4.24262 15.7648C4.53488 15.8037 4.77547 15.9154 4.9466 15.9957C5.1694 16.0997 5.3456 16.1826 5.66074 16.1826C6.22324 16.1826 6.50873 16.2215 6.78575 16.2587C7.03057 16.2917 7.26269 16.323 7.73963 16.323C8.24877 16.323 8.49529 16.3145 8.75706 16.3052C9.01798 16.2968 9.28821 16.2875 9.81853 16.2875C10.2658 16.2875 10.4734 16.2393 10.7148 16.1834C10.9918 16.1192 11.3053 16.0464 11.8974 16.0464C12.382 16.0464 12.6175 16.0202 12.8666 15.9932C13.1393 15.9627 13.4214 15.9314 13.9772 15.9314C14.6117 15.9314 14.959 16.0608 15.2386 16.1648C15.4783 16.2536 15.6511 16.3179 16.0561 16.3179C16.5652 16.3179 16.8117 16.3094 17.0735 16.3001C17.3344 16.2908 17.6046 16.2815 18.1358 16.2815C18.667 16.2815 18.9109 16.2765 19.1634 16.2722C19.4226 16.2672 19.6895 16.2621 20.2147 16.2621C20.7399 16.2621 21.0339 16.2824 21.3007 16.301C21.5557 16.3196 21.7972 16.3373 22.2944 16.3373C22.6646 16.3373 22.8078 16.2595 23.0442 16.1319C23.3279 15.9788 23.6812 15.7877 24.3352 15.7581C24.7952 15.7378 25.0909 15.7538 25.3501 15.8054C25.7796 15.8917 25.7406 15.9822 26.0397 16.0245C26.5446 16.0955 26.9173 15.8824 27.1223 15.8443C27.2316 15.8113 27.3307 15.7902 27.4171 15.7784C27.5789 15.7555 27.7306 15.6997 28.1906 15.6997C28.554 15.6997 28.6844 15.6439 28.7675 15.561C28.8606 15.468 29.1436 15.1856 29.1436 14.986ZM25.9304 12.8744C25.927 12.7805 25.9244 12.6866 25.9228 12.5936C25.9126 12.1615 25.9016 11.715 25.7991 11.3928C25.5856 10.7238 25.245 10.0499 24.9714 9.53738C24.6969 9.02237 24.3259 8.36022 23.8938 7.81477C23.6753 7.53993 23.3491 7.30483 23.0043 7.05621C22.7765 6.89215 22.5409 6.72217 22.3224 6.52936C22.0149 6.25959 21.632 6.05325 21.227 5.83338C21.0313 5.72767 20.828 5.61773 20.6281 5.49765C20.3977 5.35896 20.1817 5.2059 19.9733 5.05875C19.6225 4.80928 19.2905 4.57419 18.9389 4.44142C18.75 4.37038 18.5602 4.29174 18.3772 4.21647C17.913 4.02451 17.475 3.84353 17.0379 3.76404C16.6711 3.69808 16.2517 3.72514 15.807 3.75474C15.5512 3.77165 15.286 3.78857 15.0175 3.78857H14.9726C14.2821 3.78857 13.6307 3.79026 13.0224 3.90019C12.8962 3.92303 12.7683 3.94501 12.6404 3.967C12.0702 4.0651 11.5323 4.15728 11.0562 4.33656C10.8088 4.42958 10.5674 4.67059 10.3107 4.92598C10.0634 5.17292 9.80667 5.42831 9.48306 5.62281C9.19418 5.79617 8.89514 5.9171 8.60542 6.0338C8.25555 6.17503 7.92516 6.30864 7.69558 6.50991C7.22288 6.92597 6.68579 7.39701 6.27323 7.91878L6.15632 8.06593C5.77256 8.54711 5.37695 9.0452 5.10332 9.55852C4.97032 9.80715 4.92965 10.1556 4.8873 10.5251C4.84918 10.8558 4.80936 11.1983 4.70008 11.5399C4.62638 11.7716 4.53488 12.0109 4.43831 12.2638C4.33665 12.531 4.23245 12.8033 4.15198 13.0621H4.15536C4.27989 13.0621 4.39765 13.0401 4.55267 13.0105C4.80004 12.9648 5.10755 12.9065 5.56417 12.9065C6.11396 12.9065 6.39352 12.9285 6.66291 12.9488C6.92129 12.9691 7.16442 12.9877 7.66509 12.9877C8.11068 12.9877 8.31823 12.9344 8.55882 12.8727C8.84092 12.8008 9.16114 12.7188 9.76685 12.7188C10.3327 12.7188 10.6208 12.7568 10.8986 12.7923C11.1477 12.8253 11.3832 12.8558 11.8678 12.8558C12.4421 12.8558 12.748 12.9031 13.0165 12.9462C13.2723 12.986 13.4926 13.0207 13.9687 13.0207C14.4448 13.0207 14.6574 12.9826 14.9099 12.9395C15.1818 12.8921 15.4893 12.8388 16.0696 12.8388C16.5288 12.8388 16.7422 12.794 16.9896 12.7424C17.2658 12.6849 17.5792 12.6198 18.1697 12.6198C18.7601 12.6198 19.0838 12.6925 19.3633 12.7568C19.6073 12.8135 19.8182 12.8617 20.2706 12.8617C20.8111 12.8617 21.0856 12.8744 21.3507 12.887C21.6133 12.8997 21.8615 12.9116 22.3715 12.9116C22.7765 12.9116 22.9493 12.8431 23.189 12.7492C23.4737 12.6384 23.8269 12.4997 24.4716 12.4997C25.0629 12.4997 25.4356 12.6638 25.7084 12.7847C25.7974 12.8236 25.8668 12.8541 25.9304 12.8744ZM25.7584 18.4836C25.8685 18.2181 25.838 17.9162 25.7999 17.534C25.7914 17.4536 25.783 17.3691 25.7754 17.2811C25.7059 17.2549 25.6432 17.2312 25.5856 17.2092C25.1476 17.0418 25.0307 16.997 24.392 17.0257C24.0294 17.0418 23.8701 17.128 23.649 17.2473C23.3542 17.4071 22.9865 17.6058 22.2944 17.6058C21.7523 17.6058 21.4761 17.5855 21.2092 17.5661C20.9534 17.5483 20.712 17.5306 20.2147 17.5306C19.7174 17.5306 19.4396 17.5357 19.1871 17.5399C18.9287 17.545 18.661 17.55 18.1358 17.55C17.6106 17.55 17.3801 17.5585 17.1184 17.5678C16.8575 17.5771 16.5872 17.5864 16.0561 17.5864C15.4215 17.5864 15.0742 17.457 14.7947 17.353C14.5549 17.2642 14.3821 17.1999 13.9772 17.1999C13.4926 17.1999 13.2571 17.2261 13.0072 17.2532C12.7344 17.2836 12.4531 17.3149 11.8974 17.3149C11.4501 17.3149 11.2426 17.3631 11.002 17.419C10.725 17.4832 10.4107 17.556 9.81853 17.556C9.31024 17.556 9.06287 17.5644 8.80111 17.5729C8.54019 17.5822 8.27079 17.5915 7.73963 17.5915C7.17713 17.5915 6.89164 17.5526 6.61463 17.5154C6.36895 17.4824 6.13768 17.4511 5.66074 17.4511C5.06181 17.4511 4.68314 17.2735 4.40612 17.1433C4.30785 17.0976 4.23415 17.0629 4.16553 17.0418C4.17485 17.5492 4.21212 18.0989 4.35783 18.4507C4.63993 19.1289 4.98726 19.6938 5.33544 20.0422C5.69124 20.3965 6.25628 20.7449 6.92807 21.0232C7.3635 21.2033 7.97599 21.2946 8.74858 21.2946C9.22976 21.2946 9.45256 21.2599 9.71094 21.2202C9.98203 21.1779 10.2887 21.1306 10.8681 21.1306C11.2485 21.1306 11.473 21.1052 11.6899 21.0807C11.872 21.0604 12.0414 21.0418 12.2549 21.0418C12.4684 21.0418 12.731 21.0612 13.0944 21.1187C13.3825 21.1644 13.6027 21.4003 13.6281 21.6904C13.6612 22.0718 13.6095 22.5344 13.4612 23.1889C13.2791 23.9923 12.9708 24.5758 12.7132 24.9868C12.825 24.9513 12.9538 24.9073 13.1029 24.8506C13.3282 24.7652 13.5705 24.7119 13.8043 24.6604C14.1381 24.5868 14.4829 24.5115 14.7371 24.3466C14.9853 24.1859 15.225 23.9145 15.4783 23.6261C15.6223 23.4621 15.7723 23.2929 15.9341 23.1306C16.2356 22.8295 16.8329 21.9948 17.1802 21.3284C17.2556 21.1847 17.3835 21.0747 17.5377 21.0215C18.2595 20.7737 18.711 21.0215 19.0092 21.1847C19.1956 21.287 19.3193 21.3547 19.5446 21.3547C20.019 21.3547 20.2706 21.3851 20.4926 21.4122C20.6967 21.4375 20.8899 21.4612 21.2863 21.4612C21.6489 21.4612 22.0665 21.2557 22.4706 21.0561C22.6477 20.969 22.8307 20.8786 23.0154 20.8024C23.1738 20.7373 23.3364 20.6764 23.494 20.6181C23.9421 20.4523 24.4055 20.2807 24.6715 20.0143C25.1603 19.5272 25.5559 18.9691 25.7584 18.4836ZM15.613 1.83593C15.613 1.59238 15.5512 1.26849 15.0175 1.26849C14.7853 1.26849 14.5668 1.26849 14.5668 1.83593C14.5668 2.44058 14.8167 2.44058 15.0175 2.44058C15.4131 2.44058 15.613 2.23762 15.613 1.83593Z" fill="#FF6666"/>
<path d="M28.1243 14.3082C29.027 14.8879 29.0725 14.9479 29.0725 15.0313C29.0725 15.2224 28.791 15.4928 28.6983 15.5819C28.6157 15.6612 28.4859 15.7147 28.1243 15.7147C27.6667 15.7147 27.5158 15.7681 27.3548 15.79C27.2688 15.8013 27.1702 15.8216 27.0615 15.8531C26.8575 15.8896 26.4867 16.0936 25.9844 16.0256C25.6868 15.9851 25.7256 15.8985 25.2983 15.8159C25.0404 15.7665 24.7462 15.7511 24.2886 15.7705C23.6379 15.7989 23.2865 15.9819 23.0041 16.1284C22.769 16.2507 22.6265 16.3252 22.2582 16.3252C21.7635 16.3252 21.5233 16.3082 21.2696 16.2904C21.0041 16.2726 20.7293 16.2531 20.1891 16.2531C19.6488 16.2531 19.401 16.258 19.1431 16.2629C18.8919 16.2669 18.6324 16.2718 18.1208 16.2718C17.6092 16.2718 17.3234 16.2807 17.0638 16.2896C16.8034 16.2985 16.5581 16.3066 16.0516 16.3066C15.6487 16.3066 15.4768 16.2451 15.2383 16.16C14.9601 16.0604 14.6146 15.9365 13.9833 15.9365C13.4304 15.9365 13.1497 15.9665 12.8784 15.9957C12.6306 16.0216 12.3963 16.0467 11.9142 16.0467C11.325 16.0467 11.0132 16.1163 10.7376 16.1778C10.4974 16.2313 10.2909 16.2774 9.84585 16.2774C9.31823 16.2774 9.04937 16.2863 8.78978 16.2944C8.52934 16.3034 8.28408 16.3115 7.77754 16.3115C7.30303 16.3115 7.07209 16.2815 6.82851 16.2499C6.55291 16.2143 6.26887 16.177 5.70923 16.177C5.3957 16.177 5.22039 16.0977 4.99873 15.9981C4.82848 15.9212 4.58911 15.8143 4.29833 15.777C4.02189 15.7414 3.79432 15.7811 3.68813 15.8005C3.00122 15.862 2.73488 15.9187 2.64807 15.9657C2.6447 15.9673 2.63122 15.9746 2.61267 15.9835C2.55789 16.011 2.45254 16.0596 2.31431 16.0953C2.20727 16.1228 2.08422 16.1382 1.91228 16.1382C1.58189 16.1382 1.3518 15.5543 1.3518 15.0313C1.3518 14.9495 1.34843 14.8709 1.3459 14.7948C1.34168 14.6936 1.33579 14.5397 1.35686 14.4968C1.39731 14.458 1.43945 14.4159 1.48328 14.3729C1.59201 14.2628 1.81957 14.0353 1.91228 14.0223C2.35814 14.0223 2.56463 14.0596 2.804 14.1025C2.85794 14.1122 2.91356 14.1219 2.97256 14.1316L3.24143 14.2223C3.64936 14.36 3.95867 14.4037 4.21911 14.4037C4.45342 14.4037 4.64811 14.3681 4.84027 14.3341C5.0552 14.2952 5.27686 14.2547 5.61315 14.2547C6.11126 14.2547 6.354 14.2725 6.61022 14.292C6.87908 14.3114 7.15722 14.3325 7.70337 14.3325C8.30599 14.3325 8.62458 14.2539 8.90525 14.1851C9.14461 14.126 9.3511 14.075 9.79443 14.075C10.2757 14.075 10.51 14.1049 10.7578 14.1357C11.0342 14.1705 11.3208 14.2061 11.8847 14.2061C12.3575 14.2061 12.5766 14.2393 12.8312 14.2774C13.0992 14.3179 13.4026 14.364 13.9749 14.364C14.5472 14.364 14.8582 14.313 15.1279 14.2685C15.3799 14.2264 15.5965 14.1899 16.0651 14.1899C16.6525 14.1899 16.9644 14.1276 17.2392 14.0725C17.4853 14.0231 17.6977 13.9802 18.1545 13.9802C18.6113 13.9802 18.8152 14.0264 19.058 14.0806C19.3353 14.1422 19.6505 14.2118 20.2447 14.2118C20.7521 14.2118 20.999 14.2231 21.2595 14.2353C21.5241 14.2466 21.7972 14.2596 22.3349 14.2596C22.9771 14.2596 23.3286 14.1268 23.611 14.0199C23.8495 13.93 24.0223 13.8652 24.4243 13.8652C24.7454 13.8652 24.9207 13.9397 25.1432 14.0337C25.3211 14.1098 25.5688 14.2207 25.8158 14.2361C26.1015 14.2547 26.1715 14.1357 26.6974 14.0191C26.9106 13.9713 27.0885 13.9494 27.2031 13.9381C27.3464 13.9381 27.5402 14.0191 27.5402 14.0191C27.9229 14.1786 28.1243 14.3082 28.1243 14.3082Z" fill="url(#paint0_linear_1377_17892)" fill-opacity="0.1"/>
<path d="M25.934 12.7232C25.9357 12.8168 25.9382 12.9112 25.9416 13.0056C25.8783 12.9852 25.8091 12.9546 25.7205 12.9154C25.4488 12.7938 25.0775 12.6288 24.4886 12.6288C23.8464 12.6288 23.4946 12.7683 23.211 12.8797C22.9722 12.9741 22.8001 13.043 22.3968 13.043C21.8888 13.043 21.6416 13.0311 21.38 13.0184C21.1159 13.0056 20.8425 12.9928 20.3041 12.9928C19.8535 12.9928 19.6434 12.9444 19.4004 12.8874C19.1219 12.8227 18.8072 12.7496 18.2115 12.7496C17.6158 12.7496 17.3111 12.8151 17.0361 12.8729C16.7897 12.9248 16.577 12.9699 16.1197 12.9699C15.5417 12.9699 15.2354 13.0235 14.9645 13.0711C14.7131 13.1145 14.4954 13.1527 14.027 13.1527C13.5587 13.1527 13.3334 13.1179 13.0786 13.0779C12.8111 13.0345 12.5065 12.9869 11.9344 12.9869C11.4518 12.9869 11.2172 12.9563 10.9691 12.9231C10.6923 12.8874 10.4054 12.8491 9.84177 12.8491C9.23845 12.8491 8.91949 12.9316 8.6385 13.0039C8.39886 13.066 8.19213 13.1196 7.74829 13.1196C7.2496 13.1196 7.00743 13.1009 6.75006 13.0804C6.48173 13.06 6.20328 13.0379 5.65565 13.0379C5.20084 13.0379 4.89454 13.0966 4.64814 13.1425C4.49373 13.1723 4.37644 13.1944 4.2524 13.1944H4.24902C4.32919 12.9341 4.43297 12.6603 4.53423 12.3915C4.63042 12.1372 4.72155 11.8965 4.79497 11.6634C4.90382 11.3198 4.94348 10.9754 4.98145 10.6428C5.02364 10.2711 5.06414 9.9207 5.19662 9.67065C5.46917 9.15437 5.86322 8.65341 6.24547 8.16945L6.36191 8.02146C6.77285 7.49668 7.30782 7.02293 7.77866 6.60447C8.00733 6.40204 8.33642 6.26766 8.68491 6.12562C8.97349 6.00824 9.27136 5.88662 9.55909 5.71226C9.88143 5.51663 10.1371 5.25977 10.3835 5.01142C10.6392 4.75455 10.8797 4.51215 11.126 4.41859C11.6003 4.23828 12.1361 4.14557 12.704 4.04691C12.8314 4.02479 12.9588 4.00268 13.0845 3.97972C13.6904 3.86915 14.3393 3.86745 15.027 3.86745H15.0717C15.3392 3.86745 15.6033 3.85043 15.8581 3.83342C16.3011 3.80366 16.7188 3.77644 17.0842 3.84278C17.5196 3.92273 17.9558 4.10474 18.4182 4.29782C18.6005 4.37351 18.7895 4.45261 18.9777 4.52406C19.3278 4.65759 19.6586 4.89404 20.0079 5.14495C20.2155 5.29294 20.4307 5.44689 20.6602 5.58638C20.8593 5.70715 21.0619 5.81772 21.2568 5.92404C21.6601 6.14518 22.0415 6.35271 22.3478 6.62403C22.5655 6.81795 22.8001 6.98891 23.0271 7.15391C23.3705 7.40397 23.6954 7.64042 23.9131 7.91684C24.3434 8.46544 24.713 9.13141 24.9864 9.64938C25.2589 10.1648 25.5982 10.8427 25.8108 11.5155C25.9129 11.8395 25.9239 12.2886 25.934 12.7232ZM12.3124 6.11371C12.3124 5.76159 12.1732 5.4724 11.823 5.4724C11.4728 5.4724 10.9109 5.76159 10.9109 6.11371C10.9109 6.46583 11.4737 6.94043 11.823 6.94043C12.1724 6.94043 12.3124 6.46583 12.3124 6.11371ZM10.2611 7.72292C10.5489 7.52219 10.6206 7.12499 10.4215 6.83581C10.2223 6.54578 9.82827 6.47348 9.54053 6.67421C9.41649 6.76097 9.25111 6.85367 9.07559 6.95319C8.58703 7.22876 7.97865 7.57153 7.46308 8.18136C6.92558 8.81671 6.72222 9.5167 6.55852 10.0789C6.49523 10.2975 6.43448 10.505 6.36866 10.6479C6.22184 10.9677 6.36023 11.347 6.6775 11.495C6.76357 11.535 6.85385 11.5546 6.9433 11.5546C7.18209 11.5546 7.41076 11.4168 7.51793 11.1837C7.62256 10.955 7.69597 10.7032 7.7736 10.4378C7.9162 9.94537 8.06471 9.43675 8.42671 9.00893C8.79461 8.57261 9.2722 8.30384 9.69326 8.06654C9.89577 7.95257 10.0873 7.84455 10.2611 7.72292Z" fill="url(#paint1_linear_1377_17892)" fill-opacity="0.1"/>
<path d="M25.9066 17.5177C25.9448 17.9039 25.9753 18.2089 25.8651 18.4771C25.6624 18.9675 25.2664 19.5314 24.777 20.0235C24.5107 20.2926 24.0468 20.466 23.5982 20.6335C23.4405 20.6924 23.2777 20.7539 23.1191 20.8197C22.9342 20.8966 22.751 20.988 22.5738 21.076C22.1693 21.2776 21.7512 21.4852 21.3882 21.4852C20.9913 21.4852 20.798 21.4613 20.5936 21.4357C20.3714 21.4083 20.1195 21.3776 19.6446 21.3776C19.419 21.3776 19.2952 21.3092 19.1086 21.2059C18.8101 21.041 18.3581 20.7907 17.6356 21.041C17.4812 21.0948 17.3532 21.2059 17.2777 21.3511C16.93 22.0243 16.3321 22.8675 16.0302 23.1717C15.8682 23.3357 15.7181 23.5066 15.5739 23.6723C15.3204 23.9636 15.0804 24.2379 14.8319 24.4002C14.5775 24.5668 14.2323 24.6428 13.8982 24.7172C13.6641 24.7693 13.4216 24.8231 13.196 24.9094C13.0467 24.9666 12.9178 25.0111 12.8059 25.0469C13.0637 24.6317 13.3724 24.0422 13.5547 23.2306C13.7031 22.5694 13.7549 22.1021 13.7218 21.7168C13.6963 21.4237 13.4759 21.1854 13.1875 21.1392C12.8237 21.0811 12.5633 21.0615 12.3471 21.0615C12.1308 21.0615 11.9638 21.0803 11.7814 21.1008C11.5643 21.1256 11.3396 21.1512 10.9588 21.1512C10.3788 21.1512 10.0718 21.199 9.80039 21.2418C9.54173 21.2819 9.31869 21.3169 8.837 21.3169C8.06357 21.3169 7.45043 21.2247 7.01453 21.0427C6.34202 20.7616 5.77637 20.4096 5.42019 20.0517C5.07164 19.6997 4.72393 19.129 4.44153 18.4438C4.29567 18.0884 4.25835 17.5331 4.24902 17.0205C4.31772 17.0419 4.3915 17.0769 4.48987 17.123C4.76718 17.2546 5.14626 17.434 5.74584 17.434C6.22329 17.434 6.45481 17.4656 6.70075 17.4989C6.97806 17.5365 7.26386 17.5758 7.82696 17.5758C8.35869 17.5758 8.62838 17.5664 8.88958 17.557C9.15163 17.5485 9.39926 17.5399 9.90809 17.5399C10.5009 17.5399 10.8155 17.4665 11.0928 17.4015C11.3337 17.3451 11.5414 17.2965 11.9892 17.2965C12.5455 17.2965 12.8271 17.2648 13.1002 17.2341C13.3503 17.2067 13.5861 17.1803 14.0712 17.1803C14.4766 17.1803 14.6496 17.2452 14.8896 17.3349C15.1694 17.44 15.5171 17.5707 16.1523 17.5707C16.684 17.5707 16.9546 17.5613 17.2158 17.5519C17.4778 17.5425 17.7246 17.534 18.2343 17.534C18.744 17.534 19.0281 17.5288 19.2867 17.5237C19.5394 17.5194 19.8015 17.5143 20.3154 17.5143C20.8293 17.5143 21.0549 17.5322 21.311 17.5502C21.5782 17.5698 21.8546 17.5903 22.3974 17.5903C23.0902 17.5903 23.4583 17.3896 23.7534 17.2281C23.9748 17.1076 24.1342 17.0205 24.4972 17.0043C25.1366 16.9752 25.2536 17.0205 25.6921 17.1897C25.7497 17.2119 25.8125 17.2358 25.882 17.2623C25.8897 17.3511 25.8982 17.4366 25.9066 17.5177Z" fill="url(#paint2_linear_1377_17892)" fill-opacity="0.1"/>
<path d="M15.0179 1.3418C15.5883 1.3418 15.6544 1.65079 15.6544 1.88313C15.6544 2.26635 15.4408 2.45997 15.0179 2.45997C14.8033 2.45997 14.5363 2.45997 14.5363 1.88313C14.5363 1.3418 14.7698 1.3418 15.0179 1.3418Z" fill="url(#paint3_linear_1377_17892)" fill-opacity="0.1"/>
<path d="M11.7533 5.36719C12.1444 5.36719 12.2999 5.67556 12.2999 6.05105C12.2999 6.42654 12.1444 6.93263 11.7533 6.93263C11.3622 6.93263 10.7345 6.42654 10.7345 6.05105C10.7345 5.67556 11.3631 5.36719 11.7533 5.36719Z" fill="#FF6666"/>
<path d="M10.3974 6.75647C10.5977 7.04136 10.5256 7.43268 10.2361 7.63043C10.0613 7.75026 9.86863 7.85667 9.66492 7.96896C9.24137 8.20274 8.76096 8.46753 8.39089 8.89738C8.02676 9.31886 7.87738 9.81995 7.73393 10.3051C7.65585 10.5665 7.582 10.8146 7.47675 11.04C7.36896 11.2696 7.13894 11.4053 6.89873 11.4053C6.80876 11.4053 6.71794 11.386 6.63136 11.3467C6.31222 11.2009 6.17302 10.8271 6.32071 10.5121C6.38691 10.3713 6.44803 10.1669 6.51169 9.9515C6.67635 9.39763 6.88091 8.70801 7.42158 8.08208C7.94019 7.48128 8.55216 7.14359 9.04361 6.8721C9.22015 6.77406 9.38652 6.68273 9.51129 6.59726C9.80072 6.39951 10.1971 6.47073 10.3974 6.75647Z" fill="#FF6666"/>
<defs>
<linearGradient id="paint0_linear_1377_17892" x1="15.2071" y1="13.8652" x2="15.2071" y2="16.3252" gradientUnits="userSpaceOnUse">
<stop stop-color="white"/>
<stop offset="1" stop-color="white" stop-opacity="0"/>
</linearGradient>
<linearGradient id="paint1_linear_1377_17892" x1="15.0953" y1="3.80176" x2="15.0953" y2="13.1944" gradientUnits="userSpaceOnUse">
<stop stop-color="white"/>
<stop offset="1" stop-color="white" stop-opacity="0"/>
</linearGradient>
<linearGradient id="paint2_linear_1377_17892" x1="15.0953" y1="16.9961" x2="15.0953" y2="25.0469" gradientUnits="userSpaceOnUse">
<stop stop-color="white"/>
<stop offset="1" stop-color="white" stop-opacity="0"/>
</linearGradient>
<linearGradient id="paint3_linear_1377_17892" x1="15.0953" y1="1.3418" x2="15.0953" y2="2.45997" gradientUnits="userSpaceOnUse">
<stop stop-color="white"/>
<stop offset="1" stop-color="white" stop-opacity="0"/>
</linearGradient>
</defs>
</svg>
