<svg width="32" height="28" viewBox="0 0 32 28" fill="none" xmlns="http://www.w3.org/2000/svg">
<path d="M29.5527 19.2079C29.3135 19.0163 29.0332 18.8918 28.7625 18.7724C28.6103 18.7052 28.4532 18.6355 28.3107 18.5558C28.0594 18.4164 27.7936 18.3517 27.535 18.2895C27.3538 18.2447 27.1798 18.2049 27.0251 18.1377C26.9357 18.1004 26.8125 17.9734 26.6917 17.8515C26.4814 17.6374 26.247 17.396 25.9063 17.284C25.6526 17.1994 25.3795 17.3437 25.2974 17.6051C25.2152 17.8664 25.3554 18.1476 25.6091 18.2323C25.7275 18.2721 25.8725 18.4189 26.0102 18.5583C26.189 18.74 26.3896 18.9466 26.6578 19.0586C26.885 19.1532 27.1121 19.2104 27.3127 19.2577C27.5181 19.3075 27.7114 19.3548 27.8491 19.4319C28.0279 19.5315 28.2068 19.6111 28.3783 19.6858C28.6031 19.7854 28.8133 19.8799 28.9559 19.9919C29.3401 20.3006 29.63 20.5992 29.7968 20.8531C29.9563 21.0945 30.036 21.4505 30.036 21.9109C30.036 22.0179 29.9249 22.1648 29.7968 22.3365C29.717 22.4411 29.6276 22.5605 29.5479 22.6949C29.502 22.7721 29.4561 22.8542 29.4126 22.9339C29.2845 23.1678 29.1733 23.3694 28.9824 23.5337C28.9075 23.5984 28.835 23.6656 28.7601 23.7353C28.5644 23.9145 28.3614 24.1012 28.1294 24.243C27.953 24.3501 27.7404 24.4372 27.5157 24.5293C27.3779 24.5865 27.2378 24.6438 27.0952 24.7085C26.9526 24.7732 26.7738 24.813 26.5853 24.8553C26.4041 24.8952 26.1987 24.94 25.9909 25.0171C25.7734 25.0968 25.5922 25.2162 25.4158 25.3307C25.2563 25.4353 25.1041 25.5348 24.9591 25.5796C24.7609 25.6393 24.5773 25.7215 24.4009 25.8011C24.2148 25.8857 24.0384 25.9654 23.8644 26.0077C23.7605 26.0326 23.5986 26.0102 23.4295 25.9853C23.1999 25.9529 22.9389 25.9156 22.6683 25.9704C22.4677 26.0102 22.2575 26.0326 22.0376 26.0575C21.866 26.0774 21.692 26.0973 21.5156 26.1247C21.2523 26.1645 21.071 26.4184 21.1097 26.6922C21.1459 26.9386 21.3513 27.1153 21.5857 27.1153C21.6099 27.1153 21.6341 27.1153 21.6582 27.1103C21.8201 27.0854 21.982 27.068 22.1415 27.0481C22.3711 27.0232 22.6103 26.9958 22.8471 26.9485C22.9655 26.9261 23.1274 26.9485 23.299 26.9709C23.5382 27.0033 23.8088 27.0431 24.0867 26.9759C24.3477 26.9137 24.5845 26.8067 24.7923 26.7096C24.947 26.6399 25.092 26.5727 25.2273 26.5329C25.5076 26.4507 25.7347 26.2989 25.9353 26.167C26.073 26.0774 26.2011 25.9928 26.3147 25.9505C26.4621 25.8957 26.6192 25.8609 26.7859 25.8235C27.0155 25.7737 27.2547 25.719 27.4891 25.612C27.6196 25.5522 27.7476 25.5 27.8733 25.4477C28.1222 25.3456 28.3807 25.2386 28.6176 25.0943C28.9341 24.9026 29.183 24.6736 29.4029 24.4695C29.4706 24.4073 29.5382 24.3451 29.6059 24.2854C29.9273 24.0066 30.0988 23.693 30.2511 23.4167C30.2897 23.347 30.3284 23.2773 30.3695 23.2101C30.4226 23.1205 30.4903 23.0309 30.5604 22.9364C30.7561 22.675 31.0002 22.349 31.0002 21.9034C31.0002 21.2314 30.8673 20.7038 30.5966 20.2881C30.3719 19.9447 30.0191 19.5763 29.5503 19.2005L29.5527 19.2079Z" fill="#FFBE39" stroke="#FFBE39" stroke-width="0.5"/>
<path d="M10.8083 26.1968C10.5159 26.1545 10.2429 26.2192 10.0012 26.2765C9.83449 26.3163 9.66292 26.3561 9.55902 26.3387C9.38745 26.3063 9.21588 26.2815 9.04673 26.2566C8.80267 26.2192 8.57311 26.1869 8.35805 26.1371C7.96659 26.0475 7.57029 25.9454 7.17883 25.8334C7.05801 25.7986 6.91785 25.6841 6.77045 25.5597C6.58922 25.4103 6.38382 25.2386 6.12768 25.149C5.91987 25.0768 5.72655 24.9723 5.52115 24.8603C5.37375 24.7806 5.22151 24.6985 5.06203 24.6288C4.69232 24.4645 4.3661 24.2978 4.03021 24.1011C3.91422 24.0339 3.80065 23.9717 3.68949 23.9095C3.44543 23.7776 3.2352 23.6631 3.06847 23.5187C2.73258 23.235 2.52236 23.006 2.36287 22.7497L2.27346 22.6078C2.08015 22.3041 1.96174 22.1075 1.96174 21.9084C1.96174 21.6122 1.98349 21.2712 2.14297 21.0024L2.17197 20.9502C2.33387 20.6739 2.51511 20.3628 2.75917 20.1437C2.83891 20.0716 3.00323 20.0118 3.17479 19.9471C3.35603 19.8799 3.56384 19.8028 3.76199 19.6808C3.89489 19.5987 4.07129 19.5364 4.25736 19.4717C4.41684 19.417 4.59807 19.3523 4.77689 19.2676C4.95812 19.1805 5.11519 19.0735 5.26984 18.9665C5.43175 18.8545 5.5864 18.7474 5.74346 18.6877C5.86429 18.6404 5.98753 18.5906 6.11318 18.5409C6.33549 18.4488 6.56747 18.3567 6.79945 18.2845C7.05559 18.2049 7.20058 17.9286 7.12325 17.6648C7.04592 17.4009 6.7777 17.2516 6.52156 17.3312C6.25092 17.4159 5.99961 17.5179 5.75796 17.615C5.64197 17.6623 5.52599 17.7096 5.41241 17.7519C5.14661 17.8514 4.92671 18.0032 4.73339 18.1377C4.60774 18.2248 4.48692 18.3069 4.37818 18.3592C4.24286 18.4239 4.10029 18.4737 3.95047 18.5259C3.72332 18.6056 3.48893 18.6877 3.26662 18.8246C3.15063 18.8968 3.00323 18.9515 2.84857 19.0088C2.61176 19.0959 2.34596 19.1955 2.12848 19.3896C1.76843 19.7107 1.53403 20.1114 1.34797 20.4325L1.31897 20.4822C1.03625 20.9651 1 21.4952 1 21.9034C1 22.4112 1.23923 22.787 1.46879 23.1479L1.55336 23.2823C1.77084 23.6307 2.04148 23.9294 2.45953 24.2828C2.70359 24.4894 2.96456 24.6313 3.24245 24.7831C3.34394 24.8379 3.45027 24.8976 3.55901 24.9598C3.92389 25.1739 4.28152 25.3556 4.68507 25.5348C4.81314 25.592 4.94121 25.6617 5.07894 25.7364C5.29642 25.8534 5.5429 25.9878 5.82079 26.0848C5.91745 26.1197 6.04552 26.2267 6.17117 26.3287C6.37899 26.5005 6.6158 26.6971 6.92752 26.7842C7.3359 26.9012 7.74669 27.0057 8.15265 27.1003C8.40396 27.1576 8.66252 27.1974 8.91141 27.2347C9.0709 27.2596 9.2328 27.282 9.39228 27.3119C9.46961 27.3268 9.54694 27.3318 9.62185 27.3318C9.83449 27.3318 10.0375 27.2845 10.2211 27.2397C10.3975 27.1974 10.5643 27.1601 10.6778 27.175C10.9436 27.2123 11.1853 27.0232 11.2239 26.7494C11.2626 26.4756 11.0765 26.2267 10.8107 26.1869L10.8083 26.1968Z" fill="#FFBE39" stroke="#FFBE39" stroke-width="0.5"/>
<path d="M21.9674 24.5167C22.11 24.4793 22.2767 24.4744 22.4507 24.4719C22.6827 24.4644 22.9485 24.4569 23.2046 24.3673C23.3496 24.3151 23.5043 24.2752 23.6541 24.2354C23.9102 24.1657 24.1736 24.096 24.4153 23.9716C24.7729 23.7874 24.988 23.4962 25.1595 23.2622C25.2345 23.1602 25.3045 23.0656 25.3649 23.0109C25.5655 22.8292 25.5824 22.5131 25.406 22.309C25.2296 22.1024 24.9227 22.085 24.7246 22.2667C24.5941 22.3861 24.4902 22.5255 24.3911 22.6624C24.263 22.8366 24.1398 23.0034 23.9852 23.083C23.8329 23.1602 23.6275 23.2174 23.41 23.2747C23.2433 23.3195 23.0717 23.3668 22.8905 23.429C22.7745 23.4713 22.6054 23.4738 22.4241 23.4788C22.2139 23.4838 21.9771 23.4912 21.733 23.5534C21.4503 23.6256 21.2353 23.8098 21.0444 23.9741C20.9187 24.0811 20.7737 24.2031 20.6843 24.2205L20.3847 24.2777C20.1019 24.3325 19.8071 24.3897 19.5196 24.4296C19.406 24.4445 19.2417 24.4096 19.0653 24.3698C18.843 24.32 18.5893 24.2628 18.3186 24.2877C18.0697 24.3076 17.8377 24.3947 17.6348 24.4694C17.4584 24.5341 17.2916 24.5963 17.1539 24.6013C17.0548 24.5963 16.9026 24.5391 16.7503 24.4744C16.5208 24.3773 16.2622 24.2678 15.9674 24.2678C15.7354 24.2678 15.5204 24.3026 15.3126 24.335C15.1192 24.3648 14.9356 24.3947 14.7737 24.3872C14.52 24.3748 14.2783 24.4221 14.0657 24.4644C13.8796 24.4992 13.7081 24.5341 13.5655 24.5216C13.4567 24.5117 13.3021 24.4196 13.1499 24.33C12.9396 24.2055 12.7004 24.0637 12.4177 24.0263C12.147 23.989 11.8933 24.0288 11.6686 24.0662C11.4898 24.0935 11.323 24.1209 11.207 24.0985C11.05 24.0687 10.8832 23.9791 10.7044 23.887C10.5159 23.7874 10.3202 23.6854 10.0979 23.6256C9.81759 23.5534 9.54695 23.5734 9.30772 23.5933C9.14099 23.6057 8.96942 23.6206 8.88243 23.5883C8.44022 23.4265 8.07534 23.2722 7.80228 23.1229C7.55097 22.9885 7.34557 22.7669 7.14743 22.5529C7.08701 22.4857 7.0266 22.4235 6.97103 22.3662C6.78013 22.1746 6.47566 22.1771 6.28717 22.3737C6.10111 22.5703 6.10353 22.8864 6.29442 23.0781C6.34517 23.1278 6.39591 23.1851 6.44908 23.2423C6.67864 23.4887 6.96378 23.7949 7.35524 24.0064C7.66938 24.1757 8.07534 24.3499 8.56104 24.5266C8.84135 24.6287 9.1289 24.6063 9.38263 24.5864C9.56386 24.5714 9.73301 24.559 9.85867 24.5913C9.97707 24.6237 10.1172 24.6959 10.2646 24.773C10.4845 24.89 10.7334 25.0194 11.0282 25.0767C11.3061 25.1314 11.5743 25.0866 11.8136 25.0493C11.99 25.0219 12.1591 24.997 12.292 25.0145C12.3838 25.0269 12.5288 25.1115 12.6666 25.1937C12.8985 25.3305 13.1619 25.4874 13.4833 25.5147C13.754 25.5371 14.0101 25.4874 14.2397 25.445C14.4185 25.4102 14.5876 25.3778 14.7326 25.3853C14.9888 25.3953 15.228 25.3579 15.4576 25.3206C15.6364 25.2907 15.8079 25.2658 15.965 25.2658C16.0689 25.2658 16.226 25.333 16.3782 25.3977C16.6029 25.4923 16.8567 25.5994 17.1418 25.5994C17.1563 25.5994 17.1732 25.5994 17.1877 25.5994C17.4753 25.5869 17.7314 25.4923 17.9586 25.4077C18.118 25.348 18.2703 25.2932 18.3935 25.2808C18.5216 25.2708 18.6859 25.3057 18.8575 25.3455C19.0919 25.3977 19.3577 25.4575 19.638 25.4202C19.957 25.3778 20.2638 25.3181 20.5611 25.2609L20.8535 25.2036C21.1918 25.1389 21.4503 24.9199 21.6557 24.7432C21.762 24.6536 21.8949 24.5391 21.9626 24.5216L21.9674 24.5167Z" fill="#FFBE39" stroke="#FFBE39" stroke-width="0.5"/>
<path d="M5.8662 10.8349C5.87828 10.9668 5.84929 11.1311 5.82029 11.3078C5.77679 11.5642 5.72847 11.8554 5.78404 12.159C5.85895 12.5747 5.95803 13.0177 6.07402 13.4383C6.15859 13.7445 6.27458 14.0307 6.38815 14.3095C6.43648 14.4289 6.48481 14.5484 6.53072 14.6654C6.63463 14.9417 6.78203 15.1756 6.92219 15.4021C7.00918 15.5415 7.09134 15.6759 7.15658 15.8053C7.2919 16.0791 7.45622 16.318 7.6157 16.5495C7.69303 16.664 7.77277 16.776 7.84526 16.893C7.90809 16.995 7.95159 17.1543 7.9975 17.3261C8.06758 17.5899 8.14732 17.8886 8.34547 18.1399C8.55328 18.4063 8.83842 18.5407 9.08973 18.6576C9.23472 18.7273 9.38695 18.797 9.45944 18.8717C9.55368 18.9663 9.64068 19.1032 9.7325 19.2475C9.87265 19.4666 10.0297 19.713 10.2665 19.9021C10.3463 19.9668 10.426 20.034 10.5058 20.0987C10.7547 20.3053 11.0108 20.5194 11.2984 20.6961C11.5907 20.8778 11.9097 20.8902 12.19 20.9002C12.3471 20.9052 12.5114 20.9126 12.5984 20.9524C12.7071 21.0022 12.828 21.0993 12.956 21.2013C13.1614 21.3681 13.3934 21.5548 13.7003 21.6444C13.8114 21.6767 13.925 21.7141 14.0386 21.7514C14.3261 21.846 14.6258 21.943 14.9472 21.9903C15.0317 22.0028 15.1163 22.0078 15.1985 22.0078C15.4063 22.0078 15.6069 21.9754 15.7881 21.9455C15.95 21.9206 16.1022 21.8958 16.2375 21.8958C16.5444 21.8958 16.8247 21.8236 17.0712 21.7589C17.2162 21.7215 17.3539 21.6842 17.4868 21.6668C17.6004 21.6518 17.7527 21.6767 17.9146 21.7016C18.1804 21.7439 18.48 21.7937 18.7917 21.7016C19.1204 21.607 19.4224 21.4652 19.7124 21.3283C19.8042 21.286 19.8936 21.2437 19.983 21.2038C20.2609 21.0794 20.4784 20.8877 20.6717 20.7185C20.7949 20.6115 20.9109 20.5094 21.0269 20.4372C21.1284 20.375 21.2782 20.3327 21.4377 20.2879C21.6914 20.2157 21.9814 20.1336 22.2327 19.932C22.4671 19.7428 22.6314 19.5014 22.7764 19.2873C22.8731 19.1455 22.9625 19.0136 23.0591 18.914C23.2839 18.685 23.4699 18.4361 23.6512 18.1947C23.7213 18.1026 23.7913 18.008 23.8614 17.9159C24.0451 17.682 24.1804 17.4356 24.3133 17.1991C24.3834 17.0747 24.451 16.9502 24.5283 16.8283C24.6033 16.7063 24.6927 16.5893 24.7869 16.4624C24.944 16.2508 25.1083 16.0318 25.2388 15.7655C25.2871 15.6684 25.4079 15.549 25.5239 15.4345C25.6278 15.3324 25.7366 15.2229 25.8332 15.0985C25.9395 15.2503 26.0749 15.3922 26.2561 15.4942C26.4857 15.6236 26.7225 15.6585 26.9472 15.6585C27.0994 15.6585 27.2444 15.6411 27.3773 15.6286C27.6045 15.6037 27.7954 15.6012 27.9814 15.6112C28.3125 15.6286 28.687 15.646 29.0664 15.4444C29.1244 15.4146 29.1848 15.3822 29.2452 15.3523C29.5763 15.1856 29.9532 14.9939 30.2287 14.643C30.4849 14.3169 30.6105 13.9088 30.7217 13.5454C30.741 13.4782 30.7627 13.4135 30.7845 13.3487C30.915 12.9505 30.9102 12.5498 30.9077 12.1615V11.9948C30.9077 11.8753 30.9198 11.7459 30.9367 11.6065C30.9706 11.2979 31.0068 10.9469 30.8957 10.601C30.7386 10.1181 30.5066 9.6676 30.2456 9.3316C29.9532 8.95826 29.5304 8.73674 29.1896 8.55754L29.0857 8.50278C28.6701 8.28126 28.2207 8.06473 27.718 8.06473C27.2154 8.06473 26.8505 8.35344 26.5509 8.59985C26.5292 8.51025 26.5147 8.41318 26.5147 8.25638C26.5147 7.90046 26.5147 7.23591 25.7583 6.79288C25.507 6.64603 25.2243 6.57385 24.9222 6.49919C24.7627 6.45936 24.5984 6.41705 24.4365 6.36478C24.3133 6.32496 24.1755 6.26025 24.0306 6.19056C23.7865 6.07607 23.511 5.94664 23.1921 5.87446C22.9407 5.81722 22.6846 5.79482 22.4357 5.7749C22.2545 5.75997 22.066 5.74504 21.8872 5.71517C21.6359 5.67286 21.3797 5.65793 21.1332 5.64299C20.9544 5.63304 20.7732 5.62059 20.5895 5.60068C20.3262 5.57081 20.0845 5.76495 20.0555 6.03873C20.0265 6.31252 20.215 6.55892 20.4808 6.58879C20.6862 6.61368 20.8844 6.62612 21.0753 6.63608C21.3096 6.65101 21.5295 6.66346 21.7325 6.6983C21.95 6.73315 22.1554 6.75057 22.356 6.76799C22.5807 6.7879 22.7958 6.80533 22.9794 6.84764C23.1993 6.89742 23.4071 6.99697 23.627 7.09902C23.7913 7.17618 23.9605 7.25582 24.1369 7.31307C24.3326 7.37778 24.5235 7.42756 24.6927 7.46738C24.9246 7.52463 25.1445 7.57938 25.2774 7.65903C25.4345 7.75112 25.4997 7.83326 25.5263 7.96019C25.3523 8.06971 25.2098 8.21904 25.0745 8.36838C24.9295 8.52767 24.7917 8.67701 24.6395 8.74421C24.4438 8.82883 24.2142 8.90599 23.9726 8.98563C23.8107 9.0379 23.6439 9.09266 23.4772 9.15488C23.2887 9.22208 23.0736 9.27435 22.8465 9.32662C22.6629 9.36893 22.4768 9.41373 22.2883 9.47098C22.1167 9.52076 21.95 9.58298 21.7857 9.64271C21.5561 9.72734 21.3411 9.80698 21.1187 9.85676C20.9544 9.8941 20.7587 9.89907 20.5509 9.90405C20.3382 9.90903 20.1208 9.91401 19.8912 9.95383C19.7172 9.9837 19.5167 9.97872 19.3064 9.97623C19.1034 9.97374 18.8932 9.96876 18.6709 9.99116C18.3882 10.021 18.1417 10.1505 17.9242 10.2649C17.7623 10.3521 17.5932 10.4392 17.4748 10.4442C17.3346 10.4466 17.1606 10.3994 16.9721 10.3471C16.7547 10.2873 16.5082 10.2177 16.2448 10.2102C16.0563 10.2052 15.8582 10.1579 15.6479 10.1081C15.4498 10.0609 15.2444 10.0136 15.0269 9.99365C14.7321 9.96876 14.4566 10.0459 14.215 10.1156C14.0434 10.1654 13.867 10.2177 13.7607 10.2002C13.4538 10.1554 13.1445 10.0857 12.8449 10.0185C12.7434 9.99614 12.6395 9.97374 12.5404 9.95134C12.3737 9.9165 12.2069 9.88414 12.0426 9.85427C11.7841 9.80698 11.54 9.76218 11.3177 9.69996C11.1509 9.65267 10.9794 9.54813 10.7981 9.43613C10.6097 9.32164 10.4139 9.19968 10.1916 9.12253C9.94031 9.03541 9.68901 9.00306 9.46669 8.97319C9.27096 8.9483 9.08731 8.92341 8.95683 8.86865C8.8215 8.81141 8.68377 8.66954 8.5412 8.51771C8.37205 8.341 8.19806 8.15682 7.96367 8.03984C7.76552 7.94028 7.57946 7.8457 7.40306 7.75361C7.54079 7.69388 7.70028 7.63912 7.87909 7.57938C7.98058 7.54454 8.08691 7.50969 8.19806 7.46987C8.44454 7.38276 8.63302 7.20604 8.80217 7.04924C8.93508 6.92479 9.07281 6.79786 9.18397 6.77048C9.37728 6.72319 9.5996 6.69083 9.83157 6.65599C9.99589 6.63359 10.1626 6.6087 10.3318 6.57634C10.4671 6.55145 10.6411 6.56141 10.8247 6.57137C11.0301 6.58381 11.2645 6.59625 11.5062 6.5639C11.7188 6.53403 11.917 6.47679 12.1079 6.41954C12.2988 6.36229 12.48 6.30754 12.6491 6.2926C12.77 6.28265 12.9343 6.315 13.1058 6.35234C13.3209 6.39714 13.5698 6.4519 13.8284 6.43447C14.0942 6.41705 14.2971 6.18309 14.2827 5.90682C14.2657 5.63304 14.0313 5.4165 13.7704 5.4389C13.635 5.44637 13.4731 5.41152 13.2992 5.37667C13.0768 5.32938 12.8231 5.27463 12.5573 5.30201C12.2939 5.3269 12.0499 5.39908 11.8348 5.46379C11.6705 5.51357 11.5158 5.55837 11.3781 5.57828C11.2259 5.59819 11.0567 5.58823 10.8755 5.57828C10.6459 5.56583 10.4067 5.5509 10.1602 5.59819C10.0031 5.62557 9.84849 5.64797 9.69625 5.67037C9.44978 5.70521 9.19364 5.74255 8.95441 5.80228C8.60644 5.8894 8.35513 6.12336 8.15457 6.31003C8.06033 6.39714 7.94192 6.50914 7.88151 6.52905C7.77519 6.56639 7.67611 6.60123 7.57946 6.63359C7.26774 6.73812 6.97293 6.83768 6.71196 6.99946C6.30116 7.25582 5.8807 7.60427 5.8807 8.25389C5.8807 8.51522 5.8517 8.63221 5.81546 8.77905C5.77196 8.95826 5.72363 9.16235 5.72363 9.54565C5.72363 9.84183 5.76471 10.1156 5.80579 10.3794C5.82996 10.5362 5.85412 10.6856 5.8662 10.8324V10.8349ZM27.1139 9.40875C27.3411 9.22208 27.5368 9.06279 27.7156 9.06279C28.0032 9.06279 28.3294 9.22457 28.6411 9.38884L28.7499 9.44609C29.035 9.59542 29.3298 9.74974 29.4917 9.95632C29.6802 10.1977 29.8566 10.5462 29.9774 10.917C30.0233 11.0539 29.9992 11.2705 29.975 11.497C29.9581 11.6563 29.9412 11.8205 29.9412 11.9948V12.169C29.9436 12.4901 29.946 12.7937 29.8687 13.0326C29.8469 13.1023 29.8252 13.172 29.8034 13.2417C29.714 13.5329 29.6198 13.8341 29.4772 14.0158C29.3371 14.195 29.0737 14.3269 28.8223 14.4563C28.7547 14.4912 28.6894 14.5235 28.6242 14.5584C28.484 14.633 28.3076 14.6281 28.0298 14.6131C27.776 14.6007 27.5102 14.6081 27.2734 14.6355C27.039 14.6629 26.8385 14.6853 26.7225 14.6181C26.6258 14.5633 26.5388 14.3841 26.4446 14.195C26.4011 14.1029 26.3479 14.0058 26.2923 13.9063C26.2996 13.8789 26.3068 13.8515 26.3141 13.8266C26.3455 13.6972 26.3769 13.5653 26.4132 13.4383C26.5026 13.1173 26.4446 12.8062 26.3938 12.5324C26.3624 12.3681 26.331 12.1964 26.3503 12.0918C26.3769 11.9475 26.4156 11.7981 26.4567 11.6413C26.5243 11.3875 26.5944 11.1261 26.6186 10.8324C26.6282 10.7179 26.6403 10.601 26.6524 10.4865C26.679 10.2351 26.7007 9.97623 26.7104 9.70992C26.72 9.70494 26.7321 9.69996 26.7418 9.69249C26.8771 9.60289 26.9979 9.50333 27.1163 9.40626L27.1139 9.40875ZM7.8501 9.21711C8.03616 9.41373 8.27056 9.65765 8.58953 9.79205C8.83842 9.89659 9.09698 9.93143 9.34587 9.96379C9.53919 9.98868 9.72042 10.0136 9.8799 10.0683C10.008 10.1131 10.1505 10.2002 10.3028 10.2948C10.5227 10.4292 10.7692 10.581 11.0615 10.6632C11.3273 10.7378 11.6052 10.7876 11.8735 10.8374C12.0281 10.8648 12.1852 10.8946 12.3423 10.927C12.4413 10.9469 12.5404 10.9693 12.6395 10.9917C12.956 11.0639 13.2822 11.1361 13.623 11.1859C13.9323 11.2331 14.2222 11.1485 14.4784 11.0739C14.6572 11.0216 14.8215 10.9718 14.9496 10.9843C15.0994 10.9967 15.2637 11.0365 15.4353 11.0763C15.6721 11.1311 15.9403 11.1958 16.2279 11.2008C16.3729 11.2033 16.542 11.2506 16.7208 11.3028C16.9431 11.3651 17.192 11.4347 17.4554 11.4347C17.4748 11.4347 17.4941 11.4347 17.5134 11.4347C17.8445 11.4223 18.1224 11.2755 18.3664 11.146C18.5138 11.0689 18.6661 10.9867 18.7676 10.9768C18.9343 10.9594 19.1083 10.9619 19.2919 10.9668C19.536 10.9718 19.7873 10.9768 20.0483 10.932C20.2126 10.9046 20.389 10.8996 20.5775 10.8946C20.8215 10.8897 21.0753 10.8822 21.3314 10.8225C21.6117 10.7578 21.8654 10.6657 22.1119 10.5736C22.2617 10.5188 22.4091 10.4641 22.5565 10.4218C22.7257 10.372 22.8972 10.3321 23.064 10.2923C23.308 10.2351 23.5618 10.1753 23.801 10.0882C23.9605 10.031 24.1175 9.97872 24.2698 9.92894C24.5332 9.84183 24.7821 9.75969 25.0189 9.65765C25.3113 9.53071 25.5215 9.32413 25.6955 9.13746C25.7269 9.24697 25.7486 9.35151 25.7486 9.54813C25.7486 9.82192 25.7196 10.0932 25.6906 10.3794C25.6786 10.5014 25.6641 10.6234 25.6544 10.7453C25.6375 10.9494 25.5819 11.1585 25.5215 11.38C25.4756 11.5492 25.4297 11.726 25.3958 11.9126C25.3451 12.2013 25.3958 12.4776 25.4393 12.7215C25.4708 12.8958 25.5046 13.075 25.478 13.1695C25.4418 13.3064 25.4055 13.4458 25.3717 13.5852C25.304 13.859 25.2412 14.1178 25.1542 14.3493C25.1131 14.4563 24.9802 14.5882 24.8521 14.7152C24.6854 14.8794 24.4969 15.0661 24.3737 15.3125C24.2819 15.4967 24.1538 15.6709 24.0161 15.8551C23.9146 15.992 23.8107 16.1314 23.714 16.2882C23.627 16.4251 23.5497 16.5669 23.4724 16.7038C23.354 16.9179 23.2428 17.1195 23.1075 17.2912C23.0302 17.3883 22.9577 17.4878 22.8827 17.5874C22.7136 17.8114 22.5565 18.0255 22.3753 18.2071C22.2158 18.3689 22.0974 18.5456 21.9814 18.7174C21.8654 18.8891 21.7543 19.0509 21.6359 19.148C21.5368 19.2276 21.3628 19.2774 21.1792 19.3297C20.9738 19.3869 20.7418 19.4541 20.5291 19.586C20.3455 19.7005 20.1933 19.8349 20.0459 19.9643C19.8912 20.1012 19.7438 20.2307 19.5988 20.2954C19.5046 20.3377 19.4079 20.3825 19.3137 20.4273C19.043 20.5542 18.7869 20.6737 18.5283 20.7508C18.4196 20.7832 18.248 20.7533 18.0668 20.7235C17.8517 20.6886 17.6077 20.6488 17.3539 20.6836C17.1703 20.711 16.9987 20.7558 16.8344 20.7981C16.6242 20.8529 16.426 20.9052 16.24 20.9052C16.0273 20.9052 15.8316 20.9375 15.6407 20.9674C15.4329 20.9997 15.2396 21.0321 15.0801 21.0097C14.8384 20.9748 14.592 20.8952 14.331 20.8081C14.2077 20.7683 14.0845 20.7284 13.9637 20.6911C13.8404 20.6538 13.7003 20.5418 13.5505 20.4223C13.3886 20.2929 13.2049 20.1435 12.9826 20.044C12.7265 19.9295 12.4582 19.9195 12.2238 19.9096C12.0595 19.9021 11.8735 19.8971 11.7937 19.8474C11.5666 19.7055 11.3467 19.5238 11.1123 19.3297C11.0277 19.26 10.9431 19.1903 10.861 19.1231C10.7474 19.031 10.6459 18.8717 10.5372 18.7024C10.4284 18.5307 10.3028 18.3366 10.1385 18.1698C9.94515 17.9707 9.7035 17.8587 9.49086 17.7591C9.32896 17.682 9.16222 17.6048 9.09698 17.5202C9.02448 17.4281 8.97616 17.2439 8.92783 17.0672C8.86742 16.8432 8.79976 16.5893 8.65719 16.3604C8.57744 16.2309 8.49045 16.1065 8.40346 15.9796C8.25847 15.768 8.12074 15.5689 8.01925 15.3598C7.93226 15.1856 7.83318 15.0263 7.73652 14.8695C7.6157 14.6753 7.50213 14.4912 7.43205 14.307C7.38372 14.18 7.33298 14.0531 7.27982 13.9262C7.17349 13.6648 7.072 13.4184 7.00434 13.172C6.89802 12.7813 6.80378 12.3706 6.7337 11.9848C6.71196 11.8554 6.74095 11.6737 6.77237 11.4796C6.80861 11.2605 6.84969 11.0116 6.82794 10.7503C6.81345 10.5711 6.78445 10.3994 6.76028 10.2326C6.72404 9.99614 6.69021 9.76965 6.69021 9.5556C6.69021 9.29426 6.7192 9.17728 6.75545 9.03044C6.78445 8.90848 6.81586 8.77407 6.83519 8.57994C7.05267 8.69692 7.28948 8.81888 7.54563 8.94581C7.62778 8.98812 7.74377 9.10759 7.85493 9.22457L7.8501 9.21711Z" fill="#FFBE39" stroke="#FFBE39" stroke-width="0.5"/>
<path d="M8.38916 12.6419C8.62839 12.734 8.87003 12.7465 9.10442 12.7589C9.28324 12.7689 9.45239 12.7764 9.59013 12.8236C9.82935 12.9008 10.0637 12.9157 10.2909 12.9282C10.4649 12.9381 10.6292 12.9481 10.7742 12.9854C10.9119 13.0228 11.0497 13.0676 11.1898 13.1148C11.4145 13.1895 11.6489 13.2667 11.9075 13.3214C12.0428 13.3488 12.1878 13.3986 12.3424 13.4509C12.5551 13.523 12.7943 13.6027 13.0553 13.6425C13.4298 13.6997 13.8141 13.747 14.2345 13.7869C14.3747 13.7993 14.5269 13.8317 14.6864 13.8665C14.916 13.9138 15.1528 13.9661 15.4137 13.976C15.4307 13.976 15.4452 13.976 15.4621 13.976C15.7279 13.976 15.9671 13.8914 16.1797 13.8142C16.3368 13.7595 16.4866 13.7047 16.6026 13.7022C16.9723 13.6948 17.3227 13.6674 17.661 13.64L17.8519 13.6251C18.2458 13.5952 18.6421 13.5504 19.0964 13.4882C19.251 13.4658 19.4226 13.4782 19.6038 13.4882C19.8479 13.5031 20.0992 13.5205 20.365 13.4683C20.6429 13.4135 20.8942 13.3115 21.1165 13.2219C21.276 13.1572 21.4258 13.0974 21.566 13.0601C21.7086 13.0228 21.885 13.0252 22.071 13.0277C22.3103 13.0327 22.5809 13.0352 22.8467 12.9506C23.1246 12.861 23.3807 12.7415 23.6079 12.637C23.748 12.5723 23.8858 12.5075 24.0187 12.4553C24.2676 12.3582 24.3956 12.072 24.3014 11.8131C24.2072 11.5568 23.9293 11.4249 23.678 11.5219C23.5257 11.5817 23.3711 11.6514 23.2116 11.726C23.0014 11.8231 22.7815 11.9251 22.5567 11.9973C22.4407 12.0346 22.2692 12.0322 22.0855 12.0297C21.856 12.0247 21.595 12.0222 21.3268 12.0919C21.1262 12.1442 20.9425 12.2188 20.7613 12.291C20.5608 12.3731 20.3723 12.4478 20.1814 12.4876C20.0388 12.5175 19.8576 12.5051 19.6667 12.4901C19.454 12.4752 19.2148 12.4603 18.9659 12.4951C18.5309 12.5548 18.154 12.5971 17.777 12.627L17.5837 12.6419C17.2454 12.6693 16.924 12.6942 16.5833 12.7017C16.3127 12.7067 16.0734 12.7913 15.8608 12.866C15.7013 12.9232 15.5539 12.9755 15.4452 12.973C15.2639 12.9655 15.0754 12.9257 14.8749 12.8834C14.6961 12.846 14.5124 12.8062 14.3191 12.7888C13.918 12.749 13.5483 12.7042 13.193 12.6494C13.0118 12.622 12.8306 12.5598 12.6373 12.4951C12.4657 12.4379 12.2869 12.3781 12.0984 12.3383C11.8906 12.296 11.6924 12.2288 11.4822 12.1591C11.3251 12.1068 11.1705 12.0546 11.0134 12.0147C10.7742 11.95 10.5422 11.9376 10.3392 11.9276C10.1652 11.9177 10.0009 11.9077 9.87768 11.8704C9.62154 11.7858 9.37023 11.7733 9.14792 11.7609C8.98119 11.7509 8.8217 11.7434 8.72504 11.7061C8.47615 11.609 8.19584 11.7385 8.1016 11.9973C8.00736 12.2537 8.13302 12.5424 8.38433 12.6395L8.38916 12.6419Z" fill="#FFBE39" stroke="#FFBE39" stroke-width="0.5"/>
<path d="M13.0821 3.50761C13.3938 3.95064 13.8481 4.07509 14.1792 4.16469C14.2855 4.19456 14.387 4.22193 14.4643 4.25429C14.5199 4.27669 14.5755 4.30158 14.6359 4.32398C14.9234 4.43847 15.1941 4.54798 15.3946 4.77946C15.4212 4.82426 15.443 4.99101 15.4599 5.11048C15.484 5.29218 15.5179 5.51618 15.5904 5.75014C15.6484 5.93681 15.6629 6.17077 15.6798 6.46696C15.6846 6.55407 15.6894 6.64367 15.6967 6.73825C15.716 6.99959 15.9287 7.1987 16.1776 7.1987C16.1896 7.1987 16.2017 7.1987 16.2138 7.1987C16.4796 7.17879 16.6802 6.93985 16.6608 6.66607C16.6536 6.57398 16.6488 6.48936 16.6439 6.40722C16.6222 6.05628 16.6053 5.75512 16.511 5.45147C16.4627 5.29467 16.4385 5.1304 16.4168 4.9711C16.3757 4.67741 16.3322 4.37376 16.1268 4.13233C15.7643 3.70921 15.3342 3.53748 14.9887 3.3981C14.9355 3.37818 14.8848 3.35578 14.834 3.33587C14.6987 3.27863 14.561 3.24129 14.4281 3.20396C14.1477 3.1268 13.9713 3.07204 13.8674 2.9252C13.72 2.71364 13.6379 2.36021 13.5896 2.11131C13.5606 1.96696 13.592 1.77531 13.621 1.58864C13.6403 1.4617 13.662 1.32979 13.6669 1.19787C13.679 0.924091 13.4736 0.690131 13.2078 0.677686C12.9468 0.67022 12.7148 0.876801 12.7027 1.15058C12.7003 1.22525 12.6834 1.32481 12.6665 1.42935C12.6278 1.67824 12.5795 1.98687 12.6399 2.30794C12.71 2.6763 12.826 3.14422 13.0821 3.5101V3.50761Z" fill="#FFBE39" stroke="#FFBE39" stroke-width="0.5"/>
<path d="M15.9261 3.54991C16.2475 4.00788 16.7622 4.04023 17.1005 4.06015C17.2238 4.06761 17.3663 4.07508 17.4267 4.10246C17.7336 4.23188 18.1106 4.39366 18.374 4.68238C18.3885 4.74212 18.3933 4.87901 18.3981 4.97359C18.4078 5.1951 18.4199 5.46888 18.5069 5.74516C18.5576 5.90445 18.6325 6.04881 18.7075 6.1857C18.8041 6.3649 18.8959 6.53415 18.908 6.71335C18.9273 6.97469 19.1376 7.17381 19.3889 7.17381C19.401 7.17381 19.413 7.17381 19.4251 7.17381C19.6909 7.1539 19.8915 6.91496 19.8722 6.64117C19.8432 6.24294 19.674 5.92934 19.5508 5.70036C19.4976 5.6008 19.4469 5.50871 19.4275 5.44151C19.3792 5.28968 19.372 5.10301 19.3647 4.9263C19.3502 4.61518 19.3357 4.2966 19.1207 4.04521C18.7075 3.56485 18.1589 3.33338 17.7965 3.17906C17.5862 3.08946 17.3591 3.07702 17.1609 3.06457C16.9749 3.05213 16.7646 3.03968 16.7115 2.96501C16.5689 2.76341 16.4916 2.3602 16.4457 2.11877C16.378 1.76783 16.3442 1.41938 16.3538 1.18542C16.3659 0.91164 16.1605 0.67768 15.8947 0.665235C15.6337 0.657768 15.4018 0.86435 15.3897 1.13813C15.3704 1.57121 15.4501 2.06153 15.4984 2.3154C15.5637 2.65639 15.6652 3.1716 15.9285 3.54991H15.9261Z" fill="#FFBE39" stroke="#FFBE39" stroke-width="0.5"/>
</svg>
