<svg width="360" height="313" viewBox="0 0 360 313" fill="none" xmlns="http://www.w3.org/2000/svg">
<path d="M359.021 177.21C359.021 184.81 354.301 190.5 350.181 194.62C344.841 199.96 338.071 200.65 332.771 200.65C328.081 200.65 325.981 201.39 323.311 202.33C322.101 202.76 320.761 203.23 319.191 203.65C319.291 204.37 319.401 205.09 319.471 205.85C320.031 211.4 320.661 217.69 317.911 224.31C313.651 234.58 306.021 243.11 301.841 247.28C296.381 252.75 289.031 255.47 282.551 257.88C280.741 258.55 279.031 259.18 277.431 259.85C275.701 260.56 273.851 261.48 271.891 262.45C265.871 265.41 259.051 268.78 251.271 268.78C245.681 268.78 242.701 268.41 240.081 268.09C237.671 267.8 235.391 267.52 230.711 267.52C224.201 267.52 220.141 265.29 217.181 263.66C215.811 262.91 215.051 262.5 214.341 262.37C209.761 270.39 203.071 279.76 198.701 284.13C197.121 285.7 195.591 287.44 193.981 289.29C190.441 293.31 186.791 297.46 182.121 300.49C176.841 303.91 170.921 305.21 166.171 306.26C163.841 306.77 161.631 307.26 160.001 307.88C154.131 310.11 147.971 312.05 142.711 312.05C138.371 312.05 134.651 310.73 132.211 307.16C128.151 301.21 132.091 295.39 134.971 291.13C137.961 286.73 142.051 280.69 144.271 270.89C144.881 268.2 145.321 265.86 145.611 263.84C143.431 263.77 141.781 263.95 139.661 264.19C136.971 264.49 133.621 264.87 128.291 264.87C122.611 264.87 119.981 265.28 116.931 265.75C113.731 266.25 110.111 266.81 103.271 266.81C92.0114 266.81 83.1014 265.39 76.0314 262.46C69.1714 259.61 59.5014 254.72 52.3814 247.6C45.3614 240.59 40.4614 230.85 37.5914 223.92C34.9814 217.64 34.3414 209.82 34.1914 202.55C34.0714 202.61 33.9614 202.65 33.8414 202.71C32.2614 203.48 31.2714 204.34 30.9514 204.69C28.9314 206.92 24.0414 205.88 21.7714 205.88C7.56139 205.88 0.121395 191.46 0.121395 177.21C0.121395 176.39 0.0913947 175.6 0.0613947 174.84C-0.0986053 170.64 -0.308605 164.89 4.57139 160.01C4.98139 159.6 5.41139 159.15 5.85139 158.69C9.26139 155.13 14.4314 149.75 21.7714 149.75C27.9714 149.75 31.4714 150.32 34.4314 150.87C35.5814 147.03 37.0314 143.21 38.3814 139.67C39.4414 136.88 40.4414 134.26 41.1914 131.92C42.0314 129.26 42.4014 126.09 42.7914 122.73C43.4014 117.43 44.1014 111.43 47.0014 105.98C50.8714 98.7 55.9814 92.27 60.9214 86.05L62.2914 84.33C68.0014 77.11 75.1714 70.79 80.9314 65.72C85.5514 61.65 91.0814 59.41 95.9614 57.44C98.9714 56.23 101.801 55.08 104.201 53.64C106.461 52.28 108.721 50.02 111.121 47.62C114.951 43.81 119.281 39.49 125.221 37.25C132.171 34.62 139.541 33.35 146.661 32.13C148.131 31.87 149.591 31.62 151.041 31.36C153.421 30.93 155.811 30.63 158.201 30.4C157.391 27.81 156.951 24.91 156.951 21.71C156.951 8.32 164.731 0 177.271 0C190.451 0 199.301 8.72 199.301 21.71C199.301 24.36 198.911 26.84 198.201 29.12C200.061 29.23 201.931 29.41 203.791 29.75C210.541 30.97 216.711 33.53 222.671 36C224.821 36.89 226.851 37.73 228.861 38.49C234.821 40.74 239.721 44.22 244.461 47.59C246.801 49.25 249.011 50.82 251.241 52.16C253.311 53.41 255.451 54.57 257.721 55.8C263.021 58.67 268.511 61.64 273.411 65.96C275.451 67.75 277.821 69.47 280.331 71.28C285.061 74.69 289.941 78.22 293.811 83.11C299.651 90.49 304.471 99.08 308.021 105.73C311.541 112.35 315.951 121.11 318.831 130.18C320.691 136.03 320.851 142.4 320.991 148.56C321.041 150.38 321.081 152.13 321.171 153.8C323.991 153.53 327.161 153.28 332.771 153.28C347.251 153.28 359.021 164.01 359.021 177.21ZM344.021 177.21C344.021 176.18 343.481 175.44 332.771 168.28C332.771 168.28 330.381 166.68 325.841 164.71C325.841 164.71 323.541 163.71 321.841 163.71C320.481 163.85 318.371 164.12 315.841 164.71C309.601 166.15 308.771 167.62 305.381 167.39C302.451 167.2 299.511 165.83 297.401 164.89C294.761 163.73 292.681 162.81 288.871 162.81C284.101 162.81 282.051 163.61 279.221 164.72C275.871 166.04 271.701 167.68 264.081 167.68C257.701 167.68 254.461 167.52 251.321 167.38C248.231 167.23 245.301 167.09 239.281 167.09C232.231 167.09 228.491 166.23 225.201 165.47C222.321 164.8 219.831 164.23 214.481 164.23C209.131 164.23 206.541 164.76 203.621 165.37C200.361 166.05 196.661 166.82 189.691 166.82C184.131 166.82 181.561 167.27 178.571 167.79C175.371 168.34 171.731 168.97 164.891 168.97C158.051 168.97 154.501 168.4 151.321 167.9C148.301 167.43 145.701 167.02 140.091 167.02C133.401 167.02 130.001 166.58 126.721 166.15C123.781 165.77 121.001 165.4 115.291 165.4C110.031 165.4 107.581 166.03 104.741 166.76C101.411 167.61 97.6314 168.58 90.4814 168.58C84.0014 168.58 80.7014 168.32 77.5114 168.08C74.4714 167.84 71.5914 167.62 65.6814 167.62C61.6914 167.62 59.0614 168.12 56.5114 168.6C54.2314 169.02 51.9214 169.46 49.1414 169.46C46.0514 169.46 42.3814 168.92 37.5414 167.22L34.3514 166.1C33.6514 165.98 32.9914 165.86 32.3514 165.74C29.5114 165.21 27.0614 164.75 21.7714 164.75C20.6714 164.91 17.9714 167.72 16.6814 169.08C16.1614 169.61 15.6614 170.13 15.1814 170.61C14.9314 171.14 15.0014 173.04 15.0514 174.29C15.0814 175.23 15.1214 176.2 15.1214 177.21C15.1214 183.67 17.8514 190.88 21.7714 190.88C23.8114 190.88 25.2714 190.69 26.5414 190.35C28.1814 189.91 29.4314 189.31 30.0814 188.97C30.3014 188.86 30.4614 188.77 30.5014 188.75C31.5314 188.17 34.6914 187.47 42.8414 186.71C44.1014 186.47 46.8014 185.98 50.0814 186.42C53.5314 186.88 56.3714 188.2 58.3914 189.15C61.0214 190.38 63.1014 191.36 66.8214 191.36C73.4614 191.36 76.8314 191.82 80.1014 192.26C82.9914 192.65 85.7314 193.02 91.3614 193.02C97.3714 193.02 100.281 192.92 103.371 192.81C106.451 192.71 109.641 192.6 115.901 192.6C121.181 192.6 123.631 192.03 126.481 191.37C129.751 190.61 133.451 189.75 140.441 189.75C146.161 189.75 148.941 189.44 151.881 189.12C155.101 188.76 158.431 188.39 164.991 188.39C172.481 188.39 176.581 189.92 179.881 191.15C182.711 192.2 184.751 192.96 189.531 192.96C195.541 192.96 198.451 192.86 201.541 192.75C204.621 192.64 207.811 192.53 214.081 192.53C220.351 192.53 223.231 192.47 226.211 192.42C229.271 192.36 232.421 192.3 238.621 192.3C244.821 192.3 248.291 192.54 251.441 192.76C254.451 192.98 257.301 193.19 263.171 193.19C267.541 193.19 269.231 192.27 272.021 190.76C275.371 188.95 279.541 186.69 287.261 186.34C292.691 186.1 296.181 186.29 299.241 186.9C304.311 187.92 303.851 188.99 307.381 189.49C313.341 190.33 317.741 187.81 320.161 187.36C321.451 186.97 322.621 186.72 323.641 186.58C325.551 186.31 327.341 185.65 332.771 185.65C337.061 185.65 338.601 184.99 339.581 184.01C340.681 182.91 344.021 179.57 344.021 177.21ZM306.091 152.24C306.051 151.13 306.021 150.02 306.001 148.92C305.881 143.81 305.751 138.53 304.541 134.72C302.021 126.81 298.001 118.84 294.771 112.78C291.531 106.69 287.151 98.86 282.051 92.41C279.471 89.16 275.621 86.38 271.551 83.44C268.861 81.5 266.081 79.49 263.501 77.21C259.871 74.02 255.351 71.58 250.571 68.98C248.261 67.73 245.861 66.43 243.501 65.01C240.781 63.37 238.231 61.56 235.771 59.82C231.631 56.87 227.711 54.09 223.561 52.52C221.331 51.68 219.091 50.75 216.931 49.86C211.451 47.59 206.281 45.45 201.121 44.51C196.791 43.73 191.841 44.05 186.591 44.4C183.571 44.6 180.441 44.8 177.271 44.8H176.741C168.591 44.8 160.901 44.82 153.721 46.12C152.231 46.39 150.721 46.65 149.211 46.91C142.481 48.07 136.131 49.16 130.511 51.28C127.591 52.38 124.741 55.23 121.711 58.25C118.791 61.17 115.761 64.19 111.941 66.49C108.531 68.54 105.001 69.97 101.581 71.35C97.4514 73.02 93.5514 74.6 90.8414 76.98C85.2614 81.9 78.9214 87.47 74.0514 93.64L72.6714 95.38C68.1414 101.07 63.4714 106.96 60.2414 113.03C58.6714 115.97 58.1914 120.09 57.6914 124.46C57.2414 128.37 56.7714 132.42 55.4814 136.46C54.6114 139.2 53.5314 142.03 52.3914 145.02C51.1914 148.18 49.9614 151.4 49.0114 154.46H49.0514C50.5214 154.46 51.9114 154.2 53.7414 153.85C56.6614 153.31 60.2914 152.62 65.6814 152.62C72.1714 152.62 75.4714 152.88 78.6514 153.12C81.7014 153.36 84.5714 153.58 90.4814 153.58C95.7414 153.58 98.1914 152.95 101.031 152.22C104.361 151.37 108.141 150.4 115.291 150.4C121.971 150.4 125.371 150.85 128.651 151.27C131.591 151.66 134.371 152.02 140.091 152.02C146.871 152.02 150.481 152.58 153.651 153.09C156.671 153.56 159.271 153.97 164.891 153.97C170.511 153.97 173.021 153.52 176.001 153.01C179.211 152.45 182.841 151.82 189.691 151.82C195.111 151.82 197.631 151.29 200.551 150.68C203.811 150 207.511 149.23 214.481 149.23C221.451 149.23 225.271 150.09 228.571 150.85C231.451 151.52 233.941 152.09 239.281 152.09C245.661 152.09 248.901 152.24 252.031 152.39C255.131 152.54 258.061 152.68 264.081 152.68C268.861 152.68 270.901 151.87 273.731 150.76C277.091 149.45 281.261 147.81 288.871 147.81C295.851 147.81 300.251 149.75 303.471 151.18C304.521 151.64 305.341 152 306.091 152.24ZM304.061 218.57C305.361 215.43 305.001 211.86 304.551 207.34C304.451 206.39 304.351 205.39 304.261 204.35C303.441 204.04 302.701 203.76 302.021 203.5C296.851 201.52 295.471 200.99 287.931 201.33C283.651 201.52 281.771 202.54 279.161 203.95C275.681 205.84 271.341 208.19 263.171 208.19C256.771 208.19 253.511 207.95 250.361 207.72C247.341 207.51 244.491 207.3 238.621 207.3C232.751 207.3 229.471 207.36 226.491 207.41C223.441 207.47 220.281 207.53 214.081 207.53C207.881 207.53 205.161 207.63 202.071 207.74C198.991 207.85 195.801 207.96 189.531 207.96C182.041 207.96 177.941 206.43 174.641 205.2C171.811 204.15 169.771 203.39 164.991 203.39C159.271 203.39 156.491 203.7 153.541 204.02C150.321 204.38 147.001 204.75 140.441 204.75C135.161 204.75 132.711 205.32 129.871 205.98C126.601 206.74 122.891 207.6 115.901 207.6C109.901 207.6 106.981 207.7 103.891 207.8C100.811 207.91 97.6314 208.02 91.3614 208.02C84.7214 208.02 81.3514 207.56 78.0814 207.12C75.1814 206.73 72.4514 206.36 66.8214 206.36C59.7514 206.36 55.2814 204.26 52.0114 202.72C50.8514 202.18 49.9814 201.77 49.1714 201.52C49.2814 207.52 49.7214 214.02 51.4414 218.18C54.7714 226.2 58.8714 232.88 62.9814 237C67.1814 241.19 73.8514 245.31 81.7814 248.6C86.9214 250.73 94.1514 251.81 103.271 251.81C108.951 251.81 111.581 251.4 114.631 250.93C117.831 250.43 121.451 249.87 128.291 249.87C132.781 249.87 135.431 249.57 137.991 249.28C140.141 249.04 142.141 248.82 144.661 248.82C147.181 248.82 150.281 249.05 154.571 249.73C157.971 250.27 160.571 253.06 160.871 256.49C161.261 261 160.651 266.47 158.901 274.21C156.751 283.71 153.111 290.61 150.071 295.47C151.391 295.05 152.911 294.53 154.671 293.86C157.331 292.85 160.191 292.22 162.951 291.61C166.891 290.74 170.961 289.85 173.961 287.9C176.891 286 179.721 282.79 182.711 279.38C184.411 277.44 186.181 275.44 188.091 273.52C191.651 269.96 198.701 260.09 202.801 252.21C203.691 250.51 205.201 249.21 207.021 248.58C215.541 245.65 220.871 248.58 224.391 250.51C226.591 251.72 228.051 252.52 230.711 252.52C236.311 252.52 239.281 252.88 241.901 253.2C244.311 253.5 246.591 253.78 251.271 253.78C255.551 253.78 260.481 251.35 265.251 248.99C267.341 247.96 269.501 246.89 271.681 245.99C273.551 245.22 275.471 244.5 277.331 243.81C282.621 241.85 288.091 239.82 291.231 236.67C297.001 230.91 301.671 224.31 304.061 218.57ZM184.301 21.71C184.301 18.83 183.571 15 177.271 15C174.531 15 171.951 15 171.951 21.71C171.951 28.86 174.901 28.86 177.271 28.86C181.941 28.86 184.301 26.46 184.301 21.71Z" fill="#FF6666"/>
<path d="M332.772 168.28C343.482 175.44 344.022 176.18 344.022 177.21C344.022 179.57 340.682 182.91 339.582 184.01C338.602 184.99 337.062 185.65 332.772 185.65C327.342 185.65 325.552 186.31 323.642 186.58C322.622 186.72 321.452 186.97 320.162 187.36C317.742 187.81 313.342 190.33 307.382 189.49C303.852 188.99 304.312 187.92 299.242 186.9C296.182 186.29 292.692 186.1 287.262 186.34C279.542 186.69 275.372 188.95 272.022 190.76C269.232 192.27 267.542 193.19 263.172 193.19C257.302 193.19 254.452 192.98 251.442 192.76C248.292 192.54 245.032 192.3 238.622 192.3C232.212 192.3 229.272 192.36 226.212 192.42C223.232 192.47 220.152 192.53 214.082 192.53C208.012 192.53 204.622 192.64 201.542 192.75C198.452 192.86 195.542 192.96 189.532 192.96C184.752 192.96 182.712 192.2 179.882 191.15C176.582 189.92 172.482 188.39 164.992 188.39C158.432 188.39 155.102 188.76 151.882 189.12C148.942 189.44 146.162 189.75 140.442 189.75C133.452 189.75 129.752 190.61 126.482 191.37C123.632 192.03 121.182 192.6 115.902 192.6C109.642 192.6 106.452 192.71 103.372 192.81C100.282 192.92 97.3716 193.02 91.3616 193.02C85.7316 193.02 82.9916 192.65 80.1016 192.26C76.8316 191.82 73.4616 191.36 66.8216 191.36C63.1016 191.36 61.0216 190.38 58.3916 189.15C56.3716 188.2 53.5316 186.88 50.0816 186.42C46.8016 185.98 44.1016 186.47 42.8416 186.71C34.6916 187.47 31.5316 188.17 30.5016 188.75C30.4616 188.77 30.3016 188.86 30.0816 188.97C29.4316 189.31 28.1816 189.91 26.5416 190.35C25.2716 190.69 23.8116 190.88 21.7716 190.88C17.8516 190.88 15.1216 183.67 15.1216 177.21C15.1216 176.2 15.0816 175.23 15.0516 174.29C15.0016 173.04 14.9316 171.14 15.1816 170.61C15.6616 170.13 16.1616 169.61 16.6816 169.08C17.9716 167.72 20.6716 164.91 21.7716 164.75C27.0616 164.75 29.5116 165.21 32.3516 165.74C32.9916 165.86 33.6516 165.98 34.3516 166.1L37.5416 167.22C42.3816 168.92 46.0516 169.46 49.1416 169.46C51.9216 169.46 54.2316 169.02 56.5116 168.6C59.0616 168.12 61.6916 167.62 65.6816 167.62C71.5916 167.62 74.4716 167.84 77.5116 168.08C80.7016 168.32 84.0016 168.58 90.4816 168.58C97.6316 168.58 101.412 167.61 104.742 166.76C107.582 166.03 110.032 165.4 115.292 165.4C121.002 165.4 123.782 165.77 126.722 166.15C130.002 166.58 133.402 167.02 140.092 167.02C145.702 167.02 148.302 167.43 151.322 167.9C154.502 168.4 158.102 168.97 164.892 168.97C171.682 168.97 175.372 168.34 178.572 167.79C181.562 167.27 184.132 166.82 189.692 166.82C196.662 166.82 200.362 166.05 203.622 165.37C206.542 164.76 209.062 164.23 214.482 164.23C219.902 164.23 222.322 164.8 225.202 165.47C228.492 166.23 232.232 167.09 239.282 167.09C245.302 167.09 248.232 167.23 251.322 167.38C254.462 167.52 257.702 167.68 264.082 167.68C271.702 167.68 275.872 166.04 279.222 164.72C282.052 163.61 284.102 162.81 288.872 162.81C292.682 162.81 294.762 163.73 297.402 164.89C299.512 165.83 302.452 167.2 305.382 167.39C308.772 167.62 309.602 166.15 315.842 164.71C318.372 164.12 320.482 163.85 321.842 163.71C323.542 163.71 325.842 164.71 325.842 164.71C330.382 166.68 332.772 168.28 332.772 168.28Z" fill="#FFCCCC"/>
<path d="M306.002 148.92C306.022 150.02 306.052 151.13 306.092 152.24C305.342 152 304.522 151.64 303.472 151.18C300.252 149.75 295.852 147.81 288.872 147.81C281.262 147.81 277.092 149.45 273.732 150.76C270.902 151.87 268.862 152.68 264.082 152.68C258.062 152.68 255.132 152.54 252.032 152.39C248.902 152.24 245.662 152.09 239.282 152.09C233.942 152.09 231.452 151.52 228.572 150.85C225.272 150.09 221.542 149.23 214.482 149.23C207.422 149.23 203.812 150 200.552 150.68C197.632 151.29 195.112 151.82 189.692 151.82C182.842 151.82 179.212 152.45 176.002 153.01C173.022 153.52 170.442 153.97 164.892 153.97C159.342 153.97 156.672 153.56 153.652 153.09C150.482 152.58 146.872 152.02 140.092 152.02C134.372 152.02 131.592 151.66 128.652 151.27C125.372 150.85 121.972 150.4 115.292 150.4C108.142 150.4 104.362 151.37 101.032 152.22C98.1917 152.95 95.7417 153.58 90.4817 153.58C84.5717 153.58 81.7017 153.36 78.6517 153.12C75.4717 152.88 72.1717 152.62 65.6817 152.62C60.2917 152.62 56.6617 153.31 53.7417 153.85C51.9117 154.2 50.5217 154.46 49.0517 154.46H49.0117C49.9617 151.4 51.1917 148.18 52.3917 145.02C53.5317 142.03 54.6117 139.2 55.4817 136.46C56.7717 132.42 57.2417 128.37 57.6917 124.46C58.1917 120.09 58.6717 115.97 60.2417 113.03C63.4717 106.96 68.1417 101.07 72.6717 95.3799L74.0517 93.6399C78.9217 87.4699 85.2617 81.8999 90.8417 76.9799C93.5517 74.5999 97.4517 73.0199 101.582 71.3499C105.002 69.9699 108.532 68.5399 111.942 66.4899C115.762 64.1899 118.792 61.1699 121.712 58.2499C124.742 55.2299 127.592 52.3799 130.512 51.2799C136.132 49.1599 142.482 48.0699 149.212 46.9099C150.722 46.6499 152.232 46.3899 153.722 46.1199C160.902 44.8199 168.592 44.7999 176.742 44.7999H177.272C180.442 44.7999 183.572 44.5999 186.592 44.3999C191.842 44.0499 196.792 43.7299 201.122 44.5099C206.282 45.4499 211.452 47.5899 216.932 49.8599C219.092 50.7499 221.332 51.6799 223.562 52.5199C227.712 54.0899 231.632 56.8699 235.772 59.8199C238.232 61.5599 240.782 63.3699 243.502 65.0099C245.862 66.4299 248.262 67.7299 250.572 68.9799C255.352 71.5799 259.872 74.0199 263.502 77.2099C266.082 79.4899 268.862 81.4999 271.552 83.4399C275.622 86.3799 279.472 89.1599 282.052 92.4099C287.152 98.8599 291.532 106.69 294.772 112.78C298.002 118.84 302.022 126.81 304.542 134.72C305.752 138.53 305.882 143.81 306.002 148.92ZM144.572 71.2099C144.572 67.0699 142.922 63.6699 138.772 63.6699C134.622 63.6699 127.962 67.0699 127.962 71.2099C127.962 75.3499 134.632 80.9299 138.772 80.9299C142.912 80.9299 144.572 75.3499 144.572 71.2099ZM120.262 90.1299C123.672 87.7699 124.522 83.0999 122.162 79.6999C119.802 76.2899 115.132 75.4399 111.722 77.7999C110.252 78.8199 108.292 79.9099 106.212 81.0799C100.422 84.3199 93.2117 88.3499 87.1017 95.5199C80.7317 102.99 78.3217 111.22 76.3817 117.83C75.6317 120.4 74.9117 122.84 74.1317 124.52C72.3917 128.28 74.0317 132.74 77.7917 134.48C78.8117 134.95 79.8817 135.18 80.9417 135.18C83.7717 135.18 86.4817 133.56 87.7517 130.82C88.9917 128.13 89.8617 125.17 90.7817 122.05C92.4717 116.26 94.2317 110.28 98.5217 105.25C102.882 100.12 108.542 96.9599 113.532 94.1699C115.932 92.8299 118.202 91.5599 120.262 90.1299Z" fill="#FFCCCC"/>
<path d="M304.552 207.34C305.002 211.86 305.362 215.43 304.062 218.57C301.672 224.31 297.002 230.91 291.232 236.67C288.092 239.82 282.622 241.85 277.332 243.81C275.472 244.5 273.552 245.22 271.682 245.99C269.502 246.89 267.342 247.96 265.252 248.99C260.482 251.35 255.552 253.78 251.272 253.78C246.592 253.78 244.312 253.5 241.902 253.2C239.282 252.88 236.312 252.52 230.712 252.52C228.052 252.52 226.592 251.72 224.392 250.51C220.872 248.58 215.542 245.65 207.022 248.58C205.202 249.21 203.692 250.51 202.802 252.21C198.702 260.09 191.652 269.96 188.092 273.52C186.182 275.44 184.412 277.44 182.712 279.38C179.722 282.79 176.892 286 173.962 287.9C170.962 289.85 166.892 290.74 162.952 291.61C160.192 292.22 157.332 292.85 154.672 293.86C152.912 294.53 151.392 295.05 150.072 295.47C153.112 290.61 156.752 283.71 158.902 274.21C160.652 266.47 161.262 261 160.872 256.49C160.572 253.06 157.972 250.27 154.572 249.73C150.282 249.05 147.212 248.82 144.662 248.82C142.112 248.82 140.142 249.04 137.992 249.28C135.432 249.57 132.782 249.87 128.292 249.87C121.452 249.87 117.832 250.43 114.632 250.93C111.582 251.4 108.952 251.81 103.272 251.81C94.1519 251.81 86.9219 250.73 81.7819 248.6C73.8519 245.31 67.1819 241.19 62.9819 237C58.8719 232.88 54.7719 226.2 51.4419 218.18C49.7219 214.02 49.2819 207.52 49.1719 201.52C49.9819 201.77 50.8519 202.18 52.0119 202.72C55.2819 204.26 59.7519 206.36 66.8219 206.36C72.4519 206.36 75.1819 206.73 78.0819 207.12C81.3519 207.56 84.7219 208.02 91.3619 208.02C97.6319 208.02 100.812 207.91 103.892 207.8C106.982 207.7 109.902 207.6 115.902 207.6C122.892 207.6 126.602 206.74 129.872 205.98C132.712 205.32 135.162 204.75 140.442 204.75C147.002 204.75 150.322 204.38 153.542 204.02C156.492 203.7 159.272 203.39 164.992 203.39C169.772 203.39 171.812 204.15 174.642 205.2C177.942 206.43 182.042 207.96 189.532 207.96C195.802 207.96 198.992 207.85 202.072 207.74C205.162 207.63 208.072 207.53 214.082 207.53C220.092 207.53 223.442 207.47 226.492 207.41C229.472 207.36 232.562 207.3 238.622 207.3C244.682 207.3 247.342 207.51 250.362 207.72C253.512 207.95 256.772 208.19 263.172 208.19C271.342 208.19 275.682 205.84 279.162 203.95C281.772 202.54 283.652 201.52 287.932 201.33C295.472 200.99 296.852 201.52 302.022 203.5C302.702 203.76 303.442 204.04 304.262 204.35C304.352 205.39 304.452 206.39 304.552 207.34Z" fill="#FFCCCC"/>
<path d="M177.271 15C183.571 15 184.301 18.83 184.301 21.71C184.301 26.46 181.941 28.86 177.271 28.86C174.901 28.86 171.951 28.86 171.951 21.71C171.951 15 174.531 15 177.271 15Z" fill="#FFCCCC"/>
<path d="M138.771 63.6699C142.921 63.6699 144.571 67.0699 144.571 71.2099C144.571 75.3499 142.921 80.9299 138.771 80.9299C134.621 80.9299 127.961 75.3499 127.961 71.2099C127.961 67.0699 134.631 63.6699 138.771 63.6699Z" fill="#FF6666"/>
<path d="M122.162 79.6999C124.522 83.0999 123.672 87.7699 120.262 90.1299C118.202 91.5599 115.932 92.8299 113.532 94.1699C108.542 96.9599 102.882 100.12 98.5215 105.25C94.2315 110.28 92.4715 116.26 90.7815 122.05C89.8615 125.17 88.9915 128.13 87.7515 130.82C86.4815 133.56 83.7715 135.18 80.9415 135.18C79.8815 135.18 78.8115 134.95 77.7915 134.48C74.0315 132.74 72.3915 128.28 74.1315 124.52C74.9115 122.84 75.6315 120.4 76.3815 117.83C78.3215 111.22 80.7315 102.99 87.1015 95.5199C93.2115 88.3499 100.422 84.3199 106.212 81.0799C108.292 79.9099 110.252 78.8199 111.722 77.7999C115.132 75.4399 119.802 76.2899 122.162 79.6999Z" fill="#FF6666"/>
</svg>
