<svg width="323" height="92" viewBox="0 0 323 92" fill="none" xmlns="http://www.w3.org/2000/svg">
<path d="M65.6501 52.7686C65.5501 50.6086 65.2401 49.0686 64.8301 47.9386C64.0101 45.3686 64.1101 41.7686 65.2401 36.9386L65.9601 33.6486C66.2701 32.3086 66.0601 31.5886 65.5501 31.3886C64.9301 31.1786 63.6001 31.3886 61.4401 32.1086C56.9201 33.6486 55.2701 33.7586 52.4901 33.2386C49.1001 32.7286 49.2001 32.4186 49.1001 38.1786C48.7901 43.2186 49.0001 43.3186 47.4501 45.4786C44.4701 50.5186 41.6901 51.9586 35.5201 52.2686C32.9501 52.3686 30.4801 52.5786 28.1201 52.8886C23.1801 53.6086 20.6101 53.5086 16.5001 52.3786C14.1301 51.7586 12.4901 51.4486 11.7701 51.4486C6.94011 51.4486 2.72011 42.2986 4.47011 34.5886C4.98011 32.6386 4.88011 32.1186 3.75011 32.0186C-0.979893 31.1986 -1.28989 23.4886 3.13011 21.5286C4.06011 21.1186 4.57011 20.2986 4.57011 18.9586C4.57011 14.2286 11.2501 13.8186 14.1301 18.6486C14.5401 19.3686 14.9501 19.6786 15.3601 19.6786C15.6701 19.7786 16.7001 19.5786 18.4501 19.1686C22.4601 18.0386 26.0601 17.4186 29.2501 17.2186C31.0001 17.1186 32.8501 16.9086 34.8001 16.4986C36.5501 16.0886 37.6801 15.8786 38.3001 15.8786C38.8101 15.8786 39.9501 16.0886 41.6901 16.5986C46.3201 17.9386 47.9601 19.1686 48.3701 22.0486C48.6801 23.6986 48.9901 23.8986 51.1501 23.7986C53.6201 23.4886 55.6701 22.7686 57.4201 21.6386C60.4001 19.5786 61.9401 19.4786 65.1301 21.1286C68.9301 23.0786 69.1401 21.8486 69.1401 19.2786C69.1401 18.4586 69.3501 16.8086 69.7601 14.4486C70.8901 9.4086 70.6901 8.99862 67.7001 7.24862C64.9201 5.59862 65.7501 2.4186 69.1401 0.668599C72.8401 -1.0814 78.2901 1.07861 79.5301 4.67861C82.1001 12.3886 82.2001 15.9886 79.8401 20.9286C79.3301 22.0586 79.0201 23.1886 78.9101 24.4286C78.5001 28.4386 77.0601 32.7586 75.5201 34.5086C74.7001 35.4386 74.5901 35.4386 74.9001 37.7986C75.5201 45.5086 75.4101 51.6786 74.5901 56.4086C74.1801 59.1886 70.3701 60.7286 68.0101 59.0786C66.6701 58.1486 65.8501 56.0986 65.6501 52.8086V52.7686ZM22.1501 42.4786C27.0901 41.6586 31.2001 41.1386 34.4901 41.0386C34.5901 41.0386 34.8001 41.0386 35.1101 40.9386C37.7834 40.8719 38.9834 39.0886 38.7101 35.5886C38.6101 35.1786 38.6101 34.8686 38.6101 34.6586C38.3001 31.0586 38.2001 28.8986 38.2001 27.9786C38.1001 26.6386 37.9901 25.8186 37.7901 25.5086C37.4801 25.1986 36.5601 24.8886 36.4501 24.9986C36.3501 25.0986 35.1101 25.3086 32.7501 25.7186C27.3001 26.5386 20.2001 28.4986 17.2201 30.1386C16.2901 30.5486 15.5701 30.7586 15.0601 30.8586C14.5501 30.9586 14.3401 31.5786 14.3401 32.7086C14.2401 33.8386 14.4401 35.2786 14.8501 37.0286C15.1601 38.0586 15.2601 39.0886 15.2601 40.1086C15.2601 41.8586 15.5701 42.7786 16.2901 42.9886C16.9101 43.1986 18.8601 42.9886 22.1501 42.4786ZM67.8101 82.6886C68.3201 81.0386 68.5301 79.7086 68.4301 78.5786L68.2201 75.1886C68.1201 72.4086 67.6001 72.2086 63.3901 71.4886C61.6401 71.2786 58.2501 71.7986 53.1101 73.0286C46.2201 74.5686 40.3601 74.9786 35.5301 74.1586C33.3701 73.8486 31.4201 73.6486 29.6701 73.6486C24.7301 73.6486 23.2901 71.7986 24.9401 67.3786C25.4501 66.0386 26.0701 65.1186 26.7901 64.5986C28.4401 63.4686 32.1401 63.3686 38.5101 63.4686C42.8301 63.4686 45.5001 63.4686 46.5301 63.3686C47.4601 63.2686 48.5901 63.0586 49.8201 62.7486C51.5701 62.2386 53.6201 61.8186 55.9901 61.3086C60.5101 60.3786 62.6701 60.3786 65.9601 61.5186C67.4001 62.0286 68.7401 62.4486 69.9701 62.7486C76.8601 64.2886 80.3601 71.7986 78.4001 81.1586C77.5801 85.0686 76.9601 87.4286 76.5501 88.3586C76.1401 89.2886 75.3201 90.1086 74.1801 90.7186C69.1401 93.2886 65.6501 88.9686 67.8001 82.6986L67.8101 82.6886Z" fill="#FF6666"/>
<path d="M143.49 89.1687C139.07 87.7287 133.82 87.6287 127.86 88.9587C122 90.0887 108.73 89.0587 105.24 87.0087C104.52 86.4987 103.29 85.8787 101.23 84.9487C93.9305 81.5587 92.5905 77.1387 97.4305 71.7887C100.72 67.8787 105.55 66.8487 107.61 67.8787C110.59 69.3187 117.17 71.3787 129.1 68.1887C131.36 67.5687 140.21 66.7487 145.14 66.7487C146.68 66.7487 147.71 66.3387 148.02 66.2387C148.33 66.1387 148.53 65.9287 148.64 65.5187C149.05 64.4887 149.26 63.6687 149.15 62.9487C149.05 62.2287 148.84 61.8187 148.33 61.7187C145.25 61.2087 142.16 61.3087 139.18 61.9187C135.07 62.8487 131.57 63.4587 128.79 63.7687C124.57 64.2787 121.28 64.8987 118.92 65.6187C116.76 66.2387 115.01 66.0287 113.47 65.1087C110.49 63.2587 110.59 59.3487 114.4 57.2987C115.63 56.6787 123.35 55.4487 127.87 55.1387C128.69 55.0387 129.41 55.0387 130.23 54.8287L132.9 54.2087C134.44 53.6987 136.19 53.3887 137.84 52.9787C139.9 52.4687 141.95 52.0487 144.11 51.9487C146.27 51.8487 148.43 52.0487 150.59 52.1587L154.81 52.5687C155.63 52.7787 156.56 52.8787 157.28 53.2887C161.08 55.1387 161.91 57.7087 159.85 62.2387C159.23 63.5787 158.82 65.0187 158.72 66.5587C158.31 70.1587 157.07 71.3887 150.49 73.8587C144.22 76.1187 139.38 75.0887 132.8 76.1187C124.27 77.5587 109.66 77.5587 109.25 78.0687C108.94 78.2787 109.04 78.4787 109.46 78.4787C109.88 78.4787 114.7 81.6687 129.82 79.8187C134.34 79.3087 140 80.2287 146.68 81.2587C150.9 81.8787 155.22 81.7687 159.33 80.8487C165.4 79.5087 169.1 79.9187 170.44 81.8787C171.67 83.5287 171.37 85.1687 169.62 86.5087C167.97 88.0487 164.79 89.1787 160.36 89.8987C151.83 91.6487 150.9 91.5487 143.5 89.1787L143.49 89.1687ZM133.62 49.0687C132.69 49.1687 131.26 49.1687 129.4 48.8587C124.77 48.2387 121.38 47.9287 119.22 47.9287C117.06 47.9287 112.43 48.2387 105.44 48.8587C101.02 49.2687 100.5 49.1687 97.5205 48.0387C95.1605 47.2187 94.8505 46.8087 94.8505 44.4387C94.8505 42.0687 95.5705 40.7387 96.9105 40.1187C98.2505 39.6087 101.43 39.3987 106.47 39.4987C111.1 39.5987 114.29 39.4987 116.24 39.1887C120.46 38.6787 123.44 38.6787 130.84 40.2187C134.23 40.8387 138.04 40.7287 142.15 39.9087C150.89 38.1587 157.99 36.9287 163.44 35.9987L166.01 35.6887L168.38 35.9987C171.98 36.5087 173.01 37.7487 172.7 40.7287C172.39 44.2287 169.41 45.6687 163.65 45.1487C161.8 44.9387 157.27 45.8687 150.18 47.9287C145.35 49.2687 141.34 49.6787 137.94 49.2687C135.99 48.9587 134.55 48.9587 133.62 49.0687ZM112.95 30.3487C106.27 27.1587 100.82 16.6687 103.7 12.2487C106.06 8.64872 110.18 6.69871 116.14 6.48871C120.77 6.38871 121.08 6.38871 122.82 4.63871C125.19 1.65871 129.3 -0.0912917 132.79 1.13871C133.92 1.44871 135.26 3.08871 135.36 4.63871H135.67C139.47 4.12871 143.07 5.14872 144.82 7.30872C145.33 7.92872 146.16 8.74872 147.29 9.67872C151.51 13.3787 152.12 14.8187 153.25 21.0887C154.48 28.8987 152.02 31.0587 140.5 32.7087L132.99 33.9387C127.03 35.0687 120.34 33.9387 112.94 30.3387L112.95 30.3487ZM142.87 19.3487C141.33 15.1287 141.64 15.1287 135.98 14.6187C133.41 14.3087 131.66 13.8987 130.53 13.5887C128.27 12.9687 128.37 12.9687 126.21 13.9987C123.64 15.3387 120.55 16.1587 117.06 16.6687L113.87 17.2887C113.56 17.3887 113.36 17.6987 113.36 18.2187C113.36 19.3487 114.59 20.3787 117.06 21.4087C119.53 22.4387 122.72 23.1587 126.73 23.6687C134.65 24.5987 135.37 24.6987 139.07 24.3887C144.42 23.8787 144.52 23.8787 142.87 19.3487Z" fill="#FF6666"/>
<path d="M189.55 70.2486C187.8 67.7786 185.64 62.4286 182.97 54.2086L180.6 47.5286C178.13 41.2586 178.24 42.2886 181.22 32.4086C182.76 27.1686 186.67 25.7286 192.74 27.9886C194.39 28.6086 197.98 29.0186 203.54 29.3286C207.86 29.5286 210.74 29.4286 212.18 29.0186C213.62 28.6086 214.75 27.5786 215.57 25.9386C217.22 22.5486 215.98 18.4286 210.12 18.3286C206.83 18.3286 206.62 18.2286 204.98 17.3986C202.51 16.1686 199.02 16.2686 194.59 17.7086C190.79 18.9386 190.07 18.6386 188.32 16.0586C186.16 12.6686 187.81 7.72861 191.51 6.49861C193.26 5.98861 196.45 6.18859 198.09 7.00859C199.02 7.41859 200.87 7.6286 203.44 7.5186C206.11 7.5186 208.48 7.6186 210.53 7.9286C212.9 8.2386 214.75 8.33861 216.08 8.33861C218.55 8.43861 218.55 8.54859 221.53 10.2886C224.92 12.4486 225.13 12.6586 226.26 15.9486C227.8 20.5786 225.54 31.2686 221.02 36.0986C219.48 37.7486 218.35 38.2586 215.16 38.9786L212.38 39.5986C211.66 40.1086 206.83 40.2186 203.95 39.9086C201.38 39.5986 198.81 38.9786 196.34 38.1586C191.1 36.4086 189.24 38.3586 190.79 43.5086L195.11 57.5986C196.55 62.3286 196.55 62.5386 200.77 61.2986C202.83 60.7886 204.68 60.2686 206.32 59.9586C213.93 58.5186 224.73 61.4986 224.11 64.8986C223.6 68.2886 219.38 70.4486 212.9 70.4486C209.2 70.4486 207.76 70.7586 204.78 72.0986C202 73.3286 201.28 73.4386 199.23 72.9186C198 72.6086 196.76 72.7186 195.63 73.0186C193.26 73.6386 191.21 72.7086 189.56 70.2386L189.55 70.2486ZM250.02 84.1286C249.61 82.1786 249.71 78.8886 250.33 74.3586C250.64 72.5086 250.64 70.5586 250.43 68.5986C250.22 66.2286 250.12 63.1486 250.02 59.4486C250.02 55.4386 249.92 52.9686 249.71 51.9386C249.51 51.0086 249.51 49.5686 249.61 47.6186V47.2086C249.71 45.6686 249.51 44.7386 249.1 44.6386C248.59 44.5386 247.04 44.7386 244.27 45.4586C243.96 45.5586 243.76 45.5586 243.65 45.5586C238 46.8986 238.3 46.6886 239.02 50.7986C239.53 53.2686 240.15 57.9986 240.87 64.8886C240.97 66.8386 241.08 69.4186 241.08 72.4986L241.18 78.3586C241.18 79.6986 240.36 80.8286 238.61 81.7486C234.08 84.1086 231.72 82.0586 232.54 76.3986C232.74 74.8586 232.74 72.8986 232.64 70.5386C232.43 66.9386 232.43 64.2686 232.74 62.7186C233.46 59.2186 233.05 56.8586 231.71 55.6286C227.18 51.4086 226.88 46.0686 230.68 40.8186C231.4 39.8886 231.81 39.1686 231.91 38.5586C232.84 35.1686 233.35 31.3586 233.56 27.2486C233.77 24.4686 233.97 22.6186 234.28 21.4886C234.59 20.4586 234.69 19.3286 234.69 17.9886C234.59 16.6486 234.59 15.4186 234.59 14.4886C234.59 10.2686 237.06 7.07859 239.83 8.00859C245.28 9.75859 246.62 14.4886 244.05 22.0986C242.71 26.3186 241.17 33.7186 241.89 34.0286C241.99 34.1286 243.02 34.0286 244.77 33.7186L249.19 32.9986C251.56 32.5886 252.17 32.1786 253.3 29.8086C255.87 24.4586 255.25 16.5486 251.86 12.4286C250.63 10.8886 250.52 10.3686 251.04 7.90858C251.55 5.53858 252.58 3.9986 254.12 3.4886C256.69 2.5586 260.7 3.89861 261.94 6.05861C262.66 7.39861 264.92 13.6686 265.44 16.5486C265.95 18.8086 265.95 20.9686 265.44 23.0286L264.62 26.4186C264.41 27.4486 264 28.6786 263.28 30.0186C262.66 31.3586 262.25 32.7986 262.15 34.3386C261.64 40.8186 260.2 45.2386 258.04 47.7086C256.39 49.4586 256.29 50.9986 257.11 54.3886C258.04 57.5786 258.65 60.7686 259.06 63.9486L259.57 68.3686C259.88 71.1486 259.37 81.7386 258.85 83.7886C257.82 87.3886 255.97 88.8286 253.3 88.0086C251.55 87.4986 250.42 86.1586 250.01 84.0986L250.02 84.1286Z" fill="#FF6666"/>
<path d="M291.871 50.9186C292.071 49.7886 292.28 48.5586 292.38 47.2186C292.79 44.0286 295.16 40.1186 296.7 40.1186C296.8 40.1186 297.63 39.2986 299.17 37.5486C301.74 34.6686 303.49 33.2286 307.7 31.1686C313.15 28.2886 313.661 26.1286 310.271 21.4986C308.211 18.7186 302.97 17.7986 294.64 18.9286C292.89 19.0286 289.191 22.5286 289.191 24.0686C289.191 25.7186 286.931 27.7686 284.871 28.0786C282.711 28.2886 281.071 27.2586 279.931 25.0986C277.981 21.2986 280.34 16.6686 286.82 11.3186C289.19 9.56856 290.731 8.94857 294.841 8.64857C296.901 8.54857 298.131 8.33857 298.441 8.23857C299.261 7.92857 304.511 8.13857 306.251 8.64857L309.54 9.46858C314.07 10.5986 315.921 11.5286 317.251 13.5786C317.351 13.6786 317.661 14.0886 318.181 15.0186C318.691 15.9486 319.211 16.5586 319.521 17.0786C320.961 19.3386 321.881 20.9886 322.191 22.1186C323.011 24.5886 322.601 29.6286 321.371 32.0986C319.721 35.6986 317.46 37.5486 311.29 40.7386C310.36 41.1486 309.54 41.6686 308.92 42.1786C308.2 42.7986 306.861 44.2386 304.811 46.3986C302.241 48.9686 301.83 50.0986 301.73 55.4486C301.73 59.6686 300.6 61.5186 297.82 61.9286C293.19 62.7486 290.731 58.2286 291.861 50.9286L291.871 50.9186ZM293.92 78.5786C292.38 72.8186 293.92 69.5286 298.45 69.1186C305.55 68.2986 308.121 74.9786 302.871 81.2486C300.301 84.4386 295.16 82.7886 293.92 78.5786Z" fill="#FF6666"/>
</svg>
