<svg xmlns="http://www.w3.org/2000/svg" width="72" height="62" viewBox="0 0 72 62" fill="none">
  <path d="M71.5925 35.2092C71.5925 36.7192 70.6551 37.8497 69.8369 38.6683C68.7764 39.7293 67.4319 39.8664 66.3793 39.8664C65.4479 39.8664 65.0309 40.0134 64.5006 40.2002C64.2603 40.2856 63.9942 40.379 63.6824 40.4624C63.7023 40.6055 63.7241 40.7485 63.738 40.8995C63.8492 42.0022 63.9744 43.252 63.4282 44.5673C62.5822 46.6078 61.0669 48.3026 60.2368 49.1311C59.1525 50.2179 57.6928 50.7583 56.4059 51.2372C56.0464 51.3703 55.7068 51.4955 55.3891 51.6286C55.0455 51.7697 54.6781 51.9524 54.2889 52.1452C53.0933 52.7333 51.7389 53.4029 50.1938 53.4029C49.0837 53.4029 48.4919 53.3293 47.9715 53.2658C47.4929 53.2081 47.0401 53.1525 46.1107 53.1525C44.8178 53.1525 44.0115 52.7094 43.4237 52.3856C43.1516 52.2366 43.0007 52.1551 42.8597 52.1293C41.9501 53.7227 40.6215 55.5844 39.7537 56.4527C39.4399 56.7646 39.136 57.1103 38.8163 57.4779C38.1133 58.2766 37.3884 59.1012 36.4609 59.7032C35.4124 60.3827 34.2367 60.641 33.2934 60.8496C32.8306 60.9509 32.3917 61.0483 32.068 61.1715C30.9023 61.6146 29.6789 62 28.6343 62C27.7724 62 27.0336 61.7377 26.5491 61.0284C25.7428 59.8462 26.5252 58.6899 27.0972 57.8435C27.691 56.9693 28.5032 55.7692 28.9441 53.8221C29.0653 53.2876 29.1526 52.8227 29.2102 52.4213C28.7773 52.4074 28.4496 52.4432 28.0286 52.4909C27.4944 52.5505 26.8291 52.626 25.7706 52.626C24.6425 52.626 24.1202 52.7075 23.5145 52.8008C22.879 52.9002 22.1601 53.0114 20.8017 53.0114C18.5655 53.0114 16.796 52.7293 15.392 52.1472C14.0296 51.5809 12.1092 50.6093 10.6952 49.1947C9.30104 47.8019 8.32793 45.8667 7.75796 44.4898C7.23962 43.242 7.11252 41.6883 7.08273 40.2439C7.0589 40.2558 7.03706 40.2637 7.01323 40.2757C6.69945 40.4287 6.50284 40.5995 6.43928 40.6691C6.03812 41.1121 5.06699 40.9055 4.61618 40.9055C1.79414 40.9055 0.316589 38.0404 0.316589 35.2092C0.316589 35.0462 0.310631 34.8893 0.304673 34.7383C0.272898 33.9038 0.231193 32.7614 1.20034 31.7918C1.28176 31.7103 1.36716 31.6209 1.45454 31.5295C2.13175 30.8222 3.15849 29.7532 4.61618 29.7532C5.84747 29.7532 6.54255 29.8665 7.1304 29.9758C7.35878 29.2128 7.64675 28.4538 7.91485 27.7505C8.12536 27.1962 8.32395 26.6756 8.4729 26.2107C8.63972 25.6822 8.7132 25.0523 8.79065 24.3847C8.9118 23.3317 9.05081 22.1396 9.62674 21.0568C10.3953 19.6103 11.4101 18.3328 12.3912 17.0969L12.6633 16.7552C13.7972 15.3207 15.2212 14.065 16.3651 13.0577C17.2826 12.249 18.3808 11.8039 19.35 11.4125C19.9477 11.1721 20.5098 10.9436 20.9864 10.6575C21.4352 10.3873 21.884 9.93828 22.3607 9.46143C23.1213 8.70444 23.9812 7.84612 25.1609 7.40106C26.5411 6.87851 28.0048 6.62618 29.4188 6.38379C29.7107 6.33213 30.0006 6.28246 30.2886 6.2308C30.7613 6.14536 31.2359 6.08576 31.7105 6.04006C31.5497 5.52546 31.4623 4.94927 31.4623 4.31348C31.4623 1.65307 33.0074 0 35.4978 0C38.1152 0 39.8728 1.73254 39.8728 4.31348C39.8728 4.83999 39.7954 5.33274 39.6544 5.78574C40.0238 5.8076 40.3951 5.84336 40.7645 5.91091C42.105 6.15331 43.3304 6.66195 44.514 7.1527C44.941 7.32953 45.3441 7.49643 45.7433 7.64743C46.9269 8.09447 47.9 8.7859 48.8414 9.45547C49.3061 9.78529 49.745 10.0972 50.1879 10.3635C50.599 10.6118 51.024 10.8423 51.4748 11.0867C52.5273 11.6569 53.6176 12.247 54.5907 13.1053C54.9959 13.461 55.4665 13.8027 55.965 14.1623C56.9044 14.8399 57.8735 15.5412 58.6421 16.5128C59.8019 17.9791 60.7591 19.6858 61.4641 21.0071C62.1632 22.3224 63.039 24.0629 63.6109 25.865C63.9803 27.0273 64.0121 28.2929 64.0399 29.5168C64.0498 29.8784 64.0578 30.2261 64.0756 30.5579C64.6357 30.5043 65.2652 30.4546 66.3793 30.4546C69.255 30.4546 71.5925 32.5865 71.5925 35.2092ZM68.6135 35.2092C68.6135 35.0045 68.5063 34.8575 66.3793 33.4349C66.3793 33.4349 65.9047 33.117 65.0031 32.7256C65.0031 32.7256 64.5463 32.5269 64.2087 32.5269C63.9386 32.5547 63.5196 32.6084 63.0171 32.7256C61.7779 33.0117 61.6131 33.3038 60.9398 33.2581C60.3579 33.2203 59.7741 32.9481 59.355 32.7614C58.8307 32.5309 58.4177 32.3481 57.661 32.3481C56.7137 32.3481 56.3066 32.507 55.7446 32.7276C55.0793 32.9898 54.2511 33.3157 52.7378 33.3157C51.4708 33.3157 50.8273 33.2839 50.2038 33.2561C49.5901 33.2263 49.0082 33.1985 47.8127 33.1985C46.4126 33.1985 45.6698 33.0276 45.0164 32.8766C44.4445 32.7435 43.95 32.6302 42.8875 32.6302C41.825 32.6302 41.3106 32.7355 40.7307 32.8567C40.0833 32.9918 39.3485 33.1448 37.9643 33.1448C36.8601 33.1448 36.3497 33.2342 35.7559 33.3375C35.1204 33.4468 34.3975 33.572 33.0392 33.572C31.6808 33.572 30.9757 33.4587 30.3442 33.3594C29.7445 33.266 29.2281 33.1846 28.114 33.1846C26.7854 33.1846 26.1102 33.0971 25.4588 33.0117C24.8749 32.9362 24.3228 32.8627 23.1888 32.8627C22.1442 32.8627 21.6576 32.9879 21.0936 33.1329C20.4323 33.3018 19.6816 33.4945 18.2617 33.4945C16.9748 33.4945 16.3194 33.4428 15.6859 33.3952C15.0822 33.3475 14.5102 33.3038 13.3365 33.3038C12.5441 33.3038 12.0218 33.4031 11.5154 33.4985C11.0626 33.5819 10.6038 33.6694 10.0517 33.6694C9.43808 33.6694 8.70923 33.5621 7.74803 33.2243L7.11451 33.0018C6.97549 32.9779 6.84442 32.9541 6.71732 32.9302C6.15331 32.8249 5.66675 32.7335 4.61618 32.7335C4.39772 32.7653 3.86152 33.3236 3.60533 33.5938C3.50206 33.6992 3.40276 33.8025 3.30744 33.8978C3.25779 34.0031 3.27169 34.3806 3.28162 34.629C3.28758 34.8158 3.29552 35.0085 3.29552 35.2092C3.29552 36.4927 3.83769 37.9252 4.61618 37.9252C5.02131 37.9252 5.31126 37.8875 5.56348 37.8199C5.88918 37.7325 6.13742 37.6133 6.26651 37.5457C6.3102 37.5239 6.34197 37.506 6.34992 37.502C6.55447 37.3868 7.18203 37.2477 8.80058 37.0967C9.05081 37.049 9.58702 36.9516 10.2384 37.0391C10.9236 37.1305 11.4876 37.3927 11.8887 37.5815C12.411 37.8259 12.8241 38.0206 13.5629 38.0206C14.8816 38.0206 15.5508 38.112 16.2002 38.1994C16.7742 38.2769 17.3183 38.3504 18.4364 38.3504C19.63 38.3504 20.2079 38.3305 20.8216 38.3087C21.4332 38.2888 22.0668 38.2669 23.31 38.2669C24.3585 38.2669 24.8451 38.1537 25.4111 38.0226C26.0605 37.8716 26.7953 37.7007 28.1835 37.7007C29.3195 37.7007 29.8716 37.6391 30.4554 37.5755C31.0949 37.504 31.7562 37.4305 33.059 37.4305C34.5465 37.4305 35.3607 37.7345 36.0161 37.9789C36.5781 38.1875 36.9833 38.3385 37.9325 38.3385C39.1261 38.3385 39.704 38.3186 40.3177 38.2967C40.9293 38.2749 41.5629 38.253 42.8081 38.253C44.0532 38.253 44.6252 38.2411 45.217 38.2312C45.8247 38.2193 46.4503 38.2073 47.6816 38.2073C48.9129 38.2073 49.602 38.255 50.2276 38.2987C50.8254 38.3424 51.3914 38.3842 52.5571 38.3842C53.425 38.3842 53.7606 38.2014 54.3147 37.9014C54.98 37.5417 55.8081 37.0927 57.3413 37.0232C58.4196 36.9755 59.1127 37.0132 59.7204 37.1344C60.7273 37.3371 60.636 37.5497 61.337 37.649C62.5206 37.8159 63.3945 37.3152 63.8751 37.2258C64.1312 37.1483 64.3636 37.0987 64.5662 37.0709C64.9455 37.0172 65.301 36.8861 66.3793 36.8861C67.2313 36.8861 67.5372 36.7549 67.7318 36.5602C67.9502 36.3417 68.6135 35.6781 68.6135 35.2092ZM61.0808 30.248C61.0729 30.0274 61.0669 29.8069 61.063 29.5883C61.0391 28.5731 61.0133 27.524 60.773 26.767C60.2725 25.1954 59.4742 23.6119 58.8327 22.4078C58.1893 21.1978 57.3194 19.6421 56.3066 18.3606C55.7942 17.7149 55.0296 17.1625 54.2213 16.5784C53.6871 16.1929 53.135 15.7936 52.6226 15.3406C51.9017 14.7067 51.0041 14.222 50.0548 13.7054C49.5961 13.457 49.1194 13.1987 48.6507 12.9166C48.1106 12.5907 47.6041 12.2311 47.1156 11.8854C46.2934 11.2993 45.5149 10.7469 44.6907 10.435C44.2479 10.2681 43.803 10.0833 43.3741 9.90649C42.2858 9.45547 41.259 9.03028 40.2343 8.84352C39.3743 8.68854 38.3913 8.75212 37.3487 8.82166C36.7489 8.8614 36.1273 8.90114 35.4978 8.90114H35.3925C33.774 8.90114 32.2468 8.90511 30.8208 9.1634C30.5249 9.21705 30.2251 9.26871 29.9252 9.32037C28.5886 9.55084 27.3275 9.76741 26.2114 10.1886C25.6315 10.4072 25.0655 10.9734 24.4638 11.5735C23.8839 12.1536 23.2822 12.7537 22.5235 13.2106C21.8463 13.6179 21.1453 13.9021 20.4661 14.1763C19.6459 14.5081 18.8714 14.822 18.3332 15.2949C17.225 16.2724 15.9659 17.3791 14.9987 18.605L14.7247 18.9507C13.825 20.0812 12.8976 21.2515 12.2561 22.4575C11.9443 23.0416 11.849 23.8602 11.7497 24.7285C11.6604 25.5053 11.567 26.31 11.3108 27.1127C11.1381 27.6571 10.9236 28.2194 10.6972 28.8135C10.4589 29.4413 10.2146 30.0811 10.0259 30.6891H10.0339C10.3258 30.6891 10.6018 30.6374 10.9653 30.5679C11.5452 30.4606 12.2661 30.3235 13.3365 30.3235C14.6254 30.3235 15.2808 30.3751 15.9123 30.4228C16.518 30.4705 17.088 30.5142 18.2617 30.5142C19.3063 30.5142 19.7928 30.389 20.3568 30.244C21.0182 30.0751 21.7689 29.8824 23.1888 29.8824C24.5154 29.8824 25.1907 29.9718 25.8421 30.0553C26.4259 30.1327 26.978 30.2043 28.114 30.2043C29.4605 30.2043 30.1774 30.3155 30.8069 30.4169C31.4067 30.5102 31.923 30.5917 33.0392 30.5917C34.1553 30.5917 34.6537 30.5023 35.2455 30.401C35.883 30.2897 36.6039 30.1645 37.9643 30.1645C39.0407 30.1645 39.5412 30.0592 40.1211 29.938C40.7685 29.8029 41.5033 29.6499 42.8875 29.6499C44.2717 29.6499 45.0303 29.8208 45.6857 29.9718C46.2577 30.1049 46.7522 30.2182 47.8127 30.2182C49.0797 30.2182 49.7231 30.248 50.3448 30.2778C50.9604 30.3076 51.5423 30.3354 52.7378 30.3354C53.6871 30.3354 54.0923 30.1745 54.6543 29.9539C55.3216 29.6936 56.1497 29.3678 57.661 29.3678C59.0472 29.3678 59.921 29.7532 60.5605 30.0374C60.769 30.1288 60.9319 30.2003 61.0808 30.248ZM60.6777 43.4268C60.9358 42.803 60.8643 42.0936 60.775 41.1956C60.7551 41.0068 60.7353 40.8081 60.7174 40.6015C60.5545 40.5399 60.4076 40.4843 60.2725 40.4326C59.2458 40.0392 58.9717 39.9339 57.4743 40.0015C56.6243 40.0392 56.251 40.2419 55.7327 40.522C55.0415 40.8976 54.1796 41.3645 52.5571 41.3645C51.2861 41.3645 50.6387 41.3168 50.0131 41.2711C49.4133 41.2294 48.8473 41.1876 47.6816 41.1876C46.5158 41.1876 45.8644 41.1996 45.2726 41.2095C44.6669 41.2214 44.0393 41.2333 42.8081 41.2333C41.5768 41.2333 41.0366 41.2532 40.4229 41.2751C39.8113 41.2969 39.1777 41.3188 37.9325 41.3188C36.4451 41.3188 35.6308 41.0148 34.9755 40.7704C34.4134 40.5618 34.0083 40.4108 33.059 40.4108C31.923 40.4108 31.3709 40.4724 30.7851 40.5359C30.1456 40.6075 29.4863 40.681 28.1835 40.681C27.1349 40.681 26.6483 40.7942 26.0843 40.9254C25.4349 41.0764 24.6981 41.2472 23.31 41.2472C22.1184 41.2472 21.5385 41.2671 20.9248 41.287C20.3132 41.3088 19.6816 41.3307 18.4364 41.3307C17.1178 41.3307 16.4485 41.2393 15.7991 41.1519C15.2232 41.0744 14.681 41.0009 13.5629 41.0009C12.1588 41.0009 11.2711 40.5836 10.6217 40.2777C10.3913 40.1704 10.2186 40.0889 10.0577 40.0392C10.0795 41.2313 10.1669 42.5228 10.5085 43.3493C11.1698 44.9428 11.9841 46.27 12.8003 47.0886C13.6344 47.9211 14.959 48.7397 16.5339 49.3934C17.5547 49.8166 18.9905 50.0312 20.8017 50.0312C21.9297 50.0312 22.452 49.9497 23.0577 49.8563C23.6933 49.757 24.4122 49.6457 25.7706 49.6457C26.6623 49.6457 27.1885 49.5861 27.6969 49.5285C28.1239 49.4808 28.5211 49.4371 29.0216 49.4371C29.522 49.4371 30.1377 49.4828 30.9896 49.6179C31.6649 49.7252 32.1812 50.2795 32.2408 50.961C32.3182 51.8571 32.1971 52.9439 31.8496 54.4817C31.4226 56.3692 30.6997 57.7402 30.096 58.7058C30.3581 58.6223 30.66 58.519 31.0095 58.3859C31.5378 58.1852 32.1058 58.0601 32.6539 57.9389C33.4363 57.766 34.2446 57.5892 34.8404 57.2017C35.4223 56.8242 35.9843 56.1865 36.5781 55.5089C36.9157 55.1235 37.2672 54.7261 37.6466 54.3446C38.3536 53.6373 39.7537 51.6763 40.5679 50.1106C40.7447 49.7729 41.0445 49.5146 41.406 49.3894C43.098 48.8072 44.1565 49.3894 44.8556 49.7729C45.2925 50.0133 45.5824 50.1722 46.1107 50.1722C47.2228 50.1722 47.8127 50.2437 48.333 50.3073C48.8116 50.3669 49.2644 50.4226 50.1938 50.4226C51.0438 50.4226 52.0229 49.9398 52.9702 49.4709C53.3853 49.2662 53.8142 49.0536 54.2472 48.8748C54.6185 48.7218 54.9998 48.5788 55.3692 48.4417C56.4198 48.0522 57.5061 47.6489 58.1297 47.023C59.2756 45.8786 60.203 44.5673 60.6777 43.4268ZM36.8939 4.31348C36.8939 3.74126 36.7489 2.98029 35.4978 2.98029C34.9536 2.98029 34.4412 2.98029 34.4412 4.31348C34.4412 5.73408 35.0271 5.73408 35.4978 5.73408C36.4252 5.73408 36.8939 5.25723 36.8939 4.31348Z" fill="white"/>
  <path d="M66.3798 33.4348C68.5068 34.8574 68.614 35.0045 68.614 35.2091C68.614 35.678 67.9507 36.3416 67.7323 36.5602C67.5377 36.7549 67.2318 36.886 66.3798 36.886C65.3015 36.886 64.946 37.0171 64.5667 37.0708C64.3641 37.0986 64.1317 37.1483 63.8756 37.2258C63.395 37.3152 62.5211 37.8159 61.3375 37.649C60.6365 37.5496 60.7278 37.337 59.7209 37.1344C59.1132 37.0132 58.4201 36.9754 57.3418 37.0231C55.8086 37.0926 54.9805 37.5417 54.3152 37.9013C53.7611 38.2013 53.4255 38.3841 52.5576 38.3841C51.3919 38.3841 50.8259 38.3424 50.2281 38.2987C49.6025 38.255 48.9551 38.2073 47.6821 38.2073C46.4091 38.2073 45.8252 38.2192 45.2175 38.2311C44.6257 38.2411 44.014 38.253 42.8086 38.253C41.6031 38.253 40.9299 38.2748 40.3182 38.2967C39.7045 38.3185 39.1266 38.3384 37.933 38.3384C36.9838 38.3384 36.5786 38.1874 36.0166 37.9788C35.3612 37.7344 34.547 37.4304 33.0595 37.4304C31.7567 37.4304 31.0954 37.5039 30.4559 37.5755C29.8721 37.639 29.32 37.7006 28.184 37.7006C26.7958 37.7006 26.061 37.8715 25.4116 38.0225C24.8456 38.1536 24.3591 38.2669 23.3105 38.2669C22.0673 38.2669 21.4337 38.2887 20.8221 38.3086C20.2084 38.3305 19.6305 38.3503 18.4369 38.3503C17.3188 38.3503 16.7747 38.2768 16.2008 38.1993C15.5513 38.1119 14.8821 38.0205 13.5634 38.0205C12.8246 38.0205 12.4116 37.8258 11.8893 37.5814C11.4881 37.3927 10.9241 37.1304 10.2389 37.039C9.58753 36.9516 9.05132 37.0489 8.80109 37.0966C7.18254 37.2476 6.55498 37.3867 6.35043 37.5019C6.34248 37.5059 6.31071 37.5238 6.26702 37.5457C6.13793 37.6132 5.88968 37.7324 5.56399 37.8198C5.31177 37.8874 5.02182 37.9251 4.61669 37.9251C3.83819 37.9251 3.29603 36.4926 3.29603 35.2091C3.29603 35.0084 3.28808 34.8157 3.28213 34.6289C3.2722 34.3806 3.2583 34.0031 3.30794 33.8978C3.40327 33.8024 3.50257 33.6991 3.60584 33.5938C3.86203 33.3236 4.39823 32.7653 4.61669 32.7335C5.66726 32.7335 6.15382 32.8249 6.71783 32.9302C6.84493 32.954 6.976 32.9779 7.11502 33.0017L7.74854 33.2242C8.70974 33.562 9.43858 33.6693 10.0522 33.6693C10.6043 33.6693 11.0631 33.5819 11.5159 33.4984C12.0223 33.403 12.5446 33.3037 13.337 33.3037C14.5107 33.3037 15.0827 33.3474 15.6864 33.3951C16.3199 33.4428 16.9753 33.4944 18.2622 33.4944C19.6821 33.4944 20.4328 33.3017 21.0941 33.1328C21.6582 32.9878 22.1447 32.8626 23.1893 32.8626C24.3233 32.8626 24.8754 32.9361 25.4593 33.0116C26.1107 33.0971 26.7859 33.1845 28.1145 33.1845C29.2286 33.1845 29.745 33.266 30.3447 33.3593C30.9763 33.4587 31.6912 33.5719 33.0397 33.5719C34.3881 33.5719 35.1209 33.4468 35.7564 33.3375C36.3502 33.2342 36.8606 33.1448 37.9648 33.1448C39.349 33.1448 40.0838 32.9918 40.7313 32.8567C41.3112 32.7355 41.8116 32.6302 42.888 32.6302C43.9644 32.6302 44.445 32.7434 45.0169 32.8765C45.6703 33.0275 46.4131 33.1984 47.8132 33.1984C49.0087 33.1984 49.5906 33.2262 50.2043 33.256C50.8278 33.2838 51.4713 33.3156 52.7383 33.3156C54.2516 33.3156 55.0798 32.9898 55.7451 32.7275C56.3071 32.507 56.7142 32.348 57.6615 32.348C58.4182 32.348 58.8312 32.5308 59.3555 32.7613C59.7746 32.9481 60.3584 33.2203 60.9403 33.258C61.6136 33.3037 61.7784 33.0116 63.0176 32.7255C63.5201 32.6083 63.9391 32.5547 64.2092 32.5268C64.5468 32.5268 65.0036 32.7255 65.0036 32.7255C65.9052 33.1169 66.3798 33.4348 66.3798 33.4348Z" fill="url(#paint0_linear_1186_24438)"/>
  <path d="M61.0634 29.5884C61.0674 29.8069 61.0733 30.0275 61.0813 30.248C60.9323 30.2003 60.7695 30.1288 60.561 30.0374C59.9215 29.7533 59.0477 29.3678 57.6615 29.3678C56.1501 29.3678 55.322 29.6937 54.6547 29.954C54.0927 30.1745 53.6876 30.3354 52.7383 30.3354C51.5427 30.3354 50.9608 30.3076 50.3452 30.2778C49.7236 30.248 49.0802 30.2182 47.8131 30.2182C46.7526 30.2182 46.2581 30.105 45.6862 29.9719C45.0308 29.8209 44.29 29.65 42.8879 29.65C41.4859 29.65 40.7689 29.803 40.1215 29.9381C39.5416 30.0593 39.0412 30.1646 37.9648 30.1646C36.6044 30.1646 35.8835 30.2897 35.246 30.401C34.6542 30.5023 34.1418 30.5918 33.0396 30.5918C31.9374 30.5918 31.4071 30.5103 30.8074 30.4169C30.1778 30.3156 29.4609 30.2043 28.1144 30.2043C26.9785 30.2043 26.4264 30.1328 25.8425 30.0553C25.1911 29.9719 24.5159 29.8824 23.1893 29.8824C21.7693 29.8824 21.0186 30.0752 20.3573 30.244C19.7933 30.3891 19.3067 30.5143 18.2621 30.5143C17.0884 30.5143 16.5185 30.4706 15.9127 30.4229C15.2812 30.3752 14.6258 30.3235 13.337 30.3235C12.2665 30.3235 11.5456 30.4606 10.9657 30.5679C10.6023 30.6374 10.3262 30.6891 10.0343 30.6891H10.0264C10.215 30.0811 10.4593 29.4414 10.6976 28.8135C10.924 28.2194 11.1385 27.6572 11.3113 27.1128C11.5675 26.3101 11.6608 25.5054 11.7502 24.7285C11.8495 23.8603 11.9448 23.0417 12.2566 22.4575C12.8981 21.2515 13.8255 20.0813 14.7251 18.9507L14.9992 18.605C15.9664 17.3791 17.2254 16.2724 18.3336 15.2949C18.8718 14.822 19.6463 14.5081 20.4665 14.1763C21.1457 13.9021 21.8468 13.618 22.524 13.2107C23.2826 12.7537 23.8844 12.1537 24.4643 11.5735C25.066 10.9735 25.632 10.4072 26.2119 10.1887C27.328 9.76746 28.5891 9.55089 29.9256 9.32042C30.2255 9.26876 30.5254 9.2171 30.8213 9.16345C32.2472 8.90516 33.7744 8.90119 35.393 8.90119H35.4982C36.1278 8.90119 36.7494 8.86145 37.3491 8.82171C38.3917 8.75217 39.3748 8.68859 40.2347 8.84357C41.2595 9.03033 42.2862 9.45552 43.3745 9.90654C43.8035 10.0834 44.2483 10.2681 44.6912 10.435C45.5154 10.747 46.2939 11.2993 47.116 11.8855C47.6046 12.2312 48.111 12.5908 48.6512 12.9166C49.1199 13.1988 49.5965 13.4571 50.0553 13.7054C51.0045 14.222 51.9022 14.7068 52.6231 15.3406C53.1355 15.7936 53.6876 16.193 54.2218 16.5784C55.0301 17.1626 55.7947 17.7149 56.307 18.3606C57.3199 19.6422 58.1897 21.1979 58.8332 22.4079C59.4746 23.6119 60.273 25.1954 60.7734 26.767C61.0138 27.524 61.0396 28.5731 61.0634 29.5884ZM29.0041 14.1485C29.0041 13.3259 28.6765 12.6504 27.8523 12.6504C27.0281 12.6504 25.7055 13.3259 25.7055 14.1485C25.7055 14.971 27.0301 16.0797 27.8523 16.0797C28.6745 16.0797 29.0041 14.971 29.0041 14.1485ZM24.1763 17.9076C24.8535 17.4387 25.0223 16.5109 24.5536 15.8353C24.0849 15.1578 23.1575 14.9889 22.4803 15.4578C22.1883 15.6605 21.7991 15.8771 21.386 16.1095C20.2362 16.7533 18.8043 17.554 17.5909 18.9785C16.3258 20.4627 15.8472 22.0979 15.4619 23.4112C15.313 23.9219 15.17 24.4067 15.0151 24.7404C14.6695 25.4875 14.9952 26.3736 15.7419 26.7194C15.9445 26.8127 16.157 26.8584 16.3675 26.8584C16.9295 26.8584 17.4677 26.5366 17.72 25.9922C17.9662 25.4577 18.139 24.8696 18.3217 24.2497C18.6573 23.0993 19.0069 21.9112 19.8588 20.9118C20.7247 19.8925 21.8488 19.2647 22.8397 18.7103C23.3164 18.4441 23.7672 18.1918 24.1763 17.9076Z" fill="url(#paint1_linear_1186_24438)"/>
  <path d="M60.7749 41.1956C60.8643 42.0937 60.9358 42.803 60.6776 43.4268C60.203 44.5673 59.2755 45.8786 58.1296 47.0231C57.506 47.6489 56.4197 48.0523 55.3691 48.4417C54.9998 48.5788 54.6185 48.7218 54.2471 48.8748C53.8141 49.0536 53.3852 49.2662 52.9701 49.4709C52.0228 49.9398 51.0437 50.4226 50.1937 50.4226C49.2643 50.4226 48.8115 50.367 48.3329 50.3073C47.8126 50.2438 47.2228 50.1722 46.1106 50.1722C45.5824 50.1722 45.2924 50.0133 44.8555 49.7729C44.1564 49.3894 43.0979 48.8073 41.4059 49.3894C41.0445 49.5146 40.7446 49.7729 40.5678 50.1106C39.7536 51.6763 38.3535 53.6373 37.6465 54.3446C37.2672 54.7261 36.9157 55.1235 36.578 55.5089C35.9842 56.1865 35.4222 56.8242 34.8403 57.2018C34.2446 57.5892 33.4363 57.766 32.6538 57.9389C32.1057 58.0601 31.5377 58.1852 31.0094 58.3859C30.6599 58.519 30.358 58.6224 30.0959 58.7058C30.6996 57.7402 31.4225 56.3693 31.8495 54.4817C32.197 52.9439 32.3182 51.8571 32.2407 50.961C32.1811 50.2795 31.6648 49.7252 30.9896 49.6179C30.1376 49.4828 29.5279 49.4371 29.0215 49.4371C28.5151 49.4371 28.1238 49.4808 27.6969 49.5285C27.1885 49.5861 26.6622 49.6457 25.7705 49.6457C24.4121 49.6457 23.6932 49.757 23.0577 49.8563C22.452 49.9497 21.9297 50.0312 20.8016 50.0312C18.9904 50.0312 17.5546 49.8166 16.5338 49.3934C14.959 48.7397 13.6343 47.9211 12.8002 47.0886C11.984 46.27 11.1698 44.9428 10.5084 43.3494C10.1668 42.5228 10.0795 41.2314 10.0576 40.0392C10.2185 40.0889 10.3913 40.1704 10.6216 40.2777C11.271 40.5836 12.1588 41.0009 13.5628 41.0009C14.6809 41.0009 15.2231 41.0744 15.799 41.1519C16.4484 41.2393 17.1177 41.3307 18.4364 41.3307C19.6816 41.3307 20.3131 41.3089 20.9248 41.287C21.5384 41.2671 22.1183 41.2473 23.3099 41.2473C24.6981 41.2473 25.4349 41.0764 26.0843 40.9254C26.6483 40.7943 27.1348 40.681 28.1834 40.681C29.4862 40.681 30.1455 40.6075 30.785 40.536C31.3709 40.4724 31.923 40.4108 33.0589 40.4108C34.0082 40.4108 34.4134 40.5618 34.9754 40.7704C35.6307 41.0148 36.445 41.3188 37.9325 41.3188C39.1777 41.3188 39.8112 41.2969 40.4229 41.2751C41.0365 41.2532 41.6144 41.2334 42.808 41.2334C44.0015 41.2334 44.6668 41.2214 45.2726 41.2095C45.8644 41.1996 46.478 41.1877 47.6815 41.1877C48.885 41.1877 49.4133 41.2294 50.013 41.2711C50.6386 41.3168 51.286 41.3645 52.557 41.3645C54.1796 41.3645 55.0415 40.8976 55.7326 40.5221C56.2509 40.2419 56.6243 40.0392 57.4743 40.0015C58.9717 39.9339 59.2457 40.0392 60.2725 40.4326C60.4075 40.4843 60.5545 40.5399 60.7173 40.6015C60.7352 40.8082 60.7551 41.0068 60.7749 41.1956Z" fill="url(#paint2_linear_1186_24438)"/>
  <path d="M35.4974 2.98016C36.7486 2.98016 36.8936 3.74113 36.8936 4.31335C36.8936 5.25711 36.4249 5.73395 35.4974 5.73395C35.0268 5.73395 34.4409 5.73395 34.4409 4.31335C34.4409 2.98016 34.9533 2.98016 35.4974 2.98016Z" fill="url(#paint3_linear_1186_24438)"/>
  <path d="M27.8519 12.6503C28.6761 12.6503 29.0037 13.3258 29.0037 14.1484C29.0037 14.9709 28.6761 16.0796 27.8519 16.0796C27.0277 16.0796 25.7051 14.9709 25.7051 14.1484C25.7051 13.3258 27.0297 12.6503 27.8519 12.6503Z" fill="white"/>
  <path d="M24.5525 15.8353C25.0212 16.5108 24.8524 17.4387 24.1752 17.9076C23.7661 18.1917 23.3153 18.444 22.8387 18.7103C21.8477 19.2646 20.7236 19.8925 19.8577 20.9117C19.0058 21.9111 18.6562 23.0993 18.3206 24.2497C18.1379 24.8696 17.9651 25.4577 17.7189 25.9921C17.4667 26.5365 16.9285 26.8584 16.3664 26.8584C16.1559 26.8584 15.9434 26.8127 15.7409 26.7193C14.9941 26.3736 14.6684 25.4875 15.014 24.7404C15.1689 24.4066 15.3119 23.9218 15.4608 23.4112C15.8461 22.0979 16.3247 20.4627 17.5898 18.9785C18.8032 17.5539 20.2351 16.7532 21.3849 16.1095C21.798 15.877 22.1873 15.6605 22.4792 15.4578C23.1564 14.9889 24.0839 15.1578 24.5525 15.8353Z" fill="white"/>
  <defs>
    <linearGradient id="paint0_linear_1186_24438" x1="35.9433" y1="32.348" x2="35.9433" y2="38.3841" gradientUnits="userSpaceOnUse">
      <stop stop-color="#FFCCCC" stop-opacity="0.2"/>
      <stop offset="1" stop-color="#FFCCCC" stop-opacity="0"/>
    </linearGradient>
    <linearGradient id="paint1_linear_1186_24438" x1="35.5538" y1="8.74774" x2="35.5538" y2="30.6891" gradientUnits="userSpaceOnUse">
      <stop stop-color="#FFCCCC" stop-opacity="0.2"/>
      <stop offset="1" stop-color="#FFCCCC" stop-opacity="0"/>
    </linearGradient>
    <linearGradient id="paint2_linear_1186_24438" x1="35.4572" y1="39.9825" x2="35.4572" y2="58.7058" gradientUnits="userSpaceOnUse">
      <stop stop-color="#FFCCCC" stop-opacity="0.2"/>
      <stop offset="1" stop-color="#FFCCCC" stop-opacity="0"/>
    </linearGradient>
    <linearGradient id="paint3_linear_1186_24438" x1="35.6672" y1="2.98016" x2="35.6672" y2="5.73395" gradientUnits="userSpaceOnUse">
      <stop stop-color="#FFCCCC" stop-opacity="0.2"/>
      <stop offset="1" stop-color="#FFCCCC" stop-opacity="0"/>
<!-- <svg xmlns="http://www.w3.org/2000/svg" width="177" height="154" viewBox="0 0 177 154" fill="none">
  <path d="M177 87.455C177 91.2057 174.673 94.0138 172.642 96.047C170.009 98.6824 166.672 99.0229 164.059 99.0229C161.746 99.0229 160.711 99.3881 159.395 99.852C158.798 100.064 158.138 100.296 157.364 100.503C157.413 100.859 157.467 101.214 157.502 101.589C157.778 104.328 158.088 107.432 156.732 110.699C154.632 115.768 150.871 119.977 148.81 122.035C146.118 124.735 142.494 126.077 139.3 127.267C138.407 127.597 137.564 127.908 136.776 128.239C135.923 128.589 135.011 129.043 134.044 129.522C131.076 130.983 127.714 132.646 123.879 132.646C121.123 132.646 119.653 132.463 118.362 132.305C117.174 132.162 116.05 132.024 113.742 132.024C110.533 132.024 108.531 130.923 107.072 130.119C106.396 129.749 106.022 129.547 105.672 129.482C103.414 133.44 100.116 138.065 97.9611 140.221C97.1822 140.996 96.4279 141.855 95.6341 142.768C93.8889 144.752 92.0894 146.8 89.7871 148.295C87.184 149.983 84.2654 150.624 81.9236 151.143C80.7749 151.394 79.6854 151.636 78.8818 151.942C75.9878 153.043 72.9509 154 70.3577 154C68.218 154 66.3841 153.349 65.1811 151.587C63.1795 148.65 65.122 145.778 66.5418 143.676C68.0159 141.504 70.0323 138.524 71.1268 133.687C71.4275 132.36 71.6444 131.205 71.7874 130.208C70.7127 130.173 69.8992 130.262 68.854 130.381C67.5278 130.529 65.8763 130.716 63.2485 130.716C60.4482 130.716 59.1516 130.919 57.648 131.15C56.0704 131.397 54.2857 131.674 50.9135 131.674C45.3622 131.674 40.9696 130.973 37.484 129.527C34.102 128.12 29.3346 125.707 25.8244 122.193C22.3635 118.734 19.9477 113.927 18.5328 110.507C17.2461 107.408 16.9305 103.548 16.8566 99.9606C16.7974 99.9902 16.7432 100.01 16.684 100.04C15.9051 100.42 15.417 100.844 15.2592 101.017C14.2634 102.117 11.8526 101.604 10.7334 101.604C3.72782 101.604 0.0598484 94.4876 0.0598484 87.455C0.0598484 87.0503 0.0450582 86.6605 0.030268 86.2854C-0.0486131 84.2127 -0.152144 81.375 2.25373 78.9666C2.45586 78.7643 2.66785 78.5422 2.88478 78.3152C4.56593 76.5583 7.11478 73.9032 10.7334 73.9032C13.7901 73.9032 15.5156 74.1845 16.9749 74.4559C17.5419 72.5609 18.2567 70.6757 18.9223 68.9286C19.4449 67.5517 19.9379 66.2587 20.3076 65.1039C20.7218 63.7912 20.9042 62.2268 21.0965 60.5686C21.3972 57.953 21.7423 54.9919 23.172 52.3023C25.0799 48.7095 27.5992 45.5362 30.0347 42.4666L30.7101 41.6178C33.5252 38.0546 37.06 34.9356 39.8997 32.4335C42.1774 30.4249 44.9038 29.3195 47.3096 28.3473C48.7936 27.7501 50.1888 27.1826 51.372 26.4719C52.4862 25.8007 53.6004 24.6854 54.7836 23.501C56.6718 21.6207 58.8065 19.4887 61.735 18.3833C65.1614 17.0853 68.7949 16.4586 72.3051 15.8565C73.0298 15.7282 73.7496 15.6048 74.4644 15.4765C75.6378 15.2643 76.8161 15.1162 77.9944 15.0027C77.595 13.7245 77.3781 12.2934 77.3781 10.7141C77.3781 4.10601 81.2137 0 87.396 0C93.8938 0 98.2569 4.30341 98.2569 10.7141C98.2569 12.0219 98.0647 13.2458 97.7146 14.371C98.6316 14.4253 99.5536 14.5141 100.471 14.6819C103.798 15.284 106.84 16.5474 109.779 17.7664C110.838 18.2056 111.839 18.6202 112.83 18.9952C115.769 20.1056 118.184 21.823 120.521 23.4862C121.675 24.3054 122.764 25.0802 123.864 25.7415C124.884 26.3584 125.939 26.9309 127.058 27.5379C129.671 28.9543 132.378 30.42 134.794 32.552C135.799 33.4353 136.968 34.2842 138.205 35.1774C140.537 36.8603 142.943 38.6024 144.851 41.0157C147.73 44.6578 150.106 48.897 151.857 52.1789C153.592 55.4459 155.766 59.7691 157.186 64.2452C158.103 67.1323 158.182 70.2759 158.251 73.3159C158.276 74.2141 158.295 75.0778 158.34 75.9019C159.73 75.7687 161.293 75.6453 164.059 75.6453C171.197 75.6453 177 80.9407 177 87.455ZM169.605 87.455C169.605 86.9467 169.339 86.5815 164.059 83.048C164.059 83.048 162.88 82.2584 160.642 81.2861C160.642 81.2861 159.508 80.7926 158.67 80.7926C158 80.8617 156.959 80.995 155.712 81.2861C152.636 81.9968 152.226 82.7223 150.555 82.6087C149.111 82.515 147.661 81.8389 146.621 81.375C145.319 80.8025 144.294 80.3485 142.416 80.3485C140.064 80.3485 139.053 80.7433 137.658 81.2911C136.006 81.9425 133.951 82.7519 130.194 82.7519C127.049 82.7519 125.451 82.6729 123.903 82.6038C122.38 82.5298 120.935 82.4607 117.967 82.4607C114.492 82.4607 112.648 82.0363 111.026 81.6612C109.606 81.3306 108.378 81.0493 105.741 81.0493C103.103 81.0493 101.826 81.3108 100.387 81.6119C98.7795 81.9474 96.9554 82.3275 93.5191 82.3275C90.778 82.3275 89.511 82.5495 88.0369 82.8062C86.4593 83.0776 84.6647 83.3885 81.2926 83.3885C77.9204 83.3885 76.1702 83.1072 74.6025 82.8604C73.1136 82.6285 71.8318 82.4262 69.066 82.4262C65.7678 82.4262 64.0916 82.209 62.4745 81.9968C61.0251 81.8093 59.6545 81.6267 56.8394 81.6267C54.2462 81.6267 53.0384 81.9376 51.6382 82.2978C49.9965 82.7173 48.1329 83.196 44.6079 83.196C41.4133 83.196 39.7863 83.0677 38.2136 82.9493C36.7149 82.8308 35.295 82.7223 32.3814 82.7223C30.4143 82.7223 29.1177 82.969 27.8605 83.2059C26.7364 83.4132 25.5976 83.6303 24.227 83.6303C22.7037 83.6303 20.8943 83.3638 18.5082 82.5249L16.9355 81.9721C16.5904 81.9129 16.265 81.8537 15.9495 81.7945C14.5493 81.5329 13.3415 81.3059 10.7334 81.3059C10.1911 81.3848 8.86002 82.7716 8.22404 83.4428C7.96768 83.7043 7.72117 83.961 7.48453 84.1979C7.36128 84.4594 7.39579 85.3971 7.42044 86.014C7.43523 86.4779 7.45495 86.9566 7.45495 87.455C7.45495 90.6431 8.80086 94.2013 10.7334 94.2013C11.7392 94.2013 12.459 94.1076 13.0851 93.9398C13.8936 93.7226 14.5099 93.4265 14.8303 93.2587C14.9388 93.2044 15.0177 93.16 15.0374 93.1501C15.5452 92.8639 17.1031 92.5184 21.1211 92.1434C21.7423 92.0249 23.0734 91.7831 24.6905 92.0003C26.3913 92.2273 27.7915 92.8787 28.7874 93.3475C30.084 93.9546 31.1094 94.4382 32.9434 94.4382C36.217 94.4382 37.8784 94.6652 39.4905 94.8824C40.9153 95.0748 42.2662 95.2574 45.0418 95.2574C48.0048 95.2574 49.4394 95.2081 50.9628 95.1538C52.4813 95.1044 54.054 95.0502 57.1402 95.0502C59.7433 95.0502 60.9511 94.7689 62.3562 94.4431C63.9683 94.0681 65.7924 93.6436 69.2386 93.6436C72.0586 93.6436 73.4291 93.4907 74.8786 93.3327C76.466 93.1551 78.1078 92.9725 81.3419 92.9725C85.0345 92.9725 87.0558 93.7275 88.6828 94.3346C90.078 94.8527 91.0837 95.2278 93.4403 95.2278C96.4032 95.2278 97.8379 95.1785 99.3613 95.1242C100.88 95.0699 102.452 95.0156 105.544 95.0156C108.635 95.0156 110.055 94.986 111.524 94.9613C113.032 94.9317 114.585 94.9021 117.642 94.9021C120.699 94.9021 122.409 95.0205 123.962 95.1291C125.446 95.2377 126.851 95.3413 129.745 95.3413C131.9 95.3413 132.733 94.8873 134.108 94.1421C135.76 93.2488 137.816 92.1335 141.622 91.9608C144.299 91.8423 146.019 91.9361 147.528 92.2371C150.028 92.7405 149.801 93.2686 151.541 93.5153C154.479 93.9299 156.649 92.6862 157.842 92.4642C158.478 92.2717 159.055 92.1483 159.557 92.0792C160.499 91.946 161.382 91.6203 164.059 91.6203C166.174 91.6203 166.933 91.2945 167.416 90.8109C167.958 90.268 169.605 88.6197 169.605 87.455ZM150.905 75.1321C150.885 74.5843 150.871 74.0365 150.861 73.4936C150.802 70.9718 150.738 68.366 150.141 66.4858C148.899 62.5821 146.917 58.6488 145.324 55.6581C143.727 52.6527 141.568 48.7885 139.053 45.6053C137.781 44.0014 135.883 42.6295 133.877 41.1785C132.551 40.2211 131.18 39.2292 129.908 38.104C128.118 36.5297 125.89 35.3255 123.533 34.0424C122.395 33.4255 121.211 32.7839 120.048 32.0831C118.707 31.2738 117.45 30.3805 116.237 29.5218C114.196 28.066 112.263 26.694 110.217 25.9192C109.118 25.5046 108.014 25.0457 106.949 24.6064C104.247 23.4862 101.698 22.4301 99.1542 21.9662C97.0195 21.5812 94.5791 21.7391 91.9908 21.9119C90.5019 22.0106 88.9588 22.1093 87.396 22.1093H87.1347C83.1167 22.1093 79.3255 22.1191 75.7857 22.7607C75.0511 22.894 74.3067 23.0223 73.5622 23.1506C70.2443 23.7231 67.1137 24.261 64.343 25.3072C62.9034 25.8501 61.4984 27.2566 60.0045 28.747C58.565 30.188 57.0712 31.6784 55.1879 32.8135C53.5067 33.8252 51.7664 34.5309 50.0803 35.212C48.0442 36.0361 46.1215 36.8159 44.7854 37.9905C42.0344 40.4185 38.9088 43.1674 36.5078 46.2123L35.8275 47.071C33.5942 49.8791 31.2918 52.7859 29.6994 55.7815C28.9254 57.2324 28.6888 59.2657 28.4423 61.4223C28.2204 63.352 27.9887 65.3507 27.3527 67.3445C26.9238 68.6967 26.3913 70.0933 25.8293 71.5689C25.2377 73.1284 24.6313 74.7175 24.163 76.2277H24.1827C24.9074 76.2277 25.5927 76.0993 26.4949 75.9266C27.9345 75.6601 29.7241 75.3196 32.3814 75.3196C35.581 75.3196 37.2079 75.4479 38.7757 75.5664C40.2793 75.6848 41.6943 75.7934 44.6079 75.7934C47.2012 75.7934 48.409 75.4825 49.8092 75.1222C51.4509 74.7027 53.3144 74.224 56.8394 74.224C60.1327 74.224 61.8089 74.4461 63.426 74.6534C64.8755 74.8458 66.246 75.0235 69.066 75.0235C72.4086 75.0235 74.1883 75.2999 75.7512 75.5515C77.2401 75.7835 78.5219 75.9858 81.2926 75.9858C84.0633 75.9858 85.3007 75.7638 86.7699 75.5121C88.3524 75.2357 90.1421 74.9248 93.5191 74.9248C96.1912 74.9248 97.4336 74.6632 98.8732 74.3622C100.48 74.0266 102.305 73.6466 105.741 73.6466C109.177 73.6466 111.06 74.071 112.687 74.4461C114.107 74.7767 115.335 75.058 117.967 75.058C121.113 75.058 122.71 75.1321 124.253 75.2061C125.782 75.2801 127.226 75.3492 130.194 75.3492C132.551 75.3492 133.556 74.9495 134.951 74.4017C136.608 73.7552 138.664 72.9458 142.416 72.9458C145.857 72.9458 148.026 73.9032 149.613 74.6089C150.131 74.836 150.535 75.0136 150.905 75.1321ZM149.904 107.867C150.545 106.317 150.368 104.555 150.146 102.325C150.097 101.856 150.047 101.362 150.003 100.849C149.599 100.696 149.234 100.558 148.899 100.429C146.35 99.4523 145.669 99.1907 141.952 99.3585C139.842 99.4523 138.915 99.9557 137.628 100.651C135.913 101.584 133.773 102.744 129.745 102.744C126.59 102.744 124.983 102.626 123.43 102.512C121.941 102.408 120.536 102.305 117.642 102.305C114.748 102.305 113.131 102.334 111.662 102.359C110.158 102.389 108.6 102.418 105.544 102.418C102.487 102.418 101.146 102.468 99.6226 102.522C98.1041 102.576 96.5314 102.63 93.4403 102.63C89.7477 102.63 87.7263 101.875 86.0994 101.268C84.7042 100.75 83.6985 100.375 81.3419 100.375C78.5219 100.375 77.1513 100.528 75.697 100.686C74.1095 100.864 72.4727 101.046 69.2386 101.046C66.6355 101.046 65.4276 101.328 64.0275 101.653C62.4153 102.028 60.5863 102.453 57.1402 102.453C54.1821 102.453 52.7426 102.502 51.2192 102.552C49.7007 102.606 48.1329 102.66 45.0418 102.66C41.7682 102.66 40.1068 102.433 38.4947 102.216C37.0649 102.023 35.719 101.841 32.9434 101.841C29.4578 101.841 27.2541 100.804 25.642 100.044C25.0701 99.778 24.6412 99.5756 24.2418 99.4523C24.2961 102.413 24.513 105.621 25.361 107.674C27.0027 111.632 29.024 114.929 31.0503 116.962C33.1209 119.03 36.4092 121.063 40.3188 122.687C42.8528 123.738 46.4173 124.271 50.9135 124.271C53.7138 124.271 55.0104 124.069 56.5141 123.837C58.0917 123.59 59.8764 123.314 63.2485 123.314C65.4621 123.314 66.7686 123.165 68.0307 123.022C69.0907 122.904 70.0767 122.795 71.3191 122.795C72.5614 122.795 74.0898 122.909 76.2048 123.244C77.881 123.511 79.1628 124.888 79.3107 126.581C79.503 128.806 79.2022 131.506 78.3395 135.326C77.2795 140.014 75.485 143.419 73.9862 145.818C74.637 145.61 75.3864 145.354 76.2541 145.023C77.5654 144.525 78.9754 144.214 80.3361 143.913C82.2786 143.483 84.2851 143.044 85.7642 142.082C87.2087 141.144 88.6039 139.56 90.078 137.877C90.9161 136.92 91.7887 135.933 92.7303 134.985C94.4854 133.228 97.9611 128.357 99.9825 124.468C100.421 123.629 101.166 122.988 102.063 122.677C106.263 121.231 108.891 122.677 110.626 123.629C111.711 124.227 112.431 124.621 113.742 124.621C116.503 124.621 117.967 124.799 119.259 124.957C120.447 125.105 121.571 125.243 123.879 125.243C125.989 125.243 128.419 124.044 130.771 122.879C131.801 122.371 132.866 121.843 133.941 121.399C134.863 121.019 135.809 120.663 136.726 120.323C139.334 119.356 142.031 118.354 143.579 116.799C146.424 113.957 148.726 110.699 149.904 107.867ZM90.8618 10.7141C90.8618 9.29281 90.502 7.40266 87.396 7.40266C86.0452 7.40266 84.7732 7.40266 84.7732 10.7141C84.7732 14.2427 86.2276 14.2427 87.396 14.2427C89.6983 14.2427 90.8618 13.0583 90.8618 10.7141Z" fill="white"/>
  <path d="M164.059 83.048C169.339 86.5816 169.605 86.9468 169.605 87.4551C169.605 88.6198 167.958 90.2681 167.416 90.8109C166.933 91.2946 166.174 91.6203 164.059 91.6203C161.382 91.6203 160.499 91.946 159.557 92.0793C159.055 92.1484 158.478 92.2717 157.842 92.4642C156.649 92.6863 154.479 93.9299 151.541 93.5154C149.801 93.2686 150.028 92.7406 147.528 92.2372C146.019 91.9361 144.299 91.8424 141.622 91.9608C137.816 92.1335 135.76 93.2489 134.108 94.1421C132.733 94.8873 131.9 95.3414 129.745 95.3414C126.851 95.3414 125.446 95.2377 123.962 95.1292C122.409 95.0206 120.802 94.9021 117.642 94.9021C114.482 94.9021 113.032 94.9318 111.524 94.9614C110.055 94.986 108.536 95.0157 105.544 95.0157C102.551 95.0157 100.88 95.0699 99.3613 95.1242C97.8379 95.1785 96.4033 95.2279 93.4403 95.2279C91.0837 95.2279 90.078 94.8528 88.6828 94.3346C87.0559 93.7276 85.0345 92.9725 81.3419 92.9725C78.1078 92.9725 76.4661 93.1551 74.8786 93.3328C73.4292 93.4907 72.0586 93.6437 69.2386 93.6437C65.7925 93.6437 63.9684 94.0681 62.3562 94.4432C60.9512 94.7689 59.7433 95.0502 57.1402 95.0502C54.054 95.0502 52.4813 95.1045 50.9628 95.1538C49.4395 95.2081 48.0048 95.2575 45.0418 95.2575C42.2662 95.2575 40.9154 95.0749 39.4906 94.8824C37.8784 94.6653 36.217 94.4382 32.9434 94.4382C31.1095 94.4382 30.084 93.9546 28.7874 93.3476C27.7915 92.8787 26.3914 92.2273 24.6905 92.0003C23.0734 91.7832 21.7423 92.025 21.1211 92.1434C17.1031 92.5185 15.5452 92.8639 15.0374 93.1502C15.0177 93.1601 14.9388 93.2045 14.8304 93.2588C14.5099 93.4265 13.8937 93.7227 13.0851 93.9398C12.459 94.1076 11.7392 94.2014 10.7335 94.2014C8.8009 94.2014 7.45499 90.6431 7.45499 87.4551C7.45499 86.9566 7.43527 86.4779 7.42048 86.014C7.39583 85.3971 7.36132 84.4595 7.48457 84.1979C7.72121 83.961 7.96772 83.7044 8.22408 83.4428C8.86006 82.7717 10.1912 81.3849 10.7335 81.3059C13.3415 81.3059 14.5494 81.5329 15.9495 81.7945C16.265 81.8537 16.5904 81.9129 16.9355 81.9722L18.5082 82.5249C20.8944 83.3639 22.7037 83.6304 24.2271 83.6304C25.5976 83.6304 26.7365 83.4132 27.8605 83.2059C29.1177 82.9691 30.4143 82.7223 32.3814 82.7223C35.2951 82.7223 36.7149 82.8309 38.2137 82.9493C39.7864 83.0678 41.4133 83.1961 44.608 83.1961C48.133 83.1961 49.9965 82.7174 51.6383 82.2979C53.0384 81.9376 54.2463 81.6267 56.8395 81.6267C59.6546 81.6267 61.0251 81.8093 62.4746 81.9968C64.0916 82.209 65.7678 82.4262 69.0661 82.4262C71.8318 82.4262 73.1136 82.6285 74.6025 82.8605C76.1703 83.1072 77.9451 83.3885 81.2926 83.3885C84.6401 83.3885 86.4593 83.0776 88.037 82.8062C89.511 82.5496 90.7781 82.3275 93.5192 82.3275C96.9555 82.3275 98.7796 81.9475 100.387 81.6119C101.826 81.3109 103.069 81.0493 105.741 81.0493C108.413 81.0493 109.606 81.3306 111.026 81.6613C112.648 82.0363 114.492 82.4607 117.967 82.4607C120.935 82.4607 122.38 82.5298 123.903 82.6039C125.451 82.673 127.049 82.7519 130.194 82.7519C133.951 82.7519 136.007 81.9426 137.658 81.2911C139.053 80.7433 140.064 80.3485 142.416 80.3485C144.294 80.3485 145.319 80.8025 146.621 81.375C147.661 81.8389 149.111 82.515 150.555 82.6088C152.226 82.7223 152.636 81.9968 155.712 81.2862C156.959 80.995 158 80.8618 158.67 80.7927C159.508 80.7927 160.642 81.2862 160.642 81.2862C162.88 82.2584 164.059 83.048 164.059 83.048Z" fill="url(#paint0_linear_698_31888)"/>
  <path d="M150.861 73.4936C150.871 74.0364 150.886 74.5842 150.905 75.132C150.536 75.0136 150.131 74.8359 149.614 74.6089C148.026 73.9032 145.857 72.9458 142.416 72.9458C138.664 72.9458 136.608 73.7551 134.952 74.4016C133.556 74.9494 132.551 75.3492 130.194 75.3492C127.226 75.3492 125.782 75.2801 124.253 75.206C122.71 75.132 121.113 75.058 117.967 75.058C115.335 75.058 114.107 74.7767 112.687 74.446C111.06 74.071 109.222 73.6465 105.741 73.6465C102.26 73.6465 100.481 74.0265 98.8733 74.3621C97.4338 74.6632 96.1914 74.9247 93.5193 74.9247C90.1422 74.9247 88.3526 75.2356 86.77 75.512C85.3009 75.7637 84.0289 75.9858 81.2927 75.9858C78.5565 75.9858 77.2402 75.7834 75.7513 75.5515C74.1885 75.2998 72.4087 75.0234 69.0661 75.0234C66.2462 75.0234 64.8756 74.8458 63.4261 74.6533C61.8091 74.446 60.1329 74.224 56.8396 74.224C53.3146 74.224 51.451 74.7027 49.8093 75.1221C48.4092 75.4824 47.2013 75.7933 44.6081 75.7933C41.6944 75.7933 40.2795 75.6847 38.7758 75.5663C37.208 75.4479 35.5811 75.3195 32.3815 75.3195C29.7242 75.3195 27.9346 75.6601 26.495 75.9266C25.5928 76.0993 24.9075 76.2276 24.1828 76.2276H24.1631C24.6314 74.7175 25.2378 73.1284 25.8294 71.5689C26.3915 70.0933 26.9239 68.6966 27.3528 67.3444C27.9888 65.3506 28.2205 63.3519 28.4424 61.4223C28.6889 59.2656 28.9255 57.2324 29.6996 55.7815C31.292 52.7859 33.5943 49.8791 35.8276 47.071L36.508 46.2123C38.9089 43.1673 42.0346 40.4185 44.7856 37.9904C46.1216 36.8159 48.0443 36.0361 50.0805 35.2119C51.7665 34.5309 53.5069 33.8252 55.188 32.8135C57.0713 31.6784 58.5651 30.188 60.0047 28.7469C61.4985 27.2565 62.9036 25.85 64.3431 25.3072C67.1138 24.2609 70.2444 23.723 73.5624 23.1505C74.3068 23.0222 75.0513 22.8939 75.7858 22.7607C79.3256 22.1191 83.1168 22.1092 87.1349 22.1092H87.3961C88.959 22.1092 90.5021 22.0105 91.991 21.9118C94.5793 21.7391 97.0196 21.5812 99.1544 21.9661C101.698 22.43 104.247 23.4861 106.949 24.6064C108.014 25.0456 109.118 25.5046 110.217 25.9191C112.263 26.6939 114.196 28.0659 116.237 29.5218C117.45 30.3805 118.707 31.2737 120.048 32.0831C121.211 32.7839 122.395 33.4254 123.534 34.0423C125.89 35.3254 128.119 36.5296 129.908 38.1039C131.18 39.2291 132.551 40.2211 133.877 41.1785C135.883 42.6294 137.781 44.0014 139.053 45.6053C141.568 48.7884 143.727 52.6526 145.324 55.6581C146.917 58.6488 148.899 62.582 150.141 66.4857C150.738 68.366 150.802 70.9717 150.861 73.4936ZM71.2748 35.1428C71.2748 33.0997 70.4614 31.4218 68.4154 31.4218C66.3694 31.4218 63.086 33.0997 63.086 35.1428C63.086 37.186 66.3743 39.9398 68.4154 39.9398C70.4564 39.9398 71.2748 37.186 71.2748 35.1428ZM59.2898 44.4801C60.971 43.3154 61.39 41.0107 60.2265 39.3328C59.063 37.6499 56.7607 37.2304 55.0795 38.3951C54.3548 38.8985 53.3885 39.4364 52.3631 40.0138C49.5086 41.6128 45.954 43.6016 42.9417 47.1401C39.8013 50.8266 38.6131 54.8882 37.6567 58.1503C37.2869 59.4186 36.932 60.6228 36.5474 61.4519C35.6896 63.3075 36.4981 65.5086 38.3518 66.3673C38.8547 66.5992 39.3822 66.7127 39.9048 66.7127C41.3 66.7127 42.6361 65.9132 43.2622 64.561C43.8735 63.2335 44.3024 61.7727 44.756 60.2329C45.5892 57.3755 46.4569 54.4243 48.5719 51.9419C50.7214 49.4102 53.5118 47.8507 55.9719 46.4739C57.1551 45.8125 58.2742 45.1858 59.2898 44.4801Z" fill="url(#paint1_linear_698_31888)"/>
  <path d="M150.146 102.325C150.368 104.555 150.545 106.317 149.904 107.867C148.726 110.699 146.424 113.957 143.579 116.799C142.031 118.354 139.334 119.356 136.726 120.323C135.809 120.663 134.863 121.019 133.941 121.399C132.866 121.843 131.801 122.371 130.771 122.879C128.419 124.044 125.988 125.243 123.878 125.243C121.571 125.243 120.447 125.105 119.259 124.957C117.967 124.799 116.503 124.621 113.742 124.621C112.431 124.621 111.711 124.227 110.626 123.629C108.891 122.677 106.263 121.231 102.063 122.677C101.166 122.988 100.421 123.629 99.9823 124.468C97.961 128.357 94.4853 133.228 92.7302 134.985C91.7886 135.933 90.9159 136.92 90.0778 137.877C88.6037 139.56 87.2085 141.144 85.764 142.082C84.285 143.044 82.2785 143.483 80.336 143.913C78.9753 144.214 77.5653 144.525 76.2539 145.023C75.3862 145.354 74.6369 145.61 73.9861 145.818C75.4848 143.419 77.2794 140.014 78.3393 135.326C79.2021 131.506 79.5028 128.806 79.3106 126.581C79.1627 124.888 77.8808 123.511 76.2046 123.244C74.0896 122.909 72.5761 122.795 71.3189 122.795C70.0618 122.795 69.0905 122.904 68.0306 123.022C66.7685 123.165 65.462 123.314 63.2484 123.314C59.8762 123.314 58.0915 123.59 56.5139 123.837C55.0103 124.069 53.7136 124.271 50.9134 124.271C46.4171 124.271 42.8527 123.738 40.3187 122.687C36.4091 121.063 33.1208 119.03 31.0501 116.962C29.0239 114.929 27.0025 111.632 25.3608 107.674C24.5129 105.621 24.2959 102.413 24.2417 99.4523C24.641 99.5757 25.07 99.778 25.6418 100.045C27.254 100.805 29.4577 101.841 32.9433 101.841C35.7189 101.841 37.0648 102.023 38.4945 102.216C40.1067 102.433 41.7681 102.66 45.0417 102.66C48.1328 102.66 49.7006 102.606 51.219 102.552C52.7424 102.502 54.182 102.453 57.14 102.453C60.5862 102.453 62.4152 102.028 64.0273 101.653C65.4275 101.328 66.6354 101.046 69.2384 101.046C72.4726 101.046 74.1093 100.864 75.6968 100.686C77.1512 100.528 78.5218 100.375 81.3418 100.375C83.6983 100.375 84.7041 100.75 86.0993 101.268C87.7262 101.875 89.7475 102.631 93.4401 102.631C96.5313 102.631 98.104 102.576 99.6224 102.522C101.146 102.468 102.58 102.418 105.543 102.418C108.506 102.418 110.158 102.389 111.662 102.359C113.131 102.334 114.654 102.305 117.642 102.305C120.629 102.305 121.941 102.408 123.43 102.512C124.983 102.626 126.59 102.744 129.745 102.744C133.773 102.744 135.913 101.584 137.628 100.652C138.915 99.9557 139.842 99.4523 141.952 99.3585C145.669 99.1907 146.35 99.4523 148.898 100.429C149.234 100.558 149.599 100.696 150.003 100.849C150.047 101.362 150.096 101.856 150.146 102.325Z" fill="url(#paint2_linear_698_31888)"/>
  <path d="M87.3962 7.40265C90.5022 7.40265 90.8621 9.29279 90.8621 10.7141C90.8621 13.0583 89.6986 14.2427 87.3962 14.2427C86.2278 14.2427 84.7734 14.2427 84.7734 10.7141C84.7734 7.40265 86.0454 7.40265 87.3962 7.40265Z" fill="url(#paint3_linear_698_31888)"/>
  <path d="M68.4153 31.4218C70.4613 31.4218 71.2748 33.0997 71.2748 35.1429C71.2748 37.186 70.4613 39.9398 68.4153 39.9398C66.3694 39.9398 63.0859 37.186 63.0859 35.1429C63.0859 33.0997 66.3743 31.4218 68.4153 31.4218Z" fill="white"/>
  <path d="M60.2264 39.3327C61.3899 41.0107 60.9708 43.3154 59.2896 44.4801C58.274 45.1858 57.1549 45.8125 55.9717 46.4738C53.5116 47.8507 50.7212 49.4102 48.5717 51.9419C46.4567 54.4243 45.589 57.3755 44.7558 60.2329C44.3022 61.7727 43.8733 63.2335 43.262 64.561C42.6359 65.9132 41.2998 66.7127 39.9046 66.7127C39.382 66.7127 38.8545 66.5992 38.3516 66.3673C36.4979 65.5085 35.6894 63.3075 36.5472 61.4519C36.9318 60.6228 37.2867 59.4186 37.6565 58.1503C38.6129 54.8882 39.8011 50.8266 42.9415 47.1401C45.9538 43.6016 49.5084 41.6128 52.3629 40.0138C53.3883 39.4364 54.3546 38.8985 55.0794 38.3951C56.7605 37.2304 59.0629 37.6499 60.2264 39.3327Z" fill="white"/>
  <defs>
    <linearGradient id="paint0_linear_698_31888" x1="88.5007" y1="80.3485" x2="88.5007" y2="95.3414" gradientUnits="userSpaceOnUse">
      <stop stop-color="white" stop-opacity="0.2"/>
      <stop offset="1" stop-color="white" stop-opacity="0"/>
    </linearGradient>
    <linearGradient id="paint1_linear_698_31888" x1="87.5342" y1="21.7281" x2="87.5342" y2="76.2276" gradientUnits="userSpaceOnUse">
      <stop stop-color="white" stop-opacity="0.2"/>
      <stop offset="1" stop-color="white" stop-opacity="0"/>
    </linearGradient>
    <linearGradient id="paint2_linear_698_31888" x1="87.2953" y1="99.3113" x2="87.2953" y2="145.818" gradientUnits="userSpaceOnUse">
      <stop stop-color="white" stop-opacity="0.2"/>
      <stop offset="1" stop-color="white" stop-opacity="0"/>
    </linearGradient>
    <linearGradient id="paint3_linear_698_31888" x1="87.8178" y1="7.40265" x2="87.8178" y2="14.2427" gradientUnits="userSpaceOnUse">
      <stop stop-color="white" stop-opacity="0.2"/>
      <stop offset="1" stop-color="white" stop-opacity="0"/> -->
    </linearGradient>
  </defs>
</svg>