<svg xmlns="http://www.w3.org/2000/svg" width="177" height="154" viewBox="0 0 177 154" fill="none">
  <path d="M177 87.455C177 91.2057 174.673 94.0138 172.642 96.047C170.009 98.6824 166.672 99.0229 164.059 99.0229C161.746 99.0229 160.711 99.3881 159.395 99.852C158.798 100.064 158.138 100.296 157.364 100.503C157.413 100.859 157.467 101.214 157.502 101.589C157.778 104.328 158.088 107.432 156.732 110.699C154.632 115.768 150.871 119.977 148.81 122.035C146.118 124.735 142.494 126.077 139.3 127.267C138.407 127.597 137.564 127.908 136.776 128.239C135.923 128.589 135.011 129.043 134.044 129.522C131.076 130.983 127.714 132.646 123.879 132.646C121.123 132.646 119.653 132.463 118.362 132.305C117.174 132.162 116.05 132.024 113.742 132.024C110.533 132.024 108.531 130.923 107.072 130.119C106.396 129.749 106.022 129.547 105.672 129.482C103.414 133.44 100.116 138.065 97.9611 140.221C97.1822 140.996 96.4279 141.855 95.6341 142.768C93.8889 144.752 92.0894 146.8 89.7871 148.295C87.184 149.983 84.2654 150.624 81.9236 151.143C80.7749 151.394 79.6854 151.636 78.8818 151.942C75.9878 153.043 72.9509 154 70.3577 154C68.218 154 66.3841 153.349 65.1811 151.587C63.1795 148.65 65.122 145.778 66.5418 143.676C68.0159 141.504 70.0323 138.524 71.1268 133.687C71.4275 132.36 71.6444 131.205 71.7874 130.208C70.7127 130.173 69.8992 130.262 68.854 130.381C67.5278 130.529 65.8763 130.716 63.2485 130.716C60.4482 130.716 59.1516 130.919 57.648 131.15C56.0704 131.397 54.2857 131.674 50.9135 131.674C45.3622 131.674 40.9696 130.973 37.484 129.527C34.102 128.12 29.3346 125.707 25.8244 122.193C22.3635 118.734 19.9477 113.927 18.5328 110.507C17.2461 107.408 16.9305 103.548 16.8566 99.9606C16.7974 99.9902 16.7432 100.01 16.684 100.04C15.9051 100.42 15.417 100.844 15.2592 101.017C14.2634 102.117 11.8526 101.604 10.7334 101.604C3.72782 101.604 0.0598484 94.4876 0.0598484 87.455C0.0598484 87.0503 0.0450582 86.6605 0.030268 86.2854C-0.0486131 84.2127 -0.152144 81.375 2.25373 78.9666C2.45586 78.7643 2.66785 78.5422 2.88478 78.3152C4.56593 76.5583 7.11478 73.9032 10.7334 73.9032C13.7901 73.9032 15.5156 74.1845 16.9749 74.4559C17.5419 72.5609 18.2567 70.6757 18.9223 68.9286C19.4449 67.5517 19.9379 66.2587 20.3076 65.1039C20.7218 63.7912 20.9042 62.2268 21.0965 60.5686C21.3972 57.953 21.7423 54.9919 23.172 52.3023C25.0799 48.7095 27.5992 45.5362 30.0347 42.4666L30.7101 41.6178C33.5252 38.0546 37.06 34.9356 39.8997 32.4335C42.1774 30.4249 44.9038 29.3195 47.3096 28.3473C48.7936 27.7501 50.1888 27.1826 51.372 26.4719C52.4862 25.8007 53.6004 24.6854 54.7836 23.501C56.6718 21.6207 58.8065 19.4887 61.735 18.3833C65.1614 17.0853 68.7949 16.4586 72.3051 15.8565C73.0298 15.7282 73.7496 15.6048 74.4644 15.4765C75.6378 15.2643 76.8161 15.1162 77.9944 15.0027C77.595 13.7245 77.3781 12.2934 77.3781 10.7141C77.3781 4.10601 81.2137 0 87.396 0C93.8938 0 98.2569 4.30341 98.2569 10.7141C98.2569 12.0219 98.0647 13.2458 97.7146 14.371C98.6316 14.4253 99.5536 14.5141 100.471 14.6819C103.798 15.284 106.84 16.5474 109.779 17.7664C110.838 18.2056 111.839 18.6202 112.83 18.9952C115.769 20.1056 118.184 21.823 120.521 23.4862C121.675 24.3054 122.764 25.0802 123.864 25.7415C124.884 26.3584 125.939 26.9309 127.058 27.5379C129.671 28.9543 132.378 30.42 134.794 32.552C135.799 33.4353 136.968 34.2842 138.205 35.1774C140.537 36.8603 142.943 38.6024 144.851 41.0157C147.73 44.6578 150.106 48.897 151.857 52.1789C153.592 55.4459 155.766 59.7691 157.186 64.2452C158.103 67.1323 158.182 70.2759 158.251 73.3159C158.276 74.2141 158.295 75.0778 158.34 75.9019C159.73 75.7687 161.293 75.6453 164.059 75.6453C171.197 75.6453 177 80.9407 177 87.455ZM169.605 87.455C169.605 86.9467 169.339 86.5815 164.059 83.048C164.059 83.048 162.88 82.2584 160.642 81.2861C160.642 81.2861 159.508 80.7926 158.67 80.7926C158 80.8617 156.959 80.995 155.712 81.2861C152.636 81.9968 152.226 82.7223 150.555 82.6087C149.111 82.515 147.661 81.8389 146.621 81.375C145.319 80.8025 144.294 80.3485 142.416 80.3485C140.064 80.3485 139.053 80.7433 137.658 81.2911C136.006 81.9425 133.951 82.7519 130.194 82.7519C127.049 82.7519 125.451 82.6729 123.903 82.6038C122.38 82.5298 120.935 82.4607 117.967 82.4607C114.492 82.4607 112.648 82.0363 111.026 81.6612C109.606 81.3306 108.378 81.0493 105.741 81.0493C103.103 81.0493 101.826 81.3108 100.387 81.6119C98.7795 81.9474 96.9554 82.3275 93.5191 82.3275C90.778 82.3275 89.511 82.5495 88.0369 82.8062C86.4593 83.0776 84.6647 83.3885 81.2926 83.3885C77.9204 83.3885 76.1702 83.1072 74.6025 82.8604C73.1136 82.6285 71.8318 82.4262 69.066 82.4262C65.7678 82.4262 64.0916 82.209 62.4745 81.9968C61.0251 81.8093 59.6545 81.6267 56.8394 81.6267C54.2462 81.6267 53.0384 81.9376 51.6382 82.2978C49.9965 82.7173 48.1329 83.196 44.6079 83.196C41.4133 83.196 39.7863 83.0677 38.2136 82.9493C36.7149 82.8308 35.295 82.7223 32.3814 82.7223C30.4143 82.7223 29.1177 82.969 27.8605 83.2059C26.7364 83.4132 25.5976 83.6303 24.227 83.6303C22.7037 83.6303 20.8943 83.3638 18.5082 82.5249L16.9355 81.9721C16.5904 81.9129 16.265 81.8537 15.9495 81.7945C14.5493 81.5329 13.3415 81.3059 10.7334 81.3059C10.1911 81.3848 8.86002 82.7716 8.22404 83.4428C7.96768 83.7043 7.72117 83.961 7.48453 84.1979C7.36128 84.4594 7.39579 85.3971 7.42044 86.014C7.43523 86.4779 7.45495 86.9566 7.45495 87.455C7.45495 90.6431 8.80086 94.2013 10.7334 94.2013C11.7392 94.2013 12.459 94.1076 13.0851 93.9398C13.8936 93.7226 14.5099 93.4265 14.8303 93.2587C14.9388 93.2044 15.0177 93.16 15.0374 93.1501C15.5452 92.8639 17.1031 92.5184 21.1211 92.1434C21.7423 92.0249 23.0734 91.7831 24.6905 92.0003C26.3913 92.2273 27.7915 92.8787 28.7874 93.3475C30.084 93.9546 31.1094 94.4382 32.9434 94.4382C36.217 94.4382 37.8784 94.6652 39.4905 94.8824C40.9153 95.0748 42.2662 95.2574 45.0418 95.2574C48.0048 95.2574 49.4394 95.2081 50.9628 95.1538C52.4813 95.1044 54.054 95.0502 57.1402 95.0502C59.7433 95.0502 60.9511 94.7689 62.3562 94.4431C63.9683 94.0681 65.7924 93.6436 69.2386 93.6436C72.0586 93.6436 73.4291 93.4907 74.8786 93.3327C76.466 93.1551 78.1078 92.9725 81.3419 92.9725C85.0345 92.9725 87.0558 93.7275 88.6828 94.3346C90.078 94.8527 91.0837 95.2278 93.4403 95.2278C96.4032 95.2278 97.8379 95.1785 99.3613 95.1242C100.88 95.0699 102.452 95.0156 105.544 95.0156C108.635 95.0156 110.055 94.986 111.524 94.9613C113.032 94.9317 114.585 94.9021 117.642 94.9021C120.699 94.9021 122.409 95.0205 123.962 95.1291C125.446 95.2377 126.851 95.3413 129.745 95.3413C131.9 95.3413 132.733 94.8873 134.108 94.1421C135.76 93.2488 137.816 92.1335 141.622 91.9608C144.299 91.8423 146.019 91.9361 147.528 92.2371C150.028 92.7405 149.801 93.2686 151.541 93.5153C154.479 93.9299 156.649 92.6862 157.842 92.4642C158.478 92.2717 159.055 92.1483 159.557 92.0792C160.499 91.946 161.382 91.6203 164.059 91.6203C166.174 91.6203 166.933 91.2945 167.416 90.8109C167.958 90.268 169.605 88.6197 169.605 87.455ZM150.905 75.1321C150.885 74.5843 150.871 74.0365 150.861 73.4936C150.802 70.9718 150.738 68.366 150.141 66.4858C148.899 62.5821 146.917 58.6488 145.324 55.6581C143.727 52.6527 141.568 48.7885 139.053 45.6053C137.781 44.0014 135.883 42.6295 133.877 41.1785C132.551 40.2211 131.18 39.2292 129.908 38.104C128.118 36.5297 125.89 35.3255 123.533 34.0424C122.395 33.4255 121.211 32.7839 120.048 32.0831C118.707 31.2738 117.45 30.3805 116.237 29.5218C114.196 28.066 112.263 26.694 110.217 25.9192C109.118 25.5046 108.014 25.0457 106.949 24.6064C104.247 23.4862 101.698 22.4301 99.1542 21.9662C97.0195 21.5812 94.5791 21.7391 91.9908 21.9119C90.5019 22.0106 88.9588 22.1093 87.396 22.1093H87.1347C83.1167 22.1093 79.3255 22.1191 75.7857 22.7607C75.0511 22.894 74.3067 23.0223 73.5622 23.1506C70.2443 23.7231 67.1137 24.261 64.343 25.3072C62.9034 25.8501 61.4984 27.2566 60.0045 28.747C58.565 30.188 57.0712 31.6784 55.1879 32.8135C53.5067 33.8252 51.7664 34.5309 50.0803 35.212C48.0442 36.0361 46.1215 36.8159 44.7854 37.9905C42.0344 40.4185 38.9088 43.1674 36.5078 46.2123L35.8275 47.071C33.5942 49.8791 31.2918 52.7859 29.6994 55.7815C28.9254 57.2324 28.6888 59.2657 28.4423 61.4223C28.2204 63.352 27.9887 65.3507 27.3527 67.3445C26.9238 68.6967 26.3913 70.0933 25.8293 71.5689C25.2377 73.1284 24.6313 74.7175 24.163 76.2277H24.1827C24.9074 76.2277 25.5927 76.0993 26.4949 75.9266C27.9345 75.6601 29.7241 75.3196 32.3814 75.3196C35.581 75.3196 37.2079 75.4479 38.7757 75.5664C40.2793 75.6848 41.6943 75.7934 44.6079 75.7934C47.2012 75.7934 48.409 75.4825 49.8092 75.1222C51.4509 74.7027 53.3144 74.224 56.8394 74.224C60.1327 74.224 61.8089 74.4461 63.426 74.6534C64.8755 74.8458 66.246 75.0235 69.066 75.0235C72.4086 75.0235 74.1883 75.2999 75.7512 75.5515C77.2401 75.7835 78.5219 75.9858 81.2926 75.9858C84.0633 75.9858 85.3007 75.7638 86.7699 75.5121C88.3524 75.2357 90.1421 74.9248 93.5191 74.9248C96.1912 74.9248 97.4336 74.6632 98.8732 74.3622C100.48 74.0266 102.305 73.6466 105.741 73.6466C109.177 73.6466 111.06 74.071 112.687 74.4461C114.107 74.7767 115.335 75.058 117.967 75.058C121.113 75.058 122.71 75.1321 124.253 75.2061C125.782 75.2801 127.226 75.3492 130.194 75.3492C132.551 75.3492 133.556 74.9495 134.951 74.4017C136.608 73.7552 138.664 72.9458 142.416 72.9458C145.857 72.9458 148.026 73.9032 149.613 74.6089C150.131 74.836 150.535 75.0136 150.905 75.1321ZM149.904 107.867C150.545 106.317 150.368 104.555 150.146 102.325C150.097 101.856 150.047 101.362 150.003 100.849C149.599 100.696 149.234 100.558 148.899 100.429C146.35 99.4523 145.669 99.1907 141.952 99.3585C139.842 99.4523 138.915 99.9557 137.628 100.651C135.913 101.584 133.773 102.744 129.745 102.744C126.59 102.744 124.983 102.626 123.43 102.512C121.941 102.408 120.536 102.305 117.642 102.305C114.748 102.305 113.131 102.334 111.662 102.359C110.158 102.389 108.6 102.418 105.544 102.418C102.487 102.418 101.146 102.468 99.6226 102.522C98.1041 102.576 96.5314 102.63 93.4403 102.63C89.7477 102.63 87.7263 101.875 86.0994 101.268C84.7042 100.75 83.6985 100.375 81.3419 100.375C78.5219 100.375 77.1513 100.528 75.697 100.686C74.1095 100.864 72.4727 101.046 69.2386 101.046C66.6355 101.046 65.4276 101.328 64.0275 101.653C62.4153 102.028 60.5863 102.453 57.1402 102.453C54.1821 102.453 52.7426 102.502 51.2192 102.552C49.7007 102.606 48.1329 102.66 45.0418 102.66C41.7682 102.66 40.1068 102.433 38.4947 102.216C37.0649 102.023 35.719 101.841 32.9434 101.841C29.4578 101.841 27.2541 100.804 25.642 100.044C25.0701 99.778 24.6412 99.5756 24.2418 99.4523C24.2961 102.413 24.513 105.621 25.361 107.674C27.0027 111.632 29.024 114.929 31.0503 116.962C33.1209 119.03 36.4092 121.063 40.3188 122.687C42.8528 123.738 46.4173 124.271 50.9135 124.271C53.7138 124.271 55.0104 124.069 56.5141 123.837C58.0917 123.59 59.8764 123.314 63.2485 123.314C65.4621 123.314 66.7686 123.165 68.0307 123.022C69.0907 122.904 70.0767 122.795 71.3191 122.795C72.5614 122.795 74.0898 122.909 76.2048 123.244C77.881 123.511 79.1628 124.888 79.3107 126.581C79.503 128.806 79.2022 131.506 78.3395 135.326C77.2795 140.014 75.485 143.419 73.9862 145.818C74.637 145.61 75.3864 145.354 76.2541 145.023C77.5654 144.525 78.9754 144.214 80.3361 143.913C82.2786 143.483 84.2851 143.044 85.7642 142.082C87.2087 141.144 88.6039 139.56 90.078 137.877C90.9161 136.92 91.7887 135.933 92.7303 134.985C94.4854 133.228 97.9611 128.357 99.9825 124.468C100.421 123.629 101.166 122.988 102.063 122.677C106.263 121.231 108.891 122.677 110.626 123.629C111.711 124.227 112.431 124.621 113.742 124.621C116.503 124.621 117.967 124.799 119.259 124.957C120.447 125.105 121.571 125.243 123.879 125.243C125.989 125.243 128.419 124.044 130.771 122.879C131.801 122.371 132.866 121.843 133.941 121.399C134.863 121.019 135.809 120.663 136.726 120.323C139.334 119.356 142.031 118.354 143.579 116.799C146.424 113.957 148.726 110.699 149.904 107.867ZM90.8618 10.7141C90.8618 9.29281 90.502 7.40266 87.396 7.40266C86.0452 7.40266 84.7732 7.40266 84.7732 10.7141C84.7732 14.2427 86.2276 14.2427 87.396 14.2427C89.6983 14.2427 90.8618 13.0583 90.8618 10.7141Z" fill="white"/>
  <path d="M164.059 83.048C169.339 86.5816 169.605 86.9468 169.605 87.4551C169.605 88.6198 167.958 90.2681 167.416 90.8109C166.933 91.2946 166.174 91.6203 164.059 91.6203C161.382 91.6203 160.499 91.946 159.557 92.0793C159.055 92.1484 158.478 92.2717 157.842 92.4642C156.649 92.6863 154.479 93.9299 151.541 93.5154C149.801 93.2686 150.028 92.7406 147.528 92.2372C146.019 91.9361 144.299 91.8424 141.622 91.9608C137.816 92.1335 135.76 93.2489 134.108 94.1421C132.733 94.8873 131.9 95.3414 129.745 95.3414C126.851 95.3414 125.446 95.2377 123.962 95.1292C122.409 95.0206 120.802 94.9021 117.642 94.9021C114.482 94.9021 113.032 94.9318 111.524 94.9614C110.055 94.986 108.536 95.0157 105.544 95.0157C102.551 95.0157 100.88 95.0699 99.3613 95.1242C97.8379 95.1785 96.4033 95.2279 93.4403 95.2279C91.0837 95.2279 90.078 94.8528 88.6828 94.3346C87.0559 93.7276 85.0345 92.9725 81.3419 92.9725C78.1078 92.9725 76.4661 93.1551 74.8786 93.3328C73.4292 93.4907 72.0586 93.6437 69.2386 93.6437C65.7925 93.6437 63.9684 94.0681 62.3562 94.4432C60.9512 94.7689 59.7433 95.0502 57.1402 95.0502C54.054 95.0502 52.4813 95.1045 50.9628 95.1538C49.4395 95.2081 48.0048 95.2575 45.0418 95.2575C42.2662 95.2575 40.9154 95.0749 39.4906 94.8824C37.8784 94.6653 36.217 94.4382 32.9434 94.4382C31.1095 94.4382 30.084 93.9546 28.7874 93.3476C27.7915 92.8787 26.3914 92.2273 24.6905 92.0003C23.0734 91.7832 21.7423 92.025 21.1211 92.1434C17.1031 92.5185 15.5452 92.8639 15.0374 93.1502C15.0177 93.1601 14.9388 93.2045 14.8304 93.2588C14.5099 93.4265 13.8937 93.7227 13.0851 93.9398C12.459 94.1076 11.7392 94.2014 10.7335 94.2014C8.8009 94.2014 7.45499 90.6431 7.45499 87.4551C7.45499 86.9566 7.43527 86.4779 7.42048 86.014C7.39583 85.3971 7.36132 84.4595 7.48457 84.1979C7.72121 83.961 7.96772 83.7044 8.22408 83.4428C8.86006 82.7717 10.1912 81.3849 10.7335 81.3059C13.3415 81.3059 14.5494 81.5329 15.9495 81.7945C16.265 81.8537 16.5904 81.9129 16.9355 81.9722L18.5082 82.5249C20.8944 83.3639 22.7037 83.6304 24.2271 83.6304C25.5976 83.6304 26.7365 83.4132 27.8605 83.2059C29.1177 82.9691 30.4143 82.7223 32.3814 82.7223C35.2951 82.7223 36.7149 82.8309 38.2137 82.9493C39.7864 83.0678 41.4133 83.1961 44.608 83.1961C48.133 83.1961 49.9965 82.7174 51.6383 82.2979C53.0384 81.9376 54.2463 81.6267 56.8395 81.6267C59.6546 81.6267 61.0251 81.8093 62.4746 81.9968C64.0916 82.209 65.7678 82.4262 69.0661 82.4262C71.8318 82.4262 73.1136 82.6285 74.6025 82.8605C76.1703 83.1072 77.9451 83.3885 81.2926 83.3885C84.6401 83.3885 86.4593 83.0776 88.037 82.8062C89.511 82.5496 90.7781 82.3275 93.5192 82.3275C96.9555 82.3275 98.7796 81.9475 100.387 81.6119C101.826 81.3109 103.069 81.0493 105.741 81.0493C108.413 81.0493 109.606 81.3306 111.026 81.6613C112.648 82.0363 114.492 82.4607 117.967 82.4607C120.935 82.4607 122.38 82.5298 123.903 82.6039C125.451 82.673 127.049 82.7519 130.194 82.7519C133.951 82.7519 136.007 81.9426 137.658 81.2911C139.053 80.7433 140.064 80.3485 142.416 80.3485C144.294 80.3485 145.319 80.8025 146.621 81.375C147.661 81.8389 149.111 82.515 150.555 82.6088C152.226 82.7223 152.636 81.9968 155.712 81.2862C156.959 80.995 158 80.8618 158.67 80.7927C159.508 80.7927 160.642 81.2862 160.642 81.2862C162.88 82.2584 164.059 83.048 164.059 83.048Z" fill="url(#paint0_linear_698_31888)"/>
  <path d="M150.861 73.4936C150.871 74.0364 150.886 74.5842 150.905 75.132C150.536 75.0136 150.131 74.8359 149.614 74.6089C148.026 73.9032 145.857 72.9458 142.416 72.9458C138.664 72.9458 136.608 73.7551 134.952 74.4016C133.556 74.9494 132.551 75.3492 130.194 75.3492C127.226 75.3492 125.782 75.2801 124.253 75.206C122.71 75.132 121.113 75.058 117.967 75.058C115.335 75.058 114.107 74.7767 112.687 74.446C111.06 74.071 109.222 73.6465 105.741 73.6465C102.26 73.6465 100.481 74.0265 98.8733 74.3621C97.4338 74.6632 96.1914 74.9247 93.5193 74.9247C90.1422 74.9247 88.3526 75.2356 86.77 75.512C85.3009 75.7637 84.0289 75.9858 81.2927 75.9858C78.5565 75.9858 77.2402 75.7834 75.7513 75.5515C74.1885 75.2998 72.4087 75.0234 69.0661 75.0234C66.2462 75.0234 64.8756 74.8458 63.4261 74.6533C61.8091 74.446 60.1329 74.224 56.8396 74.224C53.3146 74.224 51.451 74.7027 49.8093 75.1221C48.4092 75.4824 47.2013 75.7933 44.6081 75.7933C41.6944 75.7933 40.2795 75.6847 38.7758 75.5663C37.208 75.4479 35.5811 75.3195 32.3815 75.3195C29.7242 75.3195 27.9346 75.6601 26.495 75.9266C25.5928 76.0993 24.9075 76.2276 24.1828 76.2276H24.1631C24.6314 74.7175 25.2378 73.1284 25.8294 71.5689C26.3915 70.0933 26.9239 68.6966 27.3528 67.3444C27.9888 65.3506 28.2205 63.3519 28.4424 61.4223C28.6889 59.2656 28.9255 57.2324 29.6996 55.7815C31.292 52.7859 33.5943 49.8791 35.8276 47.071L36.508 46.2123C38.9089 43.1673 42.0346 40.4185 44.7856 37.9904C46.1216 36.8159 48.0443 36.0361 50.0805 35.2119C51.7665 34.5309 53.5069 33.8252 55.188 32.8135C57.0713 31.6784 58.5651 30.188 60.0047 28.7469C61.4985 27.2565 62.9036 25.85 64.3431 25.3072C67.1138 24.2609 70.2444 23.723 73.5624 23.1505C74.3068 23.0222 75.0513 22.8939 75.7858 22.7607C79.3256 22.1191 83.1168 22.1092 87.1349 22.1092H87.3961C88.959 22.1092 90.5021 22.0105 91.991 21.9118C94.5793 21.7391 97.0196 21.5812 99.1544 21.9661C101.698 22.43 104.247 23.4861 106.949 24.6064C108.014 25.0456 109.118 25.5046 110.217 25.9191C112.263 26.6939 114.196 28.0659 116.237 29.5218C117.45 30.3805 118.707 31.2737 120.048 32.0831C121.211 32.7839 122.395 33.4254 123.534 34.0423C125.89 35.3254 128.119 36.5296 129.908 38.1039C131.18 39.2291 132.551 40.2211 133.877 41.1785C135.883 42.6294 137.781 44.0014 139.053 45.6053C141.568 48.7884 143.727 52.6526 145.324 55.6581C146.917 58.6488 148.899 62.582 150.141 66.4857C150.738 68.366 150.802 70.9717 150.861 73.4936ZM71.2748 35.1428C71.2748 33.0997 70.4614 31.4218 68.4154 31.4218C66.3694 31.4218 63.086 33.0997 63.086 35.1428C63.086 37.186 66.3743 39.9398 68.4154 39.9398C70.4564 39.9398 71.2748 37.186 71.2748 35.1428ZM59.2898 44.4801C60.971 43.3154 61.39 41.0107 60.2265 39.3328C59.063 37.6499 56.7607 37.2304 55.0795 38.3951C54.3548 38.8985 53.3885 39.4364 52.3631 40.0138C49.5086 41.6128 45.954 43.6016 42.9417 47.1401C39.8013 50.8266 38.6131 54.8882 37.6567 58.1503C37.2869 59.4186 36.932 60.6228 36.5474 61.4519C35.6896 63.3075 36.4981 65.5086 38.3518 66.3673C38.8547 66.5992 39.3822 66.7127 39.9048 66.7127C41.3 66.7127 42.6361 65.9132 43.2622 64.561C43.8735 63.2335 44.3024 61.7727 44.756 60.2329C45.5892 57.3755 46.4569 54.4243 48.5719 51.9419C50.7214 49.4102 53.5118 47.8507 55.9719 46.4739C57.1551 45.8125 58.2742 45.1858 59.2898 44.4801Z" fill="url(#paint1_linear_698_31888)"/>
  <path d="M150.146 102.325C150.368 104.555 150.545 106.317 149.904 107.867C148.726 110.699 146.424 113.957 143.579 116.799C142.031 118.354 139.334 119.356 136.726 120.323C135.809 120.663 134.863 121.019 133.941 121.399C132.866 121.843 131.801 122.371 130.771 122.879C128.419 124.044 125.988 125.243 123.878 125.243C121.571 125.243 120.447 125.105 119.259 124.957C117.967 124.799 116.503 124.621 113.742 124.621C112.431 124.621 111.711 124.227 110.626 123.629C108.891 122.677 106.263 121.231 102.063 122.677C101.166 122.988 100.421 123.629 99.9823 124.468C97.961 128.357 94.4853 133.228 92.7302 134.985C91.7886 135.933 90.9159 136.92 90.0778 137.877C88.6037 139.56 87.2085 141.144 85.764 142.082C84.285 143.044 82.2785 143.483 80.336 143.913C78.9753 144.214 77.5653 144.525 76.2539 145.023C75.3862 145.354 74.6369 145.61 73.9861 145.818C75.4848 143.419 77.2794 140.014 78.3393 135.326C79.2021 131.506 79.5028 128.806 79.3106 126.581C79.1627 124.888 77.8808 123.511 76.2046 123.244C74.0896 122.909 72.5761 122.795 71.3189 122.795C70.0618 122.795 69.0905 122.904 68.0306 123.022C66.7685 123.165 65.462 123.314 63.2484 123.314C59.8762 123.314 58.0915 123.59 56.5139 123.837C55.0103 124.069 53.7136 124.271 50.9134 124.271C46.4171 124.271 42.8527 123.738 40.3187 122.687C36.4091 121.063 33.1208 119.03 31.0501 116.962C29.0239 114.929 27.0025 111.632 25.3608 107.674C24.5129 105.621 24.2959 102.413 24.2417 99.4523C24.641 99.5757 25.07 99.778 25.6418 100.045C27.254 100.805 29.4577 101.841 32.9433 101.841C35.7189 101.841 37.0648 102.023 38.4945 102.216C40.1067 102.433 41.7681 102.66 45.0417 102.66C48.1328 102.66 49.7006 102.606 51.219 102.552C52.7424 102.502 54.182 102.453 57.14 102.453C60.5862 102.453 62.4152 102.028 64.0273 101.653C65.4275 101.328 66.6354 101.046 69.2384 101.046C72.4726 101.046 74.1093 100.864 75.6968 100.686C77.1512 100.528 78.5218 100.375 81.3418 100.375C83.6983 100.375 84.7041 100.75 86.0993 101.268C87.7262 101.875 89.7475 102.631 93.4401 102.631C96.5313 102.631 98.104 102.576 99.6224 102.522C101.146 102.468 102.58 102.418 105.543 102.418C108.506 102.418 110.158 102.389 111.662 102.359C113.131 102.334 114.654 102.305 117.642 102.305C120.629 102.305 121.941 102.408 123.43 102.512C124.983 102.626 126.59 102.744 129.745 102.744C133.773 102.744 135.913 101.584 137.628 100.652C138.915 99.9557 139.842 99.4523 141.952 99.3585C145.669 99.1907 146.35 99.4523 148.898 100.429C149.234 100.558 149.599 100.696 150.003 100.849C150.047 101.362 150.096 101.856 150.146 102.325Z" fill="url(#paint2_linear_698_31888)"/>
  <path d="M87.3962 7.40265C90.5022 7.40265 90.8621 9.29279 90.8621 10.7141C90.8621 13.0583 89.6986 14.2427 87.3962 14.2427C86.2278 14.2427 84.7734 14.2427 84.7734 10.7141C84.7734 7.40265 86.0454 7.40265 87.3962 7.40265Z" fill="url(#paint3_linear_698_31888)"/>
  <path d="M68.4153 31.4218C70.4613 31.4218 71.2748 33.0997 71.2748 35.1429C71.2748 37.186 70.4613 39.9398 68.4153 39.9398C66.3694 39.9398 63.0859 37.186 63.0859 35.1429C63.0859 33.0997 66.3743 31.4218 68.4153 31.4218Z" fill="white"/>
  <path d="M60.2264 39.3327C61.3899 41.0107 60.9708 43.3154 59.2896 44.4801C58.274 45.1858 57.1549 45.8125 55.9717 46.4738C53.5116 47.8507 50.7212 49.4102 48.5717 51.9419C46.4567 54.4243 45.589 57.3755 44.7558 60.2329C44.3022 61.7727 43.8733 63.2335 43.262 64.561C42.6359 65.9132 41.2998 66.7127 39.9046 66.7127C39.382 66.7127 38.8545 66.5992 38.3516 66.3673C36.4979 65.5085 35.6894 63.3075 36.5472 61.4519C36.9318 60.6228 37.2867 59.4186 37.6565 58.1503C38.6129 54.8882 39.8011 50.8266 42.9415 47.1401C45.9538 43.6016 49.5084 41.6128 52.3629 40.0138C53.3883 39.4364 54.3546 38.8985 55.0794 38.3951C56.7605 37.2304 59.0629 37.6499 60.2264 39.3327Z" fill="white"/>
  <defs>
    <linearGradient id="paint0_linear_698_31888" x1="88.5007" y1="80.3485" x2="88.5007" y2="95.3414" gradientUnits="userSpaceOnUse">
      <stop stop-color="white" stop-opacity="0.2"/>
      <stop offset="1" stop-color="white" stop-opacity="0"/>
    </linearGradient>
    <linearGradient id="paint1_linear_698_31888" x1="87.5342" y1="21.7281" x2="87.5342" y2="76.2276" gradientUnits="userSpaceOnUse">
      <stop stop-color="white" stop-opacity="0.2"/>
      <stop offset="1" stop-color="white" stop-opacity="0"/>
    </linearGradient>
    <linearGradient id="paint2_linear_698_31888" x1="87.2953" y1="99.3113" x2="87.2953" y2="145.818" gradientUnits="userSpaceOnUse">
      <stop stop-color="white" stop-opacity="0.2"/>
      <stop offset="1" stop-color="white" stop-opacity="0"/>
    </linearGradient>
    <linearGradient id="paint3_linear_698_31888" x1="87.8178" y1="7.40265" x2="87.8178" y2="14.2427" gradientUnits="userSpaceOnUse">
      <stop stop-color="white" stop-opacity="0.2"/>
      <stop offset="1" stop-color="white" stop-opacity="0"/>
    </linearGradient>
  </defs>
</svg>