<svg xmlns="http://www.w3.org/2000/svg" width="72" height="62" viewBox="0 0 72 62" fill="none">
  <path d="M71.5925 35.2092C71.5925 36.7192 70.6551 37.8497 69.8369 38.6683C68.7764 39.7293 67.4319 39.8664 66.3793 39.8664C65.4479 39.8664 65.0309 40.0134 64.5006 40.2002C64.2603 40.2856 63.9942 40.379 63.6824 40.4624C63.7023 40.6055 63.7241 40.7485 63.738 40.8995C63.8492 42.0022 63.9744 43.252 63.4282 44.5673C62.5822 46.6078 61.0669 48.3026 60.2368 49.1311C59.1525 50.2179 57.6928 50.7583 56.4059 51.2372C56.0464 51.3703 55.7068 51.4955 55.3891 51.6286C55.0455 51.7697 54.6781 51.9524 54.2889 52.1452C53.0933 52.7333 51.7389 53.4029 50.1938 53.4029C49.0837 53.4029 48.4919 53.3293 47.9715 53.2658C47.4929 53.2081 47.0401 53.1525 46.1107 53.1525C44.8178 53.1525 44.0115 52.7094 43.4237 52.3856C43.1516 52.2366 43.0007 52.1551 42.8597 52.1293C41.9501 53.7227 40.6215 55.5844 39.7537 56.4527C39.4399 56.7646 39.136 57.1103 38.8163 57.4779C38.1133 58.2766 37.3884 59.1012 36.4609 59.7032C35.4124 60.3827 34.2367 60.641 33.2934 60.8496C32.8306 60.9509 32.3917 61.0483 32.068 61.1715C30.9023 61.6146 29.6789 62 28.6343 62C27.7724 62 27.0336 61.7377 26.5491 61.0284C25.7428 59.8462 26.5252 58.6899 27.0972 57.8435C27.691 56.9693 28.5032 55.7692 28.9441 53.8221C29.0653 53.2876 29.1526 52.8227 29.2102 52.4213C28.7773 52.4074 28.4496 52.4432 28.0286 52.4909C27.4944 52.5505 26.8291 52.626 25.7706 52.626C24.6425 52.626 24.1202 52.7075 23.5145 52.8008C22.879 52.9002 22.1601 53.0114 20.8017 53.0114C18.5655 53.0114 16.796 52.7293 15.392 52.1472C14.0296 51.5809 12.1092 50.6093 10.6952 49.1947C9.30104 47.8019 8.32793 45.8667 7.75796 44.4898C7.23962 43.242 7.11252 41.6883 7.08273 40.2439C7.0589 40.2558 7.03706 40.2637 7.01323 40.2757C6.69945 40.4287 6.50284 40.5995 6.43928 40.6691C6.03812 41.1121 5.06699 40.9055 4.61618 40.9055C1.79414 40.9055 0.316589 38.0404 0.316589 35.2092C0.316589 35.0462 0.310631 34.8893 0.304673 34.7383C0.272898 33.9038 0.231193 32.7614 1.20034 31.7918C1.28176 31.7103 1.36716 31.6209 1.45454 31.5295C2.13175 30.8222 3.15849 29.7532 4.61618 29.7532C5.84747 29.7532 6.54255 29.8665 7.1304 29.9758C7.35878 29.2128 7.64675 28.4538 7.91485 27.7505C8.12536 27.1962 8.32395 26.6756 8.4729 26.2107C8.63972 25.6822 8.7132 25.0523 8.79065 24.3847C8.9118 23.3317 9.05081 22.1396 9.62674 21.0568C10.3953 19.6103 11.4101 18.3328 12.3912 17.0969L12.6633 16.7552C13.7972 15.3207 15.2212 14.065 16.3651 13.0577C17.2826 12.249 18.3808 11.8039 19.35 11.4125C19.9477 11.1721 20.5098 10.9436 20.9864 10.6575C21.4352 10.3873 21.884 9.93828 22.3607 9.46143C23.1213 8.70444 23.9812 7.84612 25.1609 7.40106C26.5411 6.87851 28.0048 6.62618 29.4188 6.38379C29.7107 6.33213 30.0006 6.28246 30.2886 6.2308C30.7613 6.14536 31.2359 6.08576 31.7105 6.04006C31.5497 5.52546 31.4623 4.94927 31.4623 4.31348C31.4623 1.65307 33.0074 0 35.4978 0C38.1152 0 39.8728 1.73254 39.8728 4.31348C39.8728 4.83999 39.7954 5.33274 39.6544 5.78574C40.0238 5.8076 40.3951 5.84336 40.7645 5.91091C42.105 6.15331 43.3304 6.66195 44.514 7.1527C44.941 7.32953 45.3441 7.49643 45.7433 7.64743C46.9269 8.09447 47.9 8.7859 48.8414 9.45547C49.3061 9.78529 49.745 10.0972 50.1879 10.3635C50.599 10.6118 51.024 10.8423 51.4748 11.0867C52.5273 11.6569 53.6176 12.247 54.5907 13.1053C54.9959 13.461 55.4665 13.8027 55.965 14.1623C56.9044 14.8399 57.8735 15.5412 58.6421 16.5128C59.8019 17.9791 60.7591 19.6858 61.4641 21.0071C62.1632 22.3224 63.039 24.0629 63.6109 25.865C63.9803 27.0273 64.0121 28.2929 64.0399 29.5168C64.0498 29.8784 64.0578 30.2261 64.0756 30.5579C64.6357 30.5043 65.2652 30.4546 66.3793 30.4546C69.255 30.4546 71.5925 32.5865 71.5925 35.2092ZM68.6135 35.2092C68.6135 35.0045 68.5063 34.8575 66.3793 33.4349C66.3793 33.4349 65.9047 33.117 65.0031 32.7256C65.0031 32.7256 64.5463 32.5269 64.2087 32.5269C63.9386 32.5547 63.5196 32.6084 63.0171 32.7256C61.7779 33.0117 61.6131 33.3038 60.9398 33.2581C60.3579 33.2203 59.7741 32.9481 59.355 32.7614C58.8307 32.5309 58.4177 32.3481 57.661 32.3481C56.7137 32.3481 56.3066 32.507 55.7446 32.7276C55.0793 32.9898 54.2511 33.3157 52.7378 33.3157C51.4708 33.3157 50.8273 33.2839 50.2038 33.2561C49.5901 33.2263 49.0082 33.1985 47.8127 33.1985C46.4126 33.1985 45.6698 33.0276 45.0164 32.8766C44.4445 32.7435 43.95 32.6302 42.8875 32.6302C41.825 32.6302 41.3106 32.7355 40.7307 32.8567C40.0833 32.9918 39.3485 33.1448 37.9643 33.1448C36.8601 33.1448 36.3497 33.2342 35.7559 33.3375C35.1204 33.4468 34.3975 33.572 33.0392 33.572C31.6808 33.572 30.9757 33.4587 30.3442 33.3594C29.7445 33.266 29.2281 33.1846 28.114 33.1846C26.7854 33.1846 26.1102 33.0971 25.4588 33.0117C24.8749 32.9362 24.3228 32.8627 23.1888 32.8627C22.1442 32.8627 21.6576 32.9879 21.0936 33.1329C20.4323 33.3018 19.6816 33.4945 18.2617 33.4945C16.9748 33.4945 16.3194 33.4428 15.6859 33.3952C15.0822 33.3475 14.5102 33.3038 13.3365 33.3038C12.5441 33.3038 12.0218 33.4031 11.5154 33.4985C11.0626 33.5819 10.6038 33.6694 10.0517 33.6694C9.43808 33.6694 8.70923 33.5621 7.74803 33.2243L7.11451 33.0018C6.97549 32.9779 6.84442 32.9541 6.71732 32.9302C6.15331 32.8249 5.66675 32.7335 4.61618 32.7335C4.39772 32.7653 3.86152 33.3236 3.60533 33.5938C3.50206 33.6992 3.40276 33.8025 3.30744 33.8978C3.25779 34.0031 3.27169 34.3806 3.28162 34.629C3.28758 34.8158 3.29552 35.0085 3.29552 35.2092C3.29552 36.4927 3.83769 37.9252 4.61618 37.9252C5.02131 37.9252 5.31126 37.8875 5.56348 37.8199C5.88918 37.7325 6.13742 37.6133 6.26651 37.5457C6.3102 37.5239 6.34197 37.506 6.34992 37.502C6.55447 37.3868 7.18203 37.2477 8.80058 37.0967C9.05081 37.049 9.58702 36.9516 10.2384 37.0391C10.9236 37.1305 11.4876 37.3927 11.8887 37.5815C12.411 37.8259 12.8241 38.0206 13.5629 38.0206C14.8816 38.0206 15.5508 38.112 16.2002 38.1994C16.7742 38.2769 17.3183 38.3504 18.4364 38.3504C19.63 38.3504 20.2079 38.3305 20.8216 38.3087C21.4332 38.2888 22.0668 38.2669 23.31 38.2669C24.3585 38.2669 24.8451 38.1537 25.4111 38.0226C26.0605 37.8716 26.7953 37.7007 28.1835 37.7007C29.3195 37.7007 29.8716 37.6391 30.4554 37.5755C31.0949 37.504 31.7562 37.4305 33.059 37.4305C34.5465 37.4305 35.3607 37.7345 36.0161 37.9789C36.5781 38.1875 36.9833 38.3385 37.9325 38.3385C39.1261 38.3385 39.704 38.3186 40.3177 38.2967C40.9293 38.2749 41.5629 38.253 42.8081 38.253C44.0532 38.253 44.6252 38.2411 45.217 38.2312C45.8247 38.2193 46.4503 38.2073 47.6816 38.2073C48.9129 38.2073 49.602 38.255 50.2276 38.2987C50.8254 38.3424 51.3914 38.3842 52.5571 38.3842C53.425 38.3842 53.7606 38.2014 54.3147 37.9014C54.98 37.5417 55.8081 37.0927 57.3413 37.0232C58.4196 36.9755 59.1127 37.0132 59.7204 37.1344C60.7273 37.3371 60.636 37.5497 61.337 37.649C62.5206 37.8159 63.3945 37.3152 63.8751 37.2258C64.1312 37.1483 64.3636 37.0987 64.5662 37.0709C64.9455 37.0172 65.301 36.8861 66.3793 36.8861C67.2313 36.8861 67.5372 36.7549 67.7318 36.5602C67.9502 36.3417 68.6135 35.6781 68.6135 35.2092ZM61.0808 30.248C61.0729 30.0274 61.0669 29.8069 61.063 29.5883C61.0391 28.5731 61.0133 27.524 60.773 26.767C60.2725 25.1954 59.4742 23.6119 58.8327 22.4078C58.1893 21.1978 57.3194 19.6421 56.3066 18.3606C55.7942 17.7149 55.0296 17.1625 54.2213 16.5784C53.6871 16.1929 53.135 15.7936 52.6226 15.3406C51.9017 14.7067 51.0041 14.222 50.0548 13.7054C49.5961 13.457 49.1194 13.1987 48.6507 12.9166C48.1106 12.5907 47.6041 12.2311 47.1156 11.8854C46.2934 11.2993 45.5149 10.7469 44.6907 10.435C44.2479 10.2681 43.803 10.0833 43.3741 9.90649C42.2858 9.45547 41.259 9.03028 40.2343 8.84352C39.3743 8.68854 38.3913 8.75212 37.3487 8.82166C36.7489 8.8614 36.1273 8.90114 35.4978 8.90114H35.3925C33.774 8.90114 32.2468 8.90511 30.8208 9.1634C30.5249 9.21705 30.2251 9.26871 29.9252 9.32037C28.5886 9.55084 27.3275 9.76741 26.2114 10.1886C25.6315 10.4072 25.0655 10.9734 24.4638 11.5735C23.8839 12.1536 23.2822 12.7537 22.5235 13.2106C21.8463 13.6179 21.1453 13.9021 20.4661 14.1763C19.6459 14.5081 18.8714 14.822 18.3332 15.2949C17.225 16.2724 15.9659 17.3791 14.9987 18.605L14.7247 18.9507C13.825 20.0812 12.8976 21.2515 12.2561 22.4575C11.9443 23.0416 11.849 23.8602 11.7497 24.7285C11.6604 25.5053 11.567 26.31 11.3108 27.1127C11.1381 27.6571 10.9236 28.2194 10.6972 28.8135C10.4589 29.4413 10.2146 30.0811 10.0259 30.6891H10.0339C10.3258 30.6891 10.6018 30.6374 10.9653 30.5679C11.5452 30.4606 12.2661 30.3235 13.3365 30.3235C14.6254 30.3235 15.2808 30.3751 15.9123 30.4228C16.518 30.4705 17.088 30.5142 18.2617 30.5142C19.3063 30.5142 19.7928 30.389 20.3568 30.244C21.0182 30.0751 21.7689 29.8824 23.1888 29.8824C24.5154 29.8824 25.1907 29.9718 25.8421 30.0553C26.4259 30.1327 26.978 30.2043 28.114 30.2043C29.4605 30.2043 30.1774 30.3155 30.8069 30.4169C31.4067 30.5102 31.923 30.5917 33.0392 30.5917C34.1553 30.5917 34.6537 30.5023 35.2455 30.401C35.883 30.2897 36.6039 30.1645 37.9643 30.1645C39.0407 30.1645 39.5412 30.0592 40.1211 29.938C40.7685 29.8029 41.5033 29.6499 42.8875 29.6499C44.2717 29.6499 45.0303 29.8208 45.6857 29.9718C46.2577 30.1049 46.7522 30.2182 47.8127 30.2182C49.0797 30.2182 49.7231 30.248 50.3448 30.2778C50.9604 30.3076 51.5423 30.3354 52.7378 30.3354C53.6871 30.3354 54.0923 30.1745 54.6543 29.9539C55.3216 29.6936 56.1497 29.3678 57.661 29.3678C59.0472 29.3678 59.921 29.7532 60.5605 30.0374C60.769 30.1288 60.9319 30.2003 61.0808 30.248ZM60.6777 43.4268C60.9358 42.803 60.8643 42.0936 60.775 41.1956C60.7551 41.0068 60.7353 40.8081 60.7174 40.6015C60.5545 40.5399 60.4076 40.4843 60.2725 40.4326C59.2458 40.0392 58.9717 39.9339 57.4743 40.0015C56.6243 40.0392 56.251 40.2419 55.7327 40.522C55.0415 40.8976 54.1796 41.3645 52.5571 41.3645C51.2861 41.3645 50.6387 41.3168 50.0131 41.2711C49.4133 41.2294 48.8473 41.1876 47.6816 41.1876C46.5158 41.1876 45.8644 41.1996 45.2726 41.2095C44.6669 41.2214 44.0393 41.2333 42.8081 41.2333C41.5768 41.2333 41.0366 41.2532 40.4229 41.2751C39.8113 41.2969 39.1777 41.3188 37.9325 41.3188C36.4451 41.3188 35.6308 41.0148 34.9755 40.7704C34.4134 40.5618 34.0083 40.4108 33.059 40.4108C31.923 40.4108 31.3709 40.4724 30.7851 40.5359C30.1456 40.6075 29.4863 40.681 28.1835 40.681C27.1349 40.681 26.6483 40.7942 26.0843 40.9254C25.4349 41.0764 24.6981 41.2472 23.31 41.2472C22.1184 41.2472 21.5385 41.2671 20.9248 41.287C20.3132 41.3088 19.6816 41.3307 18.4364 41.3307C17.1178 41.3307 16.4485 41.2393 15.7991 41.1519C15.2232 41.0744 14.681 41.0009 13.5629 41.0009C12.1588 41.0009 11.2711 40.5836 10.6217 40.2777C10.3913 40.1704 10.2186 40.0889 10.0577 40.0392C10.0795 41.2313 10.1669 42.5228 10.5085 43.3493C11.1698 44.9428 11.9841 46.27 12.8003 47.0886C13.6344 47.9211 14.959 48.7397 16.5339 49.3934C17.5547 49.8166 18.9905 50.0312 20.8017 50.0312C21.9297 50.0312 22.452 49.9497 23.0577 49.8563C23.6933 49.757 24.4122 49.6457 25.7706 49.6457C26.6623 49.6457 27.1885 49.5861 27.6969 49.5285C28.1239 49.4808 28.5211 49.4371 29.0216 49.4371C29.522 49.4371 30.1377 49.4828 30.9896 49.6179C31.6649 49.7252 32.1812 50.2795 32.2408 50.961C32.3182 51.8571 32.1971 52.9439 31.8496 54.4817C31.4226 56.3692 30.6997 57.7402 30.096 58.7058C30.3581 58.6223 30.66 58.519 31.0095 58.3859C31.5378 58.1852 32.1058 58.0601 32.6539 57.9389C33.4363 57.766 34.2446 57.5892 34.8404 57.2017C35.4223 56.8242 35.9843 56.1865 36.5781 55.5089C36.9157 55.1235 37.2672 54.7261 37.6466 54.3446C38.3536 53.6373 39.7537 51.6763 40.5679 50.1106C40.7447 49.7729 41.0445 49.5146 41.406 49.3894C43.098 48.8072 44.1565 49.3894 44.8556 49.7729C45.2925 50.0133 45.5824 50.1722 46.1107 50.1722C47.2228 50.1722 47.8127 50.2437 48.333 50.3073C48.8116 50.3669 49.2644 50.4226 50.1938 50.4226C51.0438 50.4226 52.0229 49.9398 52.9702 49.4709C53.3853 49.2662 53.8142 49.0536 54.2472 48.8748C54.6185 48.7218 54.9998 48.5788 55.3692 48.4417C56.4198 48.0522 57.5061 47.6489 58.1297 47.023C59.2756 45.8786 60.203 44.5673 60.6777 43.4268ZM36.8939 4.31348C36.8939 3.74126 36.7489 2.98029 35.4978 2.98029C34.9536 2.98029 34.4412 2.98029 34.4412 4.31348C34.4412 5.73408 35.0271 5.73408 35.4978 5.73408C36.4252 5.73408 36.8939 5.25723 36.8939 4.31348Z" fill="white"/>
  <path d="M66.3798 33.4348C68.5068 34.8574 68.614 35.0045 68.614 35.2091C68.614 35.678 67.9507 36.3416 67.7323 36.5602C67.5377 36.7549 67.2318 36.886 66.3798 36.886C65.3015 36.886 64.946 37.0171 64.5667 37.0708C64.3641 37.0986 64.1317 37.1483 63.8756 37.2258C63.395 37.3152 62.5211 37.8159 61.3375 37.649C60.6365 37.5496 60.7278 37.337 59.7209 37.1344C59.1132 37.0132 58.4201 36.9754 57.3418 37.0231C55.8086 37.0926 54.9805 37.5417 54.3152 37.9013C53.7611 38.2013 53.4255 38.3841 52.5576 38.3841C51.3919 38.3841 50.8259 38.3424 50.2281 38.2987C49.6025 38.255 48.9551 38.2073 47.6821 38.2073C46.4091 38.2073 45.8252 38.2192 45.2175 38.2311C44.6257 38.2411 44.014 38.253 42.8086 38.253C41.6031 38.253 40.9299 38.2748 40.3182 38.2967C39.7045 38.3185 39.1266 38.3384 37.933 38.3384C36.9838 38.3384 36.5786 38.1874 36.0166 37.9788C35.3612 37.7344 34.547 37.4304 33.0595 37.4304C31.7567 37.4304 31.0954 37.5039 30.4559 37.5755C29.8721 37.639 29.32 37.7006 28.184 37.7006C26.7958 37.7006 26.061 37.8715 25.4116 38.0225C24.8456 38.1536 24.3591 38.2669 23.3105 38.2669C22.0673 38.2669 21.4337 38.2887 20.8221 38.3086C20.2084 38.3305 19.6305 38.3503 18.4369 38.3503C17.3188 38.3503 16.7747 38.2768 16.2008 38.1993C15.5513 38.1119 14.8821 38.0205 13.5634 38.0205C12.8246 38.0205 12.4116 37.8258 11.8893 37.5814C11.4881 37.3927 10.9241 37.1304 10.2389 37.039C9.58753 36.9516 9.05132 37.0489 8.80109 37.0966C7.18254 37.2476 6.55498 37.3867 6.35043 37.5019C6.34248 37.5059 6.31071 37.5238 6.26702 37.5457C6.13793 37.6132 5.88968 37.7324 5.56399 37.8198C5.31177 37.8874 5.02182 37.9251 4.61669 37.9251C3.83819 37.9251 3.29603 36.4926 3.29603 35.2091C3.29603 35.0084 3.28808 34.8157 3.28213 34.6289C3.2722 34.3806 3.2583 34.0031 3.30794 33.8978C3.40327 33.8024 3.50257 33.6991 3.60584 33.5938C3.86203 33.3236 4.39823 32.7653 4.61669 32.7335C5.66726 32.7335 6.15382 32.8249 6.71783 32.9302C6.84493 32.954 6.976 32.9779 7.11502 33.0017L7.74854 33.2242C8.70974 33.562 9.43858 33.6693 10.0522 33.6693C10.6043 33.6693 11.0631 33.5819 11.5159 33.4984C12.0223 33.403 12.5446 33.3037 13.337 33.3037C14.5107 33.3037 15.0827 33.3474 15.6864 33.3951C16.3199 33.4428 16.9753 33.4944 18.2622 33.4944C19.6821 33.4944 20.4328 33.3017 21.0941 33.1328C21.6582 32.9878 22.1447 32.8626 23.1893 32.8626C24.3233 32.8626 24.8754 32.9361 25.4593 33.0116C26.1107 33.0971 26.7859 33.1845 28.1145 33.1845C29.2286 33.1845 29.745 33.266 30.3447 33.3593C30.9763 33.4587 31.6912 33.5719 33.0397 33.5719C34.3881 33.5719 35.1209 33.4468 35.7564 33.3375C36.3502 33.2342 36.8606 33.1448 37.9648 33.1448C39.349 33.1448 40.0838 32.9918 40.7313 32.8567C41.3112 32.7355 41.8116 32.6302 42.888 32.6302C43.9644 32.6302 44.445 32.7434 45.0169 32.8765C45.6703 33.0275 46.4131 33.1984 47.8132 33.1984C49.0087 33.1984 49.5906 33.2262 50.2043 33.256C50.8278 33.2838 51.4713 33.3156 52.7383 33.3156C54.2516 33.3156 55.0798 32.9898 55.7451 32.7275C56.3071 32.507 56.7142 32.348 57.6615 32.348C58.4182 32.348 58.8312 32.5308 59.3555 32.7613C59.7746 32.9481 60.3584 33.2203 60.9403 33.258C61.6136 33.3037 61.7784 33.0116 63.0176 32.7255C63.5201 32.6083 63.9391 32.5547 64.2092 32.5268C64.5468 32.5268 65.0036 32.7255 65.0036 32.7255C65.9052 33.1169 66.3798 33.4348 66.3798 33.4348Z" fill="url(#paint0_linear_1186_24438)"/>
  <path d="M61.0634 29.5884C61.0674 29.8069 61.0733 30.0275 61.0813 30.248C60.9323 30.2003 60.7695 30.1288 60.561 30.0374C59.9215 29.7533 59.0477 29.3678 57.6615 29.3678C56.1501 29.3678 55.322 29.6937 54.6547 29.954C54.0927 30.1745 53.6876 30.3354 52.7383 30.3354C51.5427 30.3354 50.9608 30.3076 50.3452 30.2778C49.7236 30.248 49.0802 30.2182 47.8131 30.2182C46.7526 30.2182 46.2581 30.105 45.6862 29.9719C45.0308 29.8209 44.29 29.65 42.8879 29.65C41.4859 29.65 40.7689 29.803 40.1215 29.9381C39.5416 30.0593 39.0412 30.1646 37.9648 30.1646C36.6044 30.1646 35.8835 30.2897 35.246 30.401C34.6542 30.5023 34.1418 30.5918 33.0396 30.5918C31.9374 30.5918 31.4071 30.5103 30.8074 30.4169C30.1778 30.3156 29.4609 30.2043 28.1144 30.2043C26.9785 30.2043 26.4264 30.1328 25.8425 30.0553C25.1911 29.9719 24.5159 29.8824 23.1893 29.8824C21.7693 29.8824 21.0186 30.0752 20.3573 30.244C19.7933 30.3891 19.3067 30.5143 18.2621 30.5143C17.0884 30.5143 16.5185 30.4706 15.9127 30.4229C15.2812 30.3752 14.6258 30.3235 13.337 30.3235C12.2665 30.3235 11.5456 30.4606 10.9657 30.5679C10.6023 30.6374 10.3262 30.6891 10.0343 30.6891H10.0264C10.215 30.0811 10.4593 29.4414 10.6976 28.8135C10.924 28.2194 11.1385 27.6572 11.3113 27.1128C11.5675 26.3101 11.6608 25.5054 11.7502 24.7285C11.8495 23.8603 11.9448 23.0417 12.2566 22.4575C12.8981 21.2515 13.8255 20.0813 14.7251 18.9507L14.9992 18.605C15.9664 17.3791 17.2254 16.2724 18.3336 15.2949C18.8718 14.822 19.6463 14.5081 20.4665 14.1763C21.1457 13.9021 21.8468 13.618 22.524 13.2107C23.2826 12.7537 23.8844 12.1537 24.4643 11.5735C25.066 10.9735 25.632 10.4072 26.2119 10.1887C27.328 9.76746 28.5891 9.55089 29.9256 9.32042C30.2255 9.26876 30.5254 9.2171 30.8213 9.16345C32.2472 8.90516 33.7744 8.90119 35.393 8.90119H35.4982C36.1278 8.90119 36.7494 8.86145 37.3491 8.82171C38.3917 8.75217 39.3748 8.68859 40.2347 8.84357C41.2595 9.03033 42.2862 9.45552 43.3745 9.90654C43.8035 10.0834 44.2483 10.2681 44.6912 10.435C45.5154 10.747 46.2939 11.2993 47.116 11.8855C47.6046 12.2312 48.111 12.5908 48.6512 12.9166C49.1199 13.1988 49.5965 13.4571 50.0553 13.7054C51.0045 14.222 51.9022 14.7068 52.6231 15.3406C53.1355 15.7936 53.6876 16.193 54.2218 16.5784C55.0301 17.1626 55.7947 17.7149 56.307 18.3606C57.3199 19.6422 58.1897 21.1979 58.8332 22.4079C59.4746 23.6119 60.273 25.1954 60.7734 26.767C61.0138 27.524 61.0396 28.5731 61.0634 29.5884ZM29.0041 14.1485C29.0041 13.3259 28.6765 12.6504 27.8523 12.6504C27.0281 12.6504 25.7055 13.3259 25.7055 14.1485C25.7055 14.971 27.0301 16.0797 27.8523 16.0797C28.6745 16.0797 29.0041 14.971 29.0041 14.1485ZM24.1763 17.9076C24.8535 17.4387 25.0223 16.5109 24.5536 15.8353C24.0849 15.1578 23.1575 14.9889 22.4803 15.4578C22.1883 15.6605 21.7991 15.8771 21.386 16.1095C20.2362 16.7533 18.8043 17.554 17.5909 18.9785C16.3258 20.4627 15.8472 22.0979 15.4619 23.4112C15.313 23.9219 15.17 24.4067 15.0151 24.7404C14.6695 25.4875 14.9952 26.3736 15.7419 26.7194C15.9445 26.8127 16.157 26.8584 16.3675 26.8584C16.9295 26.8584 17.4677 26.5366 17.72 25.9922C17.9662 25.4577 18.139 24.8696 18.3217 24.2497C18.6573 23.0993 19.0069 21.9112 19.8588 20.9118C20.7247 19.8925 21.8488 19.2647 22.8397 18.7103C23.3164 18.4441 23.7672 18.1918 24.1763 17.9076Z" fill="url(#paint1_linear_1186_24438)"/>
  <path d="M60.7749 41.1956C60.8643 42.0937 60.9358 42.803 60.6776 43.4268C60.203 44.5673 59.2755 45.8786 58.1296 47.0231C57.506 47.6489 56.4197 48.0523 55.3691 48.4417C54.9998 48.5788 54.6185 48.7218 54.2471 48.8748C53.8141 49.0536 53.3852 49.2662 52.9701 49.4709C52.0228 49.9398 51.0437 50.4226 50.1937 50.4226C49.2643 50.4226 48.8115 50.367 48.3329 50.3073C47.8126 50.2438 47.2228 50.1722 46.1106 50.1722C45.5824 50.1722 45.2924 50.0133 44.8555 49.7729C44.1564 49.3894 43.0979 48.8073 41.4059 49.3894C41.0445 49.5146 40.7446 49.7729 40.5678 50.1106C39.7536 51.6763 38.3535 53.6373 37.6465 54.3446C37.2672 54.7261 36.9157 55.1235 36.578 55.5089C35.9842 56.1865 35.4222 56.8242 34.8403 57.2018C34.2446 57.5892 33.4363 57.766 32.6538 57.9389C32.1057 58.0601 31.5377 58.1852 31.0094 58.3859C30.6599 58.519 30.358 58.6224 30.0959 58.7058C30.6996 57.7402 31.4225 56.3693 31.8495 54.4817C32.197 52.9439 32.3182 51.8571 32.2407 50.961C32.1811 50.2795 31.6648 49.7252 30.9896 49.6179C30.1376 49.4828 29.5279 49.4371 29.0215 49.4371C28.5151 49.4371 28.1238 49.4808 27.6969 49.5285C27.1885 49.5861 26.6622 49.6457 25.7705 49.6457C24.4121 49.6457 23.6932 49.757 23.0577 49.8563C22.452 49.9497 21.9297 50.0312 20.8016 50.0312C18.9904 50.0312 17.5546 49.8166 16.5338 49.3934C14.959 48.7397 13.6343 47.9211 12.8002 47.0886C11.984 46.27 11.1698 44.9428 10.5084 43.3494C10.1668 42.5228 10.0795 41.2314 10.0576 40.0392C10.2185 40.0889 10.3913 40.1704 10.6216 40.2777C11.271 40.5836 12.1588 41.0009 13.5628 41.0009C14.6809 41.0009 15.2231 41.0744 15.799 41.1519C16.4484 41.2393 17.1177 41.3307 18.4364 41.3307C19.6816 41.3307 20.3131 41.3089 20.9248 41.287C21.5384 41.2671 22.1183 41.2473 23.3099 41.2473C24.6981 41.2473 25.4349 41.0764 26.0843 40.9254C26.6483 40.7943 27.1348 40.681 28.1834 40.681C29.4862 40.681 30.1455 40.6075 30.785 40.536C31.3709 40.4724 31.923 40.4108 33.0589 40.4108C34.0082 40.4108 34.4134 40.5618 34.9754 40.7704C35.6307 41.0148 36.445 41.3188 37.9325 41.3188C39.1777 41.3188 39.8112 41.2969 40.4229 41.2751C41.0365 41.2532 41.6144 41.2334 42.808 41.2334C44.0015 41.2334 44.6668 41.2214 45.2726 41.2095C45.8644 41.1996 46.478 41.1877 47.6815 41.1877C48.885 41.1877 49.4133 41.2294 50.013 41.2711C50.6386 41.3168 51.286 41.3645 52.557 41.3645C54.1796 41.3645 55.0415 40.8976 55.7326 40.5221C56.2509 40.2419 56.6243 40.0392 57.4743 40.0015C58.9717 39.9339 59.2457 40.0392 60.2725 40.4326C60.4075 40.4843 60.5545 40.5399 60.7173 40.6015C60.7352 40.8082 60.7551 41.0068 60.7749 41.1956Z" fill="url(#paint2_linear_1186_24438)"/>
  <path d="M35.4974 2.98016C36.7486 2.98016 36.8936 3.74113 36.8936 4.31335C36.8936 5.25711 36.4249 5.73395 35.4974 5.73395C35.0268 5.73395 34.4409 5.73395 34.4409 4.31335C34.4409 2.98016 34.9533 2.98016 35.4974 2.98016Z" fill="url(#paint3_linear_1186_24438)"/>
  <path d="M27.8519 12.6503C28.6761 12.6503 29.0037 13.3258 29.0037 14.1484C29.0037 14.9709 28.6761 16.0796 27.8519 16.0796C27.0277 16.0796 25.7051 14.9709 25.7051 14.1484C25.7051 13.3258 27.0297 12.6503 27.8519 12.6503Z" fill="white"/>
  <path d="M24.5525 15.8353C25.0212 16.5108 24.8524 17.4387 24.1752 17.9076C23.7661 18.1917 23.3153 18.444 22.8387 18.7103C21.8477 19.2646 20.7236 19.8925 19.8577 20.9117C19.0058 21.9111 18.6562 23.0993 18.3206 24.2497C18.1379 24.8696 17.9651 25.4577 17.7189 25.9921C17.4667 26.5365 16.9285 26.8584 16.3664 26.8584C16.1559 26.8584 15.9434 26.8127 15.7409 26.7193C14.9941 26.3736 14.6684 25.4875 15.014 24.7404C15.1689 24.4066 15.3119 23.9218 15.4608 23.4112C15.8461 22.0979 16.3247 20.4627 17.5898 18.9785C18.8032 17.5539 20.2351 16.7532 21.3849 16.1095C21.798 15.877 22.1873 15.6605 22.4792 15.4578C23.1564 14.9889 24.0839 15.1578 24.5525 15.8353Z" fill="white"/>
  <defs>
    <linearGradient id="paint0_linear_1186_24438" x1="35.9433" y1="32.348" x2="35.9433" y2="38.3841" gradientUnits="userSpaceOnUse">
      <stop stop-color="#FFCCCC" stop-opacity="0.2"/>
      <stop offset="1" stop-color="#FFCCCC" stop-opacity="0"/>
    </linearGradient>
    <linearGradient id="paint1_linear_1186_24438" x1="35.5538" y1="8.74774" x2="35.5538" y2="30.6891" gradientUnits="userSpaceOnUse">
      <stop stop-color="#FFCCCC" stop-opacity="0.2"/>
      <stop offset="1" stop-color="#FFCCCC" stop-opacity="0"/>
    </linearGradient>
    <linearGradient id="paint2_linear_1186_24438" x1="35.4572" y1="39.9825" x2="35.4572" y2="58.7058" gradientUnits="userSpaceOnUse">
      <stop stop-color="#FFCCCC" stop-opacity="0.2"/>
      <stop offset="1" stop-color="#FFCCCC" stop-opacity="0"/>
    </linearGradient>
    <linearGradient id="paint3_linear_1186_24438" x1="35.6672" y1="2.98016" x2="35.6672" y2="5.73395" gradientUnits="userSpaceOnUse">
      <stop stop-color="#FFCCCC" stop-opacity="0.2"/>
      <stop offset="1" stop-color="#FFCCCC" stop-opacity="0"/>
    </linearGradient>
  </defs>
</svg>