<svg width="25" height="24" viewBox="0 0 25 24" fill="none" xmlns="http://www.w3.org/2000/svg">
<path fill-rule="evenodd" clip-rule="evenodd" d="M14.641 23.8851H12.3188C5.7545 23.8851 0.433594 18.5642 0.433594 11.9999C0.433594 5.43565 5.7545 0.114746 12.3188 0.114746C18.8831 0.114746 24.204 5.43565 24.204 11.9999C24.204 14.0844 23.6691 16.0409 22.7229 17.746C26.7273 21.2384 23.5686 23.8851 14.641 23.8851ZM18.1442 9.26V9.15963C18.1442 8.69765 17.7683 8.32315 17.3048 8.32315H5.68355C5.21997 8.32315 4.84417 8.69765 4.84417 9.15963V9.26C4.84417 9.72198 5.21997 10.0965 5.68355 10.0965H17.3048C17.7683 10.0965 18.1442 9.72198 18.1442 9.26ZM14.5972 14.5297C14.5972 15.0194 14.1892 15.4164 13.6859 15.4164H5.75513C5.25184 15.4164 4.84384 15.0194 4.84384 14.5297C4.84384 14.04 5.25184 13.643 5.75513 13.643H13.6859C14.1892 13.643 14.5972 14.04 14.5972 14.5297Z" fill="#E1E1E1"/>
</svg>
