<svg width="24" height="24" viewBox="0 0 24 24" fill="none" xmlns="http://www.w3.org/2000/svg">
<path fill-rule="evenodd" clip-rule="evenodd" d="M4.00067 24H19.9993C22.2077 24 24 22.0865 24 19.7288V11.1052C24 9.80673 23.4479 8.58089 22.4998 7.76935L14.4984 0.935398C13.0382 -0.311799 10.9618 -0.311799 9.50158 0.935398L1.50025 7.76935C0.552092 8.58089 0 9.80673 0 11.1052V19.7288C0 22.0865 1.7923 24 4.00067 24ZM11.9547 13.4873H12.0453C12.4621 13.4873 12.8 13.8816 12.8 14.368V20.5327C12.8 21.019 12.4621 21.4133 12.0453 21.4133H11.9547C11.5379 21.4133 11.2 21.019 11.2 20.5327V14.368C11.2 13.8816 11.5379 13.4873 11.9547 13.4873Z" fill="#FF6666"/>
</svg>
