<svg width="25" height="23" viewBox="0 0 25 23" fill="none" xmlns="http://www.w3.org/2000/svg">
<path d="M18.6247 7.99159C20.5786 7.99159 22.1625 6.40767 22.1625 4.4538C22.1625 2.49994 20.5786 0.916016 18.6247 0.916016C16.6708 0.916016 15.0869 2.49994 15.0869 4.4538C15.0869 6.40767 16.6708 7.99159 18.6247 7.99159Z" fill="#E1E1E1"/>
<path d="M16.465 9.14282H20.7885C22.9565 9.14282 24.717 10.9033 24.717 13.0714C24.717 14.5882 23.4859 15.8234 21.9649 15.8234H15.2843C13.7675 15.8234 12.5322 14.5924 12.5322 13.0714C12.5322 10.9033 14.2927 9.14282 16.4608 9.14282H16.465Z" fill="#E1E1E1"/>
<path d="M6.80927 7.99159C8.76314 7.99159 10.3471 6.40767 10.3471 4.4538C10.3471 2.49994 8.76314 0.916016 6.80927 0.916016C4.85541 0.916016 3.27148 2.49994 3.27148 4.4538C3.27148 6.40767 4.85541 7.99159 6.80927 7.99159Z" fill="#E1E1E1"/>
<path d="M4.64954 9.14282H8.97304C11.1411 9.14282 12.9016 10.9033 12.9016 13.0714C12.9016 14.5882 11.6705 15.8234 10.1495 15.8234H3.46888C1.95208 15.8234 0.716797 14.5924 0.716797 13.0714C0.716797 10.9033 2.47728 9.14282 4.64534 9.14282H4.64954Z" fill="#E1E1E1"/>
<path d="M12.6037 13.4306C15.1064 13.4306 17.1352 11.4018 17.1352 8.89916C17.1352 6.39649 15.1064 4.36768 12.6037 4.36768C10.1011 4.36768 8.07227 6.39649 8.07227 8.89916C8.07227 11.4018 10.1011 13.4306 12.6037 13.4306Z" fill="#E1E1E1" stroke="white" stroke-width="1.5" stroke-linecap="round" stroke-linejoin="round"/>
<path d="M14.9143 13.1912H10.2925C7.55895 13.1912 5.34082 15.4093 5.34082 18.1428C5.34082 20.1789 6.99592 21.834 9.03197 21.834H16.1748C18.2108 21.834 19.8659 20.1789 19.8659 18.1428C19.8659 15.4093 17.6478 13.1912 14.9143 13.1912Z" fill="#E1E1E1" stroke="white" stroke-width="1.5" stroke-linecap="round" stroke-linejoin="round"/>
</svg>
