<svg width="25" height="24" viewBox="0 0 25 24" fill="none" xmlns="http://www.w3.org/2000/svg">
<path fill-rule="evenodd" clip-rule="evenodd" d="M14.641 23.8852H12.3188C5.7545 23.8852 0.433594 18.5643 0.433594 12.0001C0.433594 5.43578 5.7545 0.114868 12.3188 0.114868C18.8831 0.114868 24.204 5.43578 24.204 12.0001C24.204 14.0845 23.6691 16.041 22.7229 17.7461C26.7273 21.2385 23.5686 23.8852 14.641 23.8852ZM18.1442 9.26012V9.15975C18.1442 8.69777 17.7683 8.32327 17.3048 8.32327H5.68355C5.21997 8.32327 4.84417 8.69777 4.84417 9.15975V9.26012C4.84417 9.7221 5.21997 10.0966 5.68355 10.0966H17.3048C17.7683 10.0966 18.1442 9.7221 18.1442 9.26012ZM14.5972 14.5298C14.5972 15.0195 14.1892 15.4165 13.6859 15.4165H5.75513C5.25184 15.4165 4.84384 15.0195 4.84384 14.5298C4.84384 14.0401 5.25184 13.6432 5.75513 13.6432H13.6859C14.1892 13.6432 14.5972 14.0401 14.5972 14.5298Z" fill="#FF6666"/>
</svg>
