<svg width="32" height="32" viewBox="0 0 32 32" fill="none" xmlns="http://www.w3.org/2000/svg">
<path d="M12.0826 2.61431C12.1241 2.61431 12.1657 2.60973 12.2072 2.59831C12.3665 2.55488 12.572 2.55945 12.789 2.56402C13.0152 2.56859 13.2483 2.57316 13.4907 2.52974C13.7054 2.49088 13.9039 2.42688 14.0979 2.36517C14.3172 2.29431 14.5249 2.22803 14.7211 2.21203C14.9497 2.19146 15.1944 2.20517 15.4506 2.22117C15.783 2.23946 16.1362 2.24174 16.4848 2.23031C16.7918 2.22117 17.0804 2.20974 17.3551 2.23717C17.5975 2.26003 17.8445 2.3286 18.1053 2.40174C18.2923 2.45431 18.4862 2.50688 18.6871 2.54574C18.9387 2.59373 19.1788 2.43145 19.2296 2.1846C19.278 1.93775 19.1164 1.69776 18.8648 1.64747C18.7009 1.61547 18.5324 1.56976 18.3547 1.51947C18.0661 1.43948 17.7683 1.35719 17.4451 1.32519C17.1104 1.29319 16.7757 1.30462 16.4548 1.31377C16.1385 1.32519 15.8223 1.32291 15.5037 1.30462C15.2244 1.28862 14.9335 1.27262 14.638 1.29777C14.3402 1.32519 14.0725 1.40976 13.8139 1.49205C13.6408 1.5469 13.4792 1.59947 13.3245 1.6269C13.1745 1.65433 12.9967 1.64976 12.8097 1.64519C12.5466 1.63833 12.2511 1.63376 11.9602 1.71376C11.7155 1.78004 11.5701 2.03375 11.6393 2.27603C11.6971 2.47945 11.8817 2.61202 12.0849 2.61202L12.0826 2.61431Z" fill="#FF6666" stroke="#FF6666" stroke-width="0.5"/>
<path d="M5.54463 25.1235C5.43613 25.0001 5.34841 24.8424 5.25376 24.6733C5.16604 24.5156 5.0737 24.3533 4.95366 24.1933C4.829 24.0264 4.68819 23.8916 4.55199 23.7613C4.41579 23.631 4.28882 23.5076 4.20572 23.3773C4.10415 23.215 4.02335 23.0322 3.93794 22.8379C3.8733 22.6916 3.80867 22.5408 3.72787 22.3876C3.62168 22.1865 3.48087 22.0196 3.3539 21.8733C3.23617 21.7362 3.12536 21.6059 3.07227 21.4802C3.02148 21.3591 3.00532 21.1899 2.98916 21.0116C2.9707 20.8174 2.94992 20.5979 2.87835 20.3785C2.80679 20.1637 2.69137 19.9762 2.5898 19.8094C2.49515 19.654 2.40512 19.51 2.3728 19.3774C2.33125 19.206 2.27585 19.0414 2.22045 18.8837C2.15119 18.6826 2.08656 18.4906 2.05885 18.3077C2.02192 18.0769 2.00807 17.8323 1.99191 17.574C1.98498 17.4483 1.97806 17.3226 1.96882 17.1969C1.93881 16.8175 1.9342 16.422 1.9342 16.086C1.9342 15.9535 1.93189 15.8232 1.92958 15.6906C1.92265 15.4026 1.91804 15.1329 1.94112 14.8724C1.97344 14.4975 2.04269 14.109 2.10964 13.7341L2.12118 13.6724C2.1812 13.3364 2.262 12.8976 2.3728 12.4861C2.40974 12.349 2.51824 12.1936 2.63135 12.0313C2.75601 11.853 2.89682 11.6519 2.98455 11.4164C3.04687 11.245 3.09766 11.0736 3.14383 10.909C3.20847 10.6827 3.2708 10.4679 3.36083 10.2782C3.40469 10.1868 3.44624 10.0953 3.48779 10.0016C3.61706 9.7182 3.74172 9.44849 3.88715 9.19707C4.01412 8.97765 3.93794 8.6988 3.71863 8.57309C3.49702 8.44737 3.21539 8.5228 3.08843 8.73994C2.91991 9.03022 2.7814 9.33193 2.64751 9.62449C2.60596 9.71363 2.56671 9.80277 2.52285 9.89191C2.40281 10.1479 2.32663 10.4085 2.25507 10.6576C2.2089 10.813 2.16735 10.9616 2.11657 11.1033C2.0704 11.2267 1.97575 11.3639 1.87418 11.5079C1.72643 11.7182 1.55792 11.9559 1.47943 12.2507C1.35939 12.6987 1.27167 13.1604 1.20934 13.5147L1.1978 13.5764C1.12854 13.9718 1.05698 14.3787 1.02005 14.7947C0.992345 15.1032 0.999268 15.4118 1.00619 15.7089C1.0085 15.8346 1.01081 15.9603 1.01081 16.086C1.01081 16.4403 1.01543 16.8563 1.04775 17.2677C1.05698 17.3866 1.06391 17.5054 1.07083 17.6243C1.08699 17.894 1.10084 18.1729 1.14701 18.4494C1.18856 18.7077 1.26936 18.9431 1.34554 19.1717C1.39632 19.318 1.4425 19.4574 1.47481 19.5922C1.54176 19.8597 1.67796 20.0837 1.798 20.2825C1.8811 20.4174 1.95959 20.5477 1.99883 20.6642C2.03808 20.7831 2.05193 20.9339 2.06809 21.0939C2.08886 21.3225 2.11195 21.5831 2.22045 21.8345C2.32894 22.0882 2.49746 22.287 2.64751 22.463C2.75139 22.5842 2.85065 22.7007 2.90837 22.8105C2.973 22.9339 3.03072 23.0642 3.09074 23.2013C3.18538 23.4184 3.28464 23.6424 3.42315 23.8619C3.56397 24.0859 3.74864 24.2619 3.91024 24.4173C4.02566 24.527 4.13185 24.6321 4.21265 24.7396C4.29575 24.8493 4.36731 24.9795 4.4458 25.1167C4.55892 25.3201 4.67665 25.5281 4.84978 25.7247C4.94212 25.8275 5.06908 25.8801 5.19836 25.8801C5.30686 25.8801 5.41535 25.8435 5.50308 25.7681C5.69468 25.6012 5.71546 25.3133 5.54694 25.1235H5.54463Z" fill="#FF6666" stroke="#FF6666" stroke-width="0.5"/>
<path d="M20.333 29.1531C20.0837 29.2354 19.8275 29.2925 19.5551 29.3565C19.4581 29.3794 19.3612 29.4 19.2642 29.4251C19.0726 29.4708 18.8972 29.5371 18.7286 29.6034C18.544 29.6742 18.3708 29.7405 18.2046 29.7657C17.9853 29.8 17.7568 29.8114 17.5167 29.8228C17.3782 29.8297 17.2374 29.8365 17.0966 29.8457C16.9742 29.8548 16.8496 29.8685 16.7272 29.88C16.471 29.9051 16.2309 29.9302 15.9908 29.9302C15.7507 29.9302 15.5107 29.9737 15.2867 30.0171C15.0651 30.0582 14.8574 30.0994 14.6842 30.0834C14.4557 30.0628 14.2202 30.0011 13.9686 29.9348C13.7885 29.8868 13.6016 29.8388 13.41 29.8022C13.2645 29.7748 13.096 29.6697 12.9183 29.5554C12.7197 29.4297 12.4935 29.2857 12.2303 29.2125L11.9672 29.1394C11.6348 29.048 11.3208 28.9634 11.0161 28.8468C10.7783 28.7554 10.5105 28.872 10.4182 29.1074C10.3259 29.3428 10.4436 29.608 10.6814 29.6994C11.0299 29.832 11.3808 29.928 11.7202 30.0217L11.9787 30.0925C12.1103 30.1291 12.2603 30.2251 12.4196 30.3257C12.6528 30.4742 12.9183 30.6411 13.2414 30.7005C13.3984 30.7279 13.56 30.7714 13.7308 30.8171C14.0078 30.8902 14.2964 30.9656 14.6011 30.9931C14.6588 30.9976 14.7142 30.9999 14.7696 30.9999C15.0097 30.9999 15.2406 30.9565 15.4622 30.9131C15.6515 30.8765 15.8315 30.8422 15.9908 30.8422C16.2771 30.8422 16.5541 30.8148 16.8195 30.7874C16.9373 30.7759 17.0527 30.7645 17.1704 30.7554C17.2997 30.7462 17.429 30.7394 17.5606 30.7325C17.8168 30.7211 18.0823 30.7096 18.3524 30.6662C18.6132 30.6251 18.851 30.5337 19.0634 30.4537C19.2111 30.3965 19.3519 30.3439 19.4858 30.3119C19.5805 30.2891 19.6728 30.2685 19.7675 30.2457C20.0468 30.1817 20.3376 30.1154 20.6262 30.0217C20.8686 29.944 21.0002 29.6834 20.9194 29.4457C20.8409 29.2057 20.5777 29.0754 20.3376 29.1554L20.333 29.1531Z" fill="#FF6666" stroke="#FF6666" stroke-width="0.5"/>
<path d="M30.9996 14.8428C30.9765 14.5685 30.9026 14.3194 30.8311 14.0771C30.7849 13.9171 30.7387 13.7662 30.7156 13.6222C30.6556 13.2657 30.5794 12.8222 30.4733 12.4063C30.3971 12.1137 30.2263 11.8828 30.0739 11.6817C29.9723 11.5491 29.8777 11.4211 29.8407 11.3114C29.7923 11.172 29.7576 11.0212 29.723 10.8589C29.6699 10.6212 29.6168 10.3766 29.506 10.1275C29.446 9.99489 29.3998 9.84175 29.3513 9.68175C29.2798 9.44633 29.2059 9.20177 29.072 8.96406C28.9174 8.68521 28.7396 8.42693 28.5665 8.17779C28.5088 8.09322 28.451 8.00865 28.3933 7.92408C28.3125 7.80294 28.2433 7.65895 28.1694 7.50581C28.0609 7.27953 27.9501 7.04639 27.777 6.83382C27.6177 6.63497 27.3291 6.60297 27.1283 6.76068C26.9275 6.91839 26.8951 7.2041 27.0544 7.40295C27.1606 7.53552 27.246 7.71152 27.3361 7.89894C27.4215 8.07494 27.5069 8.25779 27.6246 8.4315C27.6823 8.51835 27.7424 8.60521 27.8024 8.69206C27.9686 8.93434 28.1279 9.1652 28.2618 9.40519C28.3472 9.55833 28.4049 9.74575 28.4649 9.94689C28.5203 10.1275 28.5757 10.3149 28.6611 10.5C28.735 10.6623 28.7765 10.852 28.8204 11.0532C28.8596 11.2337 28.9012 11.4189 28.9681 11.6109C29.0536 11.8531 29.2013 12.052 29.3329 12.2257C29.4437 12.372 29.5476 12.5114 29.5799 12.6303C29.6699 12.9822 29.7346 13.3388 29.8061 13.7708C29.8384 13.9651 29.8938 14.1502 29.9469 14.3285C30.0069 14.5365 30.0647 14.7308 30.0808 14.9136C30.0901 15.0119 30.0231 15.1742 29.9585 15.3319C29.8684 15.5536 29.7669 15.805 29.7669 16.0862V16.2736C29.7669 16.5959 29.7669 16.8999 29.7438 17.2039C29.7276 17.3913 29.7299 17.5696 29.7322 17.7433C29.7345 17.9513 29.7369 18.1478 29.7069 18.3284C29.6699 18.5501 29.6768 18.7695 29.6838 18.9638C29.6907 19.1535 29.6953 19.3341 29.6607 19.4758C29.633 19.5878 29.5314 19.7227 29.4229 19.8644C29.2913 20.0381 29.1436 20.2346 29.0605 20.4769C28.982 20.7078 28.9658 20.9409 28.952 21.1466C28.9404 21.3272 28.9289 21.4986 28.8781 21.6152C28.825 21.7363 28.7742 21.862 28.7234 21.9855C28.6265 22.2255 28.5342 22.4517 28.421 22.6597C28.211 23.0483 28.0217 23.3706 27.8416 23.6471C27.7631 23.7706 27.6246 23.8871 27.4792 24.0128C27.3291 24.1408 27.1606 24.2848 27.0221 24.4631C26.8905 24.6345 26.7936 24.8128 26.7012 24.9865C26.6089 25.158 26.5235 25.3225 26.4173 25.4368C26.2465 25.6242 26.2603 25.9122 26.4496 26.0836C26.5373 26.1636 26.6481 26.2025 26.7589 26.2025C26.8859 26.2025 27.0106 26.1522 27.1006 26.0516C27.283 25.8505 27.4076 25.6174 27.5161 25.4139C27.5946 25.2677 27.6685 25.1282 27.7516 25.0208C27.8324 24.9157 27.9524 24.8128 28.0794 24.7054C28.2594 24.5523 28.4626 24.3763 28.6149 24.1454C28.8089 23.8483 29.0097 23.5054 29.2313 23.094C29.3675 22.8426 29.4737 22.582 29.5753 22.3306C29.6237 22.214 29.6699 22.0952 29.7207 21.9809C29.8361 21.718 29.8546 21.4483 29.8684 21.2083C29.88 21.0438 29.8892 20.8883 29.9285 20.7718C29.9631 20.6689 30.0577 20.5455 30.157 20.4129C30.307 20.2141 30.4779 19.9878 30.5517 19.6975C30.6187 19.4324 30.6095 19.1672 30.6025 18.9341C30.5979 18.7672 30.591 18.6095 30.6141 18.477C30.6579 18.2187 30.6533 17.9718 30.651 17.7318C30.651 17.5718 30.6464 17.4233 30.6579 17.277C30.6856 16.9342 30.6856 16.5959 30.6833 16.2713V16.0862C30.6833 15.981 30.7457 15.8256 30.808 15.6725C30.9072 15.4279 31.0204 15.1513 30.9927 14.8382L30.9996 14.8428Z" fill="#FF6666" stroke="#FF6666" stroke-width="0.5"/>
<path d="M17.1721 16.2301C17.3314 15.9764 17.4907 15.7204 17.6523 15.4667C17.6961 15.3958 17.8439 15.3089 17.9732 15.2312C18.1902 15.1032 18.4372 14.957 18.5988 14.7032C18.7326 14.493 18.7511 14.2484 18.765 14.0495C18.7696 13.9787 18.7765 13.8781 18.7904 13.8278C18.8919 13.7478 19.0951 13.6816 19.2728 13.6221C19.409 13.5764 19.5521 13.5307 19.6883 13.469C19.7807 13.4278 19.9446 13.4301 20.1085 13.4301C20.3093 13.4301 20.5402 13.4324 20.7664 13.357C21.2027 13.2107 21.3758 13.0644 21.5305 12.9136C21.5882 12.8564 21.6067 12.8382 21.6736 12.8084C22.0591 12.6324 22.3546 12.4359 22.5993 12.189C22.7886 11.9993 22.9179 11.7913 23.0402 11.5902C23.091 11.5056 23.1441 11.4233 23.1995 11.3433C23.248 11.2748 23.3703 11.2016 23.4881 11.1285C23.6751 11.0142 23.8851 10.8885 24.0213 10.6691C24.1575 10.4542 24.2499 10.2416 24.333 10.0542C24.3814 9.94222 24.4299 9.83708 24.4738 9.7548C24.6654 9.41423 24.7116 9.26795 24.7554 9.09881C24.7762 9.0211 24.797 8.94567 24.8639 8.79025C24.9008 8.70568 24.9701 8.59597 25.0463 8.47711C25.1594 8.29883 25.3002 8.07712 25.4087 7.81427C25.4618 7.68856 25.5287 7.55371 25.6003 7.40971C25.6903 7.22914 25.7919 7.02572 25.8796 6.8063C25.9835 6.54802 26.0643 6.28516 26.1428 6.02917C26.2097 5.81432 26.2698 5.6109 26.3413 5.43033C27.0362 3.63837 26.7361 3.43038 26.5699 3.31381L26.376 3.18581L26.1613 3.25667C25.9281 3.33209 25.8612 3.52409 25.7942 3.71151C25.7296 3.89208 25.6234 4.1915 25.4295 4.49778C25.4064 4.52978 25.3048 4.60521 25.2379 4.6532C25.0671 4.77663 24.8547 4.93205 24.6931 5.17433C24.5477 5.39376 24.4161 5.54233 24.3006 5.67261C24.2199 5.76403 24.1483 5.84403 24.0883 5.93089C23.9728 6.09546 23.9105 6.21888 23.8482 6.34002C23.7836 6.46345 23.7235 6.5823 23.5943 6.76972C23.4765 6.93658 23.398 7.13086 23.3242 7.32057C23.2526 7.50114 23.1764 7.68627 23.0702 7.8417C22.9964 7.95141 22.8579 8.06341 22.7147 8.18455C22.5555 8.31483 22.3777 8.4634 22.2277 8.64854C21.8837 9.07595 21.6805 9.27252 21.5697 9.36395L21.5582 9.34566C21.512 9.27709 21.4543 9.19024 21.7106 8.65311C21.8583 8.34454 22.0591 7.9697 22.3061 7.54456C22.4331 7.32743 22.5278 7.108 22.6178 6.89315C22.7009 6.69887 22.7794 6.51373 22.8694 6.37202C23.0195 6.13203 23.1095 6.07717 23.2295 5.99946C23.3888 5.89889 23.5873 5.77546 23.8159 5.4189C24.3838 4.50692 24.3768 4.0475 24.3722 3.79837C24.4969 3.59723 24.6031 3.52409 24.6538 3.48523C24.7116 3.44409 24.8916 3.31838 24.8847 3.06924L24.8755 2.83382L24.6839 2.70125C24.1968 2.36297 23.4904 3.16524 23.2087 3.52409C23.0472 3.7298 22.9133 3.96294 22.7955 4.16864C22.7055 4.32635 22.6201 4.47492 22.537 4.58463C22.3454 4.84291 22.2207 5.10805 22.1215 5.32062C22.0545 5.4669 21.9945 5.59261 21.9345 5.67718C21.7406 5.94689 21.5651 6.1366 21.4128 6.30116C21.3089 6.41316 21.2189 6.50916 21.1427 6.60973C20.9996 6.79944 20.8149 6.97086 20.6187 7.15372C20.4201 7.34114 20.2124 7.53313 20.0323 7.7617C19.9492 7.86684 19.8799 7.98798 19.8061 8.11369C19.7414 8.22798 19.626 8.42911 19.5475 8.49997C19.5198 8.47711 19.4944 8.43368 19.476 8.37883C19.4206 8.22112 19.4413 8.02455 19.4921 7.93313C19.6237 7.69085 19.6976 7.45085 19.7645 7.23829C19.813 7.08286 19.8592 6.93429 19.9192 6.81087C20.0185 6.60973 20.1431 6.40402 20.2747 6.18688C20.3486 6.06346 20.4247 5.93775 20.5009 5.80518C20.584 5.66118 20.7041 5.51261 20.8449 5.3389C20.9534 5.20405 21.0757 5.05319 21.1935 4.88406C21.2766 4.76749 21.362 4.6532 21.4474 4.54121C21.609 4.33093 21.7752 4.11379 21.9091 3.87837C22.0684 3.59952 22.1307 3.31609 22.1838 3.06467C22.2138 2.92296 22.2438 2.78811 22.2831 2.69668C22.3823 2.47726 22.4793 2.28755 22.5601 2.13441C22.7494 1.77099 22.9641 1.35728 22.5693 1.09443C22.1676 0.824725 21.8444 1.17443 21.4335 1.61785L21.2558 1.80984C21.115 1.95841 21.0134 2.12984 20.9141 2.29669C20.8333 2.43154 20.7572 2.55725 20.6694 2.66011C20.5771 2.76754 20.4594 2.86582 20.3347 2.97096C20.1939 3.08981 20.0485 3.21324 19.9261 3.35952C19.7761 3.5378 19.6468 3.70237 19.5014 3.89665C19.4206 4.00179 19.3352 4.11379 19.2336 4.24407C19.192 4.29893 19.1043 4.36978 19.0143 4.44521C18.8342 4.59378 18.6103 4.77892 18.4164 5.06005C18.3564 5.14919 18.271 5.24519 18.1717 5.35719C18.0263 5.52176 17.86 5.70918 17.7077 5.94689C17.5346 6.2166 17.4284 6.4863 17.3429 6.70344C17.2852 6.84744 17.2368 6.97315 17.1814 7.06229C16.902 7.53313 16.8766 7.91941 16.8582 8.20283C16.8536 8.26226 16.8512 8.3194 16.8443 8.37426C16.8328 8.47025 16.7797 8.59597 16.722 8.72853C16.6181 8.97081 16.5027 9.24509 16.5258 9.56737C16.5465 9.83479 16.6527 10.0679 16.7474 10.2714C16.8143 10.4176 16.8789 10.5571 16.8882 10.6622C16.902 10.8108 16.8559 10.9913 16.8074 11.1833C16.7658 11.3479 16.7243 11.517 16.7081 11.6999C16.692 11.8622 16.7035 12.0222 16.7127 12.1753C16.7266 12.3787 16.7381 12.573 16.6804 12.6896C16.6412 12.7673 16.535 12.8679 16.4311 12.9639C16.3272 13.0599 16.2095 13.1673 16.1102 13.2976C16.004 13.437 15.8448 13.5673 15.6762 13.7044C15.6347 13.7387 15.5931 13.773 15.5516 13.8073C15.42 13.5993 15.2815 13.3867 15.1222 13.1741C14.9422 12.9341 14.7598 12.6736 14.6582 12.397C14.619 12.2942 14.6351 12.1433 14.6536 11.9696C14.6698 11.8302 14.6859 11.6702 14.6767 11.5033C14.6651 11.3205 14.619 11.1513 14.5774 11.0028C14.5336 10.8473 14.4943 10.7033 14.5174 10.6119C14.6282 10.1845 14.6144 9.75251 14.6028 9.33423V9.24509C14.5982 9.12395 14.6028 9.00053 14.6097 8.87482C14.6236 8.57539 14.6397 8.23483 14.5497 7.88284C14.4712 7.57199 14.2912 7.31828 14.1342 7.09429C14.0372 6.95715 13.9472 6.82687 13.8849 6.69887C13.8364 6.59601 13.7925 6.49316 13.7487 6.39031C13.6263 6.1046 13.4994 5.80746 13.2939 5.5149C13.0377 5.14919 12.7491 4.84749 12.4536 4.54806C12.3636 4.45664 12.2828 4.31721 12.1974 4.17093C12.0612 3.93551 11.9042 3.66809 11.6411 3.48295C11.3363 3.26809 10.9947 3.13324 10.6946 3.01439C10.6022 2.97782 10.5099 2.94125 10.4222 2.90239L10.2675 2.83611C9.90048 2.67611 9.51958 2.50926 9.12252 2.44983C8.70931 2.38812 8.31918 2.47726 7.97522 2.55497C7.8875 2.57554 7.80208 2.59383 7.71898 2.60983C7.315 2.68754 7.02875 2.9161 6.77713 3.11724C6.69633 3.18124 6.61323 3.24752 6.52551 3.30924C6.43778 3.36866 6.30851 3.42123 6.17 3.47609C5.87683 3.59266 5.5144 3.73665 5.30202 4.08179C5.07117 4.45664 4.97422 4.91606 4.89112 5.32062L4.86803 5.42804C4.78493 5.82118 4.80801 6.22574 4.8311 6.61659L4.84033 6.77658C4.8588 7.14686 4.93267 7.54685 5.07349 8.06798C5.1589 8.38797 5.30664 8.67368 5.44976 8.95253C5.50055 9.05081 5.55134 9.15138 5.59981 9.25424C5.7314 9.52852 5.91376 9.74337 6.08921 9.95136C6.18616 10.0656 6.27619 10.1731 6.35699 10.2851C6.42855 10.3879 6.47934 10.5433 6.53243 10.7079C6.61784 10.9708 6.71249 11.2702 6.94565 11.5056C7.18342 11.7456 7.46736 11.9056 7.71898 12.0473C7.84594 12.1182 7.96599 12.1867 8.06756 12.2576C8.18067 12.3353 8.29148 12.429 8.4069 12.5273C8.64006 12.7216 8.87783 12.925 9.18023 13.0484C9.61653 13.229 10.0852 13.4027 10.5353 13.4598C10.6115 13.469 10.6877 13.4781 10.7615 13.485C10.9993 13.5101 11.2024 13.5307 11.3779 13.6107C11.5372 13.6838 11.7057 13.725 11.8534 13.7616C12.0173 13.8027 12.1859 13.8461 12.262 13.9124C12.4375 14.0633 12.5944 14.3078 12.7445 14.5433L12.8184 14.6575C12.9384 14.8427 13.0769 15.0027 13.2085 15.1558C13.3239 15.2907 13.4347 15.4187 13.5201 15.5489C13.594 15.6609 13.6263 15.7547 13.6679 15.8712C13.7025 15.9718 13.7464 16.0929 13.8179 16.2301L13.7279 16.3604L13.7464 16.3786C13.7002 16.4701 13.661 16.5592 13.6217 16.6461C13.5478 16.8106 13.4786 16.9661 13.3932 17.0826C13.3124 17.19 13.1808 17.2929 13.04 17.4003C12.8645 17.5352 12.6683 17.6883 12.5137 17.8963C12.4167 18.0243 12.292 18.1477 12.1582 18.278C12.0058 18.4266 11.8465 18.5797 11.708 18.7649C11.5556 18.9706 11.4633 19.1991 11.3825 19.4003C11.3156 19.5648 11.2532 19.7203 11.1724 19.83C11.0293 20.022 10.93 20.2345 10.8423 20.422C10.7661 20.5842 10.6969 20.7351 10.6092 20.8517C10.4961 21.0025 10.3783 21.1511 10.2629 21.2997C10.1406 21.4551 10.0182 21.6105 9.90048 21.7682C9.80352 21.8985 9.68117 22.0242 9.5519 22.1568C9.40877 22.3054 9.26103 22.4562 9.12714 22.6345C9.04634 22.7442 8.91707 22.8493 8.77856 22.959C8.61236 23.0939 8.42537 23.2448 8.27532 23.4459C8.11142 23.6653 8.03524 23.9122 7.96829 24.1316C7.91982 24.2939 7.87134 24.447 7.80439 24.5362C7.70513 24.6687 7.58278 24.7967 7.45581 24.9316C7.315 25.0801 7.16957 25.2333 7.03798 25.4093C6.91333 25.5738 6.80252 25.743 6.69403 25.9076C6.58784 26.0675 6.48626 26.2184 6.38238 26.3601C6.28543 26.4881 6.21617 26.623 6.15615 26.7418C6.1146 26.8241 6.07536 26.9041 6.03149 26.9635C5.97378 27.0481 5.8953 27.1304 5.8145 27.2195C5.64598 27.4001 5.45669 27.6035 5.36666 27.8869C5.23508 28.2983 5.28356 28.6823 5.3228 28.9886L5.33434 29.0732C5.40359 29.6377 5.7591 29.8823 6.05227 30.0834C6.30851 30.2594 6.52551 30.3257 6.76097 30.3257C6.9064 30.3257 7.05645 30.3006 7.22497 30.2617L7.34963 30.2343C7.61741 30.1749 7.94983 30.1017 8.27994 29.8457C8.32841 29.8069 8.44153 29.7635 8.5431 29.7223C8.79011 29.624 9.09713 29.5006 9.29566 29.2149C9.46648 28.9726 9.51035 28.6938 9.54959 28.4492C9.57267 28.3029 9.60037 28.1361 9.64885 28.0629C9.70887 27.9761 9.83815 27.8892 9.97435 27.7932C10.1683 27.6607 10.3899 27.5098 10.5445 27.2767C10.6415 27.1304 10.7454 26.9887 10.8469 26.8447C10.9693 26.6755 11.0893 26.5064 11.2048 26.3327C11.3317 26.1407 11.4217 25.9418 11.5072 25.7498C11.5787 25.5876 11.648 25.4321 11.7311 25.3041C11.8119 25.1807 11.9273 25.0596 12.0497 24.9316C12.1974 24.7761 12.3521 24.6162 12.479 24.4173C12.6175 24.2024 12.6891 23.967 12.7514 23.759C12.7999 23.5967 12.8461 23.4413 12.9153 23.3339C12.9823 23.2288 13.1046 23.1236 13.2339 23.0116C13.4001 22.8676 13.5871 22.7053 13.7256 22.4859C13.8687 22.2619 13.9287 22.0151 13.9818 21.7979C14.0211 21.6357 14.0603 21.4802 14.1203 21.3819C14.1873 21.2745 14.3073 21.1671 14.4366 21.0528C14.5982 20.9088 14.7829 20.7442 14.9168 20.5271C15.0391 20.3305 15.1222 20.1294 15.2007 19.9351C15.2676 19.7706 15.3323 19.6128 15.4131 19.4848C15.4685 19.3957 15.5562 19.3066 15.6532 19.2129C15.6624 19.222 15.6739 19.2311 15.6832 19.2403C15.8009 19.3431 15.914 19.4414 15.9648 19.5283C16.0687 19.7043 16.1795 19.8643 16.288 20.0174C16.3896 20.1637 16.4865 20.3031 16.5673 20.4425C16.6389 20.566 16.6873 20.7237 16.7381 20.8882C16.7982 21.0802 16.8582 21.2768 16.9667 21.4688C17.0521 21.6219 17.1213 21.7819 17.1952 21.9534C17.2668 22.1202 17.3406 22.2916 17.4307 22.4562C17.5715 22.7099 17.7885 22.8836 17.9662 23.023C18.0724 23.1076 18.1902 23.2013 18.2248 23.2676C18.3379 23.4733 18.4395 23.6745 18.5364 23.8642C18.6034 23.9922 18.6657 24.1156 18.728 24.2344C18.8111 24.3899 18.8804 24.5544 18.9543 24.7259C19.0351 24.9133 19.1182 25.1053 19.2197 25.295C19.2797 25.4047 19.3121 25.5601 19.349 25.7247C19.3998 25.9533 19.4552 26.2115 19.6006 26.447C19.7645 26.7144 20.0208 26.8675 20.2447 27.0024C20.3786 27.0824 20.5171 27.1647 20.5771 27.2447L20.644 27.3338C20.8518 27.6058 21.0665 27.8892 21.3389 28.1681C21.4128 28.2435 21.482 28.3669 21.5582 28.4972C21.6852 28.7166 21.8283 28.968 22.0753 29.1646C22.1076 29.1898 22.1746 29.2652 22.2346 29.3338C22.3777 29.496 22.5716 29.7155 22.8302 29.8892C23.0679 30.0492 23.3403 30.104 23.5804 30.152C23.7028 30.1772 23.8205 30.2 23.8967 30.232C24.1783 30.3486 24.5015 30.4834 24.8177 30.4834C24.9932 30.4834 25.1663 30.4423 25.3256 30.3303C25.7596 30.0309 25.8058 29.5189 25.8427 29.1052L25.8496 29.0366C25.8542 28.9795 25.8612 28.9223 25.8704 28.8629C25.9073 28.5726 25.9512 28.2138 25.8219 27.8275C25.7273 27.5464 25.5357 27.3361 25.3672 27.1509C25.2841 27.0595 25.2033 26.9727 25.1432 26.8858C25.1202 26.8538 25.0948 26.7647 25.074 26.6938C25.0301 26.5475 24.977 26.3647 24.8524 26.2001C24.7 26.0013 24.5038 25.8527 24.3307 25.7224C24.1783 25.6081 24.0352 25.5007 23.9498 25.3818C23.862 25.263 23.7859 25.1099 23.7051 24.9453C23.6104 24.7533 23.5019 24.5362 23.3519 24.3282C23.2549 24.1956 23.1626 24.0493 23.0633 23.8939C22.9456 23.7087 22.8232 23.5168 22.6801 23.3225C22.5855 23.1922 22.4931 23.0482 22.3962 22.8951C22.2761 22.7076 22.1515 22.5133 22.0037 22.3145C21.9068 22.1865 21.8144 22.0402 21.7152 21.8894C21.5951 21.7019 21.4682 21.5077 21.3204 21.3134C21.2212 21.1831 21.1242 21.0391 21.0203 20.886C20.8957 20.7031 20.7687 20.5111 20.6187 20.3214C20.4571 20.1157 20.2447 19.9717 20.0554 19.846C19.8984 19.7408 19.753 19.6426 19.663 19.5283C19.5568 19.3957 19.439 19.2563 19.3098 19.1077C19.2082 18.9889 19.0997 18.8609 18.9889 18.726C18.9127 18.6346 18.8411 18.5134 18.7627 18.3877C18.6611 18.2209 18.548 18.0335 18.3956 17.8552C18.2479 17.6815 18.0632 17.558 17.8993 17.4506C17.7654 17.3638 17.6407 17.2815 17.5599 17.1878C17.463 17.078 17.3753 16.9615 17.2829 16.8403C17.1998 16.7329 17.1121 16.6209 17.0175 16.5089C17.0267 16.4883 17.0336 16.4678 17.0428 16.4541L17.1744 16.2461L17.1721 16.2301ZM13.594 14.1638L13.5224 14.0518C13.3447 13.7753 13.1416 13.4621 12.8692 13.2244C12.6268 13.0141 12.3359 12.941 12.0797 12.877C11.9596 12.8473 11.8442 12.8176 11.7611 12.781C11.4471 12.6393 11.1447 12.6073 10.8539 12.5776C10.7869 12.5707 10.7177 12.5639 10.6484 12.5547C10.3068 12.5113 9.91202 12.3627 9.53343 12.2073C9.36491 12.1365 9.18716 11.9902 9.00249 11.8325C8.87321 11.725 8.74163 11.613 8.59389 11.5102C8.45538 11.4142 8.31225 11.3342 8.17144 11.2542C7.95444 11.133 7.74899 11.0165 7.60125 10.8679C7.52276 10.7879 7.46736 10.6165 7.40965 10.4336C7.3427 10.2211 7.26421 9.98108 7.11416 9.76622C7.01028 9.61766 6.90178 9.48966 6.79559 9.36623C6.64554 9.18795 6.51396 9.03253 6.43317 8.86567C6.38007 8.75596 6.32467 8.64625 6.26927 8.54111C6.1423 8.29654 6.02457 8.06341 5.96224 7.83713C5.83758 7.37771 5.77526 7.03715 5.7591 6.73315L5.74986 6.56859C5.72909 6.22117 5.71062 5.89432 5.76833 5.62004L5.79142 5.51033C5.86529 5.16062 5.93916 4.80177 6.0869 4.56178C6.13999 4.47492 6.33621 4.39721 6.51166 4.32864C6.68248 4.26007 6.87639 4.18236 7.05183 4.0635C7.15802 3.99036 7.25729 3.91037 7.35655 3.83265C7.55739 3.67266 7.71436 3.54466 7.89442 3.51037C7.98907 3.49209 8.08372 3.47152 8.18298 3.44866C8.47154 3.38238 8.74625 3.32066 8.98402 3.35724C9.26103 3.39838 9.58422 3.54009 9.89586 3.67494L10.0528 3.74351C10.1475 3.78465 10.2491 3.82351 10.3506 3.86465C10.6161 3.96979 10.8908 4.0795 11.1055 4.23036C11.2048 4.29893 11.2971 4.46121 11.3964 4.63035C11.5025 4.81091 11.6203 5.01434 11.7911 5.19033C12.0704 5.47376 12.3174 5.73204 12.5344 6.0406C12.6845 6.25545 12.7884 6.49545 12.8969 6.74915C12.9453 6.86344 12.9938 6.97543 13.0469 7.08743C13.1416 7.28857 13.2662 7.46457 13.3747 7.61999C13.4971 7.7937 13.6148 7.96055 13.6517 8.10912C13.7071 8.33083 13.6956 8.5754 13.684 8.83596C13.6771 8.97767 13.6702 9.12395 13.6748 9.27252V9.36395C13.6887 9.75022 13.6979 10.0862 13.6194 10.3879C13.534 10.7148 13.6194 11.0119 13.684 11.2496C13.7164 11.3639 13.7464 11.4713 13.751 11.5582C13.7556 11.6519 13.7441 11.7593 13.7325 11.8759C13.7071 12.1136 13.6748 12.4107 13.7879 12.7147C13.931 13.0987 14.155 13.4256 14.3766 13.7204C14.522 13.9124 14.649 14.1113 14.7829 14.3215C14.8313 14.397 14.8821 14.4747 14.9329 14.5524C14.8752 14.7192 14.8567 14.8884 14.8406 15.037C14.829 15.1375 14.8106 15.3067 14.7806 15.3501C14.7321 15.4141 14.6374 15.4804 14.5312 15.5512C14.4828 15.4141 14.4204 15.2449 14.2912 15.0484C14.1734 14.8701 14.0395 14.7147 13.9103 14.5638C13.7925 14.4267 13.6794 14.2964 13.5917 14.1615L13.594 14.1638ZM15.0899 18.4723C14.9352 18.6186 14.7575 18.7854 14.6259 18.9957C14.5035 19.19 14.4228 19.3911 14.3443 19.5854C14.2773 19.7523 14.2127 19.9077 14.1319 20.0357C14.0649 20.1431 13.9426 20.2528 13.8156 20.3671C13.654 20.5111 13.4717 20.6757 13.3355 20.8905C13.1946 21.1145 13.1346 21.3591 13.0815 21.5762C13.0423 21.7408 13.003 21.8939 12.9407 21.9945C12.8738 22.0996 12.7514 22.2071 12.6221 22.3191C12.4582 22.4608 12.2713 22.6231 12.1328 22.8402C11.9966 23.055 11.925 23.2882 11.865 23.4939C11.8165 23.6585 11.7703 23.8139 11.7011 23.919C11.6203 24.0447 11.5025 24.1659 11.3779 24.2962C11.2325 24.4493 11.0801 24.607 10.9531 24.8013C10.8285 24.991 10.7431 25.1853 10.6577 25.375C10.5838 25.5396 10.5145 25.6973 10.4291 25.8253C10.3206 25.9898 10.2052 26.1498 10.0898 26.3098C9.98358 26.4607 9.87508 26.6092 9.77351 26.7624C9.7158 26.8492 9.58422 26.9384 9.44571 27.0344C9.25411 27.1647 9.03711 27.3132 8.88013 27.5418C8.71392 27.7841 8.67007 28.0561 8.63082 28.2983C8.60774 28.4469 8.58004 28.6138 8.52925 28.6869C8.48539 28.7486 8.32149 28.8149 8.1876 28.8675C8.03062 28.9315 7.85287 29.0023 7.70051 29.1189C7.5343 29.2469 7.36809 29.2835 7.13956 29.3338L7.00105 29.3658C6.71942 29.432 6.69403 29.4137 6.56013 29.3223C6.29928 29.144 6.25773 29.1029 6.23926 28.9566L6.22772 28.8675C6.1954 28.6161 6.16539 28.3783 6.23464 28.1589C6.26234 28.0698 6.36853 27.9555 6.48164 27.8344C6.57629 27.7315 6.68479 27.6172 6.77944 27.4824C6.86023 27.3681 6.92025 27.2515 6.97104 27.1464C7.01721 27.055 7.06107 26.9681 7.10955 26.9064C7.2342 26.7418 7.34501 26.5727 7.45351 26.4081C7.5597 26.2481 7.66127 26.0973 7.76746 25.9533C7.86672 25.8207 7.98907 25.6927 8.11603 25.5578C8.25685 25.4093 8.40228 25.2561 8.53386 25.0824C8.69777 24.863 8.77395 24.6162 8.84089 24.3967C8.88937 24.2344 8.93785 24.0813 9.00479 23.9922C9.08559 23.8825 9.21486 23.7796 9.35106 23.6676C9.51727 23.5327 9.70425 23.3796 9.8543 23.1808C9.95126 23.0505 10.0736 22.9248 10.2029 22.7922C10.346 22.6436 10.4937 22.4928 10.6276 22.3145C10.7431 22.1614 10.8585 22.0128 10.9785 21.8619C11.0986 21.7088 11.2209 21.5557 11.3363 21.3979C11.4818 21.2059 11.581 20.9934 11.6664 20.806C11.7426 20.6437 11.8119 20.4928 11.8996 20.3763C12.0543 20.1705 12.1466 19.942 12.2274 19.7386C12.2943 19.574 12.3544 19.4186 12.4375 19.3111C12.5344 19.1831 12.6591 19.062 12.793 18.9317C12.9476 18.7831 13.1046 18.6277 13.2454 18.4426C13.3262 18.3352 13.4578 18.2323 13.5986 18.1249C13.7741 17.99 13.9703 17.8369 14.125 17.6289C14.2727 17.43 14.372 17.2106 14.4574 17.0186C14.522 16.8723 14.5843 16.7329 14.6582 16.6232L14.6905 16.5843C14.7459 16.5112 14.8637 16.4335 14.986 16.3512C15.1615 16.2346 15.36 16.1044 15.5123 15.9032C15.6901 15.6655 15.7224 15.3775 15.7478 15.1467C15.7593 15.0461 15.7778 14.877 15.8078 14.8335C15.914 14.6918 16.0756 14.5615 16.2464 14.4221C16.4496 14.2575 16.662 14.0861 16.8351 13.8576C16.8836 13.7913 16.9644 13.7204 17.0475 13.6427C17.2068 13.4964 17.3845 13.3296 17.4999 13.0964C17.6615 12.7627 17.6384 12.4107 17.62 12.1273C17.613 12.0039 17.6038 11.8873 17.613 11.7936C17.6223 11.6793 17.6546 11.549 17.6892 11.4119C17.7492 11.1673 17.8185 10.8931 17.7931 10.5936C17.77 10.3308 17.6661 10.1045 17.5738 9.90336C17.5069 9.7548 17.4422 9.61537 17.433 9.51023C17.4261 9.40738 17.493 9.24967 17.5599 9.09424C17.6338 8.91824 17.7192 8.72168 17.7469 8.49997C17.7562 8.42911 17.7608 8.35369 17.7654 8.27597C17.7816 8.04284 17.7954 7.82113 17.9639 7.53771C18.054 7.38685 18.1186 7.22457 18.1878 7.05086C18.2663 6.85201 18.3494 6.64401 18.4764 6.44745C18.5895 6.27145 18.7234 6.11831 18.8527 5.97203C18.9681 5.84175 19.0743 5.72061 19.1689 5.58347C19.289 5.40976 19.4413 5.28176 19.5914 5.15834C19.7184 5.05548 19.8476 4.94805 19.9515 4.81549C20.0554 4.68292 20.1431 4.56635 20.2262 4.46121C20.3717 4.2715 20.4871 4.12065 20.6233 3.96065C20.6971 3.87151 20.8079 3.7778 20.9257 3.67951C20.9372 3.67037 20.9511 3.65894 20.9626 3.64751C20.8818 3.76408 20.7918 3.88065 20.6995 4.00408C20.6071 4.12522 20.5125 4.24864 20.4224 4.37664C20.3209 4.52064 20.2147 4.6532 20.1085 4.78349C19.9515 4.97777 19.8038 5.16291 19.6837 5.36633C19.6099 5.49204 19.5383 5.61318 19.4667 5.72975C19.3236 5.96517 19.1897 6.18688 19.072 6.42459C18.9796 6.61201 18.9219 6.79944 18.8642 6.98001C18.8042 7.16971 18.7488 7.35028 18.6611 7.51256C18.4833 7.8417 18.4533 8.30112 18.5849 8.68511C18.6934 9.00053 18.9012 9.23824 19.1736 9.35938C19.9446 9.69994 20.3832 8.94339 20.5933 8.57997C20.6464 8.48625 20.7041 8.39026 20.7433 8.33769C20.7987 8.26912 20.8587 8.20055 20.9234 8.13426C20.9003 8.17998 20.8772 8.22569 20.8564 8.2714C20.5148 8.99139 20.4825 9.4028 20.7387 9.80965C20.8841 10.1982 21.1819 10.3079 21.3435 10.3376C21.7983 10.4268 22.1838 10.1571 22.9317 9.22681C23.0218 9.11481 23.151 9.00738 23.2872 8.89539C23.4765 8.73996 23.6704 8.57997 23.8182 8.36283C23.9798 8.12512 24.0767 7.88284 24.1644 7.66799C24.2245 7.51942 24.2799 7.38228 24.3376 7.29771C24.5015 7.06229 24.5823 6.90458 24.6538 6.76744C24.7092 6.66001 24.7531 6.57544 24.8339 6.45888C24.8639 6.41545 24.917 6.35602 24.977 6.28745C25.0278 6.23031 25.0855 6.16631 25.1479 6.09088C25.104 6.22574 25.0578 6.35831 25.007 6.48173C24.9309 6.66916 24.8431 6.84744 24.7577 7.02115C24.6792 7.17886 24.6054 7.32743 24.5407 7.48057C24.4599 7.67256 24.3537 7.8417 24.2499 8.00627C24.1552 8.15483 24.0675 8.29426 24.0029 8.44283C23.9059 8.65996 23.8736 8.78339 23.8482 8.88167C23.8205 8.98681 23.7997 9.05996 23.652 9.32738C23.585 9.44623 23.5296 9.56966 23.4719 9.70223C23.398 9.86908 23.3219 10.0405 23.2226 10.1982C23.1972 10.2371 23.0725 10.3125 22.9894 10.3628C22.8071 10.4725 22.5832 10.6096 22.4239 10.8359C22.3569 10.9319 22.2969 11.0302 22.2369 11.1285C22.1376 11.2908 22.0407 11.4462 21.9276 11.5582C21.759 11.725 21.5559 11.8599 21.2719 11.9902C21.0596 12.0862 20.9488 12.1936 20.8657 12.2736C20.7872 12.3513 20.7248 12.4107 20.4524 12.5022C20.3763 12.5273 20.2331 12.5273 20.0969 12.525C19.8615 12.525 19.5683 12.5227 19.2913 12.6462C19.1966 12.6873 19.0835 12.7262 18.9635 12.765C18.6772 12.861 18.3517 12.9684 18.1094 13.1993C17.867 13.4301 17.8462 13.757 17.8277 13.9947C17.8231 14.0747 17.8139 14.1935 17.8046 14.221C17.7608 14.2895 17.613 14.3787 17.4838 14.4541C17.2645 14.5844 17.0175 14.7307 16.8559 14.9867C16.6943 15.2427 16.5327 15.4987 16.3734 15.7569L16.2441 15.9626C16.0918 16.2026 16.0456 16.4655 16.0064 16.7009C15.9787 16.8563 15.9509 17.0163 15.8979 17.1009C15.7755 17.2952 15.6924 17.494 15.6093 17.686C15.54 17.8506 15.4731 18.0083 15.39 18.1386C15.3207 18.2506 15.2007 18.3626 15.0737 18.4814L15.0899 18.4723ZM17.3845 18.1957C17.5069 18.2757 17.6246 18.3534 17.6846 18.4266C17.7908 18.55 17.8762 18.694 17.9685 18.8449C18.0586 18.9934 18.1532 19.1466 18.2686 19.2883C18.3841 19.4277 18.4949 19.558 18.6011 19.6837C18.7211 19.8231 18.8319 19.9534 18.9312 20.0791C19.1089 20.3031 19.3328 20.454 19.5314 20.5865C19.6745 20.6825 19.8107 20.7762 19.8823 20.8654C20.0115 21.0322 20.1316 21.2082 20.247 21.3797C20.3532 21.5351 20.4617 21.6974 20.5771 21.8505C20.7041 22.0174 20.8195 22.1956 20.9326 22.3693C21.0342 22.5271 21.1404 22.6916 21.2558 22.8448C21.3851 23.0162 21.5005 23.1968 21.6113 23.3728C21.7129 23.5305 21.8167 23.6927 21.9276 23.8459C22.0522 24.0173 22.1676 24.1956 22.2761 24.3693C22.3777 24.5293 22.4816 24.6939 22.5924 24.8493C22.6986 24.9956 22.7817 25.1624 22.8694 25.3407C22.9641 25.5304 23.061 25.7247 23.1926 25.9053C23.3588 26.1361 23.5735 26.2961 23.7628 26.4401C23.9013 26.5452 24.0329 26.6435 24.109 26.7441C24.1321 26.7738 24.1598 26.8698 24.1806 26.9407C24.2199 27.0755 24.2683 27.2424 24.3768 27.3978C24.4715 27.5327 24.58 27.6515 24.6723 27.7544C24.7924 27.8846 24.9055 28.0104 24.9401 28.1109C25.0047 28.3006 24.977 28.5132 24.9493 28.7418C24.9401 28.8103 24.9332 28.8789 24.9262 28.9452L24.9193 29.0183C24.9032 29.2058 24.8778 29.4846 24.8085 29.56H24.8016C24.6839 29.56 24.3953 29.4389 24.2499 29.3795C24.0883 29.3132 23.9221 29.2789 23.7605 29.2469C23.5989 29.2149 23.4304 29.1806 23.3473 29.1235C23.188 29.016 23.0495 28.8583 22.9248 28.7212C22.8325 28.6161 22.7447 28.5178 22.6501 28.4423C22.5393 28.3555 22.4516 28.2001 22.3569 28.0355C22.2623 27.8686 22.1538 27.6812 21.9991 27.5212C21.766 27.2835 21.579 27.0367 21.3804 26.7738L21.3135 26.6847C21.1473 26.4653 20.9211 26.3304 20.7248 26.2115C20.584 26.127 20.4386 26.0401 20.3901 25.9624C20.3255 25.8573 20.2909 25.695 20.2516 25.5213C20.2054 25.3133 20.1547 25.0756 20.0346 24.8539C19.9515 24.7007 19.8799 24.5362 19.8061 24.3602C19.7276 24.1796 19.6468 23.9899 19.5475 23.8025C19.4875 23.6882 19.4252 23.567 19.3605 23.4413C19.259 23.247 19.1551 23.0413 19.0397 22.8288C18.915 22.6002 18.7188 22.4425 18.5433 22.3054C18.4141 22.2025 18.2917 22.1042 18.2409 22.0128C18.1717 21.8871 18.1094 21.7454 18.0447 21.5922C17.9639 21.4071 17.8831 21.2128 17.7723 21.0185C17.7123 20.9134 17.6684 20.7694 17.6223 20.6185C17.5623 20.422 17.493 20.2003 17.3683 19.9854C17.2691 19.814 17.1583 19.654 17.0498 19.4963C16.9482 19.35 16.8512 19.2106 16.7635 19.0643C16.6366 18.8494 16.4542 18.6894 16.2949 18.55C16.2811 18.5363 16.2649 18.5249 16.251 18.5112C16.3411 18.3512 16.4103 18.1912 16.4773 18.0335C16.5488 17.8666 16.6158 17.7089 16.6966 17.5786C16.6966 17.5786 16.6966 17.5763 16.6989 17.574C16.752 17.6403 16.8028 17.7089 16.8582 17.7729C17.0221 17.9603 17.2137 18.086 17.3845 18.198V18.1957Z" fill="#FF6666" stroke="#FF6666" stroke-width="0.5"/>
<path d="M10.9536 10.9297C10.7689 10.8428 10.575 10.7766 10.3903 10.6897C10.1687 10.5868 9.97944 10.452 9.7763 10.3171C9.43234 10.084 9.02835 9.89429 8.85522 9.4943C8.68901 9.1103 8.65439 8.70574 8.40276 8.35604C8.2758 8.18004 8.12806 8.01776 7.97801 7.86005C7.91337 7.79377 7.84642 7.7252 7.78871 7.65205C7.77486 7.63377 7.76332 7.61777 7.74485 7.59263C7.73562 7.57663 7.72408 7.56063 7.71715 7.54463C7.72639 7.57434 7.72408 7.56977 7.71253 7.53091C7.56941 7.11492 6.90226 7.29321 7.04539 7.71377C7.18159 8.10919 7.54402 8.35604 7.79102 8.67832C8.06342 9.03716 8.0865 9.49201 8.28272 9.88743C8.50434 10.3331 8.93833 10.5914 9.34462 10.852C9.5593 10.9914 9.75783 11.1468 9.99099 11.2565C10.1918 11.3525 10.4065 11.4234 10.6073 11.5194C10.7759 11.5994 10.9813 11.5651 11.0806 11.396C11.1683 11.2451 11.1267 11.0074 10.9559 10.9274L10.9536 10.9297Z" fill="#FF6666" stroke="#FF6666" stroke-width="0.8"/>
</svg>
