<svg width="20" height="20" viewBox="0 0 20 20" fill="none" xmlns="http://www.w3.org/2000/svg">
<path d="M16.7715 8.38575C16.7715 13.0171 13.0171 16.7715 8.38575 16.7715C3.75443 16.7715 0 13.0171 0 8.38575C0 3.75443 3.75443 0 8.38575 0C13.0171 0 16.7715 3.75443 16.7715 8.38575Z" fill="#FF6666" fill-opacity="0.2"/>
<path fill-rule="evenodd" clip-rule="evenodd" d="M15.7459 8.38575C15.7459 12.4506 12.4506 15.7459 8.38575 15.7459C4.32087 15.7459 1.02564 12.4506 1.02564 8.38575C1.02564 4.32087 4.32087 1.02564 8.38575 1.02564C12.4506 1.02564 15.7459 4.32087 15.7459 8.38575ZM13.9417 14.6669C12.4623 15.9765 10.5169 16.7715 8.38575 16.7715C3.75443 16.7715 0 13.0171 0 8.38575C0 3.75443 3.75443 0 8.38575 0C13.0171 0 16.7715 3.75443 16.7715 8.38575C16.7715 10.5169 15.9765 12.4623 14.667 13.9417L19.8498 19.1246C20.0501 19.3248 20.0501 19.6495 19.8498 19.8498C19.6496 20.0501 19.3249 20.0501 19.1246 19.8498L13.9417 14.6669Z" fill="#FF6666"/>
</svg>
