<svg width="32" height="32" viewBox="0 0 32 32" fill="none" xmlns="http://www.w3.org/2000/svg">
<path d="M26.8343 13.4172C26.8343 20.8273 20.8273 26.8344 13.4172 26.8344C6.00707 26.8344 0 20.8273 0 13.4172C0 6.00709 6.00707 0 13.4172 0C20.8273 0 26.8343 6.00709 26.8343 13.4172Z" fill="#FF6666" fill-opacity="0.2"/>
<path fill-rule="evenodd" clip-rule="evenodd" d="M25.1933 13.4172C25.1933 19.921 19.921 25.1934 13.4172 25.1934C6.91339 25.1934 1.64102 19.921 1.64102 13.4172C1.64102 6.9134 6.91339 1.64103 13.4172 1.64103C19.921 1.64103 25.1933 6.9134 25.1933 13.4172ZM22.3067 23.4671C19.9397 25.5624 16.827 26.8344 13.4172 26.8344C6.00707 26.8344 0 20.8273 0 13.4172C0 6.00708 6.00707 0 13.4172 0C20.8273 0 26.8343 6.00708 26.8343 13.4172C26.8343 16.827 25.5624 19.9397 23.4671 22.3067L31.7597 30.5993C32.0801 30.9197 32.0801 31.4392 31.7597 31.7597C31.4392 32.0801 30.9197 32.0801 30.5993 31.7597L22.3067 23.4671Z" fill="#FF6666"/>
</svg>
