<svg width="20" height="20" viewBox="0 0 20 20" fill="none" xmlns="http://www.w3.org/2000/svg">
<path fill-rule="evenodd" clip-rule="evenodd" d="M8.35833 0.865104C9.14886 -0.288368 10.8511 -0.288368 11.6417 0.865105L13.8113 4.03079C14.07 4.4084 14.4511 4.68524 14.8902 4.81468L18.5714 5.89983C19.9127 6.29522 20.4387 7.91419 19.586 9.02247L17.2457 12.0641C16.9665 12.4269 16.821 12.8749 16.8336 13.3325L16.9391 17.1688C16.9775 18.5667 15.6003 19.5672 14.2828 19.0987L10.6668 17.8129C10.2355 17.6595 9.7645 17.6595 9.33318 17.8129L5.71721 19.0987C4.39967 19.5672 3.02249 18.5667 3.06093 17.1688L3.16645 13.3325C3.17903 12.8749 3.03348 12.4269 2.75433 12.0641L0.414022 9.02247C-0.438709 7.91419 0.0873264 6.29522 1.42863 5.89983L5.10982 4.81468C5.54891 4.68524 5.92996 4.4084 6.18875 4.03079L8.35833 0.865104Z" fill="#FFBE39"/>
</svg>
