<svg width="20" height="20" viewBox="0 0 20 20" fill="none" xmlns="http://www.w3.org/2000/svg">
<path d="M8.35833 0.865104C9.14886 -0.288368 10.8511 -0.288368 11.6417 0.865105L13.8113 4.03079C14.07 4.4084 14.4511 4.68524 14.8902 4.81468L18.5714 5.89983C19.9127 6.29522 20.4387 7.91419 19.586 9.02247L17.2457 12.0641C16.9665 12.4269 16.821 12.8749 16.8336 13.3325L16.9391 17.1688C16.9775 18.5667 15.6003 19.5672 14.2828 19.0987L10.6668 17.8129C10.2355 17.6595 9.7645 17.6595 9.33318 17.8129L5.71721 19.0987C4.39967 19.5672 3.02249 18.5667 3.06093 17.1688L3.16645 13.3325C3.17903 12.8749 3.03348 12.4269 2.75433 12.0641L0.414022 9.02247C-0.438709 7.91419 0.0873265 6.29522 1.42863 5.89983L5.10982 4.81468C5.54891 4.68524 5.92996 4.4084 6.18875 4.03079L8.35833 0.865104Z" fill="#FFBE39" fill-opacity="0.2"/>
<path fill-rule="evenodd" clip-rule="evenodd" d="M12.9904 4.59335L10.8208 1.42766C10.4256 0.850922 9.57443 0.850923 9.17917 1.42766L7.00958 4.59335C6.6214 5.15975 6.04982 5.57502 5.39118 5.76918L1.71 6.85433C1.03935 7.05202 0.776329 7.86151 1.20269 8.41565L3.543 11.4573C3.96173 12.0015 4.18005 12.6734 4.16118 13.3598L4.05566 17.1962C4.03644 17.8951 4.72503 18.3954 5.3838 18.1611L8.99978 16.8753C9.64675 16.6452 10.3533 16.6452 11.0002 16.8753L14.6162 18.1611C15.275 18.3954 15.9636 17.8951 15.9443 17.1962L15.8388 13.3598C15.8199 12.6734 16.0383 12.0015 16.457 11.4573L18.7973 8.41565C19.2237 7.86151 18.9607 7.05202 18.29 6.85433L14.6088 5.76918C13.9502 5.57502 13.3786 5.15975 12.9904 4.59335ZM11.6417 0.865105C10.8511 -0.288368 9.14886 -0.288368 8.35833 0.865104L6.18875 4.03079C5.92996 4.4084 5.54891 4.68524 5.10982 4.81468L1.42863 5.89983C0.0873264 6.29522 -0.438709 7.91419 0.414022 9.02247L2.75433 12.0641C3.03348 12.4269 3.17903 12.8749 3.16645 13.3325L3.06093 17.1688C3.02249 18.5667 4.39967 19.5672 5.71721 19.0987L9.33318 17.8129C9.7645 17.6595 10.2355 17.6595 10.6668 17.8129L14.2828 19.0987C15.6003 19.5672 16.9775 18.5667 16.9391 17.1688L16.8336 13.3325C16.821 12.8749 16.9665 12.4269 17.2457 12.0641L19.586 9.02247C20.4387 7.91419 19.9127 6.29522 18.5714 5.89983L14.8902 4.81468C14.4511 4.68524 14.07 4.4084 13.8113 4.03079L11.6417 0.865105Z" fill="#FFBE39"/>
</svg>
