<svg width="110" height="53" viewBox="0 0 110 53" fill="none" xmlns="http://www.w3.org/2000/svg">
<path d="M11.725 19.975C10.75 20.2 7.275 20.175 6.275 19.9C5.7 19.725 4.85 19.75 3.7 19.925C1.9 20.225 0.95 19.95 0.85 19.075C0.725 18.1 1.9 17.625 4.325 17.6C5.15 17.6 5.55 17.55 5.55 17.45C5.575 17.4 5.525 17.3 5.4 17.15C4.9 16.475 4.85 16.025 5.075 15C5.45 13.325 5.55 12.375 5.325 12.15C5.15 12.025 4.6 11.825 4.275 11.825C3.775 11.825 1.9 11.05 1.5 10.675C1.175 10.375 0.75 9.175 0.75 8.55C0.75 8.275 1.35 6.45 1.575 5.95C2.05 5.05 2.975 4.475 4.775 4.05C5.1 3.975 5.4 3.8 5.675 3.55C6.1 3.175 6.475 2.925 6.85 2.85C7.35 2.725 8 2.9 8.3 3.2C8.425 3.325 8.525 3.375 8.6 3.4C8.675 3.425 8.9 3.425 9.275 3.425C10.975 3.425 12.125 4.025 12.35 5.05C12.425 5.4 12.7 5.85 13.175 6.425C14.15 7.55 14.725 8.4 14.95 9.025C15.175 9.65 15.075 10.15 14.675 10.525C13.875 11.3 10.975 12.025 9.75 11.825C8.575 11.625 8.625 11.625 8.55 12.65C8.425 14.45 8.325 15.525 8.225 15.85C8.125 16.35 8.025 17.25 8.1 17.325C8.15 17.375 8.4 17.425 8.85 17.45L9.525 17.475L10.175 17.525C11.875 17.625 12.625 17.175 12.825 15.9C12.9 15.5 13.075 15.325 13.75 15.125C16.025 14.375 17.175 14.65 17.175 15.925C17.175 16.95 16.7 17.675 15.975 17.675C15.775 17.675 15.625 17.7 15.525 17.775C15.425 17.85 15.175 18.075 14.775 18.475C13.95 19.35 13.575 19.575 12.9 19.7L11.725 19.975ZM8.625 9.6C10.5 9.625 11.55 9.575 11.725 9.45C11.85 9.35 11.85 9.125 11.7 8.8C11.575 8.525 11.4 8.25 11.2 8.025C11.025 7.8 10.9 7.6 10.85 7.4C10.775 7.175 10.625 7.025 10.375 6.9C10.125 6.8 9.6 6.675 8.8 6.525C8.175 6.4 7.7 6.275 7.375 6.15C6.675 5.875 6.4 5.95 5.225 6.725C4.925 6.9 4.575 7.125 4.15 7.35C3.25 7.825 3.075 8.15 3.45 8.725C3.675 9.05 4.125 9.25 4.8 9.375C5.475 9.5 6.75 9.575 8.625 9.6ZM34.0199 22.325C33.3949 22.425 32.5199 22.35 31.3699 22.075C29.5949 21.7 28.8949 21.75 27.2449 22.2C26.3699 22.425 25.2699 22.45 23.8949 22.25C23.3199 22.175 22.9199 22.125 22.6449 22.125C20.2199 22.1 18.5949 20.675 18.5949 18.575C18.5949 16.7 21.2949 14.9 22.9949 16.15C23.2949 16.4 23.7449 16.525 24.0449 16.625C25.7699 16.725 27.7699 16.525 28.1199 16.425C28.2949 16.35 30.6199 16.45 31.0699 16.375C31.8199 16.275 31.9949 16.125 32.0199 15.65C32.0199 15.4 31.2949 15.3 29.8449 15.4C29.2699 15.525 28.3449 15.525 27.0949 15.475C25.8949 15.425 25.1699 15.65 24.6199 15.6C22.8199 15.45 22.2949 14.775 22.0199 14.125C21.8949 13.775 22.2949 13.2 22.7199 13.05C23.1449 12.875 23.6949 13.125 24.0949 13.15C24.3949 13.175 25.1699 13.175 27.3449 13.2C31.3699 13.25 31.0949 13.2 33.1949 13.5C34.3449 13.7 34.8449 14.6 34.3199 15.65C34.1699 16.025 34.1449 16.075 34.2199 16.625C34.2699 17.675 33.7949 18.075 32.0199 18.45C31.5949 18.525 31.1199 18.55 30.5449 18.7C29.8949 18.9 29.3449 18.625 28.5199 18.7C26.8699 18.825 24.7949 19.35 23.6699 18.9L22.8449 18.55L22.2949 18.8C21.8949 18.975 22.4449 19.325 22.6949 19.4C23.2199 19.6 24.9449 20 26.2699 19.875C27.4199 19.75 28.2699 19.425 29.0199 19.4C30.4449 19.35 33.2949 20.025 34.1449 19.975C35.3699 19.875 36.2199 19.925 36.6949 20.15C37.1699 20.4 37.2949 20.725 37.0699 21.25C36.9699 21.55 36.6949 21.75 36.3949 21.875C36.0699 22 35.2699 22.125 34.0199 22.325ZM32.2949 11.825C31.6199 11.925 30.8949 11.925 30.1199 11.8C29.6699 11.725 29.3199 11.7 29.0449 11.7C28.5199 11.7 27.6699 11.575 26.4449 11.3C26.1199 11.225 24.9699 11.225 22.9949 11.3L20.9699 11.4C20.6699 11.4 19.7449 11 19.4449 10.725C18.8699 10.225 19.0199 9.25 19.7199 8.875C19.9449 8.75 20.1949 8.7 20.4199 8.7C20.6449 8.725 21.1199 8.8 21.8199 8.95C22.7449 9.15 23.4699 9.175 23.9699 9.05C24.1949 8.975 24.6199 8.95 25.1949 8.95C25.8449 8.95 26.7199 9.025 27.8449 9.175C28.8199 9.275 29.6949 9.3 30.5199 9.225C31.1449 9.15 31.5949 9.15 31.8949 9.225C32.1699 9.275 32.4949 9.25 32.8199 9.175C34.0949 8.875 37.2449 9.225 37.7699 9.725C37.9949 9.9 38.0949 10.175 38.0949 10.55C38.0949 10.925 37.9699 11.2 37.7449 11.425C37.4699 11.65 36.4199 11.85 35.9199 11.725C35.6949 11.675 35.3699 11.625 34.9949 11.6C34.6199 11.575 33.7199 11.65 32.2949 11.825ZM24.6449 7.075C24.3199 7.075 23.2949 6.65 23.0199 6.375C22.7449 6.1 22.5949 5.75 22.5949 5.375C22.5949 5.25 22.5699 5.025 22.4949 4.725C22.4199 4.4 22.3949 4.075 22.4449 3.725C22.4949 3.4 22.4699 3.05 22.3949 2.7C22.1949 1.825 22.6199 0.975 23.3449 0.774999C23.9449 0.625 24.4199 0.75 24.7949 1.175C24.9199 1.325 24.9699 1.5 24.9949 1.675C24.9949 1.875 24.9449 2.3 24.8199 2.95C24.7449 3.375 24.7199 3.725 24.7449 4.025L24.7699 4.5L25.6949 4.55C27.1949 4.65 27.6699 4.6 28.4949 4.275C29.4199 3.9 31.2949 3.85 32.5949 4.175C33.0699 4.3 33.5449 4.375 33.9949 4.4C35.0949 4.525 35.2699 4.625 35.5699 5.3C36.1699 6.5 35.0949 7.05 32.8699 6.475C31.4699 6.1 29.6699 6.25 27.4699 6.925C27.1949 7 26.2699 7.05 24.6449 7.075ZM49.0898 9.7C48.0648 9.9 47.6648 9.875 45.9398 9.5C43.5648 8.925 43.0398 8.65 42.2648 7.375C41.5898 6.2 41.4898 5.125 41.9898 4.125C42.5898 2.925 43.0398 2.675 44.8648 2.65C46.3648 2.625 46.5898 2.525 47.3148 2C47.6398 1.775 47.9898 1.6 48.3648 1.525C48.7898 1.4 49.4648 1.575 49.5398 1.85C49.6148 2.225 49.6148 2.225 49.9148 2.15C51.0648 1.925 51.9898 2.25 52.7148 3.175C52.9898 3.55 53.2148 3.825 53.4398 4C54.1148 4.575 54.3648 5.125 54.4898 6.625C54.6148 7.8 54.5898 8 54.2148 8.525C53.8148 9.1 52.5898 9.425 50.5398 9.5C50.0398 9.525 49.5648 9.6 49.0898 9.7ZM47.2648 21.225C46.5648 21.05 46.0398 20.95 45.7148 20.95C45.4148 20.95 44.7148 20.675 44.3398 20.45C44.1898 20.35 44.0648 20.2 43.9898 20.025C43.8898 19.85 43.7648 19.5 43.5898 19.025C43.2398 17.825 43.0898 16.925 43.1398 16.35C43.1648 15.775 43.4398 15.4 43.9148 15.225C44.4898 15.05 45.3148 15.325 45.4898 15.75C45.5648 15.9 45.5898 16.175 45.6148 16.6C45.6898 17.325 45.9648 18.35 46.1648 18.45C46.2398 18.5 46.3898 18.55 46.6398 18.575C46.8148 18.6 47.2398 18.65 47.8648 18.775C49.0898 19 50.0148 18.925 51.8398 18.425C52.7148 18.2 53.5898 18.15 54.4648 18.325C55.0398 18.45 55.5898 18.425 56.0648 18.3C56.3148 18.225 56.7648 18.4 57.4148 18.8C57.8398 19.05 58.0648 19.375 58.1398 19.775C58.2648 20.575 57.5648 21.2 56.5898 21.025C56.3148 20.975 55.9648 20.975 55.5648 21.025C54.9898 21.1 54.9648 21.075 54.0398 20.875C53.5648 20.75 53.2898 20.7 53.1648 20.7C53.0398 20.7 52.8398 20.725 52.5648 20.8C49.6398 21.6 48.7648 21.65 47.2648 21.225ZM41.2148 13.7C40.6648 13.775 40.2648 13.75 39.9898 13.6C38.9898 13.125 39.5148 11.5 40.6148 11.5L41.3648 11.4C41.6148 11.35 42.0898 11.325 42.7648 11.3C43.4148 11.3 44.0398 11.25 44.6148 11.175C45.5148 11.05 46.4148 11.025 47.2898 11.15C49.4648 11.425 50.2398 11.425 51.3398 11.25C51.8648 11.15 52.2148 11.1 52.4148 11.1C52.7898 11.1 56.6398 10.35 57.0148 10.225C57.1898 10.15 57.9648 10.275 58.2398 10.375C59.2148 10.8 58.8398 12.2 57.6648 12.675C57.4148 12.775 57.0398 12.8 56.5398 12.775C55.7148 12.725 54.4398 12.9 52.7398 13.275C52.4398 13.35 52.0648 13.375 51.5898 13.4C51.1148 13.425 49.7898 13.425 47.6148 13.425C45.3148 13.425 43.8898 13.425 43.3148 13.45C42.7398 13.475 42.0398 13.575 41.2148 13.7ZM49.0148 7.175C50.2898 7.3 51.9148 7.25 52.1398 7.075C52.2648 6.975 52.2398 6.6 52.0898 5.975C51.7898 4.8 51.7648 4.775 50.1898 4.675L48.7148 4.5C48.1898 4.375 48.2398 4.375 47.2398 4.7C46.5648 4.925 45.7398 5.125 44.7148 5.3C43.9398 5.425 43.9148 6.075 44.6898 6.6C45.0648 6.825 45.8148 6.975 46.9898 7.025C47.6148 7.05 48.2898 7.1 49.0148 7.175ZM5.75 40.1C5.25 40.05 4.7 40.025 4.075 40C2.475 39.975 2.25 39.675 2.325 37.3C2.35 36.6 2.35 36.2 2.3 36.1C2.25 36 2.075 35.95 1.775 35.95C1.325 35.95 1.025 35.8 0.85 35.475C0.525 34.85 0.975 33.975 1.875 33.75C2.1 33.7 2.25 33.5 2.3 33.175C2.4 32.5 2.675 32.05 3.125 31.825C3.65 31.6 4.5 31.925 4.675 32.45C4.725 32.625 4.8 32.7 4.9 32.7C5.025 32.7 5.4 32.575 6.025 32.35L7.775 31.775C7.95 31.725 8.15 31.7 8.375 31.725C8.65 31.75 8.925 31.825 9.2 31.9C9.475 31.975 9.75 32.025 10.025 32C10.5 31.975 10.5 31.975 11.175 32.3C13.2 33.375 13.525 34.925 12.25 37.95C11.975 38.575 11.775 38.975 11.625 39.15C11.45 39.325 11.225 39.45 10.925 39.5C10.075 39.6 9.35 39.75 8.775 39.925C7.85 40.25 7.275 40.275 5.75 40.1ZM17.8 50.075C17.25 49.775 17.05 49.2 17.225 48.325C17.25 48.1 17.3 47.525 17.325 46.6C17.325 46.55 17.325 46.475 17.35 46.4C17.375 45.725 17.35 45.35 17.3 45.275C17.225 45.2 17.025 45.225 16.7 45.375L16.6 45.425L15.625 45.8C15.35 45.9 15.025 46.05 14.6 46.275C13.625 46.775 12.85 46.875 12.225 46.55C11.7 46.25 11.625 45.775 12 45.1L12.05 45C12.25 44.675 12.45 44.525 13.15 44.225C13.525 44.075 13.875 43.9 14.15 43.725C14.575 43.425 15.075 43.2 15.675 43.05C16.35 42.875 16.7 42.65 16.775 42.4C16.9 41.925 17.025 40.825 17.175 39.15C17.25 38 17.5 37.025 17.9 36.2C18.425 35.075 18.15 33.65 17.125 32.575C16.35 31.775 16.45 31 17.325 30.525C17.6 30.375 17.95 30.4 18.4 30.6C19.875 31.275 21.275 33.9 20.475 35.85C20.3 36.175 20.2 36.475 20.15 36.7C20.075 36.95 20 37.55 19.9 38.475C19.65 40.6 19.5 42.175 19.475 43.25C19.425 44.325 19.475 45.225 19.625 45.925C19.925 47.55 19.75 49.6 19.275 50.025C18.85 50.4 18.375 50.4 17.8 50.075ZM6.1 49.975C5.525 49.7 5.475 49.3 5.775 48.325C5.9 47.95 5.975 47.5 6.025 47.025C6.1 46.225 6.225 45.6 6.375 45.15C6.475 44.825 6.45 44.675 6.325 44.65C6.2 44.625 5.625 44.75 4.6 44.975C4.175 45.075 3.775 45.15 3.425 45.2C3.125 45.225 2.825 45.3 2.5 45.425C1.6 45.8 1.025 45.225 1 44.025C1 43.2 1.375 42.85 2.35 42.85C2.725 42.85 3.225 42.775 3.85 42.65L6.2 42.2C6.45 42.175 6.725 42.125 7.05 42.05C7.3 42 7.75 42 8.4 42.025C9.8 42.1 10.45 41.925 11.775 41.15C12.05 41.025 12.25 40.925 12.425 40.9C13.95 40.6 14.425 41.675 13.25 42.8C12.975 43.05 12.625 43.275 12.2 43.45C11.775 43.625 11.075 43.85 10.125 44.1L9.575 44.25V44.625C9.575 45.125 9.475 45.375 8.975 46.1C8.35 47.025 8.3 47.225 8.575 48.05C8.8 48.775 8.8 48.9 8.4 49.3C7.775 49.9 6.625 50.25 6.1 49.975ZM6.025 37.875C8.35 37.775 9.6 37.6 9.8 37.35C10.175 36.825 10.1 35.925 10.3 35.125C10.35 34.875 10.375 34.725 10.375 34.65C10.375 34.6 10.35 34.55 10.3 34.475C10.15 34.35 9.575 34.375 8.575 34.55L6.95 34.85C6.125 34.975 5.475 35.125 4.95 35.3C4.8 35.35 4.7 35.45 4.675 35.625C4.625 35.8 4.6 36.15 4.6 36.7C4.6 37.975 4.55 37.9 6.025 37.875ZM47.7379 43.725C47.4129 43.5 47.2129 43 47.1629 42.2C47.1379 41.675 47.0629 41.3 46.9629 41.025C46.7629 40.4 46.7879 39.525 47.0629 38.35L47.2379 37.55C47.3129 37.225 47.2629 37.05 47.1379 37C46.9879 36.95 46.6629 37 46.1379 37.175C45.0379 37.55 44.6379 37.575 43.9629 37.45C43.1379 37.325 43.1629 37.25 43.1379 38.65C43.0629 39.875 43.1129 39.9 42.7379 40.425C42.0129 41.65 41.3379 42 39.8379 42.075C39.2129 42.1 38.6129 42.15 38.0379 42.225C36.8379 42.4 36.2129 42.375 35.2129 42.1C34.6379 41.95 34.2379 41.875 34.0629 41.875C32.8879 41.875 31.8629 39.65 32.2879 37.775C32.4129 37.3 32.3879 37.175 32.1129 37.15C30.9629 36.95 30.8879 35.075 31.9629 34.6C32.1879 34.5 32.3129 34.3 32.3129 33.975C32.3129 32.825 33.9379 32.725 34.6379 33.9C34.7379 34.075 34.8379 34.15 34.9379 34.15C35.0129 34.175 35.2629 34.125 35.6879 34.025C36.6629 33.75 37.5379 33.6 38.3129 33.55C38.7379 33.525 39.1879 33.475 39.6629 33.375C40.0879 33.275 40.3629 33.225 40.5129 33.225C40.6379 33.225 40.9129 33.275 41.3379 33.4C42.4629 33.725 42.8629 34.025 42.9629 34.725C43.0379 35.125 43.1129 35.175 43.6379 35.15C44.2379 35.075 44.7379 34.9 45.1629 34.625C45.8879 34.125 46.2629 34.1 47.0379 34.5C47.9629 34.975 48.0129 34.675 48.0129 34.05C48.0129 33.85 48.0629 33.45 48.1629 32.875C48.4379 31.65 48.3879 31.55 47.6629 31.125C46.9879 30.725 47.1879 29.95 48.0129 29.525C48.9129 29.1 50.2379 29.625 50.5379 30.5C51.1629 32.375 51.1879 33.25 50.6129 34.45C50.4879 34.725 50.4129 35 50.3879 35.3C50.2879 36.275 49.9379 37.325 49.5629 37.75C49.3629 37.975 49.3379 37.975 49.4129 38.55C49.5629 40.425 49.5379 41.925 49.3379 43.075C49.2379 43.75 48.3129 44.125 47.7379 43.725ZM49.2379 51.425C48.0129 52.05 47.1629 51 47.6879 49.475C47.8129 49.075 47.8629 48.75 47.8379 48.475L47.7879 47.65C47.7629 46.975 47.6379 46.925 46.6129 46.75C46.1879 46.7 45.3629 46.825 44.1129 47.125C42.4379 47.5 41.0129 47.6 39.8379 47.4C39.3129 47.325 38.8379 47.275 38.4129 47.275C37.2129 47.275 36.8629 46.825 37.2629 45.75C37.3879 45.425 37.5379 45.2 37.7129 45.075C38.1129 44.8 39.0129 44.775 40.5629 44.8C41.6129 44.8 42.2629 44.8 42.5129 44.775C42.7379 44.75 43.0129 44.7 43.3129 44.625C43.7379 44.5 44.2379 44.4 44.8129 44.275C45.9129 44.05 46.4379 44.05 47.2379 44.325C47.5879 44.45 47.9129 44.55 48.2129 44.625C49.8879 45 50.7379 46.825 50.2629 49.1C50.0629 50.05 49.9129 50.625 49.8129 50.85C49.7129 51.075 49.5129 51.275 49.2379 51.425ZM35.1629 39.825C35.3129 39.875 35.7879 39.825 36.5879 39.7C37.7879 39.5 38.7879 39.375 39.5879 39.35C39.6129 39.35 39.6629 39.35 39.7379 39.325C40.7129 39.3 40.7129 39.3 40.6129 38.025C40.5879 37.925 40.5879 37.85 40.5879 37.8C40.5129 36.925 40.4879 36.4 40.4879 36.175C40.4629 35.85 40.4379 35.65 40.3879 35.575C40.3129 35.5 40.0879 35.425 40.0629 35.45C40.0379 35.475 39.7379 35.525 39.1629 35.625C37.8379 35.825 36.1129 36.3 35.3879 36.7C35.1629 36.8 34.9879 36.85 34.8629 36.875C34.7379 36.9 34.6879 37.05 34.6879 37.325C34.6629 37.6 34.7129 37.95 34.8129 38.375C34.8879 38.625 34.9129 38.875 34.9129 39.125C34.9129 39.55 34.9879 39.775 35.1629 39.825ZM70.0598 51.225C67.9848 51.65 67.7598 51.625 65.9598 51.05C64.8848 50.7 63.6098 50.675 62.1598 51C60.7348 51.275 57.5098 51.025 56.6598 50.525C56.4848 50.4 56.1848 50.25 55.6848 50.025C53.9098 49.2 53.5848 48.125 54.7598 46.825C55.5598 45.875 56.7348 45.625 57.2348 45.875C57.9598 46.225 59.5598 46.725 62.4598 45.95C63.0098 45.8 65.1598 45.6 66.3598 45.6C66.7348 45.6 66.9848 45.5 67.0598 45.475C67.1348 45.45 67.1848 45.4 67.2098 45.3C67.3098 45.05 67.3598 44.85 67.3348 44.675C67.3098 44.5 67.2598 44.4 67.1348 44.375C66.3848 44.25 65.6348 44.275 64.9098 44.425C63.9098 44.65 63.0598 44.8 62.3848 44.875C61.3598 45 60.5598 45.15 59.9848 45.325C59.4598 45.475 59.0348 45.425 58.6598 45.2C57.9348 44.75 57.9598 43.8 58.8848 43.3C59.1848 43.15 61.0598 42.85 62.1598 42.775C62.3598 42.75 62.5348 42.75 62.7348 42.7L63.3848 42.55C63.7598 42.425 64.1848 42.35 64.5848 42.25C65.0848 42.125 65.5848 42.025 66.1098 42C66.6348 41.975 67.1598 42.025 67.6848 42.05L68.7098 42.15C68.9098 42.2 69.1348 42.225 69.3098 42.325C70.2348 42.775 70.4348 43.4 69.9348 44.5C69.7848 44.825 69.6848 45.175 69.6598 45.55C69.5598 46.425 69.2598 46.725 67.6598 47.325C66.1348 47.875 64.9598 47.625 63.3598 47.875C61.2848 48.225 57.7348 48.225 57.6348 48.35C57.5598 48.4 57.5848 48.45 57.6848 48.45C57.7848 48.45 58.9598 49.225 62.6348 48.775C63.7348 48.65 65.1098 48.875 66.7348 49.125C67.7598 49.275 68.8098 49.25 69.8098 49.025C71.2848 48.7 72.1848 48.8 72.5098 49.275C72.8098 49.675 72.7348 50.075 72.3098 50.4C71.9098 50.775 71.1348 51.05 70.0598 51.225ZM64.6098 41.35C64.1348 41.275 63.7848 41.275 63.5598 41.3C63.3348 41.325 62.9848 41.325 62.5348 41.25C61.4098 41.1 60.5848 41.025 60.0598 41.025C59.5348 41.025 58.4098 41.1 56.7098 41.25C55.6348 41.35 55.5098 41.325 54.7848 41.05C54.2098 40.85 54.1348 40.75 54.1348 40.175C54.1348 39.625 54.3098 39.275 54.6348 39.125C54.9598 39 55.7348 38.95 56.9598 38.975C58.0848 39 58.8598 38.975 59.3348 38.9C60.3598 38.775 61.0848 38.775 62.8848 39.15C63.7098 39.3 64.6348 39.275 65.6348 39.075C67.7598 38.65 69.4848 38.35 70.8098 38.125L71.4348 38.05L72.0098 38.125C72.8848 38.25 73.1348 38.55 73.0598 39.275C72.9848 40.125 72.2598 40.475 70.8598 40.35C70.4098 40.3 69.3098 40.525 67.5848 41.025C66.4098 41.35 65.4348 41.45 64.6098 41.35ZM64.8848 35.3C66.1848 35.175 66.2098 35.175 65.8098 34.075C65.4348 33.05 65.5098 33.05 64.1348 32.925C63.5098 32.85 63.0848 32.75 62.8098 32.675C62.2598 32.525 62.2848 32.525 61.7598 32.775C61.1348 33.1 60.3848 33.3 59.5348 33.425L58.7598 33.575C58.6848 33.6 58.6348 33.675 58.6348 33.8C58.6348 34.075 58.9348 34.325 59.5348 34.575C60.1348 34.825 60.9098 35 61.8848 35.125C63.8098 35.35 63.9848 35.375 64.8848 35.3ZM63.4098 37.625C61.9598 37.9 60.3348 37.625 58.5348 36.75C56.9098 35.975 55.5848 33.425 56.2848 32.35C56.8598 31.475 57.8598 31 59.3098 30.95C60.4348 30.925 60.5098 30.925 60.9348 30.5C61.5098 29.775 62.5098 29.35 63.3598 29.65C63.6348 29.725 63.9598 30.125 63.9848 30.5H64.0598C64.9848 30.375 65.8598 30.625 66.2848 31.15C66.4098 31.3 66.6098 31.5 66.8848 31.725C67.9098 32.625 68.0598 32.975 68.3348 34.5C68.6348 36.4 68.0348 36.925 65.2348 37.325L63.4098 37.625ZM92.5443 50.775C92.1193 50.65 91.8443 50.325 91.7443 49.825C91.6443 49.35 91.6693 48.55 91.8193 47.45C91.8943 47 91.8943 46.525 91.8443 46.05C91.7943 45.475 91.7693 44.725 91.7443 43.825C91.7443 42.85 91.7193 42.25 91.6693 42C91.6193 41.775 91.6193 41.425 91.6443 40.95V40.85C91.6693 40.475 91.6193 40.25 91.5193 40.225C91.3943 40.2 91.0193 40.25 90.3443 40.425C90.2693 40.45 90.2193 40.45 90.1943 40.45C88.8193 40.775 88.8943 40.725 89.0693 41.725C89.1943 42.325 89.3443 43.475 89.5193 45.15C89.5443 45.625 89.5693 46.25 89.5693 47L89.5943 48.425C89.5943 48.75 89.3943 49.025 88.9693 49.25C87.8693 49.825 87.2943 49.325 87.4943 47.95C87.5443 47.575 87.5443 47.1 87.5193 46.525C87.4693 45.65 87.4693 45 87.5443 44.625C87.7193 43.775 87.6193 43.2 87.2943 42.9C86.1943 41.875 86.1193 40.575 87.0443 39.3C87.2193 39.075 87.3193 38.9 87.3443 38.75C87.5693 37.925 87.6943 37 87.7443 36C87.7943 35.325 87.8443 34.875 87.9193 34.6C87.9943 34.35 88.0193 34.075 88.0193 33.75C87.9943 33.425 87.9943 33.125 87.9943 32.9C87.9943 31.875 88.5943 31.1 89.2693 31.325C90.5943 31.75 90.9193 32.9 90.2943 34.75C89.9693 35.775 89.5943 37.575 89.7693 37.65C89.7943 37.675 90.0443 37.65 90.4693 37.575L91.5443 37.4C92.1193 37.3 92.2693 37.2 92.5443 36.625C93.1693 35.325 93.0193 33.4 92.1943 32.4C91.8943 32.025 91.8693 31.9 91.9943 31.3C92.1193 30.725 92.3693 30.35 92.7443 30.225C93.3693 30 94.3443 30.325 94.6443 30.85C94.8193 31.175 95.3693 32.7 95.4943 33.4C95.6193 33.95 95.6193 34.475 95.4943 34.975L95.2943 35.8C95.2443 36.05 95.1443 36.35 94.9693 36.675C94.8193 37 94.7193 37.35 94.6943 37.725C94.5693 39.3 94.2193 40.375 93.6943 40.975C93.2943 41.4 93.2693 41.775 93.4693 42.6C93.6943 43.375 93.8443 44.15 93.9443 44.925L94.0693 46C94.1443 46.675 94.0193 49.25 93.8943 49.75C93.6443 50.625 93.1943 50.975 92.5443 50.775ZM78.5193 47.125C77.9443 47.275 77.4443 47.05 77.0443 46.45C76.6193 45.85 76.0943 44.55 75.4443 42.55L74.8693 40.925C74.2693 39.4 74.2943 39.65 75.0193 37.25C75.3943 35.975 76.3443 35.625 77.8193 36.175C78.2193 36.325 79.0943 36.425 80.4443 36.5C81.4943 36.55 82.1943 36.525 82.5443 36.425C82.8943 36.325 83.1693 36.075 83.3693 35.675C83.7693 34.85 83.4693 33.85 82.0443 33.825C81.2443 33.825 81.1943 33.8 80.7943 33.6C80.1943 33.3 79.3443 33.325 78.2693 33.675C77.3443 33.975 77.1693 33.9 76.7443 33.275C76.2193 32.45 76.6193 31.25 77.5193 30.95C77.9443 30.825 78.7193 30.875 79.1193 31.075C79.3443 31.175 79.7943 31.225 80.4193 31.2C81.0693 31.2 81.6443 31.225 82.1443 31.3C82.7193 31.375 83.1693 31.4 83.4943 31.4C84.0943 31.425 84.0943 31.45 84.8193 31.875C85.6443 32.4 85.6943 32.45 85.9693 33.25C86.3443 34.375 85.7943 36.975 84.6943 38.15C84.3193 38.55 84.0443 38.675 83.2693 38.85L82.5943 39C82.4193 39.125 81.2443 39.15 80.5443 39.075C79.9193 39 79.2943 38.85 78.6943 38.65C77.4193 38.225 76.9693 38.7 77.3443 39.95L78.3943 43.375C78.7443 44.525 78.7443 44.575 79.7693 44.275C80.2693 44.15 80.7193 44.025 81.1193 43.95C82.9693 43.6 85.5943 44.325 85.4443 45.15C85.3193 45.975 84.2943 46.5 82.7193 46.5C81.8193 46.5 81.4693 46.575 80.7443 46.9C80.0693 47.2 79.8943 47.225 79.3943 47.1C79.0943 47.025 78.7943 47.05 78.5193 47.125ZM103.233 44.425C102.108 44.625 101.508 43.525 101.783 41.75C101.833 41.475 101.883 41.175 101.908 40.85C102.008 40.075 102.583 39.125 102.958 39.125C102.983 39.125 103.183 38.925 103.558 38.5C104.183 37.8 104.608 37.45 105.633 36.95C106.958 36.25 107.083 35.725 106.258 34.6C105.758 33.925 104.483 33.7 102.458 33.975C102.033 34 101.133 34.85 101.133 35.225C101.133 35.625 100.583 36.125 100.083 36.2C99.5584 36.25 99.1584 36 98.8834 35.475C98.4084 34.55 98.9834 33.425 100.558 32.125C101.133 31.7 101.508 31.55 102.508 31.475C103.008 31.45 103.308 31.4 103.383 31.375C103.583 31.3 104.858 31.35 105.283 31.475L106.083 31.675C107.183 31.95 107.633 32.175 107.958 32.675C107.983 32.7 108.058 32.8 108.183 33.025C108.308 33.25 108.433 33.4 108.508 33.525C108.858 34.075 109.083 34.475 109.158 34.75C109.358 35.35 109.258 36.575 108.958 37.175C108.558 38.05 108.008 38.5 106.508 39.275C106.283 39.375 106.083 39.5 105.933 39.625C105.758 39.775 105.433 40.125 104.933 40.65C104.308 41.275 104.208 41.55 104.183 42.85C104.183 43.875 103.908 44.325 103.233 44.425ZM104.458 49.125C103.833 49.9 102.583 49.5 102.283 48.475C101.908 47.075 102.283 46.275 103.383 46.175C105.108 45.975 105.733 47.6 104.458 49.125Z" fill="#3D3D3D"/>
</svg>
