<svg xmlns="http://www.w3.org/2000/svg" width="18" height="20" viewBox="0 0 18 20" fill="none">
  <path d="M5.5 4C5.5 2.067 7.067 0.5 9 0.5C10.933 0.5 12.5 2.067 12.5 4V6.5H5.5V4Z" stroke="#FF6666"/>
  <mask id="path-2-inside-1_1183_6711" fill="white">
    <path fill-rule="evenodd" clip-rule="evenodd" d="M4 6C1.79086 6 0 7.79086 0 10V16C0 18.2091 1.79086 20 4 20H14C16.2091 20 18 18.2091 18 16V10C18 7.79086 16.2091 6 14 6H4ZM10.1668 12.1667C10.1668 12.606 9.92396 12.9887 9.56516 13.1876C9.57713 13.2342 9.5835 13.283 9.5835 13.3333V14.5C9.5835 14.8222 9.32233 15.0833 9.00016 15.0833C8.678 15.0833 8.41683 14.8222 8.41683 14.5V13.3333C8.41683 13.283 8.4232 13.2342 8.43517 13.1876C8.07636 12.9887 7.8335 12.606 7.8335 12.1667C7.8335 11.5223 8.35583 11 9.00016 11C9.6445 11 10.1668 11.5223 10.1668 12.1667Z"/>
  </mask>
  <path fill-rule="evenodd" clip-rule="evenodd" d="M4 6C1.79086 6 0 7.79086 0 10V16C0 18.2091 1.79086 20 4 20H14C16.2091 20 18 18.2091 18 16V10C18 7.79086 16.2091 6 14 6H4ZM10.1668 12.1667C10.1668 12.606 9.92396 12.9887 9.56516 13.1876C9.57713 13.2342 9.5835 13.283 9.5835 13.3333V14.5C9.5835 14.8222 9.32233 15.0833 9.00016 15.0833C8.678 15.0833 8.41683 14.8222 8.41683 14.5V13.3333C8.41683 13.283 8.4232 13.2342 8.43517 13.1876C8.07636 12.9887 7.8335 12.606 7.8335 12.1667C7.8335 11.5223 8.35583 11 9.00016 11C9.6445 11 10.1668 11.5223 10.1668 12.1667Z" fill="#FF6666" fill-opacity="0.2"/>
  <path d="M9.56516 13.1876L9.08017 12.3131C8.68204 12.5339 8.48329 12.9957 8.59665 13.4367L9.56516 13.1876ZM8.43517 13.1876L9.40367 13.4367C9.51704 12.9957 9.31828 12.5339 8.92015 12.3131L8.43517 13.1876ZM1 10C1 8.34315 2.34315 7 4 7V5C1.23858 5 -1 7.23858 -1 10H1ZM1 16V10H-1V16H1ZM4 19C2.34315 19 1 17.6569 1 16H-1C-1 18.7614 1.23858 21 4 21V19ZM14 19H4V21H14V19ZM17 16C17 17.6569 15.6569 19 14 19V21C16.7614 21 19 18.7614 19 16H17ZM17 10V16H19V10H17ZM14 7C15.6569 7 17 8.34315 17 10H19C19 7.23858 16.7614 5 14 5V7ZM4 7H14V5H4V7ZM10.0501 14.0622C10.7139 13.6941 11.1668 12.9839 11.1668 12.1667H9.16683C9.16683 12.2281 9.13402 12.2833 9.08017 12.3131L10.0501 14.0622ZM10.5835 13.3333C10.5835 13.1983 10.5664 13.0659 10.5337 12.9386L8.59665 13.4367C8.58789 13.4026 8.5835 13.3677 8.5835 13.3333H10.5835ZM10.5835 14.5V13.3333H8.5835V14.5H10.5835ZM9.00016 16.0833C9.87461 16.0833 10.5835 15.3745 10.5835 14.5H8.5835C8.5835 14.2699 8.77005 14.0833 9.00016 14.0833V16.0833ZM7.41683 14.5C7.41683 15.3745 8.12571 16.0833 9.00016 16.0833V14.0833C9.23028 14.0833 9.41683 14.2699 9.41683 14.5H7.41683ZM7.41683 13.3333V14.5H9.41683V13.3333H7.41683ZM7.46667 12.9386C7.43396 13.0659 7.41683 13.1983 7.41683 13.3333H9.41683C9.41683 13.3677 9.41244 13.4026 9.40367 13.4367L7.46667 12.9386ZM6.8335 12.1667C6.8335 12.9839 7.28642 13.6941 7.95019 14.0622L8.92015 12.3131C8.86631 12.2833 8.8335 12.2281 8.8335 12.1667H6.8335ZM9.00016 10C7.80355 10 6.8335 10.97 6.8335 12.1667H8.8335C8.8335 12.0746 8.90812 12 9.00016 12V10ZM11.1668 12.1667C11.1668 10.9701 10.1968 10 9.00016 10V12C9.09221 12 9.16683 12.0746 9.16683 12.1667H11.1668Z" fill="#FF6666" mask="url(#path-2-inside-1_1183_6711)"/>
</svg>